<svg width="44" height="44" viewBox="0 0 44 44" fill="none" xmlns="http://www.w3.org/2000/svg">
<g clip-path="url(#clip0_342_1081)">
<path d="M10.9996 18.3979C10.9765 18.9527 11.0677 19.5063 11.2676 20.0243C11.4674 20.5423 11.7717 21.0137 12.1615 21.4091H19.5934C19.6845 21.4091 19.772 21.3729 19.8364 21.3085C19.9009 21.244 19.9371 21.1566 19.9371 21.0654V15.9091L19.8821 15.751L19.394 15.3041C18.4332 14.3745 17.149 13.8544 15.8121 13.8535C14.576 13.8742 13.3901 14.3461 12.4777 15.1804C12.0186 15.5823 11.6496 16.0767 11.3949 16.6312C11.1401 17.1857 11.0054 17.7877 10.9996 18.3979Z" fill="#2B4294"/>
<path d="M28.0223 22.956L29.3286 21.8423C29.8293 21.4389 30.2333 20.9285 30.5108 20.3485C30.7884 19.7685 30.9325 19.1337 30.9325 18.4907C30.9325 17.8478 30.7884 17.2129 30.5108 16.633C30.2333 16.053 29.8293 15.5425 29.3286 15.1392C28.6671 14.5884 27.8954 14.1856 27.0653 13.9579C26.2352 13.7302 25.366 13.6829 24.5161 13.8192C23.4222 13.9566 22.3923 14.4106 21.5529 15.1254L21.3329 15.7235V22.4267C21.3329 22.5178 21.2967 22.6053 21.2323 22.6697C21.1678 22.7342 21.0804 22.7704 20.9892 22.7704H13.3167C13.2417 22.7576 13.1645 22.7705 13.0978 22.807C13.0311 22.8436 12.9787 22.9017 12.9492 22.9719C12.9197 23.042 12.9148 23.1201 12.9354 23.1934C12.9559 23.2667 13.0007 23.3308 13.0623 23.3754L20.2536 29.666L28.0223 22.956Z" fill="#2B4294"/>
<path d="M4.06274 7.85173L6.42774 10.1342C6.54803 10.2494 6.70811 10.3136 6.87462 10.3136C7.04113 10.3136 7.20121 10.2494 7.32149 10.1342L9.68649 7.85173L10.1609 7.39798C10.3443 7.22332 10.4904 7.0132 10.5902 6.78039C10.69 6.54757 10.7415 6.29691 10.7415 6.0436C10.7415 5.7903 10.69 5.53963 10.5902 5.30681C10.4904 5.074 10.3443 4.86389 10.1609 4.68923C9.7791 4.33355 9.27671 4.13578 8.75493 4.13578C8.23315 4.13578 7.73076 4.33355 7.34899 4.68923L6.87462 5.1361L6.40712 4.68235C6.02535 4.32667 5.52296 4.12891 5.00118 4.12891C4.4794 4.12891 3.97701 4.32667 3.59524 4.68235C3.41178 4.85701 3.26572 5.06712 3.16592 5.29994C3.06611 5.53276 3.01465 5.78342 3.01465 6.03673C3.01465 6.29003 3.06611 6.5407 3.16592 6.77351C3.26572 7.00633 3.41178 7.21644 3.59524 7.3911L4.06274 7.85173Z" fill="#2B4294"/>
<path d="M6.87523 36.8637C7.94218 36.8637 8.80711 35.9988 8.80711 34.9319C8.80711 33.8649 7.94218 33 6.87523 33C5.80829 33 4.94336 33.8649 4.94336 34.9319C4.94336 35.9988 5.80829 36.8637 6.87523 36.8637Z" fill="#2B4294"/>
<path d="M37.4756 3.69187L37.125 3.4375L36.7744 3.69187C36.0704 4.19881 35.297 4.6017 34.4781 4.88813L33.6875 5.15625C33.8388 6.62729 34.5236 7.99199 35.6125 8.9925L37.125 10.3125L38.6375 8.9925C39.7264 7.99199 40.4112 6.62729 40.5625 5.15625L39.7719 4.88813C38.953 4.6017 38.1796 4.19881 37.4756 3.69187Z" fill="#2B4294"/>
<path d="M37.751 22.6875C39.2698 22.6875 40.501 21.4563 40.501 19.9375C40.501 18.4187 39.2698 17.1875 37.751 17.1875C36.2322 17.1875 35.001 18.4187 35.001 19.9375C35.001 21.4563 36.2322 22.6875 37.751 22.6875Z" fill="#2B4294"/>
<path d="M40.2188 23.375H35.75C34.8383 23.375 33.964 23.7372 33.3193 24.3818C32.6747 25.0265 32.3125 25.9008 32.3125 26.8125V33.3438C32.3125 33.4349 32.3487 33.5224 32.4132 33.5868C32.4776 33.6513 32.5651 33.6875 32.6562 33.6875H33.6875V28.875H34.375V33.6875V42.9619C34.3768 43.0525 34.4135 43.1389 34.4776 43.203C34.5417 43.2671 34.6281 43.3039 34.7188 43.3056H37.4688V35.0625H38.1562V43.3125H40.9062C40.9974 43.3125 41.0849 43.2763 41.1493 43.2118C41.2138 43.1474 41.25 43.0599 41.25 42.9688V28.875H41.9375V33.6875H42.9688C43.0599 33.6875 43.1474 33.6513 43.2118 33.5868C43.2763 33.5224 43.3125 33.4349 43.3125 33.3438V26.4688C43.3134 26.0622 43.234 25.6595 43.0788 25.2838C42.9237 24.908 42.6958 24.5666 42.4084 24.2791C42.1209 23.9917 41.7795 23.7638 41.4037 23.6087C41.028 23.4535 40.6253 23.3741 40.2188 23.375Z" fill="#2B4294"/>
<path d="M6.875 43.3125C8.09877 43.3125 9.29506 42.9496 10.3126 42.2697C11.3301 41.5898 12.1232 40.6235 12.5915 39.4929C13.0598 38.3622 13.1824 37.1181 12.9436 35.9179C12.7049 34.7176 12.1156 33.6151 11.2502 32.7498C10.3849 31.8844 9.28238 31.2951 8.08212 31.0564C6.88186 30.8176 5.63776 30.9402 4.50715 31.4085C3.37653 31.8768 2.41017 32.6699 1.73028 33.6874C1.05039 34.7049 0.6875 35.9012 0.6875 37.125C0.6875 38.766 1.3394 40.3398 2.49978 41.5002C3.66016 42.6606 5.23397 43.3125 6.875 43.3125ZM6.875 32.3125C7.86067 32.3145 8.82196 32.6191 9.6289 33.1851C10.4358 33.7511 11.0495 34.5513 11.387 35.4774C11.7244 36.4035 11.7694 37.4109 11.5157 38.3634C11.2621 39.3159 10.7221 40.1675 9.96875 40.8031V39.1875C9.96875 38.7772 9.80578 38.3838 9.51568 38.0937C9.22558 37.8036 8.83213 37.6406 8.42188 37.6406H5.32812C4.91787 37.6406 4.52441 37.8036 4.23432 38.0937C3.94422 38.3838 3.78125 38.7772 3.78125 39.1875V40.8031C3.02791 40.1675 2.48792 39.3159 2.23428 38.3634C1.98064 37.4109 2.02558 36.4035 2.36303 35.4774C2.70047 34.5513 3.31416 33.7511 4.1211 33.1851C4.92804 32.6191 5.88933 32.3145 6.875 32.3125Z" fill="#2B4294"/>
<path d="M4.62692 14.0938C3.39368 16.7911 2.75365 19.7216 2.75004 22.6875C2.74484 25.2196 3.21112 27.7305 4.12504 30.0919C4.55137 29.919 4.99343 29.7877 5.44504 29.7C4.56617 27.4668 4.11828 25.0874 4.12504 22.6875C4.12739 19.8135 4.77094 16.9763 6.00879 14.3825C5.53977 14.3321 5.07689 14.2353 4.62692 14.0938Z" fill="#2B4294"/>
<path d="M6.875 13.0625C8.09877 13.0625 9.29506 12.6996 10.3126 12.0197C11.3301 11.3398 12.1232 10.3735 12.5915 9.24286C13.0598 8.11224 13.1824 6.86814 12.9436 5.66788C12.7049 4.46762 12.1156 3.36512 11.2502 2.49978C10.3849 1.63444 9.28238 1.04514 8.08212 0.806394C6.88186 0.567648 5.63776 0.690181 4.50715 1.1585C3.37653 1.62682 2.41017 2.41988 1.73028 3.43741C1.05039 4.45494 0.6875 5.65123 0.6875 6.875C0.6875 8.51603 1.3394 10.0898 2.49978 11.2502C3.66016 12.4106 5.23397 13.0625 6.875 13.0625ZM6.875 2.0625C7.82682 2.0625 8.75727 2.34475 9.54868 2.87356C10.3401 3.40236 10.9569 4.15397 11.3212 5.03334C11.6854 5.91271 11.7807 6.88034 11.595 7.81387C11.4093 8.74741 10.951 9.60491 10.278 10.278C9.60491 10.951 8.74741 11.4093 7.81387 11.595C6.88034 11.7807 5.91271 11.6854 5.03334 11.3212C4.15397 10.9569 3.40236 10.3401 2.87355 9.54868C2.34475 8.75727 2.0625 7.82683 2.0625 6.875C2.0625 5.59865 2.56953 4.37457 3.47205 3.47205C4.37457 2.56953 5.59865 2.0625 6.875 2.0625Z" fill="#2B4294"/>
<path d="M29.9196 4.58577C30.0597 4.14655 30.2392 3.72087 30.4559 3.3139C27.789 2.34127 24.9501 1.92962 22.1169 2.1047C19.2836 2.27978 16.517 3.03783 13.9902 4.3314C14.1511 4.77692 14.2662 5.23762 14.334 5.7064C16.7083 4.43796 19.3227 3.68272 22.0077 3.48967C24.6927 3.29661 27.3882 3.67006 29.9196 4.58577Z" fill="#2B4294"/>
<path d="M37.125 0.6875C35.9012 0.6875 34.7049 1.05039 33.6874 1.73028C32.6699 2.41017 31.8768 3.37653 31.4085 4.50715C30.9402 5.63776 30.8176 6.88186 31.0564 8.08212C31.2951 9.28238 31.8844 10.3849 32.7498 11.2502C33.6151 12.1156 34.7176 12.7049 35.9179 12.9436C37.1181 13.1824 38.3622 13.0598 39.4929 12.5915C40.6235 12.1232 41.5898 11.3301 42.2697 10.3126C42.9496 9.29506 43.3125 8.09877 43.3125 6.875C43.3125 5.23397 42.6606 3.66016 41.5002 2.49978C40.3398 1.3394 38.766 0.6875 37.125 0.6875ZM37.125 11.6875C36.1732 11.6875 35.2427 11.4053 34.4513 10.8764C33.6599 10.3476 33.0431 9.59603 32.6788 8.71666C32.3146 7.8373 32.2193 6.86966 32.405 5.93613C32.5907 5.00259 33.049 4.14509 33.7221 3.47205C34.3951 2.79901 35.2526 2.34066 36.1861 2.15497C37.1197 1.96928 38.0873 2.06458 38.9667 2.42883C39.846 2.79308 40.5976 3.40991 41.1264 4.20132C41.6553 4.99273 41.9375 5.92318 41.9375 6.875C41.9375 8.15135 41.4305 9.37543 40.528 10.278C39.6254 11.1805 38.4014 11.6875 37.125 11.6875Z" fill="#2B4294"/>
</g>
<defs>
<clipPath id="clip0_342_1081">
<rect width="44" height="44" fill="white"/>
</clipPath>
</defs>
</svg>
