<svg width="44" height="44" viewBox="0 0 44 44" fill="none" xmlns="http://www.w3.org/2000/svg">
<path d="M17.683 36.5274L12.4857 33.0556C12.3812 32.9879 12.2606 32.949 12.1363 32.943C12.0119 32.937 11.8881 32.9639 11.7776 33.0212C11.2481 33.2618 11.4586 34.1953 11.4201 34.6437C9.72932 34.4954 8.12949 33.8134 6.85171 32.6962C5.57393 31.5791 4.68438 30.0847 4.31157 28.4289C4.64119 26.959 5.38005 25.6123 6.44274 24.5446C6.56903 24.4145 6.63909 24.2399 6.63781 24.0585C6.63652 23.8772 6.56399 23.7036 6.43587 23.5753C6.37224 23.5112 6.29647 23.4605 6.213 23.4261C6.12952 23.3918 6.04003 23.3744 5.94976 23.375C5.85948 23.3757 5.77025 23.3943 5.68727 23.4299C5.6043 23.4654 5.52925 23.5172 5.46654 23.5821C4.2063 24.8507 3.33645 26.4543 2.9602 28.2024C2.58396 29.9506 2.71711 31.7699 3.34386 33.4447C3.97062 35.1194 5.06466 36.5792 6.49617 37.6508C7.92768 38.7224 9.63657 39.3609 11.42 39.4904C11.4679 39.9758 11.2302 40.9155 11.7776 41.1679C11.8876 41.2271 12.0116 41.2553 12.1364 41.2492C12.2612 41.2432 12.382 41.2031 12.4857 41.1335L17.683 37.6686C17.7772 37.606 17.8547 37.5212 17.9086 37.4218C17.9626 37.3223 17.9913 37.2111 17.9924 37.098C17.9929 36.9846 17.9649 36.8728 17.9108 36.7731C17.8567 36.6733 17.7784 36.5888 17.683 36.5274Z" fill="#2B4294"/>
<path d="M32.5799 4.51167V3.43917C32.5794 3.31532 32.5454 3.1939 32.4816 3.08777C32.4177 2.98163 32.3264 2.89473 32.2172 2.83626C32.108 2.77779 31.985 2.74992 31.8613 2.75561C31.7376 2.76129 31.6177 2.80031 31.5143 2.86855L26.317 6.33349C26.2231 6.39614 26.1461 6.481 26.0928 6.58054C26.0396 6.68008 26.0117 6.79122 26.0117 6.90411C26.0117 7.017 26.0396 7.12814 26.0928 7.22769C26.1461 7.32723 26.2231 7.41209 26.317 7.47474L31.5143 10.9465C31.6188 11.0142 31.7394 11.0531 31.8637 11.0591C31.9881 11.0651 32.1118 11.0381 32.2224 10.9808C32.7521 10.7389 32.5412 9.80896 32.5799 9.35843C34.2707 9.50676 35.8705 10.1888 37.1483 11.3059C38.426 12.423 39.3156 13.9174 39.6884 15.5732C39.3588 17.0431 38.6199 18.3898 37.5573 19.4575C37.4652 19.5549 37.4033 19.677 37.3792 19.8088C37.3551 19.9407 37.3697 20.0768 37.4214 20.2005C37.4731 20.3242 37.5595 20.4303 37.6703 20.5059C37.781 20.5814 37.9113 20.6232 38.0454 20.6262C38.1365 20.6268 38.2267 20.6088 38.3106 20.5733C38.3945 20.5378 38.4703 20.4857 38.5334 20.42C39.7937 19.1514 40.6635 17.5478 41.0398 15.7997C41.416 14.0515 41.2829 12.2321 40.6561 10.5574C40.0294 8.88265 38.9353 7.42286 37.5038 6.35125C36.0723 5.27964 34.3634 4.6412 32.5799 4.51167Z" fill="#2B4294"/>
<path d="M22.0004 8.93848C19.5086 8.94075 17.1196 9.93161 15.3576 11.6935C13.5957 13.4555 12.6048 15.8445 12.6025 18.3363C12.6025 23.2999 21.0723 35.6196 21.4366 36.142C21.4997 36.2332 21.5839 36.3078 21.6821 36.3593C21.7803 36.4108 21.8895 36.4377 22.0004 36.4377C22.1113 36.4377 22.2205 36.4108 22.3187 36.3593C22.4169 36.3078 22.5011 36.2332 22.5641 36.142C22.9285 35.6195 31.3982 23.2999 31.3982 18.3363C31.396 15.8445 30.4051 13.4555 28.6432 11.6935C26.8812 9.9316 24.4921 8.94074 22.0004 8.93848ZM22.0004 23.1487C21.0486 23.1487 20.1182 22.8664 19.3268 22.3376C18.5354 21.8089 17.9186 21.0573 17.5543 20.1779C17.1901 19.2986 17.0948 18.331 17.2805 17.3975C17.4662 16.464 17.9245 15.6065 18.5975 14.9335C19.2705 14.2604 20.128 13.8021 21.0615 13.6164C21.995 13.4307 22.9626 13.526 23.842 13.8903C24.7213 14.2545 25.4729 14.8713 26.0017 15.6627C26.5305 16.4541 26.8127 17.3845 26.8127 18.3363C26.8113 19.6122 26.3039 20.8354 25.4017 21.7376C24.4995 22.6398 23.2763 23.1473 22.0004 23.1487Z" fill="#2B4294"/>
</svg>
