<svg width="44" height="44" viewBox="0 0 44 44" fill="none" xmlns="http://www.w3.org/2000/svg">
<path d="M30.9842 30.5593C30.7118 30.9853 30.2828 31.287 29.7899 31.3995C29.2969 31.5119 28.7795 31.426 28.3494 31.1602L21.5543 26.8767L14.7591 31.1602C14.4552 31.3502 14.1044 31.4516 13.746 31.453C13.602 31.4535 13.4585 31.4367 13.3184 31.4029C13.0731 31.3492 12.8411 31.2469 12.636 31.102C12.4309 30.9571 12.2569 30.7726 12.1243 30.5593C11.8574 30.1288 11.7708 29.6105 11.8832 29.1166C11.9957 28.6228 12.2982 28.1931 12.7252 27.9206L20.5373 23.0246C20.8425 22.8348 21.1948 22.7342 21.5543 22.7342C21.9137 22.7342 22.266 22.8348 22.5712 23.0246L30.3833 27.9206C30.8103 28.1931 31.1128 28.6228 31.2253 29.1166C31.3377 29.6105 31.2511 30.1288 30.9842 30.5593ZM19.7438 40.8676H23.3647V34.007H19.7438V40.8676ZM27.7369 32.1387L21.5543 28.2558L15.3909 32.1387C15.1208 32.3136 14.8242 32.4437 14.5126 32.5239V40.3051C14.5126 40.4584 14.5735 40.6054 14.6818 40.7137C14.7902 40.8221 14.9372 40.883 15.0904 40.883H18.5881V33.4253C18.5881 33.272 18.649 33.1251 18.7574 33.0167C18.8657 32.9083 19.0127 32.8475 19.1659 32.8475H23.9426C24.0958 32.8475 24.2428 32.9083 24.3511 33.0167C24.4595 33.1251 24.5204 33.272 24.5204 33.4253V40.8637H28.0335C28.1867 40.8637 28.3337 40.8028 28.4421 40.6945C28.5504 40.5861 28.6113 40.4391 28.6113 40.2859V32.5085C28.3016 32.4338 28.0062 32.3089 27.7369 32.1387ZM16.9818 21.3066H14.2853C14.0776 21.3091 13.8715 21.2705 13.6789 21.1929C13.4862 21.1153 13.3108 21.0002 13.1629 20.8544C13.015 20.7087 12.8974 20.535 12.817 20.3435C12.7366 20.152 12.6949 19.9464 12.6944 19.7387V11.5877C12.6954 11.1715 12.8615 10.7728 13.1561 10.4788C13.4507 10.1849 13.8499 10.0199 14.2661 10.0199H16.9317C16.5919 10.9623 16.4401 11.9621 16.4849 12.9629V19.7542C16.4846 20.3108 16.6584 20.8536 16.9818 21.3066ZM25.9572 18.6602L25.938 17.5045L30.4873 17.439L30.6683 15.8135L25.9572 15.8828L25.938 14.7272L30.7993 14.6578L30.9804 13.0322L25.9726 13.1054L25.9534 11.9498L31.1267 11.8727L31.1845 11.3989C31.1845 11.3758 31.1845 11.3566 31.1845 11.3335C31.1835 10.7647 30.9571 10.2196 30.555 9.81739C30.1528 9.41523 29.6076 9.18885 29.0389 9.18783H25.0212C25.5604 8.19399 26.0458 7.01139 26.0458 5.96361C26.0458 3.60613 24.7014 2.30411 23.7345 2.13462C23.2928 2.04123 22.8322 2.11733 22.444 2.34782C22.0558 2.57831 21.7684 2.94634 21.639 3.37885C21.5195 3.88445 21.509 4.40972 21.6082 4.91969C21.6423 5.12978 21.6578 5.34248 21.6544 5.55529C21.4038 5.96856 21.0979 6.3457 20.7453 6.67625C20.2522 7.20399 19.6282 7.87041 18.9156 8.7718C18.0206 9.95953 17.5707 11.4236 17.6444 12.909V19.7542C17.6444 20.1628 17.8067 20.5547 18.0957 20.8437C18.3846 21.1327 18.7765 21.295 19.1852 21.295H28.5266C28.9746 21.2951 29.4049 21.1198 29.7253 20.8066C30.0457 20.4934 30.2307 20.0673 30.2408 19.6193L30.3563 18.5831L25.9572 18.6602ZM12.1127 26.9422L18.3416 23.0246V22.4622H14.2815C13.9223 22.4642 13.5664 22.3953 13.2339 22.2594C12.9015 22.1235 12.5992 21.9233 12.3444 21.6702C12.0895 21.4172 11.8872 21.1163 11.7489 20.7848C11.6107 20.4534 11.5393 20.0979 11.5388 19.7387V18.3019L11.4887 18.2711L5.56801 21.9999C5.2919 22.1766 4.9887 22.3067 4.67046 22.3851V38.7605C4.67046 39.3224 4.89368 39.8612 5.29101 40.2586C5.68833 40.6559 6.22722 40.8791 6.78912 40.8791H13.4648C13.3992 40.6934 13.3641 40.4983 13.3608 40.3013V32.5971C13.2645 32.5971 13.1721 32.5663 13.0796 32.547C12.4923 32.4062 11.9592 32.0959 11.5467 31.6547C11.1343 31.2135 10.8605 30.6608 10.7596 30.0653C10.6586 29.4698 10.7349 28.8578 10.9789 28.3053C11.2229 27.7527 11.6239 27.2841 12.132 26.9576L12.1127 26.9422ZM11.5041 16.9074L11.5542 16.9383V12.8435C11.1871 12.8305 10.8246 12.9285 10.5141 13.1247L2.96783 17.8628C2.54896 18.1258 2.25175 18.5445 2.14158 19.0267C2.03141 19.509 2.11731 20.0152 2.38039 20.4341C2.64346 20.8529 3.06215 21.1501 3.54436 21.2603C4.02657 21.3705 4.5328 21.2846 4.95167 21.0215L11.5041 16.9074ZM31.6044 18.2711L31.5505 18.3019L31.3925 19.7156C31.358 20.4536 31.0413 21.15 30.508 21.6612C29.9746 22.1723 29.2653 22.459 28.5266 22.4622H24.7669V23.0246L30.9958 26.9422C31.5231 27.2824 31.934 27.7754 32.1736 28.3554C32.4131 28.9354 32.4699 29.5748 32.3363 30.1879C32.2027 30.801 31.8851 31.3588 31.4259 31.7866C30.9668 32.2143 30.388 32.4917 29.7669 32.5817V40.2859C29.7637 40.4828 29.7286 40.678 29.6629 40.8637H36.3194C36.8813 40.8637 37.4202 40.6405 37.8175 40.2432C38.2148 39.8458 38.438 39.3069 38.438 38.745V22.3736C38.1201 22.2944 37.817 22.1643 37.5405 21.9884L31.6044 18.2711ZM40.1407 17.8628L32.5944 13.1247C32.458 13.0378 32.3102 12.9704 32.1553 12.9244L31.7007 16.9691L38.1568 21.0215C38.5757 21.2846 39.0819 21.3705 39.5641 21.2603C40.0464 21.1501 40.465 20.8529 40.7281 20.4341C40.9912 20.0152 41.0771 19.509 40.9669 19.0267C40.8568 18.5445 40.5595 18.1258 40.1407 17.8628Z" fill="#2B4294"/>
</svg>
