<svg width="44" height="44" viewBox="0 0 44 44" fill="none" xmlns="http://www.w3.org/2000/svg">
<path fill-rule="evenodd" clip-rule="evenodd" d="M33.917 3.66699H10.0653C8.36949 3.66699 6.73783 4.34533 5.53699 5.53699C4.33616 6.73783 3.66699 8.36949 3.66699 10.0653V29.3337H10.9912C12.5128 29.3337 13.7503 30.5712 13.7503 32.0928V40.3337H29.3245C31.3503 40.3337 33.0003 38.6928 33.0003 36.6578V30.0945C32.7437 30.1495 32.4778 30.1953 32.212 30.232C32.1295 30.2412 32.047 30.2412 31.9553 30.232C26.9503 29.5353 24.4478 25.6487 24.7778 18.2787C24.7962 17.8295 25.1445 17.4537 25.6028 17.4078C27.2987 17.2337 28.0962 16.482 29.627 14.9237C29.8012 14.7495 30.0303 14.6487 30.2778 14.6487H33.0003V12.8153H33.0553C33.0187 12.6503 33.0003 12.4853 33.0003 12.3112V6.41699C33.0003 5.41783 33.3212 4.45533 33.917 3.66699ZM3.66699 31.167C3.69449 32.0103 4.01533 32.8262 4.57449 33.4678C5.75699 34.8245 8.20449 37.6203 9.48783 39.0778C10.1112 39.7928 10.982 40.2328 11.917 40.3153V32.0928C11.917 31.5795 11.5045 31.167 10.9912 31.167H3.66699ZM16.0603 36.5295C17.1512 35.8603 18.0312 35.1087 18.6912 34.2928C18.6362 34.6687 18.5445 35.0353 18.3978 35.4112C18.2787 35.7228 18.3337 36.0712 18.5445 36.3278C18.7553 36.5845 19.0945 36.7037 19.4245 36.6395C20.332 36.4653 21.1662 36.1812 21.8353 35.622L22.1012 36.1537C22.3212 36.5937 22.8437 36.777 23.2928 36.5845C23.852 36.337 24.3012 36.0528 24.6495 35.7412L24.8603 36.1537C25.0162 36.4653 25.337 36.6578 25.6762 36.6578H28.4262C28.9303 36.6578 29.3428 36.2453 29.3428 35.7412C29.3428 35.237 28.9303 34.8245 28.4262 34.8245H26.2445L25.5845 33.4953C25.4103 33.1562 25.0528 32.9545 24.677 32.9912C24.3012 33.0278 23.9803 33.2937 23.8795 33.6603C23.797 33.9628 23.6137 34.2195 23.3203 34.4578L22.8345 33.4862C22.6787 33.1745 22.3578 32.9728 22.0003 32.982C21.652 32.982 21.3312 33.1928 21.1845 33.5137C21.0287 33.8528 20.8087 34.1095 20.5612 34.2928C20.6895 33.147 20.5153 32.0103 20.1395 30.8645C20.0112 30.4703 19.6353 30.2137 19.232 30.232C18.8195 30.2503 18.4712 30.5345 18.3795 30.9378C18.0037 32.5237 16.922 33.8528 15.1253 34.9528C14.6945 35.2187 14.557 35.7778 14.8228 36.2178C15.0887 36.6487 15.6478 36.7862 16.0878 36.5203L16.0603 36.5295ZM32.0837 28.3987C28.2153 27.7937 26.492 24.6587 26.5928 19.122C28.1512 18.8012 29.1503 18.022 30.6628 16.5003H33.532C35.0537 18.022 36.0528 18.8012 37.6112 19.122C37.712 24.6678 35.952 27.8028 32.0837 28.3987ZM9.16699 27.4912H12.8337C13.3378 27.4912 13.7503 27.0787 13.7503 26.5745C13.7503 26.0703 13.3378 25.6578 12.8337 25.6578H9.16699C8.66283 25.6578 8.25033 26.0703 8.25033 26.5745C8.25033 27.0787 8.66283 27.4912 9.16699 27.4912ZM15.5837 27.4912H22.0003C22.5045 27.4912 22.917 27.0787 22.917 26.5745C22.917 26.0703 22.5045 25.6578 22.0003 25.6578H15.5837C15.0795 25.6578 14.667 26.0703 14.667 26.5745C14.667 27.0787 15.0795 27.4912 15.5837 27.4912ZM29.5995 23.5587L31.4328 25.392C31.6345 25.5937 31.9095 25.6853 32.1937 25.6487C32.4778 25.612 32.7253 25.4562 32.872 25.2087L35.622 20.6253C35.8787 20.1945 35.7412 19.6262 35.3103 19.3695C34.8795 19.1128 34.3112 19.2503 34.0545 19.6812L31.9095 23.2562L30.9103 22.2478C30.5528 21.8903 29.9753 21.8903 29.6087 22.2478C29.2512 22.6053 29.2512 23.1828 29.6087 23.5495L29.5995 23.5587ZM9.16699 22.9078H22.0003C22.5045 22.9078 22.917 22.4953 22.917 21.9912C22.917 21.487 22.5045 21.0745 22.0003 21.0745H9.16699C8.66283 21.0745 8.25033 21.487 8.25033 21.9912C8.25033 22.4953 8.66283 22.9078 9.16699 22.9078ZM15.5837 7.33366C15.0795 7.33366 14.667 7.74616 14.667 8.25033V10.0837H12.8337C12.3295 10.0837 11.917 10.4962 11.917 11.0003V14.667C11.917 15.1712 12.3295 15.5837 12.8337 15.5837H14.667V17.417C14.667 17.9212 15.0795 18.3337 15.5837 18.3337H19.2503C19.7545 18.3337 20.167 17.9212 20.167 17.417V15.5837H22.0003C22.5045 15.5837 22.917 15.1712 22.917 14.667V11.0003C22.917 10.4962 22.5045 10.0837 22.0003 10.0837H20.167V8.25033C20.167 7.74616 19.7545 7.33366 19.2503 7.33366H15.5837ZM16.5003 9.16699H18.3337V11.0003C18.3337 11.5045 18.7462 11.917 19.2503 11.917H21.0837V13.7503H19.2503C18.7462 13.7503 18.3337 14.1628 18.3337 14.667V16.5003H16.5003V14.667C16.5003 14.1628 16.0878 13.7503 15.5837 13.7503H13.7503V11.917H15.5837C16.0878 11.917 16.5003 11.5045 16.5003 11.0003V9.16699ZM40.3337 6.41699V12.3295C40.3337 12.4578 40.2787 12.5862 40.187 12.687C40.0953 12.7787 39.967 12.8337 39.8295 12.8337H35.3287C35.2003 12.8337 35.072 12.7787 34.9712 12.687C34.8795 12.5953 34.8245 12.467 34.8245 12.3295V6.41699C34.8245 5.68366 35.1178 4.98699 35.6312 4.47366C36.1445 3.96033 36.8503 3.66699 37.5745 3.66699C38.2987 3.66699 39.0045 3.96033 39.5178 4.47366C40.0312 4.98699 40.3245 5.69283 40.3245 6.41699H40.3337Z" fill="#2B4294"/>
</svg>
