<svg width="44" height="44" viewBox="0 0 44 44" fill="none" xmlns="http://www.w3.org/2000/svg">
<path fill-rule="evenodd" clip-rule="evenodd" d="M42.6169 5.00902C42.6169 6.19555 41.655 7.1576 40.4684 7.1576H3.94258C2.75596 7.1576 1.794 6.19555 1.794 5.00902C1.794 3.8224 2.75596 2.86035 3.94258 2.86035H40.4684C41.655 2.86035 42.6169 3.8224 42.6169 5.00902ZM22.378 31.894H21.5203L24.8918 28.5224C25.3576 28.8549 25.9598 28.9512 26.5142 28.7675C27.1646 28.552 27.6377 27.9882 27.737 27.3104L28.1839 24.2602C28.7954 24.1438 29.4705 24.0169 30.2204 23.8798C30.5483 23.8198 30.7865 23.5341 30.7865 23.2008V17.1659L33.2091 16.5218V21.431L32.1726 22.0312C31.9595 22.1545 31.8283 22.3822 31.8283 22.6284V26.8416C31.8283 27.1031 31.9762 27.3423 32.2103 27.4591C32.4443 27.5759 32.7244 27.5504 32.9334 27.3932L33.8993 26.6667C33.8993 26.6667 34.8652 27.3932 34.8652 27.3932C35.0742 27.5504 35.3543 27.5759 35.5883 27.4591C35.8224 27.3423 35.9703 27.1031 35.9703 26.8416V22.6284C35.9703 22.3822 35.839 22.1545 35.6259 22.0312L34.5895 21.431V15.6241C34.5894 15.3112 34.3789 15.0375 34.0765 14.9572L22.0566 11.7648C21.9405 11.734 21.8184 11.734 21.7023 11.7648L9.68243 14.9572C9.37995 15.0375 9.16944 15.3112 9.16935 15.6241C9.16935 15.9371 9.37986 16.2109 9.68225 16.2912L12.9724 17.1659V23.2008C12.9724 23.5341 13.2106 23.8198 13.5385 23.8798C16.3279 24.39 18.0823 24.7573 19.3817 24.9816L16.5381 27.8251L12.6957 23.9828C11.9882 23.2752 10.8411 23.2752 10.1336 23.9828L4.61302 29.5033C4.60474 29.4179 4.60051 29.3314 4.60051 29.2439V8.53799H39.8104V29.2439C39.8104 30.7074 38.624 31.8939 37.1603 31.894H23.7584V35.5467C24.9921 35.8553 25.907 36.9721 25.907 38.3008C25.907 39.8676 24.635 41.1397 23.0682 41.1397C21.5014 41.1397 20.2294 39.8676 20.2294 38.3008C20.2294 36.9721 21.1443 35.8553 22.378 35.5467V31.894ZM23.0682 36.8424C22.2632 36.8424 21.6098 37.4959 21.6098 38.3008C21.6098 39.1057 22.2632 39.7593 23.0682 39.7593C23.8731 39.7593 24.5266 39.1057 24.5266 38.3008C24.5266 37.4959 23.8731 36.8424 23.0682 36.8424ZM20.1226 23.6987C18.8784 23.5139 17.2159 23.1563 14.3528 22.6261C14.3528 22.6261 14.3528 19.2044 14.3528 17.5329L21.7021 19.4865C21.8183 19.5174 21.9406 19.5174 22.0568 19.4865L29.4061 17.5329V22.6261C29.0513 22.6918 28.7149 22.7548 28.3955 22.8152L28.4665 22.3312C28.5495 21.7646 28.3598 21.1923 27.955 20.7874C27.5501 20.3826 26.9777 20.1929 26.4112 20.2759L21.4321 21.0054C20.7542 21.1047 20.1903 21.5779 19.9749 22.2282C19.8105 22.724 19.8702 23.2581 20.1226 23.6987ZM29.9317 15.9648C29.923 15.967 29.9144 15.9693 29.9058 15.9717L21.8794 18.1053L13.8531 15.9717C13.8445 15.9693 13.8359 15.967 13.8271 15.9648L12.5473 15.6246L21.8794 13.146L31.2116 15.6246L29.9317 15.9648ZM33.8993 22.6264L34.5899 23.0263V25.4588L34.3141 25.2514C34.0684 25.0666 33.7301 25.0666 33.4844 25.2514L33.2087 25.4588V23.0263L33.8993 22.6264ZM25.1794 26.8927C25.0985 26.8119 24.9887 26.7664 24.8743 26.7664C24.7599 26.7664 24.6502 26.8119 24.5693 26.8928L16.8431 34.6189C16.7622 34.6999 16.6525 34.7453 16.5381 34.7453C16.4237 34.7453 16.314 34.6999 16.2331 34.6189L11.7196 30.1055C11.5512 29.9371 11.2781 29.9371 11.1096 30.1055L4.08347 37.1316C3.91506 37.3001 3.64192 37.3001 3.47342 37.1316L1.51016 35.1683C1.34167 34.9998 1.34167 34.7267 1.51016 34.5583L11.1096 24.9589C11.2781 24.7904 11.5512 24.7904 11.7196 24.9589L16.2331 29.4722C16.4015 29.6407 16.6746 29.6407 16.8431 29.4722L21.996 24.3194C22.0769 24.2385 22.1223 24.1288 22.1223 24.0144C22.1223 23.8999 22.0769 23.7903 21.996 23.7094L21.3896 23.103C21.2744 22.9878 21.2339 22.8172 21.2852 22.6623C21.3365 22.5076 21.4708 22.3949 21.6321 22.3712L26.6113 21.6417C26.7462 21.622 26.8825 21.6672 26.9789 21.7635C27.0753 21.8599 27.1205 21.9962 27.1006 22.1311L26.3712 27.1103C26.3476 27.2716 26.2349 27.4059 26.08 27.4572C25.9252 27.5085 25.7547 27.4681 25.6393 27.3527L25.1794 26.8927Z" fill="#2B4294"/>
</svg>
