<svg width="44" height="44" viewBox="0 0 44 44" fill="none" xmlns="http://www.w3.org/2000/svg">
<path d="M2.20013 23.4668C2.00564 23.4668 1.81911 23.5441 1.68159 23.6816C1.54406 23.8191 1.4668 24.0056 1.4668 24.2001V27.0675C2.36584 26.9138 3.19504 26.4849 3.83998 25.84C4.48492 25.195 4.91381 24.3658 5.06746 23.4668H2.20013Z" fill="#2B4294"/>
<path d="M5.86706 34.4665C6.67707 34.4665 7.33372 33.8099 7.33372 32.9999C7.33372 32.1899 6.67707 31.5332 5.86706 31.5332C5.05704 31.5332 4.40039 32.1899 4.40039 32.9999C4.40039 33.8099 5.05704 34.4665 5.86706 34.4665Z" fill="#2B4294"/>
<path d="M32.2667 38.9326C31.3676 39.0863 30.5384 39.5152 29.8935 40.1601C29.2486 40.805 28.8197 41.6342 28.666 42.5333H31.5333C31.7278 42.5333 31.9144 42.456 32.0519 42.3185C32.1894 42.181 32.2667 41.9944 32.2667 41.8V38.9326Z" fill="#2B4294"/>
<path d="M1.4668 37.4507C2.75734 37.6153 3.95672 38.2037 4.87665 39.1236C5.79659 40.0435 6.385 41.2429 6.54953 42.5335H27.1841C27.3486 41.2429 27.937 40.0435 28.8569 39.1236C29.7769 38.2037 30.9763 37.6153 32.2668 37.4507V28.5495C30.9763 28.385 29.7769 27.7966 28.8569 26.8767C27.937 25.9567 27.3486 24.7573 27.1841 23.4668H6.54953C6.385 24.7573 5.79659 25.9567 4.87665 26.8767C3.95672 27.7966 2.75734 28.385 1.4668 28.5495V37.4507ZM27.8668 30.0668C28.447 30.0668 29.0141 30.2388 29.4965 30.5612C29.9789 30.8835 30.3548 31.3416 30.5768 31.8776C30.7989 32.4136 30.857 33.0034 30.7438 33.5724C30.6306 34.1414 30.3512 34.6641 29.941 35.0743C29.5307 35.4845 29.0081 35.7639 28.4391 35.8771C27.8701 35.9903 27.2803 35.9322 26.7443 35.7102C26.2083 35.4882 25.7501 35.1122 25.4278 34.6298C25.1055 34.1474 24.9335 33.5803 24.9335 33.0001C24.9335 32.2222 25.2425 31.4761 25.7926 30.926C26.3427 30.3758 27.0888 30.0668 27.8668 30.0668ZM16.8668 26.4001C18.1722 26.4001 19.4482 26.7872 20.5336 27.5124C21.6189 28.2376 22.4649 29.2684 22.9644 30.4744C23.4639 31.6804 23.5946 33.0075 23.34 34.2877C23.0853 35.568 22.4567 36.744 21.5337 37.667C20.6107 38.5901 19.4347 39.2187 18.1544 39.4733C16.8741 39.728 15.5471 39.5973 14.3411 39.0977C13.1351 38.5982 12.1043 37.7523 11.3791 36.6669C10.6539 35.5815 10.2668 34.3055 10.2668 33.0001C10.2687 31.2503 10.9647 29.5727 12.202 28.3354C13.4394 27.098 15.117 26.4021 16.8668 26.4001ZM5.8668 30.0668C6.44696 30.0668 7.01409 30.2388 7.49647 30.5612C7.97885 30.8835 8.35483 31.3416 8.57684 31.8776C8.79886 32.4136 8.85695 33.0034 8.74377 33.5724C8.63058 34.1414 8.35121 34.6641 7.94098 35.0743C7.53074 35.4845 7.00807 35.7639 6.43906 35.8771C5.87005 35.9903 5.28026 35.9322 4.74426 35.7102C4.20826 35.4882 3.75014 35.1122 3.42782 34.6298C3.1055 34.1474 2.93346 33.5803 2.93346 33.0001C2.93346 32.2222 3.24251 31.4761 3.79262 30.926C4.34272 30.3758 5.08883 30.0668 5.8668 30.0668Z" fill="#2B4294"/>
<path d="M31.5333 23.4668H28.666C28.8197 24.3658 29.2486 25.195 29.8935 25.84C30.5384 26.4849 31.3676 26.9138 32.2667 27.0675V24.2001C32.2667 24.0056 32.1894 23.8191 32.0519 23.6816C31.9144 23.5441 31.7278 23.4668 31.5333 23.4668Z" fill="#2B4294"/>
<path d="M1.4668 41.8C1.4668 41.9944 1.54406 42.181 1.68159 42.3185C1.81911 42.456 2.00564 42.5333 2.20013 42.5333H5.06746C4.91381 41.6342 4.48492 40.805 3.83998 40.1601C3.19504 39.5152 2.36584 39.0863 1.4668 38.9326V41.8Z" fill="#2B4294"/>
<path d="M16.8667 38.1329C19.7018 38.1329 22.0001 35.8346 22.0001 32.9995C22.0001 30.1645 19.7018 27.8662 16.8667 27.8662C14.0317 27.8662 11.7334 30.1645 11.7334 32.9995C11.7334 35.8346 14.0317 38.1329 16.8667 38.1329Z" fill="#2B4294"/>
<path d="M27.8671 34.4665C28.6771 34.4665 29.3337 33.8099 29.3337 32.9999C29.3337 32.1899 28.6771 31.5332 27.8671 31.5332C27.057 31.5332 26.4004 32.1899 26.4004 32.9999C26.4004 33.8099 27.057 34.4665 27.8671 34.4665Z" fill="#2B4294"/>
<path d="M41.0668 38.1334V16.1334C41.0714 14.6804 40.6414 13.2593 39.832 12.0527C39.0225 10.8461 37.8707 9.90925 36.5245 9.36252L33.7378 8.80372C31.9957 8.80112 30.3096 9.41879 28.9814 10.5461L30.0081 11.6183C30.8642 10.9077 31.905 10.4558 33.0086 10.3155C34.1123 10.1753 35.233 10.3524 36.2396 10.8262C37.2462 11.3 38.0969 12.0509 38.6921 12.9908C39.2872 13.9308 39.6022 15.0209 39.6001 16.1334V38.1334H41.0668Z" fill="#2B4294"/>
<path d="M38.2477 42.533H42.4189C42.4357 42.533 42.4522 42.5293 42.4675 42.5223C42.4827 42.5153 42.4962 42.505 42.5071 42.4923C42.5179 42.4795 42.5259 42.4645 42.5305 42.4484C42.535 42.4322 42.536 42.4153 42.5333 42.3988L42.1087 39.8526C42.0971 39.7816 42.0606 39.717 42.0055 39.6706C41.9505 39.6242 41.8807 39.599 41.8088 39.5996H38.8578C38.7861 39.5994 38.7167 39.6247 38.662 39.6711C38.6073 39.7175 38.5709 39.7818 38.5594 39.8526L38.1333 42.3988C38.1307 42.4152 38.1316 42.432 38.136 42.448C38.1405 42.4641 38.1483 42.479 38.1591 42.4917C38.1698 42.5044 38.1831 42.5147 38.1981 42.5218C38.2132 42.5289 38.2296 42.5327 38.2462 42.533H38.2477Z" fill="#2B4294"/>
<path d="M1.4668 1.4668H13.9335V8.80013H1.4668V1.4668Z" fill="#2B4294"/>
<path d="M26.4004 16.1338V18.3338C26.4004 18.5283 26.4777 18.7148 26.6152 18.8523C26.7527 18.9898 26.9392 19.0671 27.1337 19.0671C27.3282 19.0671 27.5147 18.9898 27.6523 18.8523C27.7898 18.7148 27.8671 18.5283 27.8671 18.3338V16.6266C27.8671 16.6119 27.529 16.4586 27.4806 16.43L26.4195 15.7539C26.4129 15.8808 26.4004 16.0091 26.4004 16.1338Z" fill="#2B4294"/>
<path d="M41.4616 7.71046L30.1631 2.6402C29.5134 2.34978 28.8097 2.19984 28.0981 2.2002H15.4004V8.06686H16.8671C17.0065 8.06725 17.1429 8.1069 17.2609 8.18126L28.2682 15.1919C28.4195 15.2902 28.5916 15.3521 28.7709 15.3728C28.9501 15.3935 29.1318 15.3723 29.3015 15.311C29.4712 15.2497 29.6244 15.1499 29.7491 15.0194C29.8738 14.889 29.9666 14.7314 30.0201 14.5591C30.0689 14.3656 30.0681 14.1629 30.0177 13.9699C29.9674 13.7768 29.8691 13.5996 29.7319 13.4547C29.7202 13.4422 24.5612 8.04046 24.3786 7.85053C24.3698 7.83806 23.6709 7.1062 23.6709 7.1062C23.5367 6.96538 23.464 6.77703 23.4686 6.58257C23.471 6.48628 23.4922 6.39139 23.5312 6.30332C23.5702 6.21524 23.6261 6.13571 23.6959 6.06926C23.7656 6.00281 23.8477 5.95075 23.9376 5.91604C24.0274 5.88133 24.1232 5.86466 24.2195 5.86697C24.414 5.87165 24.5986 5.95338 24.7328 6.0942L25.2153 6.6002H28.9553C29.7449 6.60062 30.5327 6.67427 31.3086 6.8202L41.1389 8.79286C41.2759 8.81667 41.4169 8.78951 41.5352 8.71649C41.6535 8.64348 41.741 8.52968 41.7812 8.39657C41.8213 8.26346 41.8114 8.12025 41.7532 7.99398C41.695 7.86771 41.5926 7.76712 41.4653 7.7112L41.4616 7.71046Z" fill="#2B4294"/>
</svg>
