<svg width="44" height="44" viewBox="0 0 44 44" fill="none" xmlns="http://www.w3.org/2000/svg">
<g clip-path="url(#clip0_342_1117)">
<path d="M24.2003 23.667C24.1336 23.8003 24.0669 23.9337 23.9336 24.0003L25.5336 24.867L24.2003 27.3337H26.0003L27.0003 28.867L28.3336 26.4003L28.8003 26.667C28.9336 26.7337 29.0669 26.667 29.0669 26.6003C29.1336 26.5337 29.0669 26.4003 29.0003 26.3337L24.2003 23.667Z" fill="#2B4294"/>
<path d="M35.6005 23.2674C37.1101 23.2674 38.3339 22.0437 38.3339 20.5341C38.3339 19.0245 37.1101 17.8008 35.6005 17.8008C34.0909 17.8008 32.8672 19.0245 32.8672 20.5341C32.8672 22.0437 34.0909 23.2674 35.6005 23.2674Z" fill="#2B4294"/>
<path d="M5.6672 40.8667C5.4672 41.9334 6.13387 42.9334 7.20054 43.1334C8.20054 43.3334 9.2672 42.6667 9.4672 41.6001L11.2005 32.7334C9.93387 32.6001 8.6672 32.2667 7.40054 31.7334L5.6672 40.8667Z" fill="#2B4294"/>
<path d="M16.6665 32.2002C15.3998 32.6002 14.1331 32.8002 12.7998 32.8002C13.1998 36.0002 14.1998 39.0669 15.9998 42.1335C16.5331 43.0669 17.6665 43.4002 18.6665 42.8669C19.5998 42.3335 19.9331 41.1335 19.3998 40.2002C17.8665 37.6002 16.9998 34.9335 16.6665 32.2002Z" fill="#2B4294"/>
<path d="M12.7333 10.1999C14.6479 10.1999 16.1999 8.64786 16.1999 6.73327C16.1999 4.81868 14.6479 3.2666 12.7333 3.2666C10.8187 3.2666 9.2666 4.81868 9.2666 6.73327C9.2666 8.64786 10.8187 10.1999 12.7333 10.1999Z" fill="#2B4294"/>
<path d="M30.2003 2.86699L28.9337 0.666992L27.667 2.80033C28.0003 2.73366 28.467 2.66699 28.867 2.66699C29.3337 2.66699 29.8003 2.73366 30.2003 2.86699Z" fill="#2B4294"/>
<path d="M27.5332 11.8672L28.9999 14.0672L30.1332 11.8672C29.7332 12.0005 29.3332 12.0672 28.8665 12.0672C28.3999 12.0672 27.9332 12.0005 27.5332 11.8672Z" fill="#2B4294"/>
<path d="M33.0005 5.13366L33.6005 2.66699L31.1338 3.26699C31.9338 3.73366 32.6005 4.33366 33.0005 5.13366Z" fill="#2B4294"/>
<path d="M24.7335 9.60059L24.2002 12.2006L26.5335 11.4673C25.8002 11.0006 25.1335 10.3339 24.7335 9.60059Z" fill="#2B4294"/>
<path d="M33.6004 7.33379C33.6004 7.80046 33.5337 8.26712 33.4004 8.66712L35.6004 7.40046L33.4671 6.13379C33.5337 6.53379 33.6004 6.93379 33.6004 7.33379Z" fill="#2B4294"/>
<path d="M24.2002 7.33333C24.2002 6.86667 24.2669 6.4 24.4002 6L22.2002 7.46667L24.4002 8.6C24.2669 8.2 24.2002 7.8 24.2002 7.33333Z" fill="#2B4294"/>
<path d="M31.1338 11.4673L33.6005 12.0673L33.0005 9.60059C32.5338 10.4673 31.8671 11.0673 31.1338 11.4673Z" fill="#2B4294"/>
<path d="M26.6664 3.20033L24.0664 2.66699L24.7997 5.00033C25.1997 4.26699 25.8664 3.66699 26.6664 3.20033Z" fill="#2B4294"/>
<path d="M25.0665 6.00065C24.9331 6.46732 24.7998 6.93398 24.7998 7.40065C24.7998 8.00065 24.9331 8.60065 25.1998 9.13398V9.20065C25.6665 10.134 26.4665 10.8673 27.4665 11.2007H27.3998H27.5331C27.9331 11.334 28.3998 11.4007 28.8665 11.4007C29.3998 11.4007 29.9331 11.2673 30.3998 11.0673C30.4665 11.0673 30.4665 11.0007 30.5331 11.0007C31.4665 10.6007 32.1331 9.80065 32.5331 8.93398C32.7331 8.46732 32.8665 7.93398 32.8665 7.40065C32.8665 6.86732 32.7331 6.33398 32.5331 5.86732C32.1331 4.86732 31.3331 4.13398 30.3331 3.66732C29.9331 3.46732 29.3998 3.33398 28.8665 3.33398C28.3331 3.33398 27.7998 3.46732 27.3331 3.66732C27.2665 3.66732 27.1998 3.73398 27.1331 3.73398C26.1998 4.20065 25.4665 5.00065 25.0665 6.00065Z" fill="#2B4294"/>
<path d="M17.2667 12.1335C12.4667 9.4668 9.26675 11.8668 8.26675 12.2001C7.20008 12.8001 7.80008 14.5335 3.66675 17.6668C3.46675 16.1335 4.46675 14.5335 4.40008 13.0001C4.33342 11.4668 3.13342 9.93346 3.60008 8.4668C3.53342 8.4668 3.33342 8.4668 3.26675 8.4668C2.80008 10.0001 4.00008 11.5335 4.06675 13.0668C4.13342 14.6001 3.00008 16.2668 3.33342 17.9335C3.06675 18.1335 2.93342 18.2001 2.46675 18.6001C1.93342 19.0668 1.80008 19.8668 2.26675 20.4001C2.73342 21.0001 3.53342 21.0001 4.06675 20.6001C4.40008 20.3335 4.80008 20.0668 5.13342 19.8001C5.93342 19.2668 6.66675 18.6668 7.53342 17.8001C7.73342 17.6001 7.93342 17.3335 8.13342 17.0668V19.2001L6.00008 30.3335C10.1334 32.8001 15.0668 32.9335 19.4668 30.3335L17.2667 19.0668V16.6668C23.0001 25.8001 21.0001 22.6668 21.4668 23.3335C21.8668 23.9335 22.6668 24.1335 23.2668 23.7335C23.8668 23.3335 24.0667 22.5335 23.6667 21.9335C17.5334 12.2668 17.7334 12.4001 17.2667 12.1335Z" fill="#2B4294"/>
<path d="M42.7339 28.867C41.3339 27.3336 39.8672 25.667 39.6006 25.467C37.3339 23.6003 34.8672 23.467 32.4006 24.9336C31.4672 24.267 29.7339 23.0003 29.0672 21.8003C28.8006 21.3336 28.2006 21.2003 27.7339 21.467C27.2672 21.7336 27.1339 22.3336 27.4006 22.8003C28.5339 24.7336 31.2672 26.5336 31.7339 26.8003L32.3339 35.0003C32.3339 35.2003 32.5339 35.3336 32.6672 35.3336H32.8006L31.9339 41.8003C31.8672 42.5336 32.3339 43.2003 33.0672 43.267C33.8006 43.3336 34.4672 42.867 34.5339 42.1336L35.4672 35.3336H35.8006L36.0006 36.9336C36.0006 37.067 36.0672 37.2003 36.1339 37.3336L38.6672 42.5336C39.0006 43.2003 39.7339 43.467 40.4006 43.1336C41.0672 42.8003 41.3339 42.067 41.0006 41.4003L38.5339 36.4003L38.4006 35.3336H38.5339C38.7339 35.3336 38.8672 35.2003 38.8672 35.0003L39.4006 28.067L41.3339 30.1336C41.6672 30.5336 42.3339 30.5336 42.7339 30.2003C43.0672 29.9336 43.1339 29.267 42.7339 28.867Z" fill="#2B4294"/>
<path d="M3.46682 7.73412H3.53349C4.66682 7.80078 6.26682 6.26745 6.40016 4.20078C6.53349 2.40078 5.40016 0.86745 3.86682 0.800783C2.40016 0.66745 1.06682 2.06745 1.00016 3.86745C0.866823 5.53412 1.86682 7.60078 3.46682 7.73412ZM4.13349 1.86745V2.06745C3.33349 1.60078 2.40016 2.20078 2.26682 3.20078H2.06682C2.13349 1.73412 3.33349 1.20078 4.13349 1.86745Z" fill="#2B4294"/>
</g>
<defs>
<clipPath id="clip0_342_1117">
<rect width="44" height="44" fill="white"/>
</clipPath>
</defs>
</svg>
