<svg width="44" height="44" viewBox="0 0 44 44" fill="none" xmlns="http://www.w3.org/2000/svg">
<path d="M41.8437 14.8398L40.5367 5.094L42.6231 4.81445L44 15.099L41.9162 15.3786L41.8463 14.8557L41.8437 14.8398ZM18.8135 9.07772V9.0803L18.8161 9.07772C19.0879 9.36767 19.5642 9.53319 20.1751 9.43754L27.9537 7.96724C28.0546 7.64914 28.2077 7.35002 28.4066 7.08208C28.6814 6.71588 29.0424 6.42331 29.4576 6.23044C29.8827 6.03414 30.3558 5.96579 30.8192 6.03373C31.2501 6.10149 31.657 6.27689 32.0021 6.54368L35.5665 9.22278C35.7001 9.32465 35.788 9.47514 35.8112 9.6415C35.8343 9.80787 35.7908 9.97665 35.6902 10.1111C35.5895 10.2456 35.4398 10.3348 35.2736 10.3595C35.1075 10.3841 34.9383 10.3421 34.803 10.2427L31.2383 7.56342C31.0615 7.42595 30.8534 7.33442 30.6326 7.29701C30.4113 7.26576 30.1858 7.299 29.9829 7.39274C29.7625 7.49613 29.5713 7.65264 29.4264 7.84821C29.2588 8.0713 29.1502 8.33302 29.1106 8.60919C29.0601 8.96137 29.1011 9.32061 29.2296 9.65238C29.3453 9.96245 29.5452 10.2341 29.8069 10.4367L35.0952 14.4127C35.4602 14.6909 35.8944 14.8636 36.3507 14.9123C36.8244 14.9693 37.3318 14.9175 37.865 14.8321L40.4975 14.4024L39.4726 6.73773C39.0246 6.76819 38.5751 6.77163 38.1266 6.74804C37.4639 6.7092 36.8582 6.59275 36.3664 6.35462C30.0762 3.30014 29.6805 3.45285 24.9639 5.28298C23.6541 5.79001 22.0284 6.42191 19.924 7.13631C19.1319 7.40271 18.7203 7.80937 18.5987 8.21053C18.5531 8.35927 18.5486 8.51757 18.5857 8.66866C18.6256 8.8222 18.704 8.963 18.8135 9.07772ZM11.6251 22.3052V28.0388C11.6245 28.566 11.8254 29.0735 12.1869 29.4573C12.3649 29.6488 12.5803 29.8018 12.8197 29.9069C13.0592 30.012 13.3176 30.0669 13.5791 30.0682H25.7684V27.226L24.0264 26.6125C23.7995 26.5335 23.5896 26.4123 23.4077 26.2553C23.0914 26.472 22.7168 26.5876 22.3334 26.5866H19.5797C19.0711 26.5864 18.5833 26.3843 18.2236 26.0246C17.864 25.6649 17.6618 25.1772 17.6616 24.6685V24.5235C15.5547 24.1225 13.5381 23.3509 11.6251 22.3052ZM11.1203 20.1693C10.8922 19.782 10.7732 19.3401 10.776 18.8906V16.4991C10.776 15.8519 10.9908 15.386 11.3455 15.0651C11.7363 14.7104 12.2618 14.5733 12.8365 14.5733H15.2956V13.6279C15.2956 12.6599 16.0566 11.8678 16.9911 11.8678H24.9224C25.1497 11.8689 25.3743 11.9168 25.5823 12.0086C25.7903 12.1003 25.9771 12.2339 26.1312 12.401C26.4447 12.7325 26.6189 13.1717 26.6179 13.6279V14.5733H29.0744C29.6516 14.5733 30.1744 14.7108 30.5654 15.0651C30.9226 15.386 31.1349 15.8519 31.1349 16.4991V18.8882C31.1376 19.3385 31.0187 19.7812 30.7906 20.1695C30.6481 20.4121 30.465 20.6284 30.2492 20.8089L24.2516 22.9185V21.1714C24.2513 20.6627 24.0492 20.175 23.6895 19.8154C23.3299 19.4557 22.8421 19.2535 22.3335 19.2533H19.5797C19.0711 19.2535 18.5834 19.4557 18.2237 19.8153C17.864 20.175 17.6618 20.6627 17.6616 21.1714V23.2189C15.7952 22.8384 13.9323 22.1291 12.0729 21.0912C11.6785 20.8748 11.3495 20.5564 11.1203 20.1693ZM16.5718 14.5729H25.3391V13.6276C25.3402 13.4967 25.2922 13.3702 25.2045 13.273C25.1684 13.2341 25.1248 13.2028 25.0763 13.181C25.0278 13.1592 24.9755 13.1474 24.9224 13.1462H16.9912C16.7608 13.1462 16.5718 13.3636 16.5718 13.6274L16.5718 14.5729ZM22.9732 23.9019V21.1714C22.9729 21.0019 22.9054 20.8395 22.7855 20.7197C22.6657 20.5999 22.5033 20.5324 22.3339 20.5321H19.5797C19.4958 20.532 19.4126 20.5485 19.335 20.5806C19.2574 20.6128 19.1869 20.6598 19.1276 20.7192C19.0682 20.7786 19.0211 20.8491 18.989 20.9267C18.9568 21.0042 18.9403 21.0874 18.9404 21.1714V24.6685C18.9403 24.7525 18.9568 24.8356 18.9889 24.9132C19.0211 24.9908 19.0682 25.0613 19.1275 25.1207C19.1869 25.1801 19.2574 25.2272 19.335 25.2593C19.4126 25.2914 19.4958 25.3079 19.5797 25.3079H22.334C22.4978 25.3081 22.6554 25.245 22.774 25.1319C22.7173 24.8113 22.744 24.4815 22.8513 24.1741C22.8851 24.0805 22.9259 23.9897 22.9733 23.9023L22.9732 23.9019ZM0 29.8922L2.20284 40.0289L4.25554 39.5836L2.0527 29.4444L0 29.8922ZM25.5877 33.8605C25.29 33.5912 24.7982 33.4644 24.1925 33.6145L24.1744 33.6197L16.5689 35.7035C16.4955 36.0293 16.3668 36.3401 16.1884 36.6224C15.946 37.0105 15.6095 37.331 15.2103 37.5545C14.8018 37.7852 14.335 37.8923 13.8668 37.8626C13.4325 37.8288 13.0135 37.6873 12.6476 37.451L8.87872 35.0669C8.73606 34.9764 8.63511 34.8331 8.598 34.6683C8.56089 34.5035 8.59066 34.3307 8.68077 34.1878C8.77088 34.0449 8.91398 33.9435 9.0787 33.906C9.24341 33.8684 9.41629 33.8977 9.55943 33.9875L13.3284 36.3716C13.5148 36.4953 13.7293 36.5701 13.9522 36.589C14.1752 36.6039 14.3977 36.5525 14.5916 36.4414C14.8028 36.3214 14.9808 36.1506 15.1093 35.9444C15.2575 35.7071 15.3447 35.4368 15.363 35.1575C15.3851 34.8022 15.3146 34.4472 15.1585 34.1273C15.0187 33.8278 14.7982 33.5732 14.5217 33.3922L8.93045 29.8562C8.54399 29.6087 8.09753 29.4709 7.63881 29.4575C7.16504 29.4421 6.66291 29.5327 6.1374 29.6621L3.5463 30.304L5.1877 37.8574C5.63291 37.7924 6.08151 37.7534 6.53125 37.7406C7.19134 37.7252 7.80476 37.7922 8.31213 37.9892C14.8301 40.5285 15.2106 40.3421 19.7664 38.1393C21.0323 37.5258 22.6035 36.7648 24.6407 35.8846C25.4095 35.5533 25.7874 35.1184 25.8754 34.7094C25.9088 34.5572 25.8999 34.3988 25.8496 34.2513C25.7975 34.1006 25.7073 33.9659 25.5877 33.8605ZM32.3878 29.5557L27.0476 27.6764V30.3426C27.0476 31.7068 28.5826 32.4963 30.5836 32.7991C31.3337 32.907 32.0908 32.958 32.8486 32.9518C33.6127 32.9511 34.3757 32.8949 35.1317 32.7836C37.2854 32.4656 38.9989 31.6395 38.9989 30.343V27.6764L33.6561 29.5557C33.2458 29.7006 32.7981 29.7006 32.3878 29.5557ZM41.5926 24.2052L33.232 21.262C33.0964 21.2141 32.9483 21.2141 32.8127 21.262L24.4517 24.2052C24.3609 24.236 24.2784 24.2872 24.2106 24.355C24.1428 24.4228 24.0915 24.5053 24.0608 24.5961C24.0052 24.7557 24.0152 24.9308 24.0884 25.0832C24.1617 25.2355 24.2923 25.3526 24.4517 25.4089L32.8127 28.3494C32.9483 28.3973 33.0964 28.3973 33.232 28.3494L40.4722 25.8023V28.0905C40.4722 28.2601 40.5395 28.4227 40.6594 28.5426C40.7794 28.6625 40.942 28.7299 41.1116 28.7299C41.2811 28.7299 41.4438 28.6625 41.5637 28.5426C41.6836 28.4227 41.7509 28.2601 41.7509 28.0905V25.326C41.8607 25.2504 41.9433 25.1415 41.9865 25.0153C42.0139 24.9363 42.0254 24.8526 42.0205 24.7691C42.0155 24.6856 41.9941 24.6039 41.9575 24.5286C41.921 24.4534 41.8699 24.3861 41.8073 24.3306C41.7447 24.2751 41.6717 24.2325 41.5926 24.2052Z" fill="#2B4294"/>
</svg>
