<svg width="44" height="44" viewBox="0 0 44 44" fill="none" xmlns="http://www.w3.org/2000/svg">
<path fill-rule="evenodd" clip-rule="evenodd" d="M10.5865 39.1013C10.6519 39.2594 10.6519 39.4188 10.5888 39.577C10.5224 39.7347 10.4088 39.8471 10.251 39.914L10.25 39.9145L7.38343 41.1029C7.06844 41.2348 6.70488 41.084 6.5746 40.7699L6.57443 40.7698C4.95653 36.8819 3.33629 32.9944 1.71847 29.1068L1.7177 29.1049C1.65109 28.9479 1.65204 28.7905 1.71666 28.6342C1.78206 28.4761 1.8949 28.3629 2.05184 28.2975L4.92115 27.1066C5.23597 26.9759 5.59936 27.126 5.73144 27.4407C5.90434 27.8562 10.4087 38.6742 10.5865 39.1013ZM10.9209 36.7608C9.81033 34.0934 8.69911 31.4261 7.58868 28.7589C9.03412 28.0758 10.4774 27.3884 11.9141 26.6857C13.5519 25.8845 14.8265 25.2899 16.3304 25.4931C17.3336 25.6287 18.4287 26.1183 19.7987 27.0906C19.8572 27.1321 19.9227 27.1629 19.9919 27.1814L25.4013 28.6305C26.4287 28.9056 27.0453 29.9723 26.7701 30.9999C26.495 32.0269 25.4288 32.6435 24.4017 32.3665L24.4007 32.3663L17.2118 30.4413C16.8898 30.355 16.5584 30.5465 16.4721 30.8686C16.3859 31.1906 16.5773 31.5221 16.8993 31.6083L24.0882 33.5333C25.7566 33.9831 27.49 32.9817 27.937 31.3123C28.0309 30.9618 28.0609 30.6085 28.0343 30.2649L35.505 28.0733C36.7874 27.6971 37.7856 27.6022 38.5426 27.7187C39.1712 27.8154 39.6088 28.0578 39.8677 28.4077C40.1726 28.8198 40.2206 29.3589 40.1065 29.8864C39.9188 30.7536 39.2918 31.6063 38.419 31.9431L27.2231 36.2573C26.3628 36.5884 25.3607 37.0009 24.3422 37.2619C23.409 37.501 22.4619 37.619 21.6156 37.3733L15.6506 35.6429C14.6343 35.3463 13.6583 35.4287 12.7042 35.8934L10.9209 36.7608ZM34.985 17.1424C35.4417 15.9582 35.6513 14.7929 35.6235 13.6579C35.6181 13.4338 35.6034 13.2103 35.5796 12.9876C36.6246 12.7642 37.8239 12.7372 39.1765 12.9052C39.3635 14.568 39.2559 16.009 38.8628 17.218C37.5999 16.7974 36.3058 16.776 34.985 17.1424ZM29.3728 22.5381C25.0294 26.02 21.3294 25.552 18.2549 21.243C20.7387 18.3169 23.3806 17.4307 26.1839 18.6264C26.9518 19.9055 28.0102 21.2115 29.3728 22.5381ZM11.1058 2.84961C15.1499 2.84961 18.433 6.13287 18.433 10.1768C18.433 14.2208 15.1499 17.504 11.1058 17.504C7.06188 17.504 3.77862 14.2208 3.77862 10.1768C3.77862 6.13287 7.06188 2.84961 11.1058 2.84961ZM8.89151 7.9625H6.7066C6.37307 7.9625 6.10268 8.23288 6.10268 8.56642V11.7872C6.10268 12.1208 6.37307 12.3911 6.7066 12.3911H8.89151V14.576C8.89151 14.9096 9.16189 15.18 9.49543 15.18H12.7163C13.0499 15.18 13.3202 14.9096 13.3202 14.576V12.3911H15.5051C15.8386 12.3911 16.109 12.1208 16.109 11.7872V8.56642C16.109 8.23288 15.8386 7.9625 15.5051 7.9625H13.3202V5.77759C13.3202 5.44406 13.0499 5.17367 12.7163 5.17367H9.49543C9.16189 5.17367 8.89151 5.44406 8.89151 5.77759V7.9625ZM9.49543 9.17034C9.82897 9.17034 10.0993 8.89995 10.0993 8.56642V6.38152H12.1124V8.56642C12.1124 8.89995 12.3828 9.17034 12.7163 9.17034H14.9011V11.1833H12.7163C12.3828 11.1833 12.1124 11.4537 12.1124 11.7872V13.9721H10.0993V11.7872C10.0993 11.4537 9.82897 11.1833 9.49543 11.1833H7.31053V9.17034H9.49543ZM21.7147 17.2237C21.3222 16.0151 21.215 14.5749 21.4017 12.9133C22.6078 12.7634 23.692 12.7686 24.6535 12.9298C24.6331 13.1919 24.6256 13.455 24.6311 13.7191C24.6539 14.8148 24.9049 15.9399 25.3947 17.0896C24.1428 16.7813 22.9147 16.8225 21.7147 17.2237ZM30.3138 21.768C24.5347 16.1997 24.3791 11.1722 29.6842 6.6695C29.8405 6.53715 30.0685 6.5331 30.2294 6.65992C35.7745 11.0403 35.8256 16.3165 30.3138 21.768ZM34.2503 18.6936C37.1104 17.3992 39.8032 18.2638 42.3322 21.243C39.2627 25.545 35.5697 26.0185 31.2354 22.555C32.5331 21.2608 33.534 19.9691 34.2503 18.6936Z" fill="#2B4294"/>
</svg>
