<svg width="44" height="44" viewBox="0 0 44 44" fill="none" xmlns="http://www.w3.org/2000/svg">
<path fill-rule="evenodd" clip-rule="evenodd" d="M28.4805 27.4578V39.0904H37.784L35.7766 29.7771C35.7199 29.517 35.8862 29.2599 36.1462 29.2041C36.4063 29.1474 36.6635 29.3136 36.7192 29.5737L38.7706 39.0895H42.362L40.4798 30.1536C39.9703 27.7345 38.2886 22.1094 33.692 22.1094H31.9213L28.4805 27.4578Z" fill="#2B4294"/>
<path fill-rule="evenodd" clip-rule="evenodd" d="M24.8232 20.0576V21.4842L27.8974 26.2626C27.9639 26.2479 28.0343 26.2489 28.1008 26.2626L31.1749 21.4852V20.0576C29.191 21.2143 26.8062 21.2143 24.8232 20.0576Z" fill="#2B4294"/>
<path fill-rule="evenodd" clip-rule="evenodd" d="M22.0527 12.7043C22.1378 15.5487 23.1606 17.5091 24.5373 18.6698C24.6135 18.704 24.68 18.7578 24.7289 18.8243C25.7223 19.5908 26.8781 19.9614 27.9918 19.9634H27.9986C29.1133 19.9634 30.27 19.5947 31.2644 18.8291C31.3152 18.7587 31.3846 18.702 31.4648 18.6678C32.8503 17.4984 33.876 15.5174 33.9474 12.6388C33.8398 9.20585 32.9833 7.86141 32.602 7.43021C29.4496 9.25474 26.8918 8.28674 25.1797 7.64141C23.9692 7.18381 23.5272 7.07626 23.2564 7.36177C23.2564 9.90301 22.2913 12.1803 22.0527 12.7043Z" fill="#2B4294"/>
<path fill-rule="evenodd" clip-rule="evenodd" d="M28.9464 0.952148C26.2409 0.952148 23.1697 2.6877 21.6063 5.2133C20.3361 7.26566 20.297 9.49402 21.4723 11.5659C21.8243 10.6116 22.32 8.94744 22.2897 7.20699C22.2878 7.11019 22.3161 7.01633 22.3679 6.93517C23.0964 5.82148 24.2736 6.26637 25.5193 6.73766C27.2031 7.37322 29.5087 8.24539 32.396 6.42673C32.5456 6.33188 32.7334 6.32797 32.8879 6.41402C33.0502 6.50397 34.2861 7.29695 34.7486 10.6175C35.2883 8.92299 35.6432 6.4629 33.8314 5.15659C33.7356 5.08815 33.6701 4.98646 33.6437 4.87304C33.0463 2.26726 31.3439 0.952148 28.9464 0.952148Z" fill="#2B4294"/>
<path fill-rule="evenodd" clip-rule="evenodd" d="M25.4782 25.4495V39.0904H27.5178V27.4549L24.079 22.1094H22.3082C21.2669 22.1094 20.3087 22.4027 19.4473 22.9845H22.5507C22.8167 22.9845 23.0328 23.2006 23.0328 23.4665V24.9674H24.9952C25.2621 24.9674 25.4782 25.1835 25.4782 25.4495Z" fill="#2B4294"/>
<path fill-rule="evenodd" clip-rule="evenodd" d="M22.5503 39.8122H3.64892C3.38297 39.8122 3.16688 39.5961 3.16688 39.3301V25.9316H1.68848V40.0703C1.68848 40.7909 2.27417 41.3776 2.99577 41.3776H11.2863C11.5523 41.3776 11.7684 41.5937 11.7684 41.8596C11.7684 42.5949 12.3658 43.1924 13.1011 43.1924C13.8364 43.1924 14.4338 42.5949 14.4338 41.8596C14.4338 41.5937 14.6499 41.3776 14.9159 41.3776H23.2064C23.9271 41.3776 24.5137 40.7919 24.5137 40.0703V39.6176V25.9316H23.0334V39.3311C23.0324 39.5971 22.8163 39.8122 22.5503 39.8122Z" fill="#2B4294"/>
<path fill-rule="evenodd" clip-rule="evenodd" d="M13.399 31.0625H9.83984C10.0638 31.7851 10.7766 32.315 11.6194 32.315C12.4622 32.315 13.175 31.7851 13.399 31.0625Z" fill="#2B4294"/>
<path fill-rule="evenodd" clip-rule="evenodd" d="M8.84864 31.0626H7.75353C6.90873 31.0626 6.21841 30.3879 6.19299 29.549H5.18099C4.91504 29.549 4.69895 29.3329 4.69895 29.0669C4.69895 28.801 4.91504 28.5849 5.18099 28.5849H6.49121C6.53326 28.5282 6.57824 28.4734 6.62713 28.4226C6.46677 28.2554 6.34259 28.052 6.26926 27.8261H5.18099C4.91504 27.8261 4.69895 27.61 4.69895 27.3441C4.69895 27.0781 4.91504 26.862 5.18099 26.862H6.26828C6.36704 26.5579 6.55673 26.2939 6.80606 26.1033H5.18099C4.91504 26.1033 4.69895 25.8872 4.69895 25.6212C4.69895 25.3553 4.91504 25.1392 5.18099 25.1392H7.56188C7.53548 24.7187 7.49441 24.3227 7.44064 23.9492H4.13086V38.8496H12.617V33.1051C12.307 33.2186 11.9707 33.2802 11.6197 33.2802C10.239 33.2792 9.08624 32.3219 8.84864 31.0626ZM5.18099 33.7524H11.5678C11.8338 33.7524 12.0499 33.9685 12.0499 34.2345C12.0499 34.5004 11.8338 34.7165 11.5678 34.7165H5.18099C4.91504 34.7165 4.69895 34.5004 4.69895 34.2345C4.69895 33.9685 4.91504 33.7524 5.18099 33.7524ZM5.18099 35.4743H11.5678C11.8338 35.4743 12.0499 35.6904 12.0499 35.9563C12.0499 36.2223 11.8338 36.4384 11.5678 36.4384H5.18099C4.91504 36.4384 4.69895 36.2223 4.69895 35.9563C4.69895 35.6904 4.91504 35.4743 5.18099 35.4743ZM5.18099 37.1971H11.5678C11.8338 37.1971 12.0499 37.4132 12.0499 37.6792C12.0499 37.9451 11.8338 38.1612 11.5678 38.1612H5.18099C4.91504 38.1612 4.69895 37.9451 4.69895 37.6792C4.69895 37.4132 4.91504 37.1971 5.18099 37.1971ZM7.9833 32.9937H5.18099C4.91504 32.9937 4.69895 32.7776 4.69895 32.5116C4.69895 32.2457 4.91504 32.0296 5.18099 32.0296H7.98428C8.25024 32.0296 8.46633 32.2457 8.46633 32.5116C8.46633 32.7776 8.24926 32.9937 7.9833 32.9937ZM6.05317 31.2708H5.18099C4.91504 31.2708 4.69895 31.0547 4.69895 30.7888C4.69895 30.5228 4.91504 30.3067 5.18099 30.3067H6.05317C6.31913 30.3067 6.53521 30.5228 6.53521 30.7888C6.53521 31.0557 6.31913 31.2708 6.05317 31.2708Z" fill="#2B4294"/>
<path fill-rule="evenodd" clip-rule="evenodd" d="M15.4877 31.0626H14.3916C14.2851 31.6267 13.9947 32.1313 13.582 32.5155V38.8476H22.0682V23.9482H18.1463C18.1355 23.9482 18.1238 23.9482 18.1131 23.9482H15.7957C15.7419 24.3218 15.7009 24.7178 15.6745 25.1382H21.019C21.285 25.1382 21.5011 25.3543 21.5011 25.6202C21.5011 25.8862 21.285 26.1023 21.019 26.1023H16.4362C16.6845 26.293 16.8742 26.556 16.9739 26.861H21.02C21.2859 26.861 21.502 27.0771 21.502 27.3431C21.502 27.609 21.2859 27.8251 21.02 27.8251H16.9739C16.9006 28.051 16.7764 28.2534 16.6161 28.4216C16.665 28.4724 16.7099 28.5272 16.752 28.5839H21.02C21.2859 28.5839 21.502 28.8 21.502 29.0659C21.502 29.3319 21.2859 29.548 21.02 29.548H17.0492C17.0228 30.3879 16.3325 31.0626 15.4877 31.0626ZM14.6312 32.0296H21.018C21.284 32.0296 21.5001 32.2457 21.5001 32.5116C21.5001 32.7776 21.284 32.9937 21.018 32.9937H14.6312C14.3652 32.9937 14.1491 32.7776 14.1491 32.5116C14.1491 32.2457 14.3652 32.0296 14.6312 32.0296ZM14.6312 33.7524H21.018C21.284 33.7524 21.5001 33.9685 21.5001 34.2345C21.5001 34.5004 21.284 34.7165 21.018 34.7165H14.6312C14.3652 34.7165 14.1491 34.5004 14.1491 34.2345C14.1491 33.9685 14.3652 33.7524 14.6312 33.7524ZM14.6312 35.4743H21.018C21.284 35.4743 21.5001 35.6904 21.5001 35.9563C21.5001 36.2223 21.284 36.4384 21.018 36.4384H14.6312C14.3652 36.4384 14.1491 36.2223 14.1491 35.9563C14.1491 35.6904 14.3652 35.4743 14.6312 35.4743ZM14.6312 37.1971H21.018C21.284 37.1971 21.5001 37.4132 21.5001 37.6792C21.5001 37.9451 21.284 38.1612 21.018 38.1612H14.6312C14.3652 38.1612 14.1491 37.9451 14.1491 37.6792C14.1491 37.4132 14.3652 37.1971 14.6312 37.1971ZM21.018 31.2708H17.8246C17.5587 31.2708 17.3426 31.0547 17.3426 30.7888C17.3426 30.5228 17.5587 30.3067 17.8246 30.3067H21.018C21.284 30.3067 21.5001 30.5228 21.5001 30.7888C21.5001 31.0557 21.284 31.2708 21.018 31.2708Z" fill="#2B4294"/>
<path fill-rule="evenodd" clip-rule="evenodd" d="M15.4576 28.9043H7.78496C7.7742 28.9053 7.76443 28.9053 7.75367 28.9053C7.42416 28.9053 7.15723 29.1732 7.15723 29.5017C7.15723 29.8312 7.42514 30.0991 7.75367 30.0991H9.25456H9.31714H15.4879C15.8174 30.0991 16.0843 29.8312 16.0843 29.5017C16.0843 29.1722 15.8164 28.9053 15.4879 28.9053C15.4771 28.9053 15.4674 28.9053 15.4576 28.9043Z" fill="#2B4294"/>
<path fill-rule="evenodd" clip-rule="evenodd" d="M15.4879 26.7451H7.75367C7.42416 26.7451 7.15625 27.014 7.15723 27.3435C7.15821 27.6721 7.42612 27.939 7.75367 27.939H15.4879C15.8174 27.939 16.0843 27.6711 16.0843 27.3416C16.0843 27.0121 15.8155 26.7451 15.4879 26.7451Z" fill="#2B4294"/>
<path fill-rule="evenodd" clip-rule="evenodd" d="M9.58691 14.0336L10.5138 25.7816H12.7256L13.6525 14.0346C13.5205 13.926 13.3025 13.7862 13.0727 13.8185C12.7383 13.8635 12.3775 14.2673 12.0558 14.9547C11.8827 15.3243 11.3547 15.3243 11.1817 14.9547C10.859 14.2643 10.4962 13.8605 10.1609 13.8175C9.93207 13.7882 9.71696 13.9251 9.58691 14.0336Z" fill="#2B4294"/>
<path fill-rule="evenodd" clip-rule="evenodd" d="M14.6312 13.8844L13.6926 25.782H14.6821C14.7036 24.9098 14.7838 24.1295 14.905 23.4236C14.907 23.3962 14.9119 23.3688 14.9187 23.3434C15.3352 21.0075 16.2133 19.4998 16.9593 18.2199C17.7015 16.9448 18.3429 15.8439 18.3429 14.2677C18.3429 10.7594 15.3264 7.90625 11.6187 7.90625C7.91098 7.90625 4.89453 10.7604 4.89453 14.2677C4.89453 15.8439 5.53498 16.9448 6.27809 18.2199C7.0212 19.4959 7.89631 20.9997 8.3148 23.3229C8.32653 23.361 8.33435 23.4021 8.33631 23.4431C8.44582 24.0807 8.52013 24.7788 8.54849 25.5503L8.55533 25.781H9.5468L8.60813 13.8844C8.59835 13.7602 8.63746 13.6351 8.71764 13.5392C8.96209 13.2439 9.56733 12.7687 10.285 12.8616C10.7827 12.9252 11.2296 13.2342 11.6197 13.7827C12.0108 13.2342 12.4576 12.9252 12.9544 12.8616C13.673 12.7687 14.2773 13.2439 14.5217 13.5392C14.6019 13.6351 14.642 13.7592 14.6312 13.8844Z" fill="#2B4294"/>
</svg>
