<svg width="44" height="44" viewBox="0 0 44 44" fill="none" xmlns="http://www.w3.org/2000/svg">
<path d="M13.0855 12.5417C13.9234 13.315 14.6048 14.2564 15.0765 15.3127C15.4681 16.1893 15.7142 17.1473 15.7847 18.1563H10.5707C10.7164 15.9757 11.6484 14.0107 13.0855 12.5417ZM18.8381 19.3593H16.9901C16.9172 20.5376 16.6318 21.661 16.1716 22.6917C15.6496 23.8604 14.9014 24.9069 13.9826 25.7755C15.341 26.8332 17.0142 27.5049 18.8382 27.6269V19.3594L18.8381 19.3593ZM16.1716 14.8239C16.6318 15.8546 16.9172 16.978 16.9901 18.1562H18.8381V9.88869C17.0142 10.0106 15.3407 10.6821 13.9826 11.74C14.9013 12.6087 15.6495 13.6551 16.1715 14.8239H16.1716ZM15.7847 19.3593H10.5707C10.7165 21.5399 11.6482 23.5051 13.0855 24.9739C13.9234 24.2005 14.6048 23.2592 15.0765 22.2028C15.4681 21.3263 15.7142 20.3683 15.7847 19.3593ZM23.0948 19.3593C23.1652 20.3683 23.4114 21.3263 23.8029 22.2028C24.2746 23.2592 24.9561 24.2005 25.7939 24.9739C26.7824 23.9634 27.532 22.7182 27.951 21.3296C27.5205 20.6955 27.1266 20.0352 26.7658 19.3593H23.0947H23.0948ZM22.7079 22.6917C22.2476 21.6611 21.9622 20.5376 21.8893 19.3593H20.0412V27.6268C21.8652 27.5048 23.5386 26.8332 24.8968 25.7754C23.978 24.9068 23.2299 23.8604 22.7079 22.6916V22.6917ZM23.0948 18.1562H26.1644C26.0746 17.9641 25.9872 17.7715 25.902 17.5782C25.5318 16.7373 25.3318 15.7675 25.894 14.9547C26.1815 14.5391 26.5861 14.289 27.0352 14.1373C26.6824 13.5586 26.2654 13.0233 25.7939 12.5416C24.956 13.3149 24.2746 14.2564 23.8029 15.3126C23.4115 16.1892 23.1652 17.1472 23.0948 18.1562ZM22.7079 14.8239C23.2299 13.6552 23.978 12.6087 24.8968 11.74C23.5386 10.6825 21.8653 10.0106 20.0412 9.88869V18.1562H21.8893C21.9622 16.9779 22.2476 15.8545 22.7079 14.8239ZM42.9284 2.47735C42.4528 5.5619 41.4587 8.50466 39.6279 10.7728C39.1931 10.8431 38.7656 11.0133 38.3689 11.2066C36.9978 11.8751 35.5275 12.4366 34.0163 12.876C33.3538 12.4997 32.6759 11.9005 31.9641 11.0774C29.9702 8.7715 28.9066 5.70181 28.4094 2.47735C28.1671 0.904693 28.863 0.655045 30.1926 0.913287C33.7106 1.59666 37.6271 1.59666 41.145 0.913287C42.4747 0.655045 43.1706 0.904779 42.9282 2.47735H42.9284ZM32.7935 5.93711C33.6095 5.93711 34.3883 5.54085 34.8646 4.87741C35.0593 4.60851 35.0013 4.23194 34.7321 4.0378C34.4628 3.84281 34.0859 3.90383 33.8912 4.17272C33.6343 4.52412 33.2284 4.7339 32.7935 4.7339C32.3586 4.7339 31.9485 4.52412 31.6958 4.17272C31.5012 3.90383 31.1242 3.84281 30.8549 4.0378C30.5857 4.23194 30.5236 4.60851 30.7183 4.87741C31.1988 5.54085 31.9733 5.93711 32.7935 5.93711ZM37.9962 9.26538C37.4163 8.57608 36.5712 8.18076 35.6682 8.18076C34.7652 8.18076 33.9244 8.57608 33.3445 9.26538C33.129 9.51976 33.1622 9.89969 33.419 10.1127C33.5308 10.2072 33.6675 10.2537 33.8042 10.2537C33.974 10.2537 34.148 10.1805 34.264 10.0388C34.6161 9.6228 35.1256 9.38398 35.6682 9.38398C36.2108 9.38398 36.7245 9.6228 37.0724 10.0388C37.2879 10.2932 37.6689 10.3266 37.9216 10.1127C38.1742 9.89969 38.2074 9.51976 37.9962 9.26538ZM40.4856 4.0378C40.2164 3.84281 39.8394 3.90383 39.6447 4.17272C39.3879 4.52412 38.982 4.7339 38.547 4.7339C38.1121 4.7339 37.702 4.52412 37.4493 4.17272C37.2546 3.90383 36.8777 3.84281 36.6084 4.0378C36.3392 4.23194 36.2771 4.60851 36.4717 4.87741C36.9522 5.54085 37.7268 5.93711 38.5469 5.93711C39.363 5.93711 40.1417 5.54085 40.618 4.87741C40.8128 4.60851 40.7548 4.23194 40.4855 4.0378H40.4856ZM28.3204 15.1218C31.8942 14.8714 35.6759 13.8581 38.8961 12.288C40.1132 11.6946 40.8498 11.7557 41.0227 13.3369C41.377 16.5792 41.1441 19.8185 39.8154 22.5609C38.0676 26.1682 35.978 26.7281 32.6607 24.478C30.1388 22.7673 28.3175 20.0784 27.0032 17.0934C26.3623 15.6376 26.9697 15.2164 28.3205 15.1218H28.3204ZM35.7115 17.9317C35.7819 17.9583 35.8565 17.9712 35.9269 17.9712C36.1672 17.9712 36.3991 17.8235 36.4902 17.5836C36.6434 17.1788 36.9831 16.8694 37.4015 16.7578C37.824 16.646 38.2713 16.7422 38.6068 17.0155C38.8637 17.2252 39.2448 17.1865 39.456 16.9288C39.6631 16.6709 39.6258 16.2927 39.369 16.0822C38.7311 15.5657 37.882 15.3835 37.0908 15.5958C36.2997 15.8072 35.6576 16.3907 35.3635 17.1556C35.2475 17.4657 35.4008 17.8138 35.7114 17.9316L35.7115 17.9317ZM34.2618 21.5642C33.9883 21.3735 33.6156 21.4396 33.425 21.7121C33.2303 21.9845 33.2966 22.3592 33.57 22.55C34.0877 22.9111 34.6925 23.0992 35.3097 23.0992C35.5707 23.0992 35.8357 23.0647 36.0967 22.9951C36.9665 22.7623 37.6831 22.1615 38.0642 21.346C38.201 21.0452 38.0725 20.6867 37.7701 20.5468C37.4719 20.4067 37.1115 20.5365 36.9707 20.8381C36.7429 21.3296 36.312 21.6922 35.786 21.8333C35.2599 21.9733 34.7048 21.8754 34.2617 21.5642H34.2618ZM30.1568 19.4202C30.2272 19.4467 30.2976 19.4596 30.3722 19.4596C30.6124 19.4596 30.8403 19.3119 30.9314 19.0721C31.0889 18.6673 31.4285 18.3587 31.8468 18.2463C32.2652 18.1345 32.7167 18.2307 33.0522 18.5041C33.309 18.7138 33.6901 18.6751 33.8972 18.4174C34.1084 18.1604 34.0712 17.7814 33.8102 17.5717C33.1764 17.0544 32.3273 16.8722 31.5362 17.0845C30.745 17.296 30.0988 17.8794 29.8089 18.6443C29.6888 18.9545 29.8462 19.3025 30.1569 19.4204L30.1568 19.4202ZM42.8538 33.6935C42.8538 37.4966 39.752 40.5985 35.9489 40.5985C32.1458 40.5985 29.044 37.4966 29.044 33.6935C29.044 29.8905 32.1458 26.7886 35.9489 26.7886C39.752 26.7886 42.8538 29.8905 42.8538 33.6935ZM41.1906 33.6935C41.1906 30.8065 38.8359 28.4518 35.9488 28.4518C33.0616 28.4518 30.707 30.8065 30.707 33.6935C30.707 36.5806 33.0617 38.9353 35.9488 38.9353C38.8359 38.9353 41.1906 36.5806 41.1906 33.6935ZM36.5803 33.4321V30.1223C36.5803 29.7736 36.2975 29.4909 35.9488 29.4909C35.6001 29.4909 35.3173 29.7736 35.3173 30.1223V33.6936C35.3173 33.8701 35.3899 34.0297 35.5066 34.1444L37.91 36.5476C38.1565 36.7942 38.5563 36.7942 38.8029 36.5476C39.0494 36.3011 39.0494 35.9013 38.8029 35.6547L36.5803 33.4321ZM8.29513 18.5414C8.40281 18.0102 8.22467 17.504 7.81053 17.1544L7.6158 16.9876V21.4929C7.6158 21.6141 7.61597 21.7342 7.61253 21.8555C7.54077 24.3772 6.23263 25.2197 5.66063 25.467C5.32513 25.6123 4.97305 25.6837 4.62921 25.6837C4.08248 25.6837 3.5647 25.5015 3.19182 25.1534C2.55391 24.557 2.41727 23.4709 2.86457 22.5701C3.08483 22.1234 3.96363 20.7838 6.41035 20.9578V15.6917C6.41035 15.458 6.54708 15.2448 6.76244 15.1459C6.97367 15.048 7.2222 15.0815 7.40035 15.2328L8.58921 16.2348C9.33893 16.8682 9.66618 17.8204 9.47145 18.7812L9.33893 19.4472C9.27267 19.7719 8.95367 19.9826 8.62642 19.9164C8.3033 19.8502 8.09206 19.5331 8.15832 19.2073L8.29505 18.5413L8.29513 18.5414ZM6.38973 22.1628C6.24475 22.1509 6.10811 22.1447 5.97138 22.1447C4.97313 22.1447 4.25238 22.4774 3.94171 23.1054C3.70556 23.5765 3.79261 24.0697 4.01209 24.2751C4.22333 24.4719 4.70389 24.5699 5.18024 24.3637C5.85958 24.0688 6.2903 23.279 6.38973 22.1628ZM1.61255 15.4967C0.974633 14.9003 0.837907 13.8141 1.2853 12.9135C1.50556 12.4668 2.38435 11.1264 4.83108 11.3009V4.72015C4.83108 4.48657 4.96781 4.2743 5.17904 4.17539L12.2497 0.881232C12.4402 0.794693 12.6557 0.809131 12.8296 0.919388C13.0037 1.02999 13.1071 1.22094 13.1071 1.42719V8.5203C13.1071 8.67834 13.1072 8.83406 13.1008 8.99244C13.0017 11.4463 11.7173 12.272 11.152 12.5174C10.8164 12.6626 10.4644 12.7331 10.1205 12.7331C9.57371 12.7331 9.05594 12.5518 8.68314 12.2029C8.04523 11.6065 7.9085 10.5202 8.35589 9.62047C8.57615 9.1736 9.45495 7.8334 11.9017 8.00726V5.21755L6.03627 7.94925V11.6785C6.03627 11.9923 6.03721 12.2913 6.00954 12.6072C5.81635 14.8133 4.61727 15.5771 4.0811 15.8113C3.7456 15.9566 3.39352 16.027 3.04968 16.027C2.50295 16.027 1.98096 15.8448 1.61229 15.4968L1.61255 15.4967ZM11.8811 9.21219C11.7362 9.20024 11.5994 9.19405 11.4669 9.19405C10.4645 9.19405 9.74378 9.52749 9.43303 10.1548C9.20109 10.6259 9.28806 11.1191 9.5035 11.3245C9.71474 11.5221 10.1952 11.6202 10.6716 11.413C11.351 11.1183 11.7818 10.3293 11.8811 9.21219ZM6.03644 6.6228L11.9018 3.8893V2.37079L6.03644 5.10343V6.6228ZM2.43274 14.6184C2.64397 14.8154 3.12453 14.9133 3.6008 14.7069C4.28013 14.4123 4.71094 13.6225 4.81037 12.5062C4.66539 12.4941 4.52866 12.488 4.39202 12.488C3.39377 12.488 2.67302 12.8206 2.36235 13.4488C2.12628 13.9197 2.21325 14.413 2.43282 14.6183L2.43274 14.6184ZM12.1983 38.067L5.72801 36.3333V40.6602C5.72801 41.0029 5.90263 41.297 6.2035 41.4608C8.19399 42.545 10.5709 43.1754 13.1241 43.1754C15.6773 43.1754 18.0544 42.545 20.0449 41.4608C20.3457 41.297 20.5203 41.0029 20.5203 40.6602V36.3332L14.0499 38.067C13.4259 38.2341 12.822 38.2341 12.1982 38.067H12.1983ZM25.1555 38.2838V33.4624C25.1555 33.233 25.0066 33.039 24.785 32.9796L13.7387 30.0197C13.3177 29.9069 12.9308 29.9069 12.5097 30.0197L1.46345 32.9796C1.24181 33.039 1.09297 33.233 1.09297 33.4624C1.09297 33.6917 1.24181 33.8858 1.46345 33.9452L12.5097 36.905C12.9307 37.0179 13.3177 37.0179 13.7387 36.905L23.9523 34.1683V38.2839L23.359 38.8772C23.2778 38.9584 23.2368 39.0573 23.2368 39.1722V43.0187C23.2368 43.1427 23.3866 43.2046 23.4742 43.117L24.5539 42.0373L25.6336 43.117C25.7212 43.2046 25.8709 43.1425 25.8709 43.0187V39.1722C25.8709 39.0573 25.8299 38.9584 25.7487 38.8772L25.1554 38.2839L25.1555 38.2838Z" fill="#2B4294"/>
</svg>
