<svg width="44" height="44" viewBox="0 0 44 44" fill="none" xmlns="http://www.w3.org/2000/svg">
<path d="M5.86697 2.50391L2.50391 5.86697H5.86697V2.50391Z" fill="#2B4294"/>
<path d="M30.7997 30.8005C31.6097 30.8005 32.2663 30.1439 32.2663 29.3339C32.2663 28.5238 31.6097 27.8672 30.7997 27.8672C29.9897 27.8672 29.333 28.5238 29.333 29.3339C29.333 30.1439 29.9897 30.8005 30.7997 30.8005Z" fill="#2B4294"/>
<path d="M33.0928 22H28.508C28.3759 22.507 28.111 22.9696 27.7405 23.3401C27.37 23.7106 26.9074 23.9755 26.4004 24.1076V32.1633L29.2897 34.2899L29.4415 34.1777C29.8356 33.8875 30.3121 33.7309 30.8015 33.7309C31.2909 33.7309 31.7674 33.8875 32.1615 34.1777L32.3081 34.2877L35.1975 32.1611V24.1076C34.691 23.9751 34.229 23.7099 33.859 23.3395C33.4891 22.969 33.2246 22.5067 33.0928 22ZM30.8004 23.4667C30.9454 23.4667 31.0872 23.5097 31.2078 23.5903C31.3284 23.6708 31.4224 23.7854 31.4779 23.9194C31.5334 24.0534 31.5479 24.2008 31.5196 24.3431C31.4913 24.4853 31.4215 24.616 31.3189 24.7185C31.2164 24.8211 31.0857 24.8909 30.9435 24.9192C30.8012 24.9475 30.6538 24.933 30.5198 24.8775C30.3858 24.822 30.2712 24.728 30.1906 24.6074C30.1101 24.4868 30.0671 24.345 30.0671 24.2C30.0671 24.0055 30.1443 23.819 30.2818 23.6815C30.4194 23.5439 30.6059 23.4667 30.8004 23.4667ZM30.8004 32.2667C30.2202 32.2667 29.6531 32.0946 29.1707 31.7723C28.6883 31.45 28.3124 30.9919 28.0903 30.4559C27.8683 29.9199 27.8102 29.3301 27.9234 28.7611C28.0366 28.1921 28.316 27.6694 28.7262 27.2592C29.1364 26.8489 29.6591 26.5695 30.2281 26.4564C30.7971 26.3432 31.3869 26.4013 31.9229 26.6233C32.4589 26.8453 32.917 27.2213 33.2394 27.7037C33.5617 28.186 33.7337 28.7532 33.7337 29.3333C33.7337 30.1113 33.4247 30.8574 32.8746 31.4075C32.3245 31.9576 31.5784 32.2667 30.8004 32.2667Z" fill="#2B4294"/>
<path d="M23.4668 19.7997V30.0048L24.9335 31.0835V23.4664C24.9335 23.2719 25.0107 23.0854 25.1483 22.9479C25.2858 22.8103 25.4723 22.7331 25.6668 22.7331C26.0558 22.7331 26.4288 22.5785 26.7039 22.3035C26.9789 22.0284 27.1335 21.6554 27.1335 21.2664C27.1335 21.0719 27.2107 20.8854 27.3483 20.7479C27.4858 20.6103 27.6723 20.5331 27.8668 20.5331H33.7335C33.928 20.5331 34.1145 20.6103 34.252 20.7479C34.3895 20.8854 34.4668 21.0719 34.4668 21.2664C34.4668 21.6554 34.6213 22.0284 34.8964 22.3035C35.1714 22.5785 35.5445 22.7331 35.9335 22.7331C36.128 22.7331 36.3145 22.8103 36.452 22.9479C36.5895 23.0854 36.6668 23.2719 36.6668 23.4664V31.0835L38.1335 30.0048V19.7997C38.1335 19.6052 38.0562 19.4187 37.9187 19.2812C37.7811 19.1437 37.5946 19.0664 37.4001 19.0664H24.2001C24.0056 19.0664 23.8191 19.1437 23.6816 19.2812C23.5441 19.4187 23.4668 19.6052 23.4668 19.7997Z" fill="#2B4294"/>
<path d="M39.6006 28.9261L42.0206 27.1441C41.9905 27.1177 41.9663 27.0869 41.9341 27.0634L39.6006 25.3438V28.9261Z" fill="#2B4294"/>
<path d="M19.6632 27.0642C19.6317 27.0876 19.6075 27.1184 19.5781 27.1441L21.9981 28.9261V25.3438L19.6632 27.0642Z" fill="#2B4294"/>
<path d="M31.2895 35.358C31.1475 35.2554 30.9769 35.2002 30.8018 35.2002C30.6267 35.2002 30.456 35.2554 30.3141 35.358L20.5674 42.5337H41.0333L31.2895 35.358Z" fill="#2B4294"/>
<path d="M19.0664 41.0673C19.0678 41.2888 19.1199 41.5071 19.2189 41.7053L28.0519 35.2006L19.0664 28.5889V41.0673Z" fill="#2B4294"/>
<path d="M42.5334 41.0673V28.5889L33.5479 35.2006L42.3809 41.7053C42.4798 41.5071 42.532 41.2888 42.5334 41.0673Z" fill="#2B4294"/>
<path d="M2.20013 38.1335H17.6001V28.2481C17.5985 27.7885 17.7056 27.3349 17.9127 26.9245C18.1198 26.5141 18.4211 26.1586 18.7918 25.8868L22.0001 23.5225V19.8001C22.0001 19.2167 22.2319 18.6571 22.6445 18.2445C23.0571 17.8319 23.6167 17.6001 24.2001 17.6001H29.3335V2.20013C29.3335 2.00564 29.2562 1.81911 29.1187 1.68159C28.9812 1.54406 28.7946 1.4668 28.6001 1.4668H7.33346V5.8668C7.33346 6.25578 7.17894 6.62883 6.90389 6.90389C6.62883 7.17894 6.25578 7.33346 5.8668 7.33346H1.4668V37.4001C1.4668 37.5946 1.54406 37.7811 1.68159 37.9187C1.81911 38.0562 2.00564 38.1335 2.20013 38.1335ZM7.33346 11.7335H26.4001C26.5946 11.7335 26.7812 11.8107 26.9187 11.9483C27.0562 12.0858 27.1335 12.2723 27.1335 12.4668C27.1335 12.6613 27.0562 12.8478 26.9187 12.9853C26.7812 13.1229 26.5946 13.2001 26.4001 13.2001H7.33346C7.13897 13.2001 6.95245 13.1229 6.81492 12.9853C6.67739 12.8478 6.60013 12.6613 6.60013 12.4668C6.60013 12.2723 6.67739 12.0858 6.81492 11.9483C6.95245 11.8107 7.13897 11.7335 7.33346 11.7335ZM7.33346 16.1335H20.5335C20.728 16.1335 20.9145 16.2107 21.052 16.3483C21.1895 16.4858 21.2668 16.6723 21.2668 16.8668C21.2668 17.0613 21.1895 17.2478 21.052 17.3853C20.9145 17.5229 20.728 17.6001 20.5335 17.6001H7.33346C7.13897 17.6001 6.95245 17.5229 6.81492 17.3853C6.67739 17.2478 6.60013 17.0613 6.60013 16.8668C6.60013 16.6723 6.67739 16.4858 6.81492 16.3483C6.95245 16.2107 7.13897 16.1335 7.33346 16.1335ZM7.33346 20.5335H19.0668C19.2613 20.5335 19.4478 20.6107 19.5853 20.7483C19.7229 20.8858 19.8001 21.0723 19.8001 21.2668C19.8001 21.4613 19.7229 21.6478 19.5853 21.7853C19.4478 21.9229 19.2613 22.0001 19.0668 22.0001H7.33346C7.13897 22.0001 6.95245 21.9229 6.81492 21.7853C6.67739 21.6478 6.60013 21.4613 6.60013 21.2668C6.60013 21.0723 6.67739 20.8858 6.81492 20.7483C6.95245 20.6107 7.13897 20.5335 7.33346 20.5335ZM7.33346 24.9335H16.1335C16.328 24.9335 16.5145 25.0107 16.652 25.1483C16.7895 25.2858 16.8668 25.4723 16.8668 25.6668C16.8668 25.8613 16.7895 26.0478 16.652 26.1853C16.5145 26.3229 16.328 26.4001 16.1335 26.4001H7.33346C7.13897 26.4001 6.95245 26.3229 6.81492 26.1853C6.67739 26.0478 6.60013 25.8613 6.60013 25.6668C6.60013 25.4723 6.67739 25.2858 6.81492 25.1483C6.95245 25.0107 7.13897 24.9335 7.33346 24.9335ZM7.33346 29.3335H15.4001C15.5946 29.3335 15.7812 29.4107 15.9187 29.5483C16.0562 29.6858 16.1335 29.8723 16.1335 30.0668C16.1335 30.2613 16.0562 30.4478 15.9187 30.5853C15.7812 30.7229 15.5946 30.8001 15.4001 30.8001H7.33346C7.13897 30.8001 6.95245 30.7229 6.81492 30.5853C6.67739 30.4478 6.60013 30.2613 6.60013 30.0668C6.60013 29.8723 6.67739 29.6858 6.81492 29.5483C6.95245 29.4107 7.13897 29.3335 7.33346 29.3335ZM7.33346 33.7335H15.4001C15.5946 33.7335 15.7812 33.8107 15.9187 33.9482C16.0562 34.0858 16.1335 34.2723 16.1335 34.4668C16.1335 34.6613 16.0562 34.8478 15.9187 34.9853C15.7812 35.1229 15.5946 35.2001 15.4001 35.2001H7.33346C7.13897 35.2001 6.95245 35.1229 6.81492 34.9853C6.67739 34.8478 6.60013 34.6613 6.60013 34.4668C6.60013 34.2723 6.67739 34.0858 6.81492 33.9482C6.95245 33.8107 7.13897 33.7335 7.33346 33.7335ZM4.40013 11.7335C4.54517 11.7335 4.68695 11.7765 4.80755 11.8571C4.92814 11.9376 5.02214 12.0522 5.07764 12.1862C5.13315 12.3202 5.14767 12.4676 5.11937 12.6099C5.09108 12.7521 5.02123 12.8828 4.91868 12.9853C4.81612 13.0879 4.68545 13.1577 4.5432 13.186C4.40094 13.2143 4.2535 13.1998 4.1195 13.1443C3.9855 13.0888 3.87097 12.9948 3.79039 12.8742C3.70981 12.7536 3.6668 12.6118 3.6668 12.4668C3.6668 12.2723 3.74406 12.0858 3.88159 11.9483C4.01911 11.8107 4.20564 11.7335 4.40013 11.7335ZM4.40013 16.1335C4.54517 16.1335 4.68695 16.1765 4.80755 16.2571C4.92814 16.3376 5.02214 16.4522 5.07764 16.5862C5.13315 16.7202 5.14767 16.8676 5.11937 17.0099C5.09108 17.1521 5.02123 17.2828 4.91868 17.3853C4.81612 17.4879 4.68545 17.5577 4.5432 17.586C4.40094 17.6143 4.2535 17.5998 4.1195 17.5443C3.9855 17.4888 3.87097 17.3948 3.79039 17.2742C3.70981 17.1536 3.6668 17.0118 3.6668 16.8668C3.6668 16.6723 3.74406 16.4858 3.88159 16.3483C4.01911 16.2107 4.20564 16.1335 4.40013 16.1335ZM4.40013 20.5335C4.54517 20.5335 4.68695 20.5765 4.80755 20.6571C4.92814 20.7376 5.02214 20.8522 5.07764 20.9862C5.13315 21.1202 5.14767 21.2676 5.11937 21.4099C5.09108 21.5521 5.02123 21.6828 4.91868 21.7853C4.81612 21.8879 4.68545 21.9577 4.5432 21.986C4.40094 22.0143 4.2535 21.9998 4.1195 21.9443C3.9855 21.8888 3.87097 21.7948 3.79039 21.6742C3.70981 21.5536 3.6668 21.4118 3.6668 21.2668C3.6668 21.0723 3.74406 20.8858 3.88159 20.7483C4.01911 20.6107 4.20564 20.5335 4.40013 20.5335ZM4.40013 24.9335C4.54517 24.9335 4.68695 24.9765 4.80755 25.0571C4.92814 25.1376 5.02214 25.2522 5.07764 25.3862C5.13315 25.5202 5.14767 25.6676 5.11937 25.8099C5.09108 25.9521 5.02123 26.0828 4.91868 26.1853C4.81612 26.2879 4.68545 26.3577 4.5432 26.386C4.40094 26.4143 4.2535 26.3998 4.1195 26.3443C3.9855 26.2888 3.87097 26.1948 3.79039 26.0742C3.70981 25.9536 3.6668 25.8118 3.6668 25.6668C3.6668 25.4723 3.74406 25.2858 3.88159 25.1483C4.01911 25.0107 4.20564 24.9335 4.40013 24.9335ZM4.40013 29.3335C4.54517 29.3335 4.68695 29.3765 4.80755 29.4571C4.92814 29.5376 5.02214 29.6522 5.07764 29.7862C5.13315 29.9202 5.14767 30.0676 5.11937 30.2099C5.09108 30.3521 5.02123 30.4828 4.91868 30.5853C4.81612 30.6879 4.68545 30.7577 4.5432 30.786C4.40094 30.8143 4.2535 30.7998 4.1195 30.7443C3.9855 30.6888 3.87097 30.5948 3.79039 30.4742C3.70981 30.3536 3.6668 30.2118 3.6668 30.0668C3.6668 29.8723 3.74406 29.6858 3.88159 29.5483C4.01911 29.4107 4.20564 29.3335 4.40013 29.3335ZM4.40013 33.7335C4.54517 33.7335 4.68695 33.7765 4.80755 33.857C4.92814 33.9376 5.02214 34.0522 5.07764 34.1862C5.13315 34.3202 5.14767 34.4676 5.11937 34.6099C5.09108 34.7521 5.02123 34.8828 4.91868 34.9853C4.81612 35.0879 4.68545 35.1577 4.5432 35.186C4.40094 35.2143 4.2535 35.1998 4.1195 35.1443C3.9855 35.0888 3.87097 34.9948 3.79039 34.8742C3.70981 34.7536 3.6668 34.6118 3.6668 34.4668C3.6668 34.2723 3.74406 34.0858 3.88159 33.9482C4.01911 33.8107 4.20564 33.7335 4.40013 33.7335Z" fill="#2B4294"/>
</svg>
