<svg width="44" height="44" viewBox="0 0 44 44" fill="none" xmlns="http://www.w3.org/2000/svg">
<path d="M37.6553 34.76L35.0608 36.8285C34.3931 37.3622 34.0399 38.0978 34.0399 38.9503V39.2648H26.2324V36.5561C26.2324 35.8669 26.4593 35.2722 26.9148 34.7557L32.8754 28.0199C33.4039 27.4209 34.2788 27.2989 34.9457 27.6891C35.0359 27.7423 35.1235 27.8034 35.2035 27.8764C35.8832 28.478 35.9485 29.5255 35.347 30.2079L31.5829 34.4584C31.442 34.6216 31.4566 34.8726 31.6173 35.0161L31.7024 35.0891C31.8657 35.2327 32.114 35.218 32.2575 35.0548L36.019 30.8017C36.9497 29.7516 36.85 28.1316 35.7999 27.2009C35.5249 26.9595 35.2129 26.7893 34.8838 26.6845L34.5082 20.5648C34.4524 19.6591 35.1493 18.8719 36.0551 18.8186C36.9609 18.7627 37.7481 19.4571 37.8039 20.3655L38.6685 32.4431C38.7364 33.3644 38.3763 34.1851 37.6553 34.76ZM35.6357 40.1655H24.6374C24.2645 40.1655 23.9603 40.4697 23.9603 40.8401V43.322C23.9603 43.6949 24.2645 43.9991 24.6374 43.9991H35.6357C36.0087 43.9991 36.3129 43.6949 36.3129 43.322V40.8418C36.3129 40.4697 36.0087 40.1655 35.6357 40.1655ZM9.96018 38.9495V39.264H17.765V36.5552C17.765 35.866 17.5407 35.2713 17.0853 34.7548L11.1246 28.0191C10.5961 27.4201 9.72128 27.298 9.0544 27.6882C8.96417 27.7415 8.87651 27.8025 8.79659 27.8755C8.11682 28.4771 8.05151 29.5247 8.65307 30.207L12.4146 34.4575C12.5581 34.6208 12.5435 34.8717 12.3828 35.0152L12.2977 35.0883C12.1344 35.2318 11.886 35.2172 11.7425 35.0539L7.98104 30.8009C7.05034 29.7507 7.15002 28.1308 8.20018 27.2001C8.47518 26.9586 8.78713 26.7884 9.11628 26.6836L9.49182 20.564C9.54768 19.6582 8.85073 18.871 7.94495 18.8177C7.03917 18.7619 6.25198 19.4562 6.19612 20.3646L5.32901 32.4431C5.26284 33.3635 5.62378 34.1851 6.34479 34.76L8.93924 36.8285C9.60698 37.3613 9.96018 38.097 9.96018 38.9495ZM19.3626 40.1655H8.36432C7.99135 40.1655 7.68713 40.4697 7.68713 40.8427V43.3228C7.68713 43.6958 7.99135 44 8.36432 44H19.3626C19.7356 44 20.0398 43.6958 20.0398 43.3228V40.8409C20.0407 40.4697 19.7356 40.1655 19.3626 40.1655ZM23.5753 25.4959L23.0373 26.3433C22.8061 26.7085 22.4331 26.913 22.0017 26.913C21.5703 26.9105 21.1982 26.7059 20.9688 26.3407L20.4351 25.4977C20.0939 24.9571 19.3996 24.7689 18.8324 25.0662L17.9429 25.5337C17.5605 25.7331 17.1368 25.7237 16.7613 25.5097C16.3883 25.2931 16.1692 24.9296 16.152 24.4965L16.1133 23.503C16.0867 22.862 15.5796 22.3532 14.9394 22.3266L13.9357 22.2853C13.5042 22.2681 13.1416 22.049 12.9267 21.6734C12.7102 21.3005 12.7024 20.8768 12.9027 20.4944L13.3676 19.6101C13.6649 19.0446 13.4793 18.3502 12.9388 18.0073L12.0914 17.4694C11.7262 17.2382 11.5217 16.8678 11.5217 16.4364C11.5217 16.0024 11.7262 15.6329 12.0914 15.4009L12.9345 14.8698C13.475 14.5286 13.6632 13.8342 13.3659 13.267L12.9001 12.375C12.7007 11.9926 12.7076 11.5689 12.9242 11.1959C13.1407 10.8204 13.5042 10.6013 13.9348 10.5866L14.9308 10.5454C15.5693 10.5213 16.0807 10.0117 16.1047 9.37406L16.146 8.37031C16.1657 7.93891 16.3849 7.57625 16.757 7.35969C17.1325 7.1457 17.5562 7.13539 17.9386 7.33734L18.8203 7.80227C19.3875 8.09961 20.0819 7.91398 20.4231 7.37344L20.961 6.52352C21.1922 6.15828 21.5652 5.95633 21.9966 5.95633C22.428 5.95633 22.8001 6.16086 23.0296 6.52609L23.5632 7.36914C23.9044 7.90969 24.5988 8.09789 25.166 7.80055L26.0554 7.33563C26.4378 7.13367 26.8615 7.14313 27.2371 7.35969C27.61 7.57625 27.8292 7.93977 27.8464 8.37031L27.8867 9.36719C27.9134 10.0057 28.4204 10.5145 29.0606 10.5411L30.0644 10.5823C30.4958 10.5995 30.8585 10.8187 31.0733 11.1934C31.2899 11.5689 31.2976 11.9926 31.0974 12.375L30.6324 13.2567C30.3351 13.8222 30.5207 14.5183 31.0613 14.8595L31.9086 15.3974C32.2739 15.6286 32.4784 15.999 32.4784 16.433C32.4784 16.8644 32.2739 17.2365 31.9086 17.4659L31.063 17.9996C30.5224 18.3408 30.3368 19.0352 30.6342 19.5998L31.0991 20.4909C31.2985 20.8734 31.2916 21.297 31.075 21.6726C30.8585 22.0455 30.4949 22.2647 30.0644 22.2819L29.0684 22.3205C28.4299 22.3446 27.9185 22.8542 27.8945 23.4919L27.8532 24.4982C27.8335 24.9296 27.6143 25.2923 27.2422 25.5071C26.8667 25.7237 26.443 25.7314 26.0606 25.5286L25.1789 25.0654C24.6099 24.7698 23.9156 24.9545 23.5753 25.4959ZM24.1717 21.798C24.3814 21.9519 24.622 22.0266 24.866 22.0266C25.1118 22.0266 25.3533 21.951 25.5604 21.8023C25.7701 21.6511 25.9162 21.4414 25.9918 21.2077C26.0674 20.9765 26.07 20.723 25.9918 20.4789L25.1565 17.9231L27.3316 16.347C27.5413 16.1958 27.6899 15.9887 27.7656 15.7575C27.8412 15.5238 27.8438 15.2702 27.763 15.0245C27.6822 14.7787 27.5318 14.5759 27.3342 14.4323C27.1365 14.2888 26.8985 14.2106 26.6372 14.2106L23.9499 14.2158L23.1241 11.6583C23.0459 11.4151 22.8929 11.2097 22.6953 11.0662C22.4959 10.9201 22.2544 10.8376 21.9983 10.8376C21.7448 10.8376 21.5042 10.9201 21.3039 11.0662C21.1063 11.2097 20.9533 11.4142 20.8751 11.6583L20.0492 14.2158L17.362 14.2106C17.1016 14.2106 16.8627 14.2888 16.665 14.4323C16.4674 14.5759 16.317 14.7787 16.2362 15.0245C16.1554 15.2702 16.158 15.5238 16.2336 15.7575C16.3092 15.9887 16.4579 16.1958 16.6676 16.347L18.8427 17.9231L18.0074 20.4789C17.9292 20.7221 17.9317 20.9756 18.0074 21.2077C18.083 21.4414 18.2291 21.6511 18.4388 21.8023C18.6459 21.951 18.8874 22.0266 19.1332 22.0266C19.3764 22.0266 19.6178 21.951 19.8275 21.798L21.9983 20.2142L24.1717 21.798ZM23.7798 17.4762C23.8554 17.2451 24.0041 17.038 24.2112 16.8867L25.9824 15.6054L23.797 15.608C23.5366 15.608 23.2977 15.5298 23.1 15.3862C22.9024 15.2427 22.752 15.0382 22.6712 14.7898L21.9992 12.7119L21.3289 14.7898C21.2481 15.0382 21.0977 15.2427 20.9 15.3862C20.7024 15.5298 20.4643 15.608 20.2031 15.608L18.0177 15.6054L19.7889 16.8867C19.996 17.038 20.1446 17.2451 20.2203 17.4762C20.2959 17.71 20.2985 17.9635 20.2177 18.2093L19.5379 20.2873L21.3039 18.9982C21.5162 18.8444 21.7568 18.7696 21.9983 18.7696C22.2415 18.7696 22.483 18.8452 22.6953 18.9982L24.4613 20.2873L23.7815 18.2093C23.7016 17.9635 23.7042 17.71 23.7798 17.4762ZM21.9992 3.69359C22.3867 3.69359 22.6987 3.37906 22.6987 2.99406V0.696953C22.6987 0.311953 22.3867 0 21.9992 0C21.6142 0 21.3022 0.311953 21.3022 0.696953V2.99406C21.3022 3.37906 21.6142 3.69359 21.9992 3.69359ZM28.3714 5.39859C28.7049 5.59109 29.1311 5.4768 29.3236 5.1425L30.4709 3.15477C30.6634 2.82391 30.5491 2.3968 30.2174 2.20258C29.8839 2.01008 29.4577 2.12438 29.2652 2.45867L28.1179 4.44641C27.9228 4.77727 28.038 5.20352 28.3714 5.39859ZM33.9892 10.3168L35.9769 9.16953C36.3103 8.97703 36.4255 8.55078 36.2304 8.21734C36.0379 7.88391 35.6117 7.77133 35.2782 7.96383L33.2905 9.11109C32.9596 9.30359 32.8445 9.72984 33.037 10.0633C33.2286 10.3976 33.6549 10.5093 33.9892 10.3168ZM14.6764 5.13992C14.8689 5.47336 15.2926 5.58852 15.6269 5.39773C15.9603 5.20523 16.0755 4.77898 15.883 4.44727L14.7357 2.45953C14.5458 2.12609 14.1196 2.01094 13.7853 2.20172C13.4535 2.39422 13.3367 2.81789 13.5292 3.15219L14.6764 5.13992ZM8.02315 9.16953L10.0109 10.3168C10.3443 10.5093 10.7706 10.3976 10.9631 10.0633C11.1556 9.72984 11.0413 9.30359 10.7096 9.11109L8.72268 7.96383C8.38924 7.77133 7.96299 7.88305 7.77049 8.21734C7.57542 8.55078 7.68971 8.97703 8.02315 9.16953Z" fill="#2B4294"/>
</svg>
