<svg width="56" height="56" viewBox="0 0 56 56" fill="none" xmlns="http://www.w3.org/2000/svg">
<path fill-rule="evenodd" clip-rule="evenodd" d="M4.77542 33.4827C4.66335 33.5085 4.54729 33.5119 4.43389 33.4928C4.32049 33.4737 4.21197 33.4325 4.11453 33.3714C4.01709 33.3103 3.93265 33.2306 3.86603 33.1369C3.79942 33.0431 3.75193 32.9372 3.7263 32.8251C3.41626 31.4667 3.22049 30.0847 3.14103 28.6936L2.51234 29.4869C2.3682 29.6688 2.15771 29.786 1.92717 29.8127C1.69662 29.8394 1.46492 29.7734 1.28302 29.6293C1.10113 29.4851 0.983943 29.2746 0.957247 29.0441C0.930551 28.8136 0.996531 28.5819 1.14067 28.4L3.3052 25.6697C3.38603 25.5676 3.48868 25.4848 3.60564 25.4275C3.72259 25.3701 3.85089 25.3397 3.98114 25.3383H3.99098C4.1197 25.3383 4.24684 25.3667 4.3633 25.4216C4.47975 25.4764 4.58265 25.5563 4.66462 25.6555L6.93219 28.3921C7.00879 28.4801 7.06699 28.5826 7.10339 28.6935C7.13978 28.8044 7.15363 28.9214 7.1441 29.0378C7.13458 29.1541 7.10189 29.2673 7.04795 29.3708C6.994 29.4743 6.9199 29.566 6.83 29.6404C6.7401 29.7148 6.63622 29.7705 6.52448 29.8042C6.41274 29.8378 6.29539 29.8488 6.17934 29.8365C6.06329 29.8241 5.95088 29.7886 5.84874 29.7322C5.7466 29.6757 5.65678 29.5994 5.58458 29.5077L4.89344 28.6737C4.97004 29.94 5.15031 31.1979 5.43244 32.4347C5.48419 32.6608 5.44406 32.8982 5.32086 33.0947C5.19766 33.2912 5.00148 33.4308 4.77542 33.4827ZM37.2563 48.5401C34.3501 49.7995 31.2154 50.4463 28.048 50.4399C26.9782 50.4392 25.9096 50.3652 24.8499 50.2185L26.053 49.5338C26.2481 49.4159 26.3896 49.2265 26.4471 49.0059C26.5047 48.7853 26.4739 48.551 26.3613 48.3527C26.2487 48.1545 26.0632 48.0081 25.8442 47.9446C25.6253 47.8811 25.3901 47.9055 25.189 48.0128L21.9124 49.8754C21.7944 49.9423 21.6936 50.0358 21.618 50.1483C21.5424 50.2609 21.494 50.3895 21.4767 50.524C21.4593 50.6586 21.4735 50.7953 21.5181 50.9233C21.5627 51.0514 21.6365 51.1673 21.7337 51.262L24.5504 54.0134C24.7175 54.1694 24.9391 54.2538 25.1676 54.2485C25.3962 54.2432 25.6136 54.1487 25.7734 53.9852C25.9331 53.8217 26.0225 53.6021 26.0225 53.3735C26.0224 53.1449 25.9329 52.9254 25.773 52.7619L24.9965 52.0034C26.0089 52.1273 27.028 52.1896 28.048 52.19C31.4547 52.1966 34.8262 51.5009 37.9519 50.1461C38.1649 50.0539 38.3325 49.8808 38.4178 49.665C38.5032 49.4492 38.4993 49.2083 38.4071 48.9953C38.3148 48.7824 38.1418 48.6148 37.926 48.5294C37.7101 48.4441 37.4693 48.4479 37.2563 48.5402V48.5401ZM52.8129 24.1932C52.7849 23.9627 52.6664 23.7528 52.4835 23.6096C52.3007 23.4665 52.0685 23.4018 51.838 23.4299C51.6075 23.458 51.3976 23.5765 51.2545 23.7593C51.1113 23.9421 51.0467 24.1743 51.0747 24.4048C51.1895 25.3453 51.2472 26.2919 51.2474 27.2394C51.2474 27.4861 51.2431 27.7334 51.2354 27.9807L50.4558 26.9964C50.3116 26.8145 50.1011 26.6973 49.8705 26.6706C49.64 26.6439 49.4082 26.7099 49.2264 26.8541C49.0445 26.9983 48.9273 27.2088 48.9006 27.4394C48.8739 27.6699 48.9399 27.9016 49.0841 28.0835L51.2487 30.8139C51.3296 30.9159 51.4323 30.9987 51.5492 31.056C51.6661 31.1134 51.7944 31.1439 51.9246 31.1454H51.9344C52.0631 31.1453 52.1903 31.1169 52.3067 31.062C52.4232 31.0072 52.5261 30.9274 52.6082 30.8282L54.8756 28.0915C55.0156 27.912 55.0801 27.685 55.0554 27.4587C55.0308 27.2324 54.9189 27.0246 54.7435 26.8795C54.5682 26.7343 54.3431 26.6632 54.1162 26.6813C53.8893 26.6993 53.6783 26.8051 53.5281 26.9761L52.9922 27.6231C52.9936 27.4952 52.9975 27.3675 52.9975 27.2403C52.997 26.2221 52.9354 25.2049 52.813 24.1941L52.8129 24.1932ZM14.4223 8.2602C14.5991 8.26019 14.7718 8.20653 14.9175 8.10631C18.0901 5.93227 21.7529 4.58017 25.5771 4.17138C29.4013 3.7626 33.2671 4.30994 36.8275 5.76426L35.4539 5.98367C35.2367 6.01834 35.0405 6.13356 34.9044 6.30638C34.7683 6.4792 34.7023 6.69695 34.7195 6.91625C34.7367 7.13556 34.8359 7.34032 34.9973 7.48978C35.1588 7.63923 35.3705 7.7224 35.5905 7.72273C35.637 7.72275 35.6835 7.71909 35.7294 7.71179L39.8763 7.04974C40.0169 7.02725 40.1498 6.97079 40.2637 6.88526C40.3775 6.79972 40.4687 6.68771 40.5295 6.55893C40.5902 6.43014 40.6186 6.28849 40.6121 6.14625C40.6057 6.00402 40.5647 5.8655 40.4926 5.74271L38.3952 2.16845C38.2777 1.96829 38.0856 1.823 37.8609 1.76455C37.6363 1.70609 37.3977 1.73925 37.1976 1.85673C36.9974 1.97421 36.8521 2.16639 36.7937 2.391C36.7352 2.6156 36.7684 2.85423 36.8858 3.05438L37.5359 4.16115C33.7015 2.58728 29.5359 1.99203 25.4143 2.42904C21.2926 2.86605 17.3444 4.32159 13.9254 6.66453C13.7714 6.77035 13.6554 6.92269 13.5942 7.09924C13.5331 7.27578 13.53 7.46727 13.5855 7.64567C13.6411 7.82407 13.7522 7.98001 13.9028 8.09067C14.0533 8.20132 14.2353 8.26089 14.4222 8.26063L14.4223 8.2602ZM40.0574 28.0322C40.0566 28.7491 39.7745 29.4371 39.2717 29.9481C38.769 30.4591 38.0857 30.7524 37.369 30.7649C37.0157 30.9822 36.5945 32.3433 36.7291 32.82C37.2169 33.3403 37.4821 34.0306 37.468 34.7436C37.4539 35.4567 37.1616 36.1359 36.6536 36.6365C36.1456 37.137 35.462 37.4192 34.7489 37.4227C34.0357 37.4262 33.3494 37.1509 32.8365 36.6554C32.4354 36.5599 31.176 37.2255 30.9322 37.6582C30.9097 38.3713 30.6092 39.0472 30.0949 39.5417C29.5807 40.0362 28.8935 40.3101 28.1801 40.3047C27.4667 40.2994 26.7837 40.0154 26.2769 39.5132C25.7701 39.0111 25.4798 38.3307 25.4679 37.6174C25.2504 37.265 23.8895 36.8443 23.4126 36.9781C22.8927 37.468 22.2017 37.7349 21.4875 37.7216C20.7733 37.7083 20.0927 37.416 19.5914 36.9072C19.09 36.3984 18.8078 35.7135 18.8051 34.9992C18.8024 34.2849 19.0794 33.598 19.5769 33.0854C19.6734 32.6836 19.007 31.4242 18.575 31.1806C17.8616 31.1587 17.1851 30.8585 16.6901 30.3442C16.1951 29.83 15.9209 29.1425 15.9262 28.4288C15.9315 27.715 16.2158 27.0316 16.7183 26.5248C17.2208 26.0179 17.9017 25.7277 18.6154 25.7163C18.9677 25.4986 19.3888 24.1378 19.2542 23.661C18.766 23.1408 18.5005 22.4504 18.5145 21.7371C18.5284 21.0239 18.8207 20.3444 19.3289 19.8437C19.837 19.343 20.5208 19.0609 21.2342 19.0576C21.9476 19.0542 22.634 19.33 23.1468 19.8258C23.5494 19.9218 24.8082 19.256 25.0521 18.8232C25.0737 18.1194 25.3661 17.4511 25.8683 16.9576C26.3706 16.4641 27.0439 16.1835 27.748 16.1744C28.4521 16.1652 29.1325 16.4281 29.6475 16.9083C30.1624 17.3885 30.4722 18.0489 30.5121 18.7519C30.7244 18.9992 31.49 19.5036 32.1593 19.587C32.398 19.6165 32.4984 19.5736 32.5115 19.5613C33.0219 19.0537 33.7119 18.7679 34.4317 18.7661C35.1515 18.7642 35.843 19.0464 36.3559 19.5514C36.8689 20.0564 37.1619 20.7434 37.1713 21.4631C37.1807 22.1829 36.9058 22.8773 36.4062 23.3955C36.3112 23.797 36.9761 25.0568 37.4092 25.3003C38.1188 25.323 38.7918 25.6207 39.286 26.1305C39.7801 26.6403 40.0568 27.3223 40.0574 28.0322ZM34.3077 28.2401C34.3076 26.9909 33.9372 25.7697 33.2431 24.7311C32.5491 23.6924 31.5626 22.8829 30.4085 22.4049C29.2544 21.9269 27.9845 21.8019 26.7593 22.0456C25.5341 22.2894 24.4087 22.8909 23.5254 23.7743C22.6422 24.6576 22.0407 25.7831 21.797 27.0083C21.5534 28.2335 21.6785 29.5034 22.1566 30.6575C22.6347 31.8116 23.4443 32.798 24.4831 33.4919C25.5218 34.1859 26.7429 34.5562 27.9921 34.5561C29.6666 34.5543 31.272 33.8882 32.456 32.7041C33.64 31.52 34.3059 29.9146 34.3077 28.2401ZM32.5577 28.2401C32.5577 27.337 32.2899 26.4541 31.7881 25.7032C31.2864 24.9524 30.5732 24.3671 29.7389 24.0215C28.9045 23.6759 27.9864 23.5855 27.1007 23.7617C26.2149 23.9379 25.4013 24.3729 24.7628 25.0115C24.1242 25.6501 23.6893 26.4637 23.5132 27.3495C23.3371 28.2352 23.4275 29.1533 23.7732 29.9877C24.1188 30.822 24.7041 31.5351 25.455 32.0368C26.206 32.5385 27.0888 32.8062 27.9919 32.8061C29.2025 32.8049 30.3632 32.3234 31.2192 31.4674C32.0752 30.6113 32.5567 29.4507 32.5579 28.2401H32.5577ZM42.8292 20.6623C42.1211 20.6614 41.4423 20.3798 40.9415 19.8791C40.4408 19.3785 40.159 18.6997 40.158 17.9916V10.5064C40.1588 9.79826 40.4404 9.1193 40.9412 8.6185C41.4419 8.1177 42.1208 7.83595 42.829 7.83506H50.3146C51.0228 7.83578 51.7018 8.11747 52.2026 8.61831C52.7033 9.11915 52.9849 9.7982 52.9855 10.5064V17.9916C52.9848 18.6999 52.7032 19.3789 52.2025 19.8798C51.7017 20.3806 51.0227 20.6623 50.3145 20.6631L42.8292 20.6623ZM44.7767 16.6233C44.9328 16.7699 45.1373 16.8541 45.3513 16.8601C45.5653 16.866 45.7741 16.7933 45.9382 16.6556L50.0771 13.1817C50.2549 13.0325 50.366 12.8187 50.3862 12.5875C50.4063 12.3562 50.3338 12.1265 50.1845 11.9487C50.0352 11.771 49.8214 11.6598 49.5902 11.6397C49.359 11.6195 49.1292 11.6921 48.9514 11.8414L45.4092 14.8158L44.349 13.821C44.1798 13.6622 43.9544 13.5771 43.7225 13.5844C43.4905 13.5918 43.271 13.691 43.1121 13.8602C42.9533 14.0294 42.8682 14.2548 42.8755 14.4868C42.8829 14.7187 42.9821 14.9383 43.1513 15.0971L44.7767 16.6233ZM0.875 18.6064V11.1213C0.875868 10.4132 1.15752 9.73434 1.6582 9.23358C2.15888 8.73282 2.83771 8.45106 3.54583 8.45007H11.0317C11.7399 8.45091 12.4188 8.73267 12.9195 9.23351C13.4201 9.73436 13.7017 10.4134 13.7023 11.1216V18.6065C13.7015 19.3148 13.4198 19.9938 12.919 20.4947C12.4182 20.9955 11.7392 21.2772 11.0309 21.278H3.54594C2.83775 21.277 2.15886 20.9952 1.65815 20.4944C1.15745 19.9936 0.87581 19.3146 0.875 18.6064ZM5.49522 17.2392C5.65113 17.3858 5.8554 17.47 6.06929 17.4759C6.28317 17.4818 6.49179 17.4091 6.65558 17.2714L10.7947 13.7975C10.8846 13.7243 10.9592 13.6339 11.0139 13.5316C11.0686 13.4293 11.1024 13.3171 11.1134 13.2016C11.1244 13.0861 11.1122 12.9696 11.0778 12.8588C11.0433 12.748 10.9871 12.6452 10.9125 12.5564C10.8379 12.4675 10.7464 12.3944 10.6433 12.3412C10.5402 12.288 10.4275 12.2559 10.3119 12.2467C10.1962 12.2374 10.0799 12.2513 9.96966 12.2875C9.85942 12.3236 9.75746 12.3813 9.66973 12.4572L6.12598 15.4315L5.06625 14.4369C4.98246 14.3583 4.884 14.2969 4.77649 14.2563C4.66898 14.2157 4.55453 14.1967 4.43966 14.2003C4.3248 14.2039 4.21178 14.2301 4.10704 14.2775C4.00231 14.3248 3.90793 14.3922 3.82927 14.476C3.75062 14.5598 3.68924 14.6583 3.64864 14.7658C3.60804 14.8733 3.58901 14.9878 3.59264 15.1026C3.59627 15.2175 3.62249 15.3305 3.6698 15.4352C3.71711 15.54 3.78459 15.6344 3.86838 15.713L5.495 17.2389L5.49522 17.2392ZM17.4542 40.301C17.4532 39.5926 17.1713 38.9136 16.6704 38.4128C16.1695 37.912 15.4904 37.6303 14.782 37.6295H7.29739C6.58905 37.6302 5.90992 37.9118 5.40897 38.4126C4.90803 38.9134 4.62618 39.5925 4.62525 40.3008V47.7858C4.62618 48.4942 4.90803 49.1732 5.40897 49.674C5.90992 50.1748 6.58905 50.4565 7.29739 50.4572H14.7819C15.4903 50.4564 16.1695 50.1747 16.6705 49.6738C17.1715 49.1729 17.4533 48.4938 17.4542 47.7854V40.301ZM13.4203 41.6362C13.508 41.5597 13.61 41.5015 13.7204 41.4649C13.8309 41.4283 13.9475 41.4141 14.0634 41.4232C14.1794 41.4322 14.2924 41.4643 14.3959 41.5175C14.4993 41.5707 14.5911 41.644 14.6659 41.7331C14.7406 41.8223 14.7969 41.9254 14.8313 42.0365C14.8658 42.1476 14.8777 42.2645 14.8664 42.3803C14.8552 42.496 14.8209 42.6084 14.7657 42.7108C14.7105 42.8132 14.6354 42.9036 14.5449 42.9766L10.4068 46.451C10.2427 46.5886 10.0339 46.6612 9.81991 46.6552C9.60589 46.6491 9.40151 46.5648 9.24547 46.4182L7.61884 44.8921C7.44962 44.7332 7.35044 44.5137 7.34311 44.2817C7.33577 44.0497 7.42089 43.8243 7.57974 43.6551C7.73859 43.4859 7.95815 43.3867 8.19013 43.3794C8.42211 43.372 8.6475 43.4571 8.81672 43.616L9.87645 44.6107L13.4202 41.6357L13.4203 41.6362ZM55.125 38.3017V45.7868C55.124 46.495 54.8423 47.1739 54.3415 47.6747C53.8407 48.1754 53.1618 48.4572 52.4536 48.4581H44.9684C44.2602 48.4574 43.5812 48.1756 43.0805 47.6748C42.5797 47.174 42.2981 46.495 42.2974 45.7868V38.3017C42.2979 37.5935 42.5794 36.9145 43.0801 36.4137C43.5808 35.9129 44.2597 35.6312 44.9679 35.6304H52.4537C53.1619 35.6314 53.8408 35.9132 54.3415 36.4139C54.8423 36.9146 55.124 37.5935 55.125 38.3017ZM51.0912 39.6369L47.5475 42.6119L46.4888 41.6175C46.405 41.5388 46.3065 41.4775 46.199 41.4369C46.0915 41.3963 45.9771 41.3772 45.8622 41.3808C45.7473 41.3845 45.6343 41.4107 45.5296 41.458C45.4249 41.5053 45.3305 41.5728 45.2518 41.6565C45.1732 41.7403 45.1118 41.8388 45.0712 41.9463C45.0306 42.0538 45.0115 42.1682 45.0152 42.2831C45.0188 42.398 45.045 42.511 45.0923 42.6157C45.1396 42.7204 45.2071 42.8148 45.2909 42.8935L46.9165 44.4196C47.0726 44.5662 47.2769 44.6505 47.491 44.6565C47.705 44.6626 47.9138 44.59 48.0779 44.4524L52.2169 40.9784C52.3948 40.8291 52.5061 40.6153 52.5264 40.384C52.5466 40.1526 52.4741 39.9227 52.3248 39.7448C52.1756 39.5669 51.9617 39.4556 51.7304 39.4354C51.499 39.4152 51.2691 39.4877 51.0912 39.6369Z" fill="#2B4294"/>
</svg>
