<svg width="56" height="56" viewBox="0 0 56 56" fill="none" xmlns="http://www.w3.org/2000/svg">
<path d="M11.5938 46.8012C11.9547 46.8012 12.25 47.0965 12.25 47.4574C12.25 47.8184 11.9547 48.1137 11.5938 48.1137C6.42031 48.1137 2.29688 43.9137 2.29688 38.8168C2.29688 37.2199 2.7125 35.623 3.55469 34.1684C3.72969 33.8512 4.13438 33.7527 4.45156 33.9277C4.76875 34.1137 4.87813 34.5074 4.69219 34.8246C3.98125 36.0715 3.62031 37.4387 3.62031 38.8168C3.60937 43.1699 7.13125 46.8012 11.5938 46.8012ZM18.9766 10.084C18.8016 10.4012 18.3969 10.5105 18.0797 10.3246C17.7625 10.1496 17.6641 9.74492 17.8391 9.42773C19.5125 6.54023 22.5531 4.7793 25.8891 4.7793C27.5297 4.7793 29.1813 5.2168 30.5375 6.01523C31.9266 6.81367 33.0969 7.97305 33.9281 9.42773C34.1141 9.74492 34.0047 10.1387 33.6875 10.3246C33.3703 10.5105 32.9766 10.4012 32.7906 10.084C32.0687 8.83711 31.0625 7.8418 29.8703 7.15273C26.1078 4.97617 21.2078 6.22305 18.9766 10.084ZM24.7734 35.6121V37.2965C24.7734 37.4496 24.8938 37.5699 25.0469 37.5699H26.7312C26.8844 37.5699 27.0047 37.4496 27.0047 37.2965V35.6121C27.0047 35.459 26.8844 35.3387 26.7312 35.3387H25.0469C24.9047 35.3387 24.7734 35.459 24.7734 35.6121ZM23.4609 37.3074V35.623C23.4609 34.748 24.1719 34.0371 25.0469 34.0371H26.7312C27.6062 34.0371 28.3172 34.748 28.3172 35.623V37.3074C28.3172 38.1824 27.6062 38.8934 26.7312 38.8934H25.0469C24.1719 38.8934 23.4609 38.1715 23.4609 37.3074ZM24.6203 24.0074L25.4297 30.7121C25.4625 31.0184 25.8016 30.9527 26.0641 30.9527C26.2063 30.9527 26.3266 30.8543 26.3375 30.7121L27.1469 23.9637V20.584C27.1469 20.4309 27.0266 20.3105 26.8734 20.3105H24.8938C24.7406 20.3105 24.6203 20.4309 24.6203 20.584V24.0074ZM24.1391 30.8762L23.3297 24.1715L23.3187 23.9746V20.6059C23.3187 19.7309 24.0297 19.0199 24.9047 19.0199H26.8844C27.7594 19.0199 28.4703 19.7309 28.4703 20.6059V23.9855L28.4594 24.1715L27.6609 30.8762C27.5625 31.6746 26.8844 32.2762 26.0859 32.2762C25.5391 32.2762 25.1453 32.2871 24.675 31.8824C24.3797 31.6199 24.1828 31.2699 24.1391 30.8762ZM50.5969 33.1184C46.4625 28.984 39.7469 28.984 35.6016 33.1184C33.6875 35.0324 32.4953 37.6902 32.4953 40.6105C32.4953 46.3965 37.1656 51.209 43.0938 51.209C48.9453 51.209 53.6922 46.4621 53.6922 40.6105C53.7031 37.6902 52.5219 35.0434 50.5969 33.1184ZM31.1938 40.4902C31.2375 36.1809 33.5891 32.3527 37.1766 30.2855L27.3328 13.2449C26.8406 12.3809 25.7906 12.1949 25.0469 12.6215C24.8062 12.7637 24.5984 12.9605 24.4344 13.2449L10.15 37.9855C9.84375 38.5215 9.84375 39.123 10.15 39.659C10.4672 40.2059 10.9703 40.5012 11.6047 40.5012H31.1938V40.4902ZM31.5766 43.6402C31.4234 43.0387 31.3141 42.4262 31.2484 41.8027H11.5938C10.5109 41.8027 9.55938 41.2559 9.0125 40.3152C8.46563 39.3746 8.46562 38.2262 9.03437 37.2965L23.3078 12.5777C23.5813 12.1074 23.9531 11.7355 24.3906 11.484C25.8234 10.6637 27.7047 11.1668 28.4812 12.6215L38.3359 29.6949C38.9047 29.4434 39.5063 29.2355 40.1078 29.0824L30.0562 11.659C28.1969 8.44336 23.5594 8.44336 21.6891 11.659L7.41563 36.4105C6.05938 38.7621 6.9125 41.7043 9.17656 43.0059C9.89844 43.4215 10.7188 43.6402 11.5938 43.6402H31.5766ZM49.7328 36.7496C49.7328 36.2137 49.0875 35.973 48.7266 36.334L41.1031 43.9574C40.8516 44.2199 40.4359 44.2199 40.1734 43.9574L37.1875 40.9715C36.8266 40.6105 36.1812 40.8512 36.1812 41.3871C36.1812 41.5402 36.2359 41.6934 36.3562 41.8027L40.2719 45.7184C40.4688 45.8934 40.8297 45.8934 41.0594 45.6637L49.5688 37.1543C49.6781 37.0449 49.7328 36.8918 49.7328 36.7496ZM50.4984 35.3934C51.2422 36.1371 51.2422 37.3402 50.4984 38.084L41.9891 46.5934C41.6281 46.9434 41.1688 47.1293 40.6984 47.1402C40.2391 47.1512 39.6922 46.9762 39.3531 46.6371L35.4375 42.7215C34.2453 41.5293 35.0766 39.473 36.7828 39.473C37.275 39.473 37.7563 39.659 38.1281 40.0309L40.6438 42.5465L47.8078 35.3824C48.5406 34.6605 49.7438 34.6605 50.4984 35.3934Z" fill="#2B4294"/>
</svg>
