<svg width="56" height="56" viewBox="0 0 56 56" fill="none" xmlns="http://www.w3.org/2000/svg">
<path d="M11.375 17.5H14.875V22.75H11.375V17.5Z" fill="#2B4294"/>
<path d="M16.625 19.25H32.375V21H16.625V19.25Z" fill="#2B4294"/>
<path d="M46.375 28.875H51.625V30.625H46.375V28.875Z" fill="#2B4294"/>
<path d="M18.375 42.875C19.3415 42.875 20.125 42.0915 20.125 41.125C20.125 40.1585 19.3415 39.375 18.375 39.375C17.4085 39.375 16.625 40.1585 16.625 41.125C16.625 42.0915 17.4085 42.875 18.375 42.875Z" fill="#2B4294"/>
<path d="M34.125 17.5H37.625V22.75H34.125V17.5Z" fill="#2B4294"/>
<path d="M32.375 3.5C32.375 3.26794 32.2828 3.04538 32.1187 2.88128C31.9546 2.71719 31.7321 2.625 31.5 2.625H17.5C17.2679 2.625 17.0454 2.71719 16.8813 2.88128C16.7172 3.04538 16.625 3.26794 16.625 3.5V6.125H32.375V3.5Z" fill="#2B4294"/>
<path d="M39.375 19.25H46.375V21H39.375V19.25Z" fill="#2B4294"/>
<path d="M9.625 16.625C9.625 16.3929 9.71719 16.1704 9.88128 16.0063C10.0454 15.8422 10.2679 15.75 10.5 15.75H15.75C15.9821 15.75 16.2046 15.8422 16.3687 16.0063C16.5328 16.1704 16.625 16.3929 16.625 16.625V17.5H32.375V16.625C32.375 16.3929 32.4672 16.1704 32.6313 16.0063C32.7954 15.8422 33.0179 15.75 33.25 15.75H38.5C38.7321 15.75 38.9546 15.8422 39.1187 16.0063C39.2828 16.1704 39.375 16.3929 39.375 16.625V17.5H46.375V10.5C46.375 9.80381 46.0984 9.13613 45.6062 8.64384C45.1139 8.15156 44.4462 7.875 43.75 7.875H5.25C4.55381 7.875 3.88613 8.15156 3.39384 8.64384C2.90156 9.13613 2.625 9.80381 2.625 10.5V17.5H9.625V16.625Z" fill="#2B4294"/>
<path d="M2.625 19.25H9.625V21H2.625V19.25Z" fill="#2B4294"/>
<path d="M35.875 28.875H41.125V30.625H35.875V28.875Z" fill="#2B4294"/>
<path d="M44.625 28C44.625 27.7679 44.7172 27.5454 44.8813 27.3813C45.0454 27.2172 45.2679 27.125 45.5 27.125H46.375V22.75H39.375V23.625C39.375 23.8571 39.2828 24.0796 39.1187 24.2437C38.9546 24.4078 38.7321 24.5 38.5 24.5H33.25C33.0179 24.5 32.7954 24.4078 32.6313 24.2437C32.4672 24.0796 32.375 23.8571 32.375 23.625V22.75H16.625V23.625C16.625 23.8571 16.5328 24.0796 16.3687 24.2437C16.2046 24.4078 15.9821 24.5 15.75 24.5H10.5C10.2679 24.5 10.0454 24.4078 9.88128 24.2437C9.71719 24.0796 9.625 23.8571 9.625 23.625V22.75H2.625V38.5C2.625 39.1962 2.90156 39.8639 3.39384 40.3562C3.88613 40.8484 4.55381 41.125 5.25 41.125H14.875C14.875 40.1967 15.2437 39.3065 15.9001 38.6501C16.5565 37.9937 17.4467 37.625 18.375 37.625C19.3033 37.625 20.1935 37.9937 20.8499 38.6501C21.5063 39.3065 21.875 40.1967 21.875 41.125H32.375V31.5C32.375 31.2679 32.4672 31.0454 32.6313 30.8813C32.7954 30.7172 33.0179 30.625 33.25 30.625H34.125V28C34.125 27.7679 34.2172 27.5454 34.3813 27.3813C34.5454 27.2172 34.7679 27.125 35 27.125H42C42.2321 27.125 42.4546 27.2172 42.6187 27.3813C42.7828 27.5454 42.875 27.7679 42.875 28V30.625H44.625V28Z" fill="#2B4294"/>
<path d="M44.625 46.375H53.375V32.375H44.625V46.375ZM46.375 38.5H48.125V36.75H49.875V38.5H51.625V40.25H49.875V42H48.125V40.25H46.375V38.5Z" fill="#2B4294"/>
<path d="M34.125 46.375H42.875V32.375H34.125V46.375ZM35.875 38.5H37.625V36.75H39.375V38.5H41.125V40.25H39.375V42H37.625V40.25H35.875V38.5Z" fill="#2B4294"/>
<path d="M25.375 50.75C26.8247 50.75 28 49.5747 28 48.125C28 46.6753 26.8247 45.5 25.375 45.5C23.9253 45.5 22.75 46.6753 22.75 48.125C22.75 49.5747 23.9253 50.75 25.375 50.75Z" fill="#2B4294"/>
<path d="M15.75 54.25C17.1997 54.25 18.375 53.0747 18.375 51.625C18.375 50.1753 17.1997 49 15.75 49C14.3003 49 13.125 50.1753 13.125 51.625C13.125 53.0747 14.3003 54.25 15.75 54.25Z" fill="#2B4294"/>
</svg>
