<svg width="56" height="56" viewBox="0 0 56 56" fill="none" xmlns="http://www.w3.org/2000/svg">
<path d="M28.4694 45.5826L28.6908 46.0509H24.6883V23.2277L27.0771 25.6166C27.1803 25.7199 27.3177 25.7767 27.4637 25.7767C27.6098 25.7767 27.7471 25.7199 27.8505 25.6165L33.2821 20.1849V27.9635L33.1423 28.0615C29.3763 30.7012 27.128 35.0113 27.128 39.5908C27.128 41.6835 27.5792 43.6992 28.4694 45.5826ZM15.0008 26.293V46.0509H23.5945V22.134L21.3771 19.9166L15.0008 26.293ZM5.31333 46.0509H13.907V27.3867L5.31333 35.9804V46.0509ZM21.3771 18.5963C21.5233 18.5963 21.6605 18.6531 21.7638 18.7564L27.4636 24.4564L41.7965 10.1237C41.8982 10.0219 42.0392 9.96351 42.1831 9.96351C42.2224 9.96351 42.2618 9.96777 42.3004 9.9762C42.4833 10.0164 42.6314 10.1453 42.6963 10.3212L43.4006 12.2312L46.3629 3.43262L37.535 6.40477L39.56 7.18079C39.7336 7.24729 39.8604 7.39571 39.8991 7.5776C39.9378 7.75949 39.8824 7.94663 39.7509 8.0781L27.8505 19.9785C27.7471 20.0818 27.6098 20.1388 27.4637 20.1388C27.3177 20.1388 27.1805 20.0819 27.0771 19.9786L21.3772 14.2787L1.82339 33.8324L3.86893 35.8779L20.9905 18.7565C21.0937 18.6531 21.2311 18.5963 21.3772 18.5963H21.3771ZM41.9657 11.5013L34.3757 19.0912V27.2765L34.8523 27.0345C36.8329 26.0293 38.9682 25.5195 41.1991 25.5195C41.6669 25.5195 42.1411 25.5431 42.6088 25.5899L42.9695 25.6259V14.1849L42.9285 14.1018C42.9225 14.0898 42.9158 14.0779 42.9111 14.0651L41.9657 11.5013ZM35.113 44.371H37.3686V42.1155H35.113V44.371ZM49.3197 33.737H33.0786C32.5081 33.737 32.0439 34.2012 32.0439 34.7717V36.7953L41.1993 39.0295L50.3546 36.7953V34.7717C50.3546 34.2012 49.8904 33.737 49.3199 33.737H49.3197ZM54.1766 39.5908C54.1766 46.7466 48.3549 52.5682 41.1992 52.5682C34.0434 52.5682 28.2217 46.7465 28.2217 39.5908C28.2217 32.435 34.0434 26.6133 41.1992 26.6133C48.3549 26.6133 54.1766 32.4349 54.1766 39.5908ZM51.4481 37.2248V34.7717C51.4481 33.5981 50.4933 32.6433 49.3197 32.6433H45.1345V31.3057C45.1345 30.1611 44.2033 29.2299 43.0586 29.2299H38.899C37.7544 29.2299 36.8232 30.1611 36.8232 31.3057V32.6433H33.0786C31.905 32.6433 30.9502 33.598 30.9502 34.7717V37.2248C30.9502 37.4659 31.1052 37.6756 31.3359 37.7466L31.5675 37.8179V45.8606C31.5675 46.9218 32.4308 47.7852 33.4919 47.7852H48.9064C49.9675 47.7852 50.8308 46.9218 50.8308 45.8606V37.8179L51.0624 37.7466C51.2932 37.6756 51.4483 37.4659 51.4483 37.2248H51.4481ZM41.3288 40.1237L49.7371 38.0717V45.8607C49.7371 46.3188 49.3644 46.6915 48.9064 46.6915H33.4919C33.0339 46.6915 32.6612 46.3189 32.6612 45.8607V38.0717L41.0697 40.1237C41.112 40.1341 41.1556 40.1393 41.1992 40.1393C41.2427 40.1393 41.2863 40.1341 41.3288 40.1237ZM38.4624 41.5686C38.4624 41.2671 38.2171 41.0217 37.9155 41.0217H34.5661C34.2646 41.0217 34.0192 41.2671 34.0192 41.5686V44.9179C34.0192 45.2194 34.2646 45.4648 34.5661 45.4648H37.9155C38.2171 45.4648 38.4624 45.2194 38.4624 44.9179V41.5686ZM43.9797 44.9179C43.9797 45.2194 44.225 45.4648 44.5266 45.4648H47.876C48.1775 45.4648 48.4228 45.2194 48.4228 44.9179V41.5686C48.4228 41.2671 48.1775 41.0217 47.876 41.0217H44.5266C44.225 41.0217 43.9797 41.2671 43.9797 41.5686V44.9179ZM44.0407 31.3056C44.0407 30.7641 43.6002 30.3236 43.0586 30.3236H38.899C38.3575 30.3236 37.9169 30.764 37.9169 31.3056V32.6432H44.0407V31.3056ZM47.3291 42.1155H45.0734V44.371H47.3291V42.1155Z" fill="#2B4294"/>
</svg>
