<svg width="56" height="56" viewBox="0 0 56 56" fill="none" xmlns="http://www.w3.org/2000/svg">
<path d="M28.0942 18.7609C30.9977 18.7609 33.3599 16.3987 33.3599 13.4952C33.3599 10.5916 30.9977 8.2294 28.0942 8.2294C25.1906 8.2294 22.8285 10.5916 22.8285 13.4952C22.8285 16.3987 25.1907 18.7609 28.0942 18.7609ZM25.4791 12.9343C25.7164 12.7479 26.0603 12.7888 26.247 13.0262L27.2624 14.3175L29.9744 11.4613C30.1824 11.2422 30.5286 11.2334 30.7475 11.4412C30.9666 11.6491 30.9755 11.9953 30.7676 12.2143L27.6201 15.5293C27.5167 15.6384 27.3731 15.6997 27.2235 15.6997C27.2151 15.6997 27.2066 15.6995 27.1982 15.6991C27.0395 15.6917 26.8918 15.6157 26.7937 15.4909L25.3874 13.7023C25.2008 13.4649 25.2419 13.1211 25.4792 12.9344L25.4791 12.9343ZM19.0775 14.7274C19.3213 15.1173 19.3995 15.5614 19.3039 16.0113L18.7312 18.7056C18.6622 19.0303 18.8483 19.3524 19.1639 19.4551L21.7833 20.3062C22.221 20.4483 22.5662 20.7381 22.7823 21.1442L24.0753 23.5761C24.2312 23.8692 24.5805 23.9965 24.8886 23.8721L27.4423 22.8403C27.6556 22.7541 27.875 22.711 28.0943 22.711C28.3136 22.711 28.533 22.7541 28.7463 22.8403L31.2999 23.8721C31.6078 23.9965 31.9574 23.8693 32.1132 23.5761L33.4062 21.1442C33.6223 20.7381 33.9677 20.4483 34.405 20.3062L37.0246 19.4551C37.3403 19.3525 37.5263 19.0303 37.4573 18.7054L36.8846 16.0115C36.789 15.5611 36.8674 15.1171 37.1112 14.7273L38.5707 12.3917C38.7465 12.1102 38.682 11.7437 38.4203 11.5393L36.2499 9.84378C35.8875 9.56038 35.662 9.16992 35.5979 8.71448L35.2147 5.98688C35.1684 5.65821 34.8803 5.41682 34.5517 5.43071L31.7992 5.52685C31.3376 5.54173 30.9158 5.38871 30.5739 5.08104L28.5272 3.23785C28.2803 3.01571 27.9083 3.01582 27.6617 3.23785L25.6149 5.08093C25.2728 5.3886 24.8502 5.54271 24.3895 5.52685L21.637 5.43071C21.3032 5.41595 21.0201 5.65832 20.974 5.98688L20.5907 8.71437C20.5266 9.16992 20.3013 9.56038 19.9388 9.84367L17.7683 11.5394C17.5067 11.7437 17.4421 12.1101 17.618 12.3917L19.0776 14.7274H19.0775ZM28.0942 7.13587C31.6008 7.13587 34.4537 9.9887 34.4537 13.4954C34.4537 17.002 31.6008 19.8549 28.0942 19.8549C24.5875 19.8549 21.7348 17.002 21.7348 13.4954C21.7348 9.9887 24.5876 7.13587 28.0942 7.13587ZM31.7954 47.8563L29.0381 45.6176L33.331 42.9799C33.8496 43.2314 34.3475 43.5188 34.8215 43.8391L31.7954 47.8562V47.8563ZM38.8741 35.3606C38.8741 32.4963 41.2044 30.166 44.0687 30.166C46.933 30.166 49.2634 32.4963 49.2634 35.3606C49.2634 38.2249 46.9361 40.552 44.0743 40.5551C44.0723 40.5551 44.0705 40.5551 44.0686 40.5551C44.0667 40.5551 44.065 40.5551 44.0631 40.5551C41.2013 40.552 38.8741 38.223 38.8741 35.3606ZM28.0942 44.9139L24.1012 42.4606C25.3489 42.0209 26.6898 41.7811 28.0859 41.7801C28.0887 41.7801 28.0915 41.7803 28.0945 41.7803C28.0972 41.7803 28.1001 41.7801 28.1029 41.7801C29.4988 41.7811 30.8396 42.021 32.0872 42.4606L28.0943 44.9139H28.0942ZM21.6057 34.1979C21.6057 30.62 24.5165 27.7093 28.0944 27.7093C31.6723 27.7093 34.583 30.62 34.583 34.1979C34.583 37.7757 31.6767 40.6818 28.1027 40.6863C28.0999 40.6863 28.097 40.6863 28.0942 40.6863C28.0914 40.6863 28.0886 40.6863 28.0859 40.6863C24.5119 40.6817 21.6057 37.7729 21.6057 34.1979ZM28.5753 48.6951L29.7941 53.2777H26.3944L27.6131 48.6951C27.6632 48.5065 27.6092 48.3057 27.4713 48.1679L26.6975 47.3941L28.0943 46.2601L29.4911 47.3941L28.7173 48.1678C28.5794 48.3057 28.5253 48.5065 28.5754 48.695L28.5753 48.6951ZM53.7822 50.8305H40.8881C40.3086 48.3537 39.0261 46.1448 37.2638 44.4252C39.0737 42.6559 41.522 41.6502 44.0632 41.6488C44.0651 41.6488 44.067 41.6489 44.0688 41.6489H44.073C49.2522 41.6512 53.4979 45.7209 53.7823 50.8306L53.7822 50.8305ZM40.1265 53.2777H30.9258L29.7132 48.7184L30.3446 48.0871L31.5464 49.0628C31.6444 49.1423 31.7662 49.1851 31.891 49.1851C31.913 49.1851 31.9352 49.1837 31.9573 49.181C32.1047 49.163 32.2384 49.0859 32.3277 48.9673L35.699 44.4919C38.2747 46.5947 39.9677 49.7396 40.1265 53.2777ZM18.9191 44.4306C17.1597 46.1494 15.8793 48.3563 15.3004 50.8305H2.40625C2.69095 45.7235 6.93459 41.6555 12.111 41.6533H12.1154C12.1172 41.6533 12.119 41.6532 12.1208 41.6532C14.6619 41.6547 17.11 42.6608 18.919 44.4304L18.9191 44.4306ZM26.4752 48.7185L25.2627 53.2778H16.0619C16.2207 49.7397 17.9138 46.5948 20.4893 44.492L23.8606 48.9674C23.9498 49.086 24.0836 49.1631 24.231 49.1811C24.2531 49.1838 24.2753 49.1852 24.2973 49.1852C24.4222 49.1852 24.5441 49.1423 24.642 49.0629L25.8438 48.0872L26.4751 48.7185H26.4752ZM6.92322 35.3674C6.92322 32.5044 9.25247 30.1753 12.1155 30.1753C14.9785 30.1753 17.3076 32.5044 17.3076 35.3674C17.3076 38.2304 14.9813 40.5564 12.1209 40.5593C12.119 40.5593 12.1171 40.5593 12.1152 40.5593C12.1134 40.5593 12.1116 40.5593 12.1098 40.5593C9.24941 40.5563 6.92333 38.2284 6.92333 35.3674H6.92322ZM21.367 43.8389C21.8409 43.5186 22.3389 43.2312 22.8573 42.9798L27.1503 45.6175L24.3929 47.8562L21.3668 43.8391L21.367 43.8389Z" fill="#2B4294"/>
</svg>
