<svg width="56" height="56" viewBox="0 0 56 56" fill="none" xmlns="http://www.w3.org/2000/svg">
<path d="M12.0914 22.4697H9.94C9.205 22.4697 8.60344 23.0713 8.60344 23.8063V25.1428H13.428V23.8063C13.428 23.0713 12.8264 22.4697 12.0914 22.4697ZM14.4791 33.5603H7.55016V35.1047C7.55016 35.3748 7.77656 35.6013 8.04672 35.6013H13.9869C14.257 35.6013 14.4802 35.3748 14.4802 35.1047V33.5603H14.4791ZM15.1462 49.2852H6.88625C6.21359 49.2852 5.73016 49.9392 5.73016 50.6338V51.9791H16.2991V50.6338C16.2991 49.9392 15.8156 49.2852 15.1462 49.2852ZM9.71687 48.1914H12.3145V36.6917H9.71687V48.1914ZM46.6091 22.4697H44.4577C43.7227 22.4697 43.1211 23.0713 43.1211 23.8063V25.1428H47.9456V23.8063C47.9445 23.0713 47.343 22.4697 46.6091 22.4697ZM48.9956 33.5603H42.0689V35.1047C42.0689 35.3748 42.292 35.6013 42.5622 35.6013H48.5023C48.7725 35.6013 48.9956 35.3748 48.9956 35.1047V33.5603ZM49.6628 49.2852H41.4039C40.7312 49.2852 40.2478 49.9392 40.2478 50.6338V51.9791H50.8167V50.6338C50.8156 49.9392 50.3322 49.2852 49.6628 49.2852ZM44.2334 48.1914H46.8311V36.6917H44.2334V48.1914ZM30.8153 4.74219L32.1923 9.75813H38.6509L36.0653 4.74219H30.8153ZM25.2219 9.75813L26.5989 4.74219H20.4848L17.8992 9.75813H25.2219ZM31.0603 9.75813L29.6833 4.74219H27.7298L26.3528 9.75813H31.0603ZM26.1866 10.853V14.6877H31.2277V10.853H26.1866ZM48.7473 26.2377L45.5755 32.4666H51.7891C52.0898 32.4666 52.3348 32.2183 52.3348 31.9175V26.7856C52.3348 26.4848 52.0898 26.2366 51.7891 26.2366H48.7473V26.2377ZM44.3483 32.4655L47.5202 26.2366H44.2892L41.1173 32.4655H44.3483ZM33.565 24.0611C29.9873 20.4834 23.9564 21.4077 21.6103 25.9456C20.522 28.0544 20.522 30.6488 21.6103 32.7575C23.9575 37.2966 29.9873 38.2208 33.565 34.642C36.4853 31.7217 36.4853 26.9814 33.565 24.0611ZM36.2655 26.2377C37.0431 28.2348 37.0431 30.4694 36.2655 32.4666H39.8934L43.0653 26.2377H36.2655ZM28.2723 20.7744C31.4377 20.7744 34.2562 22.4981 35.747 25.1428H38.9998V10.853H32.3214V15.2334C32.3214 15.5375 32.0764 15.7825 31.7756 15.7825H25.6375C25.3367 15.7825 25.0917 15.5375 25.0917 15.2334V10.853H17.5481V25.1428H20.8009C22.2917 22.4981 25.1103 20.7744 28.2723 20.7744ZM28.4681 28.7861L29.4197 25.2325L25.8858 28.7642L27.6938 29.2477C27.9847 29.3253 28.1586 29.6261 28.0809 29.917L27.1294 33.4706L30.6611 29.9389L28.8531 29.4555C28.5611 29.3778 28.3905 29.077 28.4681 28.7861ZM30.9947 23.5711L29.6647 28.5411L31.8566 29.1306C32.2689 29.2389 32.3958 29.7508 32.1048 30.0417V30.045L26.4589 35.6877C26.0684 36.0781 25.3827 35.703 25.5533 35.1331L26.8833 30.1631L24.6881 29.5736C24.2791 29.4653 24.1489 28.9534 24.4431 28.6625V28.6592L30.0891 23.0166C30.4927 22.6097 31.1719 23.0286 30.9947 23.5711ZM12.262 32.4655L15.517 26.2366H12.1964L9.02453 32.4655H12.262ZM7.80062 32.4655L10.9725 26.2366H4.76C4.45922 26.2366 4.21094 26.4848 4.21094 26.7856V31.9164C4.21094 32.2172 4.45922 32.4655 4.76 32.4655H7.80062ZM16.7453 26.2377L13.4925 32.4666H20.2792C19.5038 30.4694 19.5005 28.2348 20.2792 26.2377H16.7453ZM22.7445 19.4936C22.0248 19.4936 22.0248 18.3988 22.7445 18.3988H33.8002C34.522 18.3988 34.522 19.4936 33.8002 19.4936H22.7445ZM43.9917 14.0741C43.2698 14.0741 43.2698 12.9792 43.9917 12.9792H48.4783L48.137 12.3897C47.7805 11.7695 48.7233 11.227 49.0798 11.8472L49.8673 13.2111C50.0008 13.4189 50.0073 13.6355 49.8706 13.84L49.1269 15.0398C48.9661 15.2969 48.6303 15.3745 48.3733 15.2138C48.1162 15.0552 48.0386 14.7172 48.1994 14.4634L48.4411 14.073H43.9917V14.0741ZM13.1983 12.9803C13.918 12.9803 13.918 14.0752 13.1983 14.0752H8.75L8.99172 14.4656C9.1525 14.7194 9.07266 15.0573 8.81781 15.2159C8.56078 15.3767 8.22609 15.3002 8.06422 15.042L7.32047 13.8422C7.18375 13.6377 7.19031 13.42 7.32375 13.2133L8.10797 11.8494C8.46781 11.2292 9.41062 11.7717 9.05406 12.3919L8.71281 12.9814H13.1983V12.9803Z" fill="#2B4294"/>
</svg>
