<svg width="56" height="56" viewBox="0 0 56 56" fill="none" xmlns="http://www.w3.org/2000/svg">
<path d="M36.4689 34.2043V34.2032C36.0336 33.4507 35.2548 33.0012 34.3853 33.0012C33.5158 33.0012 32.737 33.4507 32.3017 34.2043L31.8609 34.9677L30.9466 36.5526L24.1752 48.2809L23.2991 49.7968L22.5334 51.1235C22.0992 51.876 22.0992 52.7762 22.5334 53.5287C22.9688 54.2823 23.7475 54.7318 24.617 54.7318H44.1536C45.0231 54.7318 45.8019 54.2823 46.2372 53.5287C46.6714 52.7762 46.6714 51.876 46.2372 51.1235L36.4689 34.2043ZM35.2603 50.4202C35.2603 50.7877 35.0339 51.1027 34.7123 51.2318C34.6106 51.2723 34.5013 51.2952 34.3853 51.2952C34.2694 51.2952 34.16 51.2723 34.0583 51.2318C33.7367 51.1027 33.5103 50.7877 33.5103 50.4202V50.3098C33.5103 49.8263 33.9019 49.4348 34.3853 49.4348C34.8688 49.4348 35.2603 49.8263 35.2603 50.3098V50.4202ZM35.2603 47.0941C35.2603 47.5776 34.8688 47.9691 34.3853 47.9691C33.9019 47.9691 33.5103 47.5776 33.5103 47.0941V40.0099C33.5103 39.5265 33.9019 39.1349 34.3853 39.1349C34.8688 39.1349 35.2603 39.5265 35.2603 40.0099V47.0941ZM21.4473 42.4982C19.1406 44.8049 15.388 44.8049 13.0812 42.4982C10.7745 40.1915 10.7745 36.4388 13.0812 34.1321C15.388 31.8254 19.1406 31.8254 21.4473 34.1321C23.7541 36.4388 23.7541 40.1915 21.4473 42.4982ZM22.6603 47.4048L29.1605 36.1457L29.4306 35.6776L30.0759 34.5587L29.4306 34.4121C29.2162 33.7438 28.9472 33.0941 28.6267 32.4707L29.8802 30.479C30.5298 29.4476 30.4828 28.3549 29.7587 27.6309L27.9486 25.8207C27.2234 25.0955 26.1319 25.0496 25.0994 25.6993L23.1098 26.9516C22.4853 26.6312 21.8356 26.3621 21.1663 26.1477L20.6445 23.8541C20.3744 22.6641 19.5694 21.9248 18.5445 21.9248H15.9852C14.9592 21.9248 14.1542 22.6641 13.8841 23.8541L13.3623 26.1488C12.693 26.3632 12.0433 26.6312 11.4198 26.9516L9.42922 25.6993C8.39672 25.0496 7.30516 25.0955 6.58 25.8207L4.77094 27.6309C4.04578 28.356 3.99875 29.4476 4.64844 30.479L5.90187 32.4707C5.58141 33.0941 5.31234 33.7438 5.09797 34.4121L2.80328 34.9349C1.61437 35.2051 0.875 36.0101 0.875 37.0349V39.5943C0.875 40.6191 1.61328 41.4241 2.80328 41.6954L5.09797 42.2171C5.31234 42.8865 5.58141 43.5362 5.90187 44.1596L4.64844 46.1502C3.99875 47.1827 4.04578 48.2743 4.77094 48.9995L6.58 50.8085C7.30516 51.5337 8.39672 51.5807 9.42922 50.931L11.4198 49.6776C12.0433 49.998 12.693 50.2671 13.3623 50.4804L13.8841 52.7762C14.1542 53.9651 14.9592 54.7045 15.9852 54.7045H18.5445C19.4589 54.7045 20.1983 54.116 20.5384 53.1448C20.3383 52.1691 20.498 51.1487 21.0175 50.2485L21.7831 48.9218L22.2195 48.1671L22.6603 47.4048ZM17.2648 45.9774C15.3016 45.9774 13.3383 45.2293 11.8442 43.7352C8.855 40.746 8.855 35.8832 11.8442 32.894C13.3394 31.3999 15.3016 30.6529 17.2648 30.6529C19.2281 30.6529 21.1903 31.3999 22.6844 32.894C25.6736 35.8832 25.6736 40.746 22.6855 43.7352C21.1903 45.2293 19.227 45.9774 17.2648 45.9774ZM53.0972 16.3188C51.7685 15.3184 50.116 14.7362 48.3371 14.7362C46.3446 14.7362 44.5117 15.4677 43.1141 16.6965C43.1475 11.7756 41.0905 7.02002 37.4065 3.67467C44.6115 4.7553 50.5684 9.62916 53.0972 16.3186V16.3188ZM34.3689 3.62305C39.3243 6.94772 41.8978 12.7667 41.1503 18.5662C39.7698 16.2556 37.2572 14.7523 34.416 14.7374C34.4011 14.7363 34.385 14.7363 34.3689 14.7363C34.3528 14.7363 34.3368 14.7363 34.3218 14.7374C31.4806 14.7523 28.9679 16.2556 27.5875 18.5662C26.84 12.7667 29.4136 6.94662 34.3689 3.62305ZM20.4008 14.7362C18.622 14.7362 16.9694 15.3184 15.6407 16.3188C18.1695 9.62927 24.1264 4.75541 31.3315 3.67478C27.6474 7.02122 25.5894 11.7768 25.6238 16.6977C24.2262 15.4678 22.3933 14.7363 20.4008 14.7363V14.7362ZM34.3689 16.5737C34.6813 16.5737 34.9879 16.5967 35.2877 16.6426V29.4072C35.2877 29.9148 34.8765 30.326 34.3689 30.326C33.8613 30.326 33.4502 29.9148 33.4502 29.4072V16.6426C33.7498 16.5967 34.0565 16.5737 34.3689 16.5737Z" fill="white"/>
</svg>
