<svg width="56" height="56" viewBox="0 0 56 56" fill="none" xmlns="http://www.w3.org/2000/svg">
<path d="M29.75 28.875H32.375V32.375H34.125H35V26.0015L36.5356 23.5148L31.2996 14.875H16.625V18.375H29.75V28.875Z" fill="#2B4294"/>
<path d="M35.0983 17.7669L35.465 14.875H33.3457L35.0983 17.7669Z" fill="#2B4294"/>
<path d="M27.125 30.625V36.1497L26.6263 36.3869C24.8028 37.2549 23.625 39.1151 23.625 41.125C23.625 44.0204 25.9796 46.375 28.875 46.375C31.7704 46.375 34.125 44.0204 34.125 41.125C34.125 39.1151 32.9472 37.2549 31.1237 36.3869L30.625 36.1497V30.625H27.125Z" fill="#2B4294"/>
<path d="M38.6776 20.0454L38.0205 14.875H37.2295L36.5566 20.174L37.5681 21.8426L38.6776 20.0454Z" fill="#2B4294"/>
<path d="M13.125 21.875C14.0901 21.875 14.875 21.0901 14.875 20.125V7.875H11.375V20.125C11.375 21.0901 12.1599 21.875 13.125 21.875Z" fill="#2B4294"/>
<path d="M37.625 13.125C40.5245 13.125 42.875 10.7745 42.875 7.875C42.875 4.97551 40.5245 2.625 37.625 2.625C34.7255 2.625 32.375 4.97551 32.375 7.875C32.375 10.7745 34.7255 13.125 37.625 13.125Z" fill="#2B4294"/>
<path d="M36.75 32.375H44.625V19.25H46.375V32.375H49.875V24.5C49.875 20.356 47.2377 16.8263 43.5575 15.4727L36.75 26.4985V32.375Z" fill="#2B4294"/>
<path d="M40.2498 14.875H39.7852L40.1404 17.675L41.7863 15.0089C41.2849 14.9284 40.7739 14.875 40.2498 14.875Z" fill="#2B4294"/>
<path d="M2.625 51.625H53.375V53.375H2.625V51.625Z" fill="#2B4294"/>
<path d="M9.625 28.875H16.625C17.1071 28.875 17.5 28.4821 17.5 28C17.5 27.5179 17.1071 27.125 16.625 27.125H9.625C9.14288 27.125 8.75 27.5179 8.75 28C8.75 28.4821 9.14288 28.875 9.625 28.875Z" fill="#2B4294"/>
<path d="M32.375 34.125V35.07C34.5179 36.3125 35.875 38.6313 35.875 41.125C35.875 44.9846 32.7346 48.125 28.875 48.125C25.0154 48.125 21.875 44.9846 21.875 41.125C21.875 38.6313 23.2321 36.3125 25.375 35.07V34.125H17.9375L21.9616 43.7832L19.7908 48.125H6.45925L4.28838 43.7832L8.3125 34.125H2.625V49.875H53.375V34.125H32.375ZM51.625 48.125H37.625V35.875H51.625V48.125Z" fill="#2B4294"/>
<path d="M49.875 37.625H39.375V46.375H49.875V37.625ZM48.125 44.625H41.125V42.875H48.125V44.625ZM48.125 41.125H41.125V39.375H48.125V41.125Z" fill="#2B4294"/>
<path d="M10.5003 30.625V33.425L6.21191 43.7168L7.54104 46.375H18.7095L20.0387 43.7168L15.7503 33.425V30.625H10.5003Z" fill="#2B4294"/>
</svg>
