<svg width="56" height="56" viewBox="0 0 56 56" fill="none" xmlns="http://www.w3.org/2000/svg">
<path d="M9.64538 27.0667H23.9534C24.007 27.0661 24.0595 27.0507 24.1049 27.0222C24.1504 26.9937 24.1871 26.9532 24.211 26.9052C24.2469 26.8456 24.2658 26.7774 24.2658 26.7078C24.2658 26.6382 24.2469 26.57 24.211 26.5104L17.0579 14.1643C17.0346 14.1154 16.998 14.074 16.9523 14.045C16.9065 14.0159 16.8536 14.0003 16.7994 14C16.746 14.0001 16.6937 14.0152 16.6485 14.0436C16.6033 14.072 16.5669 14.1125 16.5436 14.1605L9.38685 26.5067C9.35098 26.5664 9.33203 26.6348 9.33203 26.7045C9.33203 26.7742 9.35098 26.8426 9.38685 26.9024C9.41042 26.9511 9.4471 26.9923 9.49277 27.0213C9.53843 27.0503 9.59128 27.066 9.64538 27.0667ZM15.866 17.7333C15.866 17.4858 15.9644 17.2484 16.1394 17.0734C16.3144 16.8983 16.5518 16.8 16.7994 16.8C17.0469 16.8 17.2843 16.8983 17.4593 17.0734C17.6344 17.2484 17.7327 17.4858 17.7327 17.7333V20.5333C17.7327 20.7809 17.6344 21.0183 17.4593 21.1933C17.2843 21.3683 17.0469 21.4667 16.7994 21.4667C16.5518 21.4667 16.3144 21.3683 16.1394 21.1933C15.9644 21.0183 15.866 20.7809 15.866 20.5333V17.7333ZM15.866 23.8877C15.866 23.6402 15.9644 23.4028 16.1394 23.2278C16.3144 23.0527 16.5518 22.9544 16.7994 22.9544C17.0469 22.9544 17.2843 23.0527 17.4593 23.2278C17.6344 23.4028 17.7327 23.6402 17.7327 23.8877V24.2667C17.7327 24.5142 17.6344 24.7516 17.4593 24.9266C17.2843 25.1017 17.0469 25.2 16.7994 25.2C16.5518 25.2 16.3144 25.1017 16.1394 24.9266C15.9644 24.7516 15.866 24.5142 15.866 24.2667V23.8877Z" fill="#2B4294"/>
<path d="M4.66602 43.8673C4.66602 44.1149 4.76435 44.3523 4.93938 44.5273C5.11442 44.7023 5.35181 44.8007 5.59935 44.8007H50.3993C50.6469 44.8007 50.8843 44.7023 51.0593 44.5273C51.2344 44.3523 51.3327 44.1149 51.3327 43.8673V9.33398H4.66602V43.8673ZM11.1993 41.0673H9.33268C9.08515 41.0673 8.84775 40.969 8.67272 40.794C8.49768 40.6189 8.39935 40.3815 8.39935 40.134C8.39935 39.8865 8.49768 39.6491 8.67272 39.474C8.84775 39.299 9.08515 39.2007 9.33268 39.2007H11.1993C11.4469 39.2007 11.6843 39.299 11.8593 39.474C12.0343 39.6491 12.1327 39.8865 12.1327 40.134C12.1327 40.3815 12.0343 40.6189 11.8593 40.794C11.6843 40.969 11.4469 41.0673 11.1993 41.0673ZM29.866 41.0673H14.9327C14.6851 41.0673 14.4478 40.969 14.2727 40.794C14.0977 40.6189 13.9993 40.3815 13.9993 40.134C13.9993 39.8865 14.0977 39.6491 14.2727 39.474C14.4478 39.299 14.6851 39.2007 14.9327 39.2007H29.866C30.1136 39.2007 30.3509 39.299 30.526 39.474C30.701 39.6491 30.7993 39.8865 30.7993 40.134C30.7993 40.3815 30.701 40.6189 30.526 40.794C30.3509 40.969 30.1136 41.0673 29.866 41.0673ZM33.5993 37.334H9.33268C9.08515 37.334 8.84775 37.2357 8.67272 37.0606C8.49768 36.8856 8.39935 36.6482 8.39935 36.4007C8.39935 36.1531 8.49768 35.9157 8.67272 35.7407C8.84775 35.5657 9.08515 35.4673 9.33268 35.4673H33.5993C33.8469 35.4673 34.0843 35.5657 34.2593 35.7407C34.4344 35.9157 34.5327 36.1531 34.5327 36.4007C34.5327 36.6482 34.4344 36.8856 34.2593 37.0606C34.0843 37.2357 33.8469 37.334 33.5993 37.334ZM46.666 37.334H37.3327C37.0851 37.334 36.8477 37.2357 36.6727 37.0606C36.4977 36.8856 36.3993 36.6482 36.3993 36.4007C36.3993 36.1531 36.4977 35.9157 36.6727 35.7407C36.8477 35.5657 37.0851 35.4673 37.3327 35.4673H46.666C46.9136 35.4673 47.1509 35.5657 47.326 35.7407C47.501 35.9157 47.5993 36.1531 47.5993 36.4007C47.5993 36.6482 47.501 36.8856 47.326 37.0606C47.1509 37.2357 46.9136 37.334 46.666 37.334ZM46.666 33.6007H45.7327C45.4851 33.6007 45.2477 33.5023 45.0727 33.3273C44.8977 33.1523 44.7993 32.9149 44.7993 32.6673C44.7993 32.4198 44.8977 32.1824 45.0727 32.0074C45.2477 31.8323 45.4851 31.734 45.7327 31.734H46.666C46.9136 31.734 47.1509 31.8323 47.326 32.0074C47.501 32.1824 47.5993 32.4198 47.5993 32.6673C47.5993 32.9149 47.501 33.1523 47.326 33.3273C47.1509 33.5023 46.9136 33.6007 46.666 33.6007ZM29.866 13.0673C29.866 12.8198 29.9643 12.5824 30.1394 12.4074C30.3144 12.2323 30.5518 12.134 30.7993 12.134C31.0469 12.134 31.2843 12.2323 31.4593 12.4074C31.6344 12.5824 31.7327 12.8198 31.7327 13.0673V27.0673H33.5993V20.534C33.5993 20.2865 33.6977 20.0491 33.8727 19.874C34.0477 19.699 34.2851 19.6007 34.5327 19.6007C34.7802 19.6007 35.0176 19.699 35.1926 19.874C35.3677 20.0491 35.466 20.2865 35.466 20.534V27.0673H37.3327V14.0007C37.3327 13.7531 37.431 13.5157 37.606 13.3407C37.7811 13.1657 38.0185 13.0673 38.266 13.0673C38.5136 13.0673 38.7509 13.1657 38.926 13.3407C39.101 13.5157 39.1993 13.7531 39.1993 14.0007V27.0673H41.066V18.6673C41.066 18.4198 41.1643 18.1824 41.3394 18.0074C41.5144 17.8323 41.7518 17.734 41.9993 17.734C42.2469 17.734 42.4843 17.8323 42.6593 18.0074C42.8344 18.1824 42.9327 18.4198 42.9327 18.6673V27.0673H44.7993V22.4007C44.7993 22.1531 44.8977 21.9157 45.0727 21.7407C45.2477 21.5657 45.4851 21.4673 45.7327 21.4673C45.9802 21.4673 46.2176 21.5657 46.3926 21.7407C46.5677 21.9157 46.666 22.1531 46.666 22.4007V27.0673H47.5993C47.8469 27.0673 48.0843 27.1657 48.2593 27.3407C48.4344 27.5157 48.5327 27.7531 48.5327 28.0007C48.5327 28.2482 48.4344 28.4856 48.2593 28.6606C48.0843 28.8357 47.8469 28.934 47.5993 28.934H30.7993C30.5518 28.934 30.3144 28.8357 30.1394 28.6606C29.9643 28.4856 29.866 28.2482 29.866 28.0007V13.0673ZM28.9327 31.734H41.9993C42.2469 31.734 42.4843 31.8323 42.6593 32.0074C42.8344 32.1824 42.9327 32.4198 42.9327 32.6673C42.9327 32.9149 42.8344 33.1523 42.6593 33.3273C42.4843 33.5023 42.2469 33.6007 41.9993 33.6007H28.9327C28.6851 33.6007 28.4477 33.5023 28.2727 33.3273C28.0977 33.1523 27.9993 32.9149 27.9993 32.6673C27.9993 32.4198 28.0977 32.1824 28.2727 32.0074C28.4477 31.8323 28.6851 31.734 28.9327 31.734ZM25.1993 33.6007H9.33268C9.08515 33.6007 8.84775 33.5023 8.67272 33.3273C8.49768 33.1523 8.39935 32.9149 8.39935 32.6673C8.39935 32.4198 8.49768 32.1824 8.67272 32.0074C8.84775 31.8323 9.08515 31.734 9.33268 31.734H25.1993C25.4469 31.734 25.6843 31.8323 25.8593 32.0074C26.0344 32.1824 26.1327 32.4198 26.1327 32.6673C26.1327 32.9149 26.0344 33.1523 25.8593 33.3273C25.6843 33.5023 25.4469 33.6007 25.1993 33.6007ZM7.77122 25.574L14.9252 13.2297C15.1113 12.8955 15.3833 12.6172 15.713 12.4233C16.0427 12.2295 16.4183 12.1273 16.8007 12.1273C17.1832 12.1273 17.5588 12.2295 17.8885 12.4233C18.2182 12.6172 18.4902 12.8955 18.6763 13.2297L25.8275 25.574C26.0254 25.9181 26.1296 26.3082 26.1296 26.7052C26.1296 27.1022 26.0254 27.4922 25.8275 27.8364C25.6409 28.1695 25.3689 28.4468 25.0395 28.6397C24.71 28.8326 24.3351 28.9342 23.9533 28.934H9.64535C9.26336 28.9346 8.88811 28.8333 8.55833 28.6406C8.22856 28.4478 7.95619 28.1705 7.76935 27.8373C7.57171 27.4928 7.46788 27.1026 7.4682 26.7054C7.46853 26.3083 7.57301 25.9181 7.77122 25.574Z" fill="#2B4294"/>
<path d="M53.2005 5.59961H2.80052C2.55299 5.59961 2.31559 5.69794 2.14055 5.87298C1.96552 6.04801 1.86719 6.28541 1.86719 6.53294C1.86719 6.78048 1.96552 7.01788 2.14055 7.19291C2.31559 7.36794 2.55299 7.46628 2.80052 7.46628H53.2005C53.4481 7.46628 53.6855 7.36794 53.8605 7.19291C54.0355 7.01788 54.1339 6.78048 54.1339 6.53294C54.1339 6.28541 54.0355 6.04801 53.8605 5.87298C53.6855 5.69794 53.4481 5.59961 53.2005 5.59961Z" fill="#2B4294"/>
<path d="M27.0661 1.86719C26.8186 1.86719 26.5812 1.96552 26.4062 2.14055C26.2311 2.31559 26.1328 2.55299 26.1328 2.80052V3.73385H29.8661V2.80052C29.8661 2.55299 29.7678 2.31559 29.5928 2.14055C29.4177 1.96552 29.1803 1.86719 28.9328 1.86719H27.0661Z" fill="#2B4294"/>
<path d="M28.9326 49.6377V46.666H27.0659V49.6377C26.4432 49.8579 25.9183 50.2911 25.5841 50.8609C25.2499 51.4306 25.1279 52.1001 25.2395 52.7511C25.3512 53.4021 25.6895 53.9926 26.1945 54.4184C26.6995 54.8441 27.3387 55.0776 27.9992 55.0776C28.6597 55.0776 29.299 54.8441 29.804 54.4184C30.309 53.9926 30.6472 53.4021 30.7589 52.7511C30.8706 52.1001 30.7486 51.4306 30.4143 50.8609C30.0801 50.2911 29.5553 49.8579 28.9326 49.6377Z" fill="#2B4294"/>
</svg>
