<svg width="56" height="56" viewBox="0 0 56 56" fill="none" xmlns="http://www.w3.org/2000/svg">
<path fill-rule="evenodd" clip-rule="evenodd" d="M51.9895 9.01232C50.7474 7.54918 48.0204 4.33654 47.0643 3.21017L42.1391 9.01232H43.9107C44.3959 9.01232 44.7892 9.40564 44.7892 9.89075V25.3891C44.7892 25.8739 44.3955 26.2676 43.9107 26.2676C43.426 26.2676 43.0323 25.8739 43.0323 25.3891V10.7692H41.1658C40.6391 10.7692 40.1966 10.4842 39.9784 10.0085C39.7611 9.53784 39.831 9.0098 40.1725 8.61428L46.0671 1.67017C46.3195 1.36986 46.6619 1.20801 47.0643 1.20801C47.4557 1.20801 47.798 1.36426 48.0563 1.66402C48.0576 1.66567 48.0589 1.66721 48.0602 1.66875L53.958 8.6167C54.2935 9.01089 54.3644 9.5385 54.1474 10.0085C53.9285 10.4859 53.4829 10.7692 52.9628 10.7692H51.0935V20.5238C51.0935 21.0086 50.6999 21.4023 50.215 21.4023C49.7302 21.4023 49.3366 21.0086 49.3366 20.5238V9.89075C49.3366 9.40564 49.7299 9.01232 50.215 9.01232H51.9895ZM49.3366 22.9564C49.3366 22.4716 49.7302 22.078 50.215 22.078C50.6999 22.078 51.0935 22.4716 51.0935 22.9564V25.3891C51.0935 25.8739 50.6999 26.2676 50.215 26.2676C49.7302 26.2676 49.3366 25.8739 49.3366 25.3891V22.9564ZM49.3366 27.8217C49.3366 27.3369 49.7302 26.9433 50.215 26.9433C50.6999 26.9433 51.0935 27.3369 51.0935 27.8217V30.1945C51.0935 30.6793 50.6999 31.0729 50.215 31.0729C49.7302 31.0729 49.3366 30.6793 49.3366 30.1945V27.8217ZM44.7892 30.1945C44.7892 30.6793 44.3955 31.0729 43.9107 31.0729C43.426 31.0729 43.0323 30.6793 43.0323 30.1945V27.8217C43.0323 27.3369 43.426 26.9433 43.9107 26.9433C44.3955 26.9433 44.7892 27.3369 44.7892 27.8217V30.1945ZM39.2641 18.5313C38.1779 17.2518 36.1483 14.8608 35.3024 13.8644L31.3409 18.5313H32.5944C33.0795 18.5313 33.4728 18.9247 33.4728 19.4098V27.362C33.4728 27.8468 33.0791 28.2404 32.5944 28.2404C32.1095 28.2404 31.7159 27.8468 31.7159 27.362V20.2882H30.237C29.7347 20.2882 29.3128 20.0164 29.1046 19.5627C28.8975 19.1138 28.9642 18.6102 29.2897 18.233L34.3513 12.2701C34.5921 11.9837 34.9187 11.8292 35.3024 11.8292C35.6757 11.8292 36.0022 11.9781 36.2484 12.2639C36.2497 12.2656 36.251 12.2671 36.2524 12.2687L41.3172 18.2352C41.6371 18.6113 41.7049 19.1145 41.498 19.5627C41.2891 20.0181 40.864 20.2882 40.3679 20.2882H38.8868V32.5828C38.8868 33.0676 38.4931 33.4613 38.0083 33.4613C37.5235 33.4613 37.1299 33.0676 37.1299 32.5828V19.4098C37.1299 18.9247 37.5231 18.5313 38.0083 18.5313H39.2641ZM30.4599 41.1341H30.369C30.2962 41.0934 30.2198 41.0574 30.1405 41.0269L29.188 40.6603C29.0246 40.1682 28.8262 39.689 28.594 39.2256C28.5941 39.2256 29.0084 38.2902 29.0084 38.2902C29.3025 37.6262 29.1578 36.8498 28.6444 36.3364L26.6011 34.293C26.087 33.7789 25.3093 33.6346 24.645 33.93L23.7103 34.3456C23.2484 34.1142 22.7709 33.9163 22.2809 33.7532L21.9138 32.7979C21.6531 32.1191 21.001 31.6711 20.2739 31.6711H17.3835C16.6573 31.6711 16.0059 32.118 15.7445 32.7955L15.3751 33.7527C14.8847 33.9159 14.4067 34.1139 13.9442 34.3456L13.0095 33.93C12.3452 33.6346 11.5676 33.7789 11.0535 34.293L9.01012 36.3364C8.49602 36.8505 8.35174 37.6281 8.64711 38.2924L9.06272 39.2271C8.83092 39.6897 8.6325 40.1682 8.46857 40.6596L7.51404 41.0269C7.43498 41.0573 7.35911 41.0931 7.28664 41.1336C4.96626 41.1335 3.16932 41.1333 2.27661 41.133C2.11828 41.133 1.96773 41.0645 1.86375 40.9452C1.75966 40.8259 1.71233 40.6674 1.73385 40.5106C2.9406 32.1483 10.1339 25.7218 18.8272 25.7218C26.7141 25.7218 33.3639 31.0056 35.4328 38.2251H32.6643C31.6723 38.2251 30.7931 38.8638 30.4866 39.8073C30.3433 40.2484 30.3404 40.709 30.4599 41.1341ZM18.8272 24.6238C14.0184 24.6238 10.0986 20.6994 10.0986 15.8905C10.0986 11.0817 14.0184 7.15718 18.8272 7.15718C23.6407 7.15718 27.5606 11.0817 27.5606 15.8905C27.5606 20.6994 23.6407 24.6238 18.8272 24.6238ZM20.9549 35.2007C21.898 35.4248 22.7974 35.7973 23.624 36.3067L25.3588 35.5353L27.4021 37.5787L26.6336 39.3134C27.143 40.14 27.5156 41.0394 27.7397 41.9853L29.5094 42.6665V45.5568L27.7397 46.2378C27.5156 47.1809 27.1402 48.0803 26.6336 48.9069L27.4021 50.6417L25.3588 52.685L23.624 51.9166C22.8003 52.4259 21.898 52.7985 20.9549 53.0226L20.2739 54.7923H17.3835L16.7024 53.0226C15.7565 52.7985 14.8571 52.4231 14.0305 51.9166L12.2958 52.685L10.2524 50.6417L11.0238 48.9069C10.5144 48.0832 10.1419 47.1809 9.91479 46.2378L8.14508 45.5568V42.6665L9.91479 41.9853C10.1419 41.0394 10.5144 40.14 11.0238 39.3134L10.2524 37.5787L12.2958 35.5353L14.0305 36.3067C14.8571 35.7973 15.7565 35.4248 16.6996 35.2007L17.3835 33.428H20.2739L20.9549 35.2007ZM18.8272 39.0689C16.0417 39.0689 13.786 41.3246 13.786 44.1102C13.786 46.8957 16.0417 49.1543 18.8272 49.1543C21.6128 49.1543 23.8714 46.8957 23.8714 44.1102C23.8714 41.3246 21.6128 39.0689 18.8272 39.0689ZM40.6835 34.1557C40.7549 33.9362 40.9594 33.7875 41.1902 33.7875C41.4212 33.7875 41.6257 33.9362 41.6971 34.1557L43.4705 39.6138C43.5419 39.8333 43.7465 39.982 43.9773 39.982H49.7163C49.9471 39.982 50.1518 40.1306 50.2232 40.3501C50.2944 40.5697 50.2162 40.8103 50.0296 40.9459L45.3866 44.3192C45.1998 44.4549 45.1217 44.6955 45.193 44.915L46.9665 50.3732C47.0377 50.5927 46.9597 50.8332 46.7729 50.9689C46.5861 51.1046 46.3332 51.1046 46.1465 50.9689L41.5035 47.5957C41.3167 47.4599 41.0639 47.4599 40.8771 47.5957L36.2341 50.9689C36.0474 51.1046 35.7945 51.1046 35.6077 50.9689C35.4209 50.8332 35.3427 50.5927 35.4141 50.3732L37.1876 44.915C37.2589 44.6955 37.1808 44.4549 36.994 44.3192L32.351 40.9459C32.1643 40.8103 32.0862 40.5697 32.1574 40.3501C32.2288 40.1306 32.4334 39.982 32.6643 39.982H38.4032C38.6341 39.982 38.8387 39.8333 38.9101 39.6138L40.6835 34.1557Z" fill="#2B4294"/>
</svg>
