<svg width="56" height="56" viewBox="0 0 56 56" fill="none" xmlns="http://www.w3.org/2000/svg">
<path d="M24.9758 7.83979C24.9758 7.05579 24.3038 6.38379 23.5198 6.38379H18.2558C17.4718 6.38379 16.7998 7.05579 16.7998 7.83979V11.3118H24.9758V7.83979Z" fill="#2B4294"/>
<path d="M16.7998 12.9922H24.9758V16.5762H16.7998V12.9922Z" fill="#2B4294"/>
<path d="M16.7998 18.2559H24.9758V22.3999H16.7998V18.2559Z" fill="#2B4294"/>
<path d="M4.5918 12.9922H12.7678V16.5762H4.5918V12.9922Z" fill="#2B4294"/>
<path d="M4.5918 18.2559H12.7678V22.3999H4.5918V18.2559Z" fill="#2B4294"/>
<path d="M12.6558 7.83979C12.6558 7.05579 11.9838 6.38379 11.1998 6.38379H5.9358C5.1518 6.38379 4.5918 7.05579 4.5918 7.83979V11.3118H12.7678V7.83979H12.6558Z" fill="#2B4294"/>
<path d="M28.896 8.28809C29.008 8.28809 29.12 8.28809 29.232 8.17609L39.424 3.02409H39.648L50.064 8.17609C50.512 8.40009 50.96 8.17609 51.184 7.84009C51.408 7.39209 51.184 6.94409 50.848 6.72009L40.32 1.45609C39.76 1.23209 39.2 1.23209 38.64 1.45609L28.448 6.60809C28 6.83209 27.888 7.28009 28.112 7.72809C28.224 8.06409 28.56 8.28809 28.896 8.28809Z" fill="#2B4294"/>
<path d="M26.0957 29.3438H29.9037V33.1518H26.0957V29.3438Z" fill="#2B4294"/>
<path d="M26.0957 37.5205H29.9037V41.3285H26.0957V37.5205Z" fill="#2B4294"/>
<path d="M6.49609 37.5205H10.3041V41.3285H6.49609V37.5205Z" fill="#2B4294"/>
<path d="M35.9521 37.5205H39.7602V41.3285H35.9521V37.5205Z" fill="#2B4294"/>
<path d="M35.9521 45.6963H39.7602V49.5043H35.9521V45.6963Z" fill="#2B4294"/>
<path d="M26.0957 45.6963H29.9037V49.5043H26.0957V45.6963Z" fill="#2B4294"/>
<path d="M16.3516 37.5205H20.1596V41.3285H16.3516V37.5205Z" fill="#2B4294"/>
<path d="M16.3516 45.6963H20.1596V49.5043H16.3516V45.6963Z" fill="#2B4294"/>
<path d="M16.3516 29.3438H20.1596V33.1518H16.3516V29.3438Z" fill="#2B4294"/>
<path d="M6.49609 29.3438H10.3041V33.1518H6.49609V29.3438Z" fill="#2B4294"/>
<path d="M6.49609 45.6963H10.3041V49.5043H6.49609V45.6963Z" fill="#2B4294"/>
<path d="M45.8076 37.5205H49.6156V41.3285H45.8076V37.5205Z" fill="#2B4294"/>
<path d="M45.8076 29.3438H49.6156V33.1518H45.8076V29.3438Z" fill="#2B4294"/>
<path d="M54.6559 24.6401C54.2079 24.3041 53.6479 24.0801 52.9759 24.0801H3.02394C1.56794 24.0801 0.335938 25.3121 0.335938 26.7681V53.8721C0.335938 54.3201 0.671938 54.7681 1.23194 54.7681H54.9919C55.4399 54.7681 55.8879 54.4321 55.8879 53.8721V26.7681C55.7759 25.9841 55.3279 25.0881 54.6559 24.6401ZM11.8719 50.2881C11.8719 50.7361 11.5359 51.1841 10.9759 51.1841H5.59994C5.15194 51.1841 4.70394 50.8481 4.70394 50.2881V44.8001C4.70394 44.3521 5.03994 43.9041 5.59994 43.9041H11.0879C11.5359 43.9041 11.9839 44.2401 11.9839 44.8001V50.2881H11.8719ZM11.8719 42.1121C11.8719 42.5601 11.5359 43.0081 10.9759 43.0081H5.59994C5.15194 43.0081 4.70394 42.6721 4.70394 42.1121V36.6241C4.81594 36.1761 5.15194 35.8401 5.59994 35.8401H11.0879C11.5359 35.8401 11.9839 36.1761 11.9839 36.7361V42.1121H11.8719ZM11.8719 33.9361C11.8719 34.3841 11.5359 34.8321 10.9759 34.8321H5.59994C5.15194 34.8321 4.70394 34.4961 4.70394 33.9361V28.4481C4.70394 28.0001 5.03994 27.5521 5.59994 27.5521H11.0879C11.5359 27.5521 11.9839 27.8881 11.9839 28.4481V33.9361H11.8719ZM21.7279 50.2881C21.7279 50.7361 21.3919 51.1841 20.8319 51.1841H15.3439C14.8959 51.1841 14.4479 50.8481 14.4479 50.2881V44.8001C14.4479 44.3521 14.7839 43.9041 15.3439 43.9041H20.8319C21.2799 43.9041 21.7279 44.2401 21.7279 44.8001V50.2881ZM21.7279 42.1121C21.7279 42.5601 21.3919 43.0081 20.8319 43.0081H15.3439C14.8959 43.0081 14.4479 42.6721 14.4479 42.1121V36.6241C14.4479 36.1761 14.7839 35.7281 15.3439 35.7281H20.8319C21.2799 35.7281 21.7279 36.0641 21.7279 36.6241V42.1121ZM21.7279 33.9361C21.7279 34.3841 21.3919 34.8321 20.8319 34.8321H15.3439C14.8959 34.8321 14.4479 34.4961 14.4479 33.9361V28.4481C14.4479 28.0001 14.7839 27.5521 15.3439 27.5521H20.8319C21.2799 27.5521 21.7279 27.8881 21.7279 28.4481V33.9361ZM31.5839 50.2881C31.5839 50.7361 31.2479 51.1841 30.6879 51.1841H25.1999C24.7519 51.1841 24.3039 50.8481 24.3039 50.2881V44.8001C24.3039 44.3521 24.6399 43.9041 25.1999 43.9041H30.6879C31.1359 43.9041 31.5839 44.2401 31.5839 44.8001V50.2881ZM31.5839 42.1121C31.5839 42.5601 31.2479 43.0081 30.6879 43.0081H25.1999C24.7519 43.0081 24.3039 42.6721 24.3039 42.1121V36.6241C24.3039 36.1761 24.6399 35.7281 25.1999 35.7281H30.6879C31.1359 35.7281 31.5839 36.0641 31.5839 36.6241V42.1121ZM31.5839 33.9361C31.5839 34.3841 31.2479 34.8321 30.6879 34.8321H25.1999C24.7519 34.8321 24.3039 34.4961 24.3039 33.9361V28.4481C24.3039 28.0001 24.6399 27.5521 25.1999 27.5521H30.6879C31.1359 27.5521 31.5839 27.8881 31.5839 28.4481V33.9361ZM41.3279 50.2881C41.3279 50.7361 40.9919 51.1841 40.4319 51.1841H34.9439C34.4959 51.1841 34.0479 50.8481 34.0479 50.2881V44.8001C34.0479 44.3521 34.3839 43.9041 34.9439 43.9041H40.4319C40.8799 43.9041 41.3279 44.2401 41.3279 44.8001V50.2881ZM41.3279 42.1121C41.3279 42.5601 40.9919 43.0081 40.4319 43.0081H34.9439C34.4959 43.0081 34.0479 42.6721 34.0479 42.1121V36.6241C34.0479 36.1761 34.3839 35.7281 34.9439 35.7281H40.4319C40.8799 35.7281 41.3279 36.0641 41.3279 36.6241V42.1121ZM41.3279 33.9361C41.3279 34.3841 40.9919 34.8321 40.4319 34.8321H34.9439C34.4959 34.8321 34.0479 34.4961 34.0479 33.9361V28.4481C34.0479 28.0001 34.3839 27.5521 34.9439 27.5521H40.4319C40.8799 27.5521 41.3279 27.8881 41.3279 28.4481V33.9361ZM51.1839 50.2881C51.1839 50.7361 50.8479 51.1841 50.2879 51.1841H44.7999C44.3519 51.1841 43.9039 50.8481 43.9039 50.2881V44.8001C43.9039 44.3521 44.2399 43.9041 44.7999 43.9041H50.3999C50.8479 43.9041 51.2959 44.2401 51.2959 44.8001V50.2881H51.1839ZM51.1839 42.1121C51.1839 42.5601 50.8479 43.0081 50.2879 43.0081H44.7999C44.3519 43.0081 43.9039 42.6721 43.9039 42.1121V36.6241C43.9039 36.1761 44.2399 35.7281 44.7999 35.7281H50.3999C50.8479 35.7281 51.2959 36.0641 51.2959 36.6241V42.1121H51.1839ZM51.1839 33.9361C51.1839 34.3841 50.8479 34.8321 50.2879 34.8321H44.7999C44.3519 34.8321 43.9039 34.4961 43.9039 33.9361V28.4481C43.9039 28.0001 44.2399 27.5521 44.7999 27.5521H50.3999C50.8479 27.5521 51.2959 27.8881 51.2959 28.4481V33.9361H51.1839Z" fill="#2B4294"/>
<path d="M35.9521 29.3438H39.7602V33.1518H35.9521V29.3438Z" fill="#2B4294"/>
<path d="M45.8076 45.6963H49.6156V49.5043H45.8076V45.6963Z" fill="#2B4294"/>
<path d="M30.0158 9.63241C29.6798 9.74441 29.3438 9.85641 29.0078 9.85641V22.4004H49.9518V9.85641C49.7278 9.85641 49.5038 9.74441 49.1678 9.63241L39.4238 4.81641L30.0158 9.63241ZM35.1678 20.0484H32.5918C32.1438 20.0484 31.6958 19.7124 31.6958 19.1524C31.6958 18.7044 32.0318 18.2564 32.5918 18.2564H35.1678C35.6158 18.2564 36.0638 18.5924 36.0638 19.1524C36.0638 19.7124 35.7278 20.0484 35.1678 20.0484ZM35.1678 16.2404H32.5918C32.1438 16.2404 31.6958 15.9044 31.6958 15.3444C31.6958 14.8964 32.0318 14.4484 32.5918 14.4484H35.1678C35.6158 14.4484 36.0638 14.7844 36.0638 15.3444C36.0638 15.9044 35.7278 16.2404 35.1678 16.2404ZM35.1678 12.5444H32.5918C32.1438 12.5444 31.6958 12.2084 31.6958 11.6484C31.6958 11.2004 32.0318 10.7524 32.5918 10.7524H35.1678C35.6158 10.7524 36.0638 11.0884 36.0638 11.6484C36.0638 12.2084 35.7278 12.5444 35.1678 12.5444ZM40.7678 20.0484H38.1918C37.7438 20.0484 37.2958 19.7124 37.2958 19.1524C37.2958 18.7044 37.6318 18.2564 38.1918 18.2564H40.7678C41.2158 18.2564 41.6638 18.5924 41.6638 19.1524C41.5518 19.7124 41.2158 20.0484 40.7678 20.0484ZM40.7678 16.2404H38.1918C37.7438 16.2404 37.2958 15.9044 37.2958 15.3444C37.2958 14.8964 37.6318 14.4484 38.1918 14.4484H40.7678C41.2158 14.4484 41.6638 14.7844 41.6638 15.3444C41.5518 15.9044 41.2158 16.2404 40.7678 16.2404ZM43.6798 10.8644H46.2558C46.7038 10.8644 47.1518 11.2004 47.1518 11.7604C47.1518 12.2084 46.8158 12.6564 46.2558 12.6564H43.6798C43.2318 12.6564 42.7838 12.3204 42.7838 11.7604C42.8958 11.2004 43.2318 10.8644 43.6798 10.8644ZM43.6798 14.5604H46.2558C46.7038 14.5604 47.1518 14.8964 47.1518 15.4564C47.1518 15.9044 46.8158 16.3524 46.2558 16.3524H43.6798C43.2318 16.3524 42.7838 16.0164 42.7838 15.4564C42.8958 15.0084 43.2318 14.5604 43.6798 14.5604ZM43.6798 18.3684H46.2558C46.7038 18.3684 47.1518 18.7044 47.1518 19.2644C47.1518 19.7124 46.8158 20.1604 46.2558 20.1604H43.6798C43.2318 20.1604 42.7838 19.8244 42.7838 19.2644C42.8958 18.7044 43.2318 18.3684 43.6798 18.3684ZM41.5518 11.6484C41.5518 12.0964 41.2158 12.5444 40.6558 12.5444H38.0798C37.6318 12.5444 37.1838 12.2084 37.1838 11.6484C37.1838 11.2004 37.5198 10.7524 38.0798 10.7524H40.6558C41.2158 10.8644 41.5518 11.2004 41.5518 11.6484Z" fill="#2B4294"/>
</svg>
