<svg width="56" height="56" viewBox="0 0 56 56" fill="none" xmlns="http://www.w3.org/2000/svg">
<path fill-rule="evenodd" clip-rule="evenodd" d="M27.9843 42.6479C25.3926 42.6479 23.293 40.5483 23.293 37.9566C23.293 35.365 25.3926 33.2326 27.9843 33.2326C30.6088 33.2326 32.7084 35.365 32.7084 37.9566C32.7084 40.5483 30.6088 42.6479 27.9843 42.6479ZM44.781 30.116C44.5842 30.116 44.3546 30.0504 44.1905 29.8863L38.0558 23.7516L31.921 29.8863C31.757 30.0504 31.5274 30.116 31.2977 30.116C31.1009 30.116 30.8712 30.0504 30.7072 29.8863C30.3792 29.5583 30.3792 29.0006 30.7072 28.6725L35.989 23.3907H23.6867C23.2274 23.3907 22.8666 22.9971 22.8666 22.5378V3.90392C22.8666 3.41183 23.2274 3.05097 23.6867 3.05097H34.2831V2.49326C34.2831 1.11541 35.4313 0 36.8092 0H39.3024C40.6803 0 41.7957 1.11541 41.7957 2.49326V3.05097H52.392C52.8841 3.05097 53.245 3.41183 53.245 3.90392V22.5378C53.245 22.9971 52.8841 23.3907 52.392 23.3907H40.0898L45.4043 28.6725C45.7324 29.0006 45.7324 29.5583 45.4043 29.8863C45.2075 30.0504 45.0107 30.116 44.781 30.116ZM40.1226 3.05097V2.49326C40.1226 2.06678 39.7617 1.70592 39.3024 1.70592H36.8092C36.3499 1.70592 35.989 2.06678 35.989 2.49326V3.05097H40.1226ZM48.849 19.3884C49.0786 19.3884 49.2755 19.1916 49.2755 18.9619C49.2755 18.7651 49.0786 18.5682 48.849 18.5682H39.1712C38.9415 18.5682 38.7775 18.7651 38.7775 18.9619C38.7775 19.1916 38.9415 19.3884 39.1712 19.3884H48.849ZM48.849 15.5501C49.0786 15.5501 49.2755 15.3533 49.2755 15.1236C49.2755 14.894 49.0786 14.7299 48.849 14.7299H27.2298C27.0001 14.7299 26.8361 14.894 26.8361 15.1236C26.8361 15.3533 27.0001 15.5501 27.2298 15.5501H48.849ZM26.8361 11.2853C26.8361 11.5149 27.0001 11.7118 27.2298 11.7118H48.849C49.0786 11.7118 49.2755 11.5149 49.2755 11.2853C49.2755 11.0557 49.0786 10.8916 48.849 10.8916H27.2298C27.0001 10.8916 26.8361 11.0557 26.8361 11.2853ZM43.3048 7.87346C43.5344 7.87346 43.6984 7.67663 43.6984 7.44698C43.6984 7.21734 43.5344 7.05331 43.3048 7.05331H32.8068C32.5772 7.05331 32.3803 7.21734 32.3803 7.44698C32.3803 7.67663 32.5772 7.87346 32.8068 7.87346H43.3048ZM11.4828 14.041C8.95678 14.041 6.89 11.9742 6.89 9.41535V7.44698C6.9228 4.95372 8.98959 2.95255 11.4828 2.95255C14.0417 2.95255 16.0757 5.01933 16.0757 7.5454V9.41535C16.0757 11.9742 14.0089 14.041 11.4828 14.041ZM9.80974 8.98887C9.44887 8.98887 9.02239 8.92326 8.56311 8.79203V9.41535C8.56311 11.0228 9.87535 12.3351 11.4828 12.3351C13.0903 12.3351 14.3698 11.0228 14.3698 9.41535V7.74224C12.5326 7.15173 12.0077 8.98887 9.80974 8.98887ZM19.3563 29.1646H3.57658C3.1173 29.1646 2.75643 28.8037 2.75643 28.3445V21.9473C2.75643 18.4042 5.38092 15.3204 8.89117 14.7955C9.15362 14.7627 9.38326 14.8284 9.5801 14.9924C10.105 15.4517 10.7939 15.6813 11.4828 15.6813C12.1718 15.6813 12.8279 15.4517 13.3856 14.9924C13.5496 14.8284 13.8121 14.7627 14.0417 14.7955C17.552 15.3204 20.2093 18.4042 20.2093 21.9473V28.3445C20.2093 28.8037 19.8484 29.1646 19.3563 29.1646ZM7.08683 28.7381C7.31648 28.7381 7.48051 28.5413 7.48051 28.3445V16.2718C7.48051 16.0422 7.31648 15.8453 7.08683 15.8453C6.85719 15.8453 6.66035 16.0422 6.66035 16.2718V28.3445C6.66035 28.5413 6.85719 28.7381 7.08683 28.7381ZM15.8789 28.7381C16.1085 28.7381 16.3053 28.5413 16.3053 28.3445V16.2718C16.3053 16.0422 16.1085 15.8453 15.8789 15.8453C15.6492 15.8453 15.4524 16.0422 15.4524 16.2718V28.3445C15.4524 28.5413 15.6492 28.7381 15.8789 28.7381ZM8.98959 42.6479C6.39791 42.6479 4.29832 40.5483 4.29832 37.9566C4.29832 35.365 6.39791 33.2326 8.98959 33.2326C11.6141 33.2326 13.7137 35.365 13.7137 37.9566C13.7137 40.5483 11.6141 42.6479 8.98959 42.6479ZM34.0534 56H21.9152C21.2263 56 20.6686 55.4095 20.6686 54.7206V49.2091C20.6686 46.5518 22.2432 44.1242 24.6709 43.0088C24.999 42.8448 25.4254 42.9432 25.6551 43.2384C26.2456 43.9274 27.0985 44.3538 27.9843 44.3538C28.9029 44.3538 29.7558 43.9274 30.3135 43.2384C30.576 42.9432 30.9697 42.8448 31.3305 43.0088C33.7582 44.1242 35.3329 46.5518 35.3329 49.2091V54.7206C35.3329 55.4095 34.7424 56 34.0534 56ZM24.6381 55.3111C24.8677 55.3111 25.0646 55.147 25.0646 54.9174V48.8483C25.0646 48.6186 24.8677 48.4218 24.6381 48.4218C24.4084 48.4218 24.2444 48.6186 24.2444 48.8483V54.9174C24.2444 55.147 24.4084 55.3111 24.6381 55.3111ZM31.3305 55.3111C31.5602 55.3111 31.757 55.147 31.757 54.9174V48.8483C31.757 48.6186 31.5602 48.4218 31.3305 48.4218C31.1009 48.4218 30.9369 48.6186 30.9369 48.8483V54.9174C30.9369 55.147 31.1009 55.3111 31.3305 55.3111ZM53.0482 56H40.9099C40.221 56 39.6633 55.4095 39.6633 54.7206V49.2091C39.6633 46.5518 41.238 44.1242 43.6656 43.0088C43.9937 42.8448 44.4202 42.9432 44.6498 43.2384C45.2403 43.9274 46.0933 44.3538 46.979 44.3538C47.8976 44.3538 48.7506 43.9274 49.3083 43.2384C49.5707 42.9432 49.9644 42.8448 50.3253 43.0088C52.7529 44.1242 54.3276 46.5518 54.3276 49.2091V54.7206C54.3276 55.4095 53.7371 56 53.0482 56ZM43.6328 55.3111C43.8625 55.3111 44.0593 55.147 44.0593 54.9174V48.8483C44.0593 48.6186 43.8625 48.4218 43.6328 48.4218C43.4032 48.4218 43.2391 48.6186 43.2391 48.8483V54.9174C43.2391 55.147 43.4032 55.3111 43.6328 55.3111ZM50.3253 55.3111C50.5549 55.3111 50.7517 55.147 50.7517 54.9174V48.8483C50.7517 48.6186 50.5549 48.4218 50.3253 48.4218C50.0956 48.4218 49.9316 48.6186 49.9316 48.8483V54.9174C49.9316 55.147 50.0956 55.3111 50.3253 55.3111ZM15.0587 56H2.92046C2.23153 56 1.67383 55.4095 1.67383 54.7206V49.2091C1.67383 46.5518 3.24852 44.1242 5.67617 43.0088C6.00423 42.8448 6.43071 42.9432 6.66035 43.2384C7.25086 43.9274 8.10382 44.3538 8.98959 44.3538C9.90816 44.3538 10.7611 43.9274 11.3188 43.2384C11.5813 42.9432 11.9749 42.8448 12.3358 43.0088C14.7635 44.1242 16.3382 46.5518 16.3382 49.2091V54.7206C16.3382 55.4095 15.7476 56 15.0587 56ZM5.64337 55.3111C5.87301 55.3111 6.06984 55.147 6.06984 54.9174V48.8483C6.06984 48.6186 5.87301 48.4218 5.64337 48.4218C5.41372 48.4218 5.24969 48.6186 5.24969 48.8483V54.9174C5.24969 55.147 5.41372 55.3111 5.64337 55.3111ZM12.3358 55.3111C12.5655 55.3111 12.7623 55.147 12.7623 54.9174V48.8483C12.7623 48.6186 12.5655 48.4218 12.3358 48.4218C12.139 48.4218 11.9421 48.6186 11.9421 48.8483V54.9174C11.9421 55.147 12.139 55.3111 12.3358 55.3111ZM46.979 42.6479C44.3874 42.6479 42.2878 40.5483 42.2878 37.9566C42.2878 35.365 44.3874 33.2326 46.979 33.2326C49.5707 33.2326 51.7031 35.365 51.7031 37.9566C51.7031 40.5483 49.5707 42.6479 46.979 42.6479Z" fill="white"/>
</svg>
