<svg width="56" height="56" viewBox="0 0 56 56" fill="none" xmlns="http://www.w3.org/2000/svg">
<path d="M24.9758 7.83881C24.9758 7.05481 24.3038 6.38281 23.5198 6.38281H18.2558C17.4718 6.38281 16.7998 7.05481 16.7998 7.83881V11.3108H24.9758V7.83881Z" fill="#2B4294"/>
<path d="M16.7998 12.9902H24.9758V16.5742H16.7998V12.9902Z" fill="#2B4294"/>
<path d="M16.7998 18.2559H24.9758V22.3999H16.7998V18.2559Z" fill="#2B4294"/>
<path d="M4.5918 12.9902H12.7678V16.5742H4.5918V12.9902Z" fill="#2B4294"/>
<path d="M4.5918 18.2559H12.7678V22.3999H4.5918V18.2559Z" fill="#2B4294"/>
<path d="M12.6558 7.83881C12.6558 7.05481 11.9838 6.38281 11.1998 6.38281H5.9358C5.1518 6.38281 4.5918 7.05481 4.5918 7.83881V11.3108H12.7678V7.83881H12.6558Z" fill="#2B4294"/>
<path d="M28.896 8.28711C29.008 8.28711 29.12 8.28711 29.232 8.17511L39.424 3.02311H39.648L50.064 8.17511C50.512 8.39911 50.96 8.17511 51.184 7.83911C51.408 7.39111 51.184 6.94311 50.848 6.71911L40.32 1.45511C39.76 1.23111 39.2 1.23111 38.64 1.45511L28.448 6.60711C28 6.83111 27.888 7.27911 28.112 7.72711C28.224 8.06311 28.56 8.28711 28.896 8.28711Z" fill="#2B4294"/>
<path d="M26.0957 29.3438H29.9037V33.1518H26.0957V29.3438Z" fill="#2B4294"/>
<path d="M26.0957 37.5195H29.9037V41.3275H26.0957V37.5195Z" fill="#2B4294"/>
<path d="M6.49609 37.5195H10.3041V41.3275H6.49609V37.5195Z" fill="#2B4294"/>
<path d="M35.9521 37.5195H39.7602V41.3275H35.9521V37.5195Z" fill="#2B4294"/>
<path d="M35.9521 45.6953H39.7602V49.5033H35.9521V45.6953Z" fill="#2B4294"/>
<path d="M26.0957 45.6953H29.9037V49.5033H26.0957V45.6953Z" fill="#2B4294"/>
<path d="M16.3521 37.5195H20.1601V41.3275H16.3521V37.5195Z" fill="#2B4294"/>
<path d="M16.3521 45.6953H20.1601V49.5033H16.3521V45.6953Z" fill="#2B4294"/>
<path d="M16.3521 29.3438H20.1601V33.1518H16.3521V29.3438Z" fill="#2B4294"/>
<path d="M6.49609 29.3438H10.3041V33.1518H6.49609V29.3438Z" fill="#2B4294"/>
<path d="M6.49609 45.6953H10.3041V49.5033H6.49609V45.6953Z" fill="#2B4294"/>
<path d="M45.8081 37.5195H49.6161V41.3275H45.8081V37.5195Z" fill="#2B4294"/>
<path d="M45.8081 29.3438H49.6161V33.1518H45.8081V29.3438Z" fill="#2B4294"/>
<path d="M54.6559 24.6401C54.2079 24.3041 53.6479 24.0801 52.9759 24.0801H3.02394C1.56794 24.0801 0.335938 25.3121 0.335938 26.7681V53.8721C0.335938 54.3201 0.671938 54.7681 1.23194 54.7681H54.9919C55.4399 54.7681 55.8879 54.4321 55.8879 53.8721V26.7681C55.7759 25.9841 55.3279 25.0881 54.6559 24.6401ZM11.8719 50.2881C11.8719 50.7361 11.5359 51.1841 10.9759 51.1841H5.59994C5.15194 51.1841 4.70394 50.8481 4.70394 50.2881V44.8001C4.70394 44.3521 5.03994 43.9041 5.59994 43.9041H11.0879C11.5359 43.9041 11.9839 44.2401 11.9839 44.8001V50.2881H11.8719ZM11.8719 42.1121C11.8719 42.5601 11.5359 43.0081 10.9759 43.0081H5.59994C5.15194 43.0081 4.70394 42.6721 4.70394 42.1121V36.6241C4.81594 36.1761 5.15194 35.8401 5.59994 35.8401H11.0879C11.5359 35.8401 11.9839 36.1761 11.9839 36.7361V42.1121H11.8719ZM11.8719 33.9361C11.8719 34.3841 11.5359 34.8321 10.9759 34.8321H5.59994C5.15194 34.8321 4.70394 34.4961 4.70394 33.9361V28.4481C4.70394 28.0001 5.03994 27.5521 5.59994 27.5521H11.0879C11.5359 27.5521 11.9839 27.8881 11.9839 28.4481V33.9361H11.8719ZM21.7279 50.2881C21.7279 50.7361 21.3919 51.1841 20.8319 51.1841H15.3439C14.8959 51.1841 14.4479 50.8481 14.4479 50.2881V44.8001C14.4479 44.3521 14.7839 43.9041 15.3439 43.9041H20.8319C21.2799 43.9041 21.7279 44.2401 21.7279 44.8001V50.2881ZM21.7279 42.1121C21.7279 42.5601 21.3919 43.0081 20.8319 43.0081H15.3439C14.8959 43.0081 14.4479 42.6721 14.4479 42.1121V36.6241C14.4479 36.1761 14.7839 35.7281 15.3439 35.7281H20.8319C21.2799 35.7281 21.7279 36.0641 21.7279 36.6241V42.1121ZM21.7279 33.9361C21.7279 34.3841 21.3919 34.8321 20.8319 34.8321H15.3439C14.8959 34.8321 14.4479 34.4961 14.4479 33.9361V28.4481C14.4479 28.0001 14.7839 27.5521 15.3439 27.5521H20.8319C21.2799 27.5521 21.7279 27.8881 21.7279 28.4481V33.9361ZM31.5839 50.2881C31.5839 50.7361 31.2479 51.1841 30.6879 51.1841H25.1999C24.7519 51.1841 24.3039 50.8481 24.3039 50.2881V44.8001C24.3039 44.3521 24.6399 43.9041 25.1999 43.9041H30.6879C31.1359 43.9041 31.5839 44.2401 31.5839 44.8001V50.2881ZM31.5839 42.1121C31.5839 42.5601 31.2479 43.0081 30.6879 43.0081H25.1999C24.7519 43.0081 24.3039 42.6721 24.3039 42.1121V36.6241C24.3039 36.1761 24.6399 35.7281 25.1999 35.7281H30.6879C31.1359 35.7281 31.5839 36.0641 31.5839 36.6241V42.1121ZM31.5839 33.9361C31.5839 34.3841 31.2479 34.8321 30.6879 34.8321H25.1999C24.7519 34.8321 24.3039 34.4961 24.3039 33.9361V28.4481C24.3039 28.0001 24.6399 27.5521 25.1999 27.5521H30.6879C31.1359 27.5521 31.5839 27.8881 31.5839 28.4481V33.9361ZM41.3279 50.2881C41.3279 50.7361 40.9919 51.1841 40.4319 51.1841H34.9439C34.4959 51.1841 34.0479 50.8481 34.0479 50.2881V44.8001C34.0479 44.3521 34.3839 43.9041 34.9439 43.9041H40.4319C40.8799 43.9041 41.3279 44.2401 41.3279 44.8001V50.2881ZM41.3279 42.1121C41.3279 42.5601 40.9919 43.0081 40.4319 43.0081H34.9439C34.4959 43.0081 34.0479 42.6721 34.0479 42.1121V36.6241C34.0479 36.1761 34.3839 35.7281 34.9439 35.7281H40.4319C40.8799 35.7281 41.3279 36.0641 41.3279 36.6241V42.1121ZM41.3279 33.9361C41.3279 34.3841 40.9919 34.8321 40.4319 34.8321H34.9439C34.4959 34.8321 34.0479 34.4961 34.0479 33.9361V28.4481C34.0479 28.0001 34.3839 27.5521 34.9439 27.5521H40.4319C40.8799 27.5521 41.3279 27.8881 41.3279 28.4481V33.9361ZM51.1839 50.2881C51.1839 50.7361 50.8479 51.1841 50.2879 51.1841H44.7999C44.3519 51.1841 43.9039 50.8481 43.9039 50.2881V44.8001C43.9039 44.3521 44.2399 43.9041 44.7999 43.9041H50.3999C50.8479 43.9041 51.2959 44.2401 51.2959 44.8001V50.2881H51.1839ZM51.1839 42.1121C51.1839 42.5601 50.8479 43.0081 50.2879 43.0081H44.7999C44.3519 43.0081 43.9039 42.6721 43.9039 42.1121V36.6241C43.9039 36.1761 44.2399 35.7281 44.7999 35.7281H50.3999C50.8479 35.7281 51.2959 36.0641 51.2959 36.6241V42.1121H51.1839ZM51.1839 33.9361C51.1839 34.3841 50.8479 34.8321 50.2879 34.8321H44.7999C44.3519 34.8321 43.9039 34.4961 43.9039 33.9361V28.4481C43.9039 28.0001 44.2399 27.5521 44.7999 27.5521H50.3999C50.8479 27.5521 51.2959 27.8881 51.2959 28.4481V33.9361H51.1839Z" fill="#2B4294"/>
<path d="M35.9521 29.3438H39.7602V33.1518H35.9521V29.3438Z" fill="#2B4294"/>
<path d="M45.8081 45.6953H49.6161V49.5033H45.8081V45.6953Z" fill="#2B4294"/>
<path d="M30.0158 9.63045C29.6798 9.74245 29.3438 9.85445 29.0078 9.85445V22.3985H49.9518V9.85445C49.7278 9.85445 49.5038 9.74245 49.1678 9.63045L39.4238 4.81445L30.0158 9.63045ZM35.1678 20.0465H32.5918C32.1438 20.0465 31.6958 19.7105 31.6958 19.1505C31.6958 18.7025 32.0318 18.2545 32.5918 18.2545H35.1678C35.6158 18.2545 36.0638 18.5905 36.0638 19.1505C36.0638 19.7105 35.7278 20.0465 35.1678 20.0465ZM35.1678 16.2385H32.5918C32.1438 16.2385 31.6958 15.9025 31.6958 15.3425C31.6958 14.8945 32.0318 14.4465 32.5918 14.4465H35.1678C35.6158 14.4465 36.0638 14.7825 36.0638 15.3425C36.0638 15.9025 35.7278 16.2385 35.1678 16.2385ZM35.1678 12.5425H32.5918C32.1438 12.5425 31.6958 12.2065 31.6958 11.6465C31.6958 11.1985 32.0318 10.7505 32.5918 10.7505H35.1678C35.6158 10.7505 36.0638 11.0865 36.0638 11.6465C36.0638 12.2065 35.7278 12.5425 35.1678 12.5425ZM40.7678 20.0465H38.1918C37.7438 20.0465 37.2958 19.7105 37.2958 19.1505C37.2958 18.7025 37.6318 18.2545 38.1918 18.2545H40.7678C41.2158 18.2545 41.6638 18.5905 41.6638 19.1505C41.5518 19.7105 41.2158 20.0465 40.7678 20.0465ZM40.7678 16.2385H38.1918C37.7438 16.2385 37.2958 15.9025 37.2958 15.3425C37.2958 14.8945 37.6318 14.4465 38.1918 14.4465H40.7678C41.2158 14.4465 41.6638 14.7825 41.6638 15.3425C41.5518 15.9025 41.2158 16.2385 40.7678 16.2385ZM43.6798 10.8625H46.2558C46.7038 10.8625 47.1518 11.1985 47.1518 11.7585C47.1518 12.2065 46.8158 12.6545 46.2558 12.6545H43.6798C43.2318 12.6545 42.7838 12.3185 42.7838 11.7585C42.8958 11.1985 43.2318 10.8625 43.6798 10.8625ZM43.6798 14.5585H46.2558C46.7038 14.5585 47.1518 14.8945 47.1518 15.4545C47.1518 15.9025 46.8158 16.3505 46.2558 16.3505H43.6798C43.2318 16.3505 42.7838 16.0145 42.7838 15.4545C42.8958 15.0065 43.2318 14.5585 43.6798 14.5585ZM43.6798 18.3665H46.2558C46.7038 18.3665 47.1518 18.7025 47.1518 19.2625C47.1518 19.7105 46.8158 20.1585 46.2558 20.1585H43.6798C43.2318 20.1585 42.7838 19.8225 42.7838 19.2625C42.8958 18.7025 43.2318 18.3665 43.6798 18.3665ZM41.5518 11.6465C41.5518 12.0945 41.2158 12.5425 40.6558 12.5425H38.0798C37.6318 12.5425 37.1838 12.2065 37.1838 11.6465C37.1838 11.1985 37.5198 10.7505 38.0798 10.7505H40.6558C41.2158 10.8625 41.5518 11.1985 41.5518 11.6465Z" fill="#2B4294"/>
</svg>
