<svg width="56" height="56" viewBox="0 0 56 56" fill="none" xmlns="http://www.w3.org/2000/svg">
<path d="M28.0937 18.7599C30.9973 18.7599 33.3594 16.3978 33.3594 13.4942C33.3594 10.5906 30.9973 8.22842 28.0937 8.22842C25.1901 8.22842 22.828 10.5906 22.828 13.4942C22.828 16.3978 25.1902 18.7599 28.0937 18.7599ZM25.4786 12.9333C25.7159 12.7469 26.0599 12.7878 26.2466 13.0252L27.2619 14.3166L29.9739 11.4603C30.1819 11.2413 30.5281 11.2324 30.747 11.4402C30.9661 11.6481 30.9751 11.9943 30.7671 12.2133L27.6197 15.5283C27.5162 15.6374 27.3726 15.6987 27.2231 15.6987C27.2146 15.6987 27.2061 15.6985 27.1977 15.6981C27.039 15.6908 26.8913 15.6147 26.7932 15.4899L25.3869 13.7013C25.2003 13.4639 25.2414 13.1201 25.4787 12.9334L25.4786 12.9333ZM19.077 14.7264C19.3208 15.1163 19.399 15.5604 19.3034 16.0103L18.7307 18.7046C18.6617 19.0293 18.8478 19.3514 19.1634 19.4541L21.7829 20.3052C22.2205 20.4474 22.5658 20.7371 22.7818 21.1432L24.0748 23.5752C24.2307 23.8682 24.58 23.9955 24.8881 23.8711L27.4418 22.8393C27.6551 22.7531 27.8745 22.71 28.0938 22.71C28.3131 22.71 28.5325 22.7531 28.7458 22.8393L31.2995 23.8711C31.6074 23.9955 31.9569 23.8683 32.1127 23.5752L33.4057 21.1432C33.6218 20.7371 33.9672 20.4474 34.4045 20.3052L37.0241 19.4541C37.3398 19.3515 37.5259 19.0293 37.4568 18.7045L36.8841 16.0106C36.7886 15.5602 36.8669 15.1161 37.1107 14.7263L38.5702 12.3907C38.746 12.1093 38.6815 11.7428 38.4198 11.5383L36.2494 9.8428C35.887 9.55941 35.6616 9.16894 35.5975 8.7135L35.2142 5.98591C35.1679 5.65724 34.8799 5.41585 34.5512 5.42974L31.7988 5.52588C31.3371 5.54075 30.9153 5.38774 30.5734 5.08006L28.5267 3.23688C28.2798 3.01474 27.9079 3.01485 27.6612 3.23688L25.6144 5.07996C25.2724 5.38763 24.8497 5.54174 24.389 5.52588L21.6365 5.42974C21.3027 5.41497 21.0196 5.65735 20.9735 5.98591L20.5902 8.71339C20.5261 9.16894 20.3008 9.55941 19.9384 9.84269L17.7678 11.5384C17.5062 11.7428 17.4417 12.1092 17.6175 12.3907L19.0771 14.7264H19.077ZM28.0937 7.13489C31.6004 7.13489 34.4532 9.98772 34.4532 13.4944C34.4532 17.0011 31.6004 19.8539 28.0937 19.8539C24.587 19.8539 21.7343 17.0011 21.7343 13.4944C21.7343 9.98772 24.5871 7.13489 28.0937 7.13489ZM31.7949 47.8553L29.0376 45.6166L33.3306 42.9789C33.8491 43.2304 34.347 43.5178 34.821 43.8381L31.7949 47.8552V47.8553ZM38.8736 35.3597C38.8736 32.4953 41.2039 30.165 44.0682 30.165C46.9325 30.165 49.2629 32.4953 49.2629 35.3597C49.2629 38.224 46.9356 40.551 44.0738 40.5541C44.0718 40.5541 44.07 40.5541 44.0681 40.5541C44.0663 40.5541 44.0645 40.5541 44.0626 40.5541C41.2009 40.551 38.8736 38.222 38.8736 35.3597ZM28.0937 44.9129L24.1007 42.4596C25.3484 42.0199 26.6893 41.7801 28.0854 41.7791C28.0882 41.7791 28.0911 41.7793 28.094 41.7793C28.0967 41.7793 28.0996 41.7791 28.1024 41.7791C29.4983 41.7801 30.8391 42.02 32.0867 42.4596L28.0938 44.9129H28.0937ZM21.6052 34.1969C21.6052 30.619 24.516 27.7083 28.0939 27.7083C31.6718 27.7083 34.5825 30.619 34.5825 34.1969C34.5825 37.7748 31.6763 40.6809 28.1022 40.6853C28.0994 40.6853 28.0965 40.6853 28.0937 40.6853C28.0909 40.6853 28.0881 40.6853 28.0854 40.6853C24.5114 40.6808 21.6052 37.7719 21.6052 34.1969ZM28.5748 48.6941L29.7936 53.2767H26.3939L27.6127 48.6941C27.6627 48.5055 27.6087 48.3047 27.4708 48.1669L26.697 47.3931L28.0938 46.2591L29.4906 47.3931L28.7168 48.1668C28.5789 48.3047 28.5248 48.5055 28.5749 48.694L28.5748 48.6941ZM53.7817 50.8295H40.8876C40.3081 48.3527 39.0256 46.1438 37.2634 44.4242C39.0732 42.655 41.5215 41.6493 44.0628 41.6478C44.0646 41.6478 44.0665 41.648 44.0683 41.648H44.0725C49.2517 41.6503 53.4974 45.7199 53.7818 50.8297L53.7817 50.8295ZM40.126 53.2767H30.9253L29.7128 48.7174L30.3441 48.0861L31.5459 49.0618C31.6439 49.1413 31.7657 49.1841 31.8905 49.1841C31.9125 49.1841 31.9347 49.1827 31.9568 49.1801C32.1042 49.162 32.2379 49.0849 32.3273 48.9663L35.6985 44.4909C38.2742 46.5937 39.9672 49.7386 40.126 53.2767ZM18.9187 44.4296C17.1592 46.1484 15.8788 48.3554 15.2999 50.8295H2.40576C2.69046 45.7225 6.9341 41.6545 12.1105 41.6523H12.1149C12.1167 41.6523 12.1185 41.6522 12.1203 41.6522C14.6614 41.6538 17.1095 42.6598 18.9185 44.4295L18.9187 44.4296ZM26.4747 48.7175L25.2622 53.2768H16.0614C16.2203 49.7387 17.9133 46.5938 20.4888 44.491L23.8601 48.9665C23.9494 49.085 24.0831 49.1621 24.2306 49.1802C24.2527 49.1828 24.2749 49.1842 24.2968 49.1842C24.4217 49.1842 24.5436 49.1413 24.6415 49.0619L25.8433 48.0862L26.4746 48.7175H26.4747ZM6.92273 35.3664C6.92273 32.5034 9.25198 30.1743 12.115 30.1743C14.978 30.1743 17.3071 32.5034 17.3071 35.3664C17.3071 38.2294 14.9808 40.5554 12.1204 40.5584C12.1185 40.5584 12.1166 40.5584 12.1148 40.5584C12.1129 40.5584 12.1112 40.5584 12.1093 40.5584C9.24892 40.5553 6.92284 38.2275 6.92284 35.3664H6.92273ZM21.3665 43.838C21.8404 43.5176 22.3384 43.2302 22.8568 42.9788L27.1498 45.6165L24.3924 47.8552L21.3664 43.8381L21.3665 43.838Z" fill="#2B4294"/>
</svg>
