<svg width="56" height="56" viewBox="0 0 56 56" fill="none" xmlns="http://www.w3.org/2000/svg">
<path fill-rule="evenodd" clip-rule="evenodd" d="M44.5242 16.1878C42.755 14.4187 40.5009 13.2139 38.047 12.7258C35.5931 12.2377 33.0496 12.4882 30.738 13.4457C28.4265 14.4032 26.4508 16.0246 25.0608 18.1049C23.6708 20.1853 22.9289 22.6311 22.9289 25.133C22.9289 27.635 23.6708 30.0808 25.0608 32.1612C26.4508 34.2415 28.4265 35.8629 30.738 36.8204C33.0496 37.7779 35.5931 38.0284 38.047 37.5403C40.5009 37.0522 42.755 35.8474 44.5242 34.0783C45.6989 32.9036 46.6307 31.509 47.2665 29.9742C47.9023 28.4394 48.2295 26.7943 48.2295 25.133C48.2295 23.4718 47.9023 21.8267 47.2665 20.2919C46.6307 18.7571 45.6989 17.3625 44.5242 16.1878ZM35.5784 11.2233C38.3298 11.2231 41.0195 12.0388 43.3073 13.5674C45.5951 15.0959 47.3782 17.2686 48.431 19.8106C49.4839 22.3526 49.7593 25.1498 49.2223 27.8483C48.6854 30.5468 47.3602 33.0255 45.4144 34.9708C43.4686 36.9162 40.9896 38.2408 38.291 38.7771C35.5923 39.3134 32.7952 39.0374 30.2535 37.9839C27.7117 36.9304 25.5394 35.1468 24.0114 32.8587C22.4834 30.5705 21.6683 27.8807 21.6692 25.1292C21.6695 21.4404 23.135 17.9027 25.7434 15.2942C28.3518 12.6858 31.8895 11.2203 35.5784 11.22V11.2233ZM34.9495 14.7495C34.946 14.6647 34.9596 14.58 34.9897 14.5005C35.0197 14.421 35.0655 14.3485 35.1243 14.2872C35.1831 14.2259 35.2537 14.1771 35.3318 14.1438C35.4099 14.1105 35.494 14.0933 35.5789 14.0933C35.6639 14.0933 35.748 14.1105 35.8261 14.1438C35.9042 14.1771 35.9748 14.2259 36.0336 14.2872C36.0924 14.3485 36.1382 14.421 36.1682 14.5005C36.1983 14.58 36.2119 14.6647 36.2084 14.7495V15.3391C36.2119 15.4239 36.1983 15.5086 36.1682 15.5881C36.1382 15.6675 36.0924 15.7401 36.0336 15.8014C35.9748 15.8627 35.9042 15.9115 35.8261 15.9448C35.748 15.9781 35.6639 15.9953 35.5789 15.9953C35.494 15.9953 35.4099 15.9781 35.3318 15.9448C35.2537 15.9115 35.1831 15.8627 35.1243 15.8014C35.0655 15.7401 35.0197 15.6675 34.9897 15.5881C34.9596 15.5086 34.946 15.4239 34.9495 15.3391V14.7495ZM27.792 18.2331C27.6812 18.1136 27.6211 17.9558 27.6242 17.7929C27.6273 17.63 27.6934 17.4746 27.8086 17.3594C27.9238 17.2442 28.0792 17.1781 28.2421 17.175C28.405 17.1719 28.5628 17.232 28.6823 17.3428L29.099 17.7595C29.2098 17.879 29.2699 18.0368 29.2668 18.1997C29.2638 18.3627 29.1977 18.518 29.0824 18.6333C28.9672 18.7485 28.8118 18.8146 28.6489 18.8177C28.486 18.8208 28.3282 18.7606 28.2087 18.6498L27.792 18.2331ZM25.1954 25.7592C25.0283 25.7592 24.8681 25.6928 24.75 25.5747C24.6318 25.4565 24.5654 25.2963 24.5654 25.1292C24.5654 24.9621 24.6318 24.8019 24.75 24.6837C24.8681 24.5656 25.0283 24.4992 25.1954 24.4992H25.785C25.952 24.4992 26.1123 24.5656 26.2304 24.6837C26.3486 24.8019 26.415 24.9621 26.415 25.1292C26.415 25.2963 26.3486 25.4565 26.2304 25.5747C26.1123 25.6928 25.952 25.7592 25.785 25.7592H25.1954ZM28.6823 32.9222C28.5628 33.0329 28.405 33.0931 28.2421 33.09C28.0792 33.0869 27.9238 33.0208 27.8086 32.9056C27.6934 32.7904 27.6273 32.635 27.6242 32.4721C27.6211 32.3092 27.6812 32.1514 27.792 32.0319L28.2087 31.6152C28.3282 31.5044 28.486 31.4442 28.6489 31.4473C28.8118 31.4504 28.9672 31.5165 29.0824 31.6317C29.1977 31.747 29.2638 31.9023 29.2668 32.0653C29.2699 32.2282 29.2098 32.386 29.099 32.5055L28.6823 32.9222ZM36.2084 35.5177C36.2119 35.6025 36.1983 35.6872 36.1682 35.7667C36.1382 35.8461 36.0924 35.9187 36.0336 35.98C35.9748 36.0413 35.9042 36.0901 35.8261 36.1234C35.748 36.1567 35.6639 36.1739 35.5789 36.1739C35.494 36.1739 35.4099 36.1567 35.3318 36.1234C35.2537 36.0901 35.1831 36.0413 35.1243 35.98C35.0655 35.9187 35.0197 35.8461 34.9897 35.7667C34.9596 35.6872 34.946 35.6025 34.9495 35.5177V34.9281C34.946 34.8433 34.9596 34.7585 34.9897 34.6791C35.0197 34.5996 35.0655 34.5271 35.1243 34.4658C35.1831 34.4045 35.2537 34.3557 35.3318 34.3224C35.4099 34.2891 35.494 34.2719 35.5789 34.2719C35.6639 34.2719 35.748 34.2891 35.8261 34.3224C35.9042 34.3557 35.9748 34.4045 36.0336 34.4658C36.0924 34.5271 36.1382 34.5996 36.1682 34.6791C36.1983 34.7585 36.2119 34.8433 36.2084 34.9281V35.5177ZM43.3659 32.0319C43.4767 32.1514 43.5368 32.3092 43.5337 32.4721C43.5306 32.635 43.4645 32.7904 43.3493 32.9056C43.2341 33.0208 43.0787 33.0869 42.9158 33.09C42.7529 33.0931 42.5951 33.0329 42.4756 32.9222L42.0589 32.5055C41.9481 32.386 41.888 32.2282 41.891 32.0653C41.8941 31.9023 41.9602 31.747 42.0755 31.6317C42.1907 31.5165 42.3461 31.4504 42.509 31.4473C42.6719 31.4442 42.8297 31.5044 42.9492 31.6152L43.3659 32.0319ZM42.4756 17.3483C42.5951 17.2375 42.7529 17.1774 42.9158 17.1805C43.0787 17.1836 43.2341 17.2496 43.3493 17.3649C43.4645 17.4801 43.5306 17.6355 43.5337 17.7984C43.5368 17.9613 43.4767 18.1191 43.3659 18.2386L42.9492 18.6553C42.8297 18.7661 42.6719 18.8262 42.509 18.8231C42.3461 18.82 42.1907 18.7539 42.0755 18.6387C41.9602 18.5235 41.8941 18.3681 41.891 18.2052C41.888 18.0423 41.9481 17.8845 42.0589 17.765L42.4756 17.3483ZM34.9495 18.2911C34.946 18.2062 34.9596 18.1215 34.9897 18.0421C35.0197 17.9626 35.0655 17.8901 35.1243 17.8287C35.1831 17.7674 35.2537 17.7187 35.3318 17.6853C35.4099 17.652 35.494 17.6348 35.5789 17.6348C35.6639 17.6348 35.748 17.652 35.8261 17.6853C35.9042 17.7187 35.9748 17.7674 36.0336 17.8287C36.0924 17.8901 36.1382 17.9626 36.1682 18.0421C36.1983 18.1215 36.2119 18.2062 36.2084 18.2911V24.8744L41.5098 30.1758C41.6206 30.2953 41.6807 30.4531 41.6776 30.616C41.6745 30.7789 41.6084 30.9343 41.4932 31.0495C41.378 31.1647 41.2226 31.2308 41.0597 31.2339C40.8968 31.237 40.739 31.1769 40.6195 31.0661L35.1387 25.5864C35.0786 25.5276 35.0309 25.4573 34.9984 25.3797C34.9659 25.3021 34.9493 25.2188 34.9495 25.1347V18.2856V18.2911ZM45.9625 24.5003C46.1295 24.5003 46.2898 24.5667 46.4079 24.6848C46.5261 24.803 46.5925 24.9632 46.5925 25.1303C46.5925 25.2974 46.5261 25.4576 46.4079 25.5758C46.2898 25.6939 46.1295 25.7603 45.9625 25.7603H45.3729C45.2058 25.7603 45.0456 25.6939 44.9275 25.5758C44.8093 25.4576 44.7429 25.2974 44.7429 25.1303C44.7429 24.9632 44.8093 24.803 44.9275 24.6848C45.0456 24.5667 45.2058 24.5003 45.3729 24.5003H45.9625ZM22.845 37.4591L23.0779 37.6363C23.2398 37.797 24.9646 40.3914 25.2425 40.8016C25.4384 41.096 25.6987 41.3421 26.0038 41.5209C26.3089 41.6998 26.6508 41.8069 27.0034 41.8341C27.4825 41.8745 30.6915 42.1283 30.8873 42.1797C31.0831 42.2311 32.4186 42.8753 32.6996 43.0088L27.7668 53.9616L23.8129 49.6959C23.7457 49.616 23.6596 49.5541 23.5624 49.5159C23.4651 49.4777 23.3599 49.4644 23.2562 49.4772L17.1093 50.2078L22.845 37.458V37.4591ZM38.4637 43.0088C38.7503 42.8753 40.0781 42.2333 40.2761 42.1797C40.474 42.1261 43.6809 41.8745 44.16 41.8341C44.5126 41.8069 44.8544 41.6998 45.1595 41.5209C45.4646 41.3421 45.725 41.096 45.9209 40.8016C46.1976 40.3925 47.9236 37.797 48.0854 37.6363L48.314 37.4613L54.0496 50.2111L47.9061 49.4783C47.8024 49.4655 47.6971 49.4787 47.5999 49.517C47.5027 49.5552 47.4165 49.6171 47.3493 49.697L43.3954 53.9627L38.4637 43.0088ZM20.0056 32.1566L19.8153 29.9155C19.7925 29.6367 19.7184 29.3645 19.5965 29.1127L17.9559 25.6017C17.8847 25.455 17.8477 25.294 17.8477 25.1309C17.8477 24.9677 17.8847 24.8067 17.9559 24.66L19.5965 21.1491C19.7184 20.8973 19.7925 20.6251 19.8153 20.3463L20.1248 16.6516C20.1342 16.4863 20.1829 16.3257 20.2668 16.1831C20.3507 16.0404 20.4673 15.9198 20.6071 15.8313L23.6095 13.8002C23.8618 13.6331 24.0779 13.417 24.245 13.1647L26.2761 10.1623C26.3646 10.0225 26.4852 9.90586 26.6279 9.82198C26.7705 9.7381 26.9311 9.68942 27.0964 9.68L30.79 9.36609C31.0688 9.34335 31.341 9.26918 31.5928 9.14734L35.1037 7.50672C35.2505 7.4355 35.4115 7.3985 35.5746 7.3985C35.7377 7.3985 35.8987 7.4355 36.0454 7.50672L39.5564 9.14734C39.8082 9.26918 40.0804 9.34335 40.3592 9.36609L44.0528 9.68C44.218 9.68942 44.3786 9.7381 44.5213 9.82198C44.6639 9.90586 44.7845 10.0225 44.8731 10.1623L46.9042 13.1647C47.0712 13.417 47.2873 13.6331 47.5396 13.8002L50.542 15.8313C50.6818 15.9198 50.7985 16.0404 50.8824 16.1831C50.9662 16.3257 51.0149 16.4863 51.0243 16.6516L51.3426 20.3441C51.3654 20.6229 51.4395 20.8951 51.5614 21.1469L53.202 24.6578C53.2732 24.8046 53.3102 24.9656 53.3102 25.1287C53.3102 25.2918 53.2732 25.4528 53.202 25.5995L51.5614 29.1105C51.4395 29.3623 51.3654 29.6345 51.3426 29.9133L51.0287 33.6069C51.0193 33.7721 50.9706 33.9327 50.8867 34.0754C50.8028 34.218 50.6862 34.3386 50.5464 34.4272L47.544 36.4583L47.1951 36.7503C47.0892 36.8578 46.9936 36.975 46.9096 37.1003L44.8775 40.0972C44.7889 40.237 44.6683 40.3537 44.5256 40.4376C44.383 40.5214 44.2224 40.5701 44.0571 40.5795L40.3592 40.8934C40.0804 40.9162 39.8082 40.9903 39.5564 41.1122L36.0454 42.7528C35.8987 42.824 35.7377 42.861 35.5746 42.861C35.4115 42.861 35.2505 42.824 35.1037 42.7528L31.5928 41.1122C31.3412 40.9898 31.0689 40.9156 30.79 40.8934L27.1007 40.5784C26.9355 40.5695 26.7749 40.5211 26.6322 40.4374C26.4894 40.3537 26.3688 40.237 26.2804 40.0972L24.2493 37.0948C24.0823 36.8425 23.8662 36.6264 23.6139 36.4594L20.6115 34.4283C20.4716 34.3396 20.3548 34.2188 20.2709 34.076C20.187 33.9331 20.1384 33.7723 20.1292 33.6069L20.0056 32.1566ZM16.5931 25.3031C16.6175 25.5912 16.6938 25.8724 16.8184 26.1333C17.0371 26.6014 18.4689 29.6059 18.529 29.828C18.5761 30.0041 18.7007 31.6742 18.7281 31.9881L18.1965 32.5186H16.1873L15.4053 31.7366V29.4014C15.4054 29.2505 15.3514 29.1046 15.253 28.9902C15.1547 28.8758 15.0185 28.8005 14.8693 28.778C13.3722 28.4776 11.9486 27.8864 10.6792 27.0378C10.5582 26.9571 10.413 26.9208 10.2683 26.9349C10.1236 26.9491 9.98817 27.0129 9.88512 27.1155L8.23246 28.7659H7.12668L5.7048 27.3441V26.2361L7.35527 24.5845C7.46446 24.4758 7.5299 24.3307 7.53918 24.1768C7.54845 24.023 7.50091 23.8711 7.40559 23.75C6.56709 22.4844 5.98344 21.0674 5.6873 19.5784C5.65963 19.4351 5.58294 19.3058 5.47038 19.2128C5.35783 19.1198 5.21643 19.0689 5.07043 19.0688H2.73418L1.95215 18.2867V16.2742L2.73418 15.49H5.06824C5.21859 15.4893 5.36369 15.4347 5.47726 15.3362C5.59083 15.2376 5.66534 15.1017 5.6873 14.953C5.98961 13.4569 6.58189 12.0345 7.43074 10.7661C7.51156 10.6453 7.54799 10.5003 7.53382 10.3557C7.51966 10.2111 7.45579 10.0759 7.35309 9.97312L5.70371 8.32047V7.21906L7.12559 5.79719H8.23246L9.88402 7.43781C9.99306 7.54662 10.1382 7.61171 10.2919 7.62078C10.4457 7.62985 10.5975 7.58227 10.7186 7.48703C11.3449 7.07299 12.0092 6.71957 12.7026 6.43156C13.4082 6.13918 14.1409 5.91717 14.8901 5.76875C15.0335 5.74065 15.1626 5.66369 15.2556 5.551C15.3485 5.4383 15.3995 5.29686 15.3998 5.15078V2.82109L16.1873 2.03906H18.1998L18.9829 2.82109V5.15516C18.9828 5.30603 19.0368 5.45193 19.1352 5.56634C19.2335 5.68075 19.3697 5.75607 19.5189 5.77859C20.2593 5.92623 20.9836 6.14603 21.6812 6.43484C22.3896 6.72876 23.0677 7.09104 23.7057 7.51656C23.8266 7.59773 23.972 7.63426 24.1169 7.61989C24.2618 7.60552 24.3972 7.54114 24.4998 7.43781L26.1503 5.78625H27.2571L28.679 7.20813V8.27672L26.9979 8.42219C26.6452 8.44909 26.3033 8.55607 25.9982 8.73498C25.693 8.9139 25.4327 9.16004 25.237 9.45469L23.4061 12.1683C22.5607 11.1403 21.4735 10.3381 20.2419 9.83352C19.0104 9.32895 17.6729 9.13779 16.3492 9.27716C15.0256 9.41653 13.7573 9.88209 12.6578 10.6321C11.5583 11.3821 10.6621 12.3932 10.0494 13.5747C9.43669 14.7562 9.12667 16.0713 9.1471 17.4021C9.16753 18.7328 9.51778 20.0378 10.1665 21.1999C10.8151 22.362 11.742 23.3451 12.864 24.061C13.9859 24.777 15.268 25.2034 16.5953 25.302L16.5931 25.3031Z" fill="#2B4294"/>
</svg>
