<svg width="56" height="56" viewBox="0 0 56 56" fill="none" xmlns="http://www.w3.org/2000/svg">
<path fill-rule="evenodd" clip-rule="evenodd" d="M53.0994 53.4844H4.47563V52.3644H53.0994V53.4844ZM32.2613 50.8331V43.4273H25.3105V50.8331H32.2613ZM33.7914 42.6617V50.8331H35.7164V40.2325H21.8597V50.8331H23.7792V42.6617C23.7792 42.2395 24.1238 41.8961 24.5449 41.8961H33.0258C33.4513 41.8961 33.7914 42.2395 33.7914 42.6617ZM37.2466 39.4669C37.2466 39.0436 36.902 38.7012 36.4809 38.7012H21.0941C20.6686 38.7012 20.3284 39.0436 20.3284 39.4669V50.8331H18.5872V14.8455H38.9824V50.8331H37.2455V39.4669H37.2466ZM35.77 30.9181C35.4659 30.5692 34.2705 28.7667 33.3124 27.3186C32.7217 26.4272 32.1617 25.585 31.7909 25.0414C31.5766 24.733 31.4825 24.4278 31.4825 24.0527V21.6945C32.3378 21.3872 32.9459 20.5713 32.9459 19.6131C32.9459 18.3925 31.9572 17.3994 30.7355 17.3994H26.8417C25.62 17.3994 24.6258 18.3925 24.6258 19.6131C24.6258 20.5713 25.2394 21.3872 26.0892 21.6945V24.0527C26.0892 24.4278 25.9952 24.733 25.7852 25.0414C25.4089 25.5861 24.85 26.4294 24.2594 27.323C23.3013 28.7689 22.1069 30.5692 21.8072 30.9181C20.907 31.9594 20.7102 33.4753 21.3106 34.7823C21.8794 36.0259 23.0245 36.7686 24.3764 36.7686H33.2019C34.5494 36.7686 35.6945 36.0259 36.2633 34.7823C36.8616 33.4753 36.6647 31.9594 35.77 30.9181ZM40.5136 29.8288H50.3333V50.8331H40.5136V29.8288ZM42.6978 47.8734H47.6886C48.1097 47.8734 48.4542 47.5311 48.4542 47.1078V42.6442C48.4542 42.222 48.1097 41.8786 47.6886 41.8786H42.6978C42.2767 41.8786 41.9322 42.222 41.9322 42.6442V47.1078C41.9322 47.5311 42.2778 47.8734 42.6978 47.8734ZM48.4542 38.0548V33.5912C48.4542 33.168 48.1097 32.8256 47.6886 32.8256H42.6978C42.2767 32.8256 41.9322 33.168 41.9322 33.5912V38.0548C41.9322 38.477 42.2767 38.8205 42.6978 38.8205H47.6886C48.1086 38.8205 48.4542 38.477 48.4542 38.0548ZM46.923 43.4098H43.4634V46.3422H46.923V43.4098ZM43.4634 37.2892H46.923V34.3569H43.4634V37.2892ZM14.8728 47.8734C15.2983 47.8734 15.6384 47.5311 15.6384 47.1078V42.6442C15.6384 42.222 15.2983 41.8786 14.8728 41.8786H9.88751C9.46204 41.8786 9.12188 42.222 9.12188 42.6442V47.1078C9.12188 47.5311 9.46204 47.8734 9.88751 47.8734H14.8728ZM17.057 50.8331H7.24173V29.8288H17.057V50.8331ZM15.6384 38.0548V33.5912C15.6384 33.168 15.2983 32.8256 14.8728 32.8256H9.88751C9.46204 32.8256 9.12188 33.168 9.12188 33.5912V38.0548C9.12188 38.477 9.46204 38.8205 9.88751 38.8205H14.8739C15.2983 38.8205 15.6384 38.477 15.6384 38.0548ZM10.652 46.3422H14.1072V43.4098H10.652V46.3422ZM10.652 37.2892H14.1072V34.3569H10.652V37.2892ZM22.7008 34.1447C22.8528 34.4739 23.3144 35.2373 24.3742 35.2373H33.1997C34.2563 35.2373 34.7211 34.4739 34.8688 34.1447C35.2133 33.3933 35.1105 32.4997 34.6095 31.92C34.4444 31.7275 34.1392 31.3064 33.7236 30.6939C33.7061 30.6873 33.6875 30.6808 33.6656 30.672C32.2645 30.0759 31.0789 30.6819 29.2524 31.7188C27.8381 32.5248 26.285 33.4075 24.4322 33.4075C23.823 33.4075 23.1831 33.3102 22.5028 33.0859C22.4864 33.4403 22.5488 33.8067 22.7008 34.1447ZM23.1525 31.6837C25.1803 32.2733 26.7958 31.3556 28.4966 30.3877C28.5283 30.3691 28.5633 30.3494 28.5994 30.3297C28.1028 29.7041 26.0039 28.8892 24.4278 29.8364C23.8558 30.6906 23.4216 31.3206 23.1525 31.6837ZM25.7261 27.8797C27.4586 27.7561 29.1594 28.502 29.8528 29.4514C29.8889 29.5006 29.9195 29.5542 29.9425 29.6078C30.7661 29.2086 31.6214 28.9133 32.5292 28.9056C32.3728 28.6705 32.2066 28.4233 32.037 28.1652C31.4508 27.2792 30.8963 26.4414 30.5288 25.9098C30.1394 25.3455 29.9513 24.7384 29.9513 24.0527V21.828H27.6238V24.0527C27.6238 24.7384 27.4313 25.3455 27.0463 25.9098C26.7203 26.3845 26.2413 27.102 25.7261 27.8797ZM17.057 28.2975V25.4877H4.3061C3.52735 25.4877 2.90063 26.1177 2.90063 26.8931C2.90063 27.6675 3.52735 28.2975 4.3061 28.2975H17.057ZM13.1458 23.9564V2.51562H44.4259V23.9564H40.5147V14.0798C40.5147 13.6577 40.1745 13.3142 39.7491 13.3142H17.8227C17.4016 13.3142 17.057 13.6577 17.057 14.0798V23.9564H13.1458ZM31.2266 10.8347C31.6477 10.8347 31.9922 10.4912 31.9922 10.0691V5.70172C31.9922 5.27844 31.6477 4.93609 31.2266 4.93609H26.3441C25.923 4.93609 25.5784 5.27844 25.5784 5.70172V10.0691C25.5784 10.4912 25.923 10.8347 26.3441 10.8347H31.2266ZM34.1053 10.0691C34.1053 10.4912 34.4455 10.8347 34.8709 10.8347H39.7491C40.1745 10.8347 40.5147 10.4912 40.5147 10.0691V5.70172C40.5147 5.27844 40.1745 4.93609 39.7491 4.93609H34.8709C34.4455 4.93609 34.1053 5.27844 34.1053 5.70172V10.0691ZM23.4708 10.0691V5.70172C23.4708 5.27844 23.1263 4.93609 22.7052 4.93609H17.8227C17.4016 4.93609 17.057 5.27844 17.057 5.70172V10.0691C17.057 10.4912 17.4016 10.8347 17.8227 10.8347H22.7052C23.1263 10.8347 23.4708 10.4912 23.4708 10.0691ZM40.5136 25.4877V28.2975H51.6939C52.4683 28.2975 53.0994 27.6675 53.0994 26.8931C53.0994 26.1177 52.4683 25.4877 51.6939 25.4877H40.5136ZM30.7344 20.2967C31.1106 20.2967 31.4147 19.9905 31.4147 19.6131C31.4147 19.2369 31.1106 18.9306 30.7344 18.9306H26.8406C26.4644 18.9306 26.1559 19.2369 26.1559 19.6131C26.1559 19.9905 26.4644 20.2967 26.8406 20.2967H30.7344ZM35.6355 9.30344H38.9834V6.46734H35.6355V9.30344ZM30.462 9.30344V6.46734H27.1097V9.30344H30.462ZM21.9395 9.30344V6.46734H18.5872V9.30344H21.9395Z" fill="#2B4294"/>
</svg>
