<svg width="56" height="56" viewBox="0 0 56 56" fill="none" xmlns="http://www.w3.org/2000/svg">
<path d="M52.304 7.16797H39.984C38.528 7.16797 37.408 8.28797 37.408 9.74397C37.408 11.2 38.528 12.32 39.984 12.32H52.304C53.76 12.32 54.88 11.2 54.88 9.74397C54.88 8.39997 53.76 7.16797 52.304 7.16797Z" fill="#2B4294"/>
<path d="M40.656 19.3753C41.44 19.3753 41.888 19.5993 42.336 19.7113C42.784 19.8233 43.232 20.0473 44.128 20.0473C45.024 20.0473 45.472 19.9353 45.92 19.7113C46.48 19.4873 47.04 19.3753 48.272 19.3753C49.392 19.3753 50.064 19.5993 50.512 19.7113C50.848 19.8233 51.184 19.9353 51.632 19.9353V14.1113H40.656V19.3753Z" fill="#2B4294"/>
<path d="M48.16 20.9434C47.264 20.9434 46.816 21.0554 46.368 21.2794C45.808 21.5034 45.248 21.6154 44.016 21.6154C42.896 21.6154 42.224 21.3914 41.776 21.2794C41.44 21.1674 41.104 21.0554 40.656 21.0554V25.4234C43.904 28.6714 45.696 33.1514 45.696 37.8554C45.696 40.0954 45.248 42.2234 44.576 44.2394C45.136 44.3514 45.584 44.4634 46.144 44.4634C49.168 44.4634 51.632 41.9994 51.632 38.9754V21.6154C50.848 21.5034 50.4 21.3914 49.952 21.2794C49.504 21.1674 49.056 20.9434 48.16 20.9434Z" fill="#2B4294"/>
<path d="M35.728 23.6323C34.048 22.7363 32.928 21.0563 32.928 19.2643H28.896C28.448 19.2643 28 18.9283 28 18.3683C28 17.9203 28.336 17.4723 28.896 17.4723H32.928V15.2323H28.896C28.448 15.2323 28 14.8963 28 14.3363C28 13.8883 28.336 13.4403 28.896 13.4403H32.928V11.2003H28.896C28.448 11.2003 28 10.8643 28 10.3043C28 9.85627 28.336 9.40826 28.896 9.40826H32.928V9.07227H23.184V19.1523C23.184 21.0563 22.064 22.7363 20.384 23.6323C15.344 26.3203 11.984 31.5843 11.984 37.7443C11.984 39.6483 12.32 41.5523 12.992 43.2323L13.104 43.4563H17.248C18.368 43.4563 19.264 44.3523 19.264 45.3603H23.52C23.968 45.3603 24.416 45.6963 24.416 46.2563C24.416 46.7043 24.08 47.1523 23.52 47.1523H19.264C19.264 48.2723 18.368 49.0563 17.248 49.0563H16.8L17.136 49.5043C20.048 52.1923 23.856 53.7603 28 53.7603C36.848 53.7603 44.016 46.5923 44.016 37.7443C44.016 31.6963 40.656 26.3203 35.728 23.6323ZM25.2 42.5603C25.088 42.6723 24.864 42.7843 24.64 42.7843L22.064 42.8963C21.616 42.8963 21.28 42.5603 21.168 42.1123C21.168 41.6643 21.504 41.2163 21.952 41.2163H22.4C20.832 39.4243 20.272 36.8483 20.944 34.4963C21.84 31.3603 24.864 29.2323 28 29.3443C28.448 29.3443 28.784 29.6803 28.784 30.2403C28.784 30.6883 28.336 31.0243 27.888 31.0243H27.776C25.312 31.0243 23.184 32.7043 22.4 35.0563C21.84 36.8483 22.288 38.7523 23.408 40.2083V39.6483C23.408 39.2003 23.744 38.7523 24.192 38.7523C24.64 38.7523 24.976 39.0883 25.088 39.5363L25.2 42.1123C25.424 42.2243 25.312 42.4483 25.2 42.5603ZM34.944 38.7523C34.048 41.7763 31.136 43.9043 28 43.9043H27.888C27.44 43.9043 27.104 43.4563 27.104 43.0083C27.104 42.5603 27.552 42.2243 28 42.2243C30.464 42.3363 32.704 40.6563 33.488 38.1923C34.048 36.4003 33.6 34.4963 32.48 33.0403V33.6003C32.48 34.0483 32.144 34.4963 31.696 34.4963C31.248 34.4963 30.912 34.1603 30.8 33.7123L30.688 31.1363C30.688 30.9123 30.8 30.6883 30.912 30.5763C31.024 30.4643 31.248 30.3523 31.472 30.3523L34.048 30.2403C34.496 30.2403 34.944 30.5763 34.944 31.0243C34.944 31.4723 34.608 31.9203 34.16 31.9203H33.712C35.168 33.8243 35.728 36.2883 34.944 38.7523Z" fill="#2B4294"/>
<path d="M21.84 7.39223H34.16C35.616 7.39223 36.736 6.27223 36.736 4.81623C36.736 3.36023 35.616 2.24023 34.16 2.24023H21.84C20.384 2.24023 19.264 3.36023 19.264 4.81623C19.264 6.27223 20.384 7.39223 21.84 7.39223Z" fill="#2B4294"/>
<path d="M10.192 6.38518C10.192 4.48118 8.62398 2.91318 6.60799 3.02518C4.81599 3.13718 3.47198 4.81718 3.47198 6.60918V10.7532H10.192V6.38518Z" fill="#2B4294"/>
<path d="M4.59198 34.721L6.83198 37.745L9.07199 34.721C9.74399 33.713 10.192 32.593 10.192 31.361V15.793H3.47198V31.361C3.47198 32.593 3.80798 33.825 4.59198 34.721Z" fill="#2B4294"/>
<path d="M2.016 14.1123H11.648C12.096 14.1123 12.544 13.7763 12.544 13.2163C12.544 12.6563 12.208 12.3203 11.648 12.3203H2.016C1.568 12.3203 1.12 12.6563 1.12 13.2163C1.12 13.7763 1.456 14.1123 2.016 14.1123Z" fill="#2B4294"/>
<path d="M6.16 43.4554V42.6714C6.16 42.2234 5.824 41.7754 5.26399 41.7754C4.70399 41.7754 4.48 42.3354 4.48 42.7834V45.4714H2.8V43.3434C2.8 42.8954 2.464 42.4474 1.904 42.4474C1.344 42.4474 1.12 42.7834 1.12 43.3434V49.2794C1.12 49.7274 1.456 50.1754 2.016 50.1754C2.576 50.1754 2.912 49.8394 2.912 49.2794V47.1514H4.48V49.8394C4.48 50.2874 4.816 50.7354 5.376 50.7354C5.936 50.7354 6.272 50.3994 6.272 49.8394V49.0554H16.8L13.104 43.4554H6.16Z" fill="#2B4294"/>
</svg>
