<svg width="56" height="56" viewBox="0 0 56 56" fill="none" xmlns="http://www.w3.org/2000/svg">
<path fill-rule="evenodd" clip-rule="evenodd" d="M10.6153 7.41352H21.7125C22.1358 7.41352 22.4781 7.75586 22.4781 8.17914C22.4781 8.60242 22.1358 8.94477 21.7125 8.94477H16.4986C14.3275 11.4845 13.0161 14.781 13.0161 18.3849C13.0161 26.413 19.5239 32.9209 27.552 32.9209H44.4888V35.6027L50.4027 31.138L44.4888 26.6734V29.3552H33.4309C33.0077 29.3552 32.6653 29.0129 32.6653 28.5896C32.6653 28.1663 33.0077 27.824 33.4309 27.824H38.5967C40.7645 25.2821 42.0869 21.9779 42.0869 18.3838C42.0869 10.3557 35.5791 3.84789 27.5509 3.84789H10.6153V1.16602L4.70141 5.6307L10.6153 10.0954V7.41352ZM23.8234 10.3502C24.0477 10.2463 24.2763 10.1512 24.5081 10.0659V8.76102C24.5081 8.33883 24.8516 7.99539 25.2738 7.99539H29.8314C30.2536 7.99539 30.597 8.33883 30.597 8.76102V10.0659C30.8289 10.1512 31.0575 10.2452 31.2817 10.3502L32.2048 9.42711C32.5034 9.12852 32.9891 9.12852 33.2877 9.42711L36.5109 12.6504C36.8095 12.949 36.8095 13.4346 36.5109 13.7332L35.5878 14.6563C35.6917 14.8805 35.7869 15.1091 35.8722 15.341H37.177C37.5992 15.341 37.9427 15.6845 37.9427 16.1066V20.6643C37.9427 21.0865 37.5992 21.4299 37.177 21.4299H35.8722C35.7869 21.6618 35.6928 21.8904 35.5878 22.1146L36.5109 23.0377C36.8095 23.3363 36.8095 23.822 36.5109 24.1205L33.2877 27.3438C32.9891 27.6424 32.5034 27.6424 32.2048 27.3438L31.2817 26.4207C31.0575 26.5246 30.8289 26.6198 30.597 26.7051V28.0099C30.597 28.4321 30.2536 28.7755 29.8314 28.7755H25.2738C24.8516 28.7755 24.5081 28.4321 24.5081 28.0099V26.7051C24.2763 26.6198 24.0477 26.5257 23.8234 26.4207L22.9003 27.3438C22.6017 27.6424 22.1161 27.6424 21.8175 27.3438L18.5942 24.1205C18.2956 23.822 18.2956 23.3363 18.5942 23.0377L19.5173 22.1146C19.4134 21.8904 19.3183 21.6618 19.233 21.4299H17.9281C17.5059 21.4299 17.1625 21.0865 17.1625 20.6643V16.1066C17.1625 15.6845 17.5059 15.341 17.9281 15.341H19.233C19.3183 15.1091 19.4123 14.8805 19.5173 14.6563L18.5942 13.7332C18.2956 13.4346 18.2956 12.949 18.5942 12.6504L21.8175 9.42711C22.1161 9.12852 22.6017 9.12852 22.9003 9.42711L23.8234 10.3502ZM19.9198 13.1918L21.1448 14.4168C20.7205 15.1004 20.4022 15.8562 20.2141 16.6612H18.4827V20.1098H20.2141C20.4033 20.9159 20.7205 21.6716 21.1448 22.3541L19.9198 23.5791L22.3589 26.0182L23.5839 24.7932C24.2675 25.2176 25.0233 25.5359 25.8283 25.724V27.4554H29.2769V25.724C30.083 25.5348 30.8388 25.2176 31.5213 24.7932L32.7463 26.0182L35.1853 23.5791L33.9603 22.3541C34.3847 21.6705 34.703 20.9148 34.8911 20.1098H36.6225V16.6612H34.8911C34.7019 15.8551 34.3847 15.0993 33.9603 14.4168L35.1853 13.1918L32.7463 10.7527L31.5213 11.9777C30.8377 11.5534 30.0819 11.2351 29.2769 11.047V9.31555H25.8283V11.047C25.0222 11.2362 24.2664 11.5534 23.5839 11.9777L22.3589 10.7527L19.9198 13.1918ZM27.552 14.5218C29.6805 14.5218 31.4163 16.2576 31.4163 18.386C31.4163 20.5145 29.6805 22.2502 27.552 22.2502C25.4236 22.2502 23.6878 20.5145 23.6878 18.386C23.6878 16.2576 25.4236 14.5218 27.552 14.5218ZM10.1155 26.984H1.19922V21.8423C1.19922 19.3901 3.20516 17.383 5.65844 17.383C8.11063 17.383 10.1177 19.389 10.1177 21.8423V26.984H10.1155ZM3.14281 14.5218C3.14281 13.1371 4.27266 12.0073 5.65734 12.0073C7.04203 12.0073 8.17188 13.1371 8.17188 14.5218C8.17188 15.9065 7.04203 17.0363 5.65734 17.0363C4.27266 17.0363 3.14281 15.9065 3.14281 14.5218ZM54.7919 20.8645H45.8745V15.7227C45.8745 13.2705 47.8805 11.2635 50.3338 11.2635C52.7859 11.2635 54.793 13.2695 54.793 15.7227V20.8645H54.7919ZM47.8192 8.40227C47.8192 7.01758 48.9491 5.88773 50.3338 5.88773C51.7184 5.88773 52.8483 7.01758 52.8483 8.40227C52.8483 9.78695 51.7184 10.9168 50.3338 10.9168C48.9491 10.9168 47.8192 9.78695 47.8192 8.40227ZM54.7995 41.1743C53.3098 43.2054 48.412 46.0054 46.0911 47.2709C34.2863 53.7065 28.0825 57.0304 12.8816 53.2274C12.2406 53.0677 11.3733 52.8971 10.0455 52.7713V39.2176C15.8391 37.6666 17.9544 38.6466 21.2312 39.2843C24.4305 39.9066 28.0377 39.9843 31.2861 40.0138C33.8138 40.0379 34.9578 41.008 35.0628 42.4321C35.1197 43.2043 34.9064 43.8441 34.4919 44.3735C34.1495 44.7782 33.6409 45.1074 33.0241 45.3732C31.7488 45.9234 30.0512 46.2023 28.345 46.328C26.0055 46.5009 23.6594 46.3838 22.3119 46.281C21.8831 46.2493 21.5091 46.5709 21.4773 46.9996C21.4456 47.4284 21.7672 47.8024 22.1959 47.8341C23.5894 47.9413 26.0175 48.0616 28.4544 47.8812C30.3148 47.7434 32.1862 47.4305 33.6387 46.8038C35.1984 46.1312 36.2977 45.1041 36.4945 43.5685L49.088 38.511C51.9066 37.3845 54.8772 38.1293 54.7984 41.1743H54.7995ZM8.29547 38.6576V53.1388C8.29547 53.8629 7.70266 54.4557 6.97859 54.4557H2.52484C1.80078 54.4557 1.20797 53.8629 1.20797 53.1388V38.6576C1.20797 37.9335 1.80078 37.3407 2.52484 37.3407H6.98078C7.70484 37.3407 8.29766 37.9335 8.29766 38.6576H8.29547Z" fill="#2B4294"/>
</svg>
