<svg width="56" height="56" viewBox="0 0 56 56" fill="none" xmlns="http://www.w3.org/2000/svg">
<path d="M28.0942 18.7599C30.9977 18.7599 33.3599 16.3978 33.3599 13.4942C33.3599 10.5906 30.9977 8.22842 28.0942 8.22842C25.1906 8.22842 22.8285 10.5906 22.8285 13.4942C22.8285 16.3978 25.1907 18.7599 28.0942 18.7599ZM25.4791 12.9333C25.7164 12.7469 26.0603 12.7878 26.247 13.0252L27.2624 14.3166L29.9744 11.4603C30.1824 11.2413 30.5286 11.2324 30.7475 11.4402C30.9666 11.6481 30.9755 11.9943 30.7676 12.2133L27.6201 15.5283C27.5167 15.6374 27.3731 15.6987 27.2235 15.6987C27.2151 15.6987 27.2066 15.6985 27.1982 15.6981C27.0395 15.6908 26.8918 15.6147 26.7937 15.4899L25.3874 13.7013C25.2008 13.4639 25.2419 13.1201 25.4792 12.9334L25.4791 12.9333ZM19.0775 14.7264C19.3213 15.1163 19.3995 15.5604 19.3039 16.0103L18.7312 18.7046C18.6622 19.0293 18.8483 19.3514 19.1639 19.4541L21.7833 20.3052C22.221 20.4474 22.5663 20.7371 22.7823 21.1432L24.0753 23.5752C24.2312 23.8682 24.5805 23.9955 24.8886 23.8711L27.4423 22.8393C27.6556 22.7531 27.875 22.71 28.0943 22.71C28.3136 22.71 28.533 22.7531 28.7463 22.8393L31.3 23.8711C31.6078 23.9955 31.9574 23.8683 32.1132 23.5752L33.4062 21.1432C33.6223 20.7371 33.9677 20.4474 34.405 20.3052L37.0246 19.4541C37.3403 19.3515 37.5263 19.0293 37.4573 18.7045L36.8846 16.0106C36.789 15.5602 36.8674 15.1161 37.1112 14.7263L38.5707 12.3907C38.7465 12.1093 38.682 11.7428 38.4203 11.5383L36.2499 9.8428C35.8875 9.55941 35.662 9.16894 35.5979 8.7135L35.2147 5.98591C35.1684 5.65724 34.8803 5.41585 34.5517 5.42974L31.7992 5.52588C31.3376 5.54075 30.9158 5.38774 30.5739 5.08006L28.5272 3.23688C28.2803 3.01474 27.9083 3.01485 27.6617 3.23688L25.6149 5.07996C25.2728 5.38763 24.8502 5.54174 24.3895 5.52588L21.637 5.42974C21.3032 5.41497 21.0201 5.65735 20.974 5.98591L20.5907 8.71339C20.5266 9.16894 20.3013 9.55941 19.9388 9.84269L17.7683 11.5384C17.5067 11.7428 17.4421 12.1092 17.618 12.3907L19.0776 14.7264H19.0775ZM28.0942 7.13489C31.6008 7.13489 34.4537 9.98772 34.4537 13.4944C34.4537 17.0011 31.6008 19.8539 28.0942 19.8539C24.5875 19.8539 21.7348 17.0011 21.7348 13.4944C21.7348 9.98772 24.5876 7.13489 28.0942 7.13489ZM31.7954 47.8553L29.0381 45.6166L33.331 42.9789C33.8496 43.2304 34.3475 43.5178 34.8215 43.8381L31.7954 47.8552V47.8553ZM38.8741 35.3597C38.8741 32.4953 41.2044 30.165 44.0687 30.165C46.933 30.165 49.2634 32.4953 49.2634 35.3597C49.2634 38.224 46.9361 40.551 44.0743 40.5541C44.0723 40.5541 44.0705 40.5541 44.0686 40.5541C44.0667 40.5541 44.065 40.5541 44.0631 40.5541C41.2013 40.551 38.8741 38.222 38.8741 35.3597ZM28.0942 44.9129L24.1012 42.4596C25.3489 42.0199 26.6898 41.7801 28.0859 41.7791C28.0887 41.7791 28.0915 41.7793 28.0945 41.7793C28.0972 41.7793 28.1001 41.7791 28.1029 41.7791C29.4988 41.7801 30.8396 42.02 32.0872 42.4596L28.0943 44.9129H28.0942ZM21.6057 34.1969C21.6057 30.619 24.5165 27.7083 28.0944 27.7083C31.6723 27.7083 34.5829 30.619 34.5829 34.1969C34.5829 37.7748 31.6767 40.6809 28.1027 40.6853C28.0999 40.6853 28.097 40.6853 28.0942 40.6853C28.0914 40.6853 28.0886 40.6853 28.0859 40.6853C24.5119 40.6808 21.6057 37.7719 21.6057 34.1969ZM28.5753 48.6941L29.7941 53.2767H26.3944L27.6131 48.6941C27.6632 48.5055 27.6092 48.3047 27.4713 48.1669L26.6975 47.3931L28.0943 46.2591L29.4911 47.3931L28.7173 48.1668C28.5794 48.3047 28.5253 48.5055 28.5754 48.694L28.5753 48.6941ZM53.7822 50.8295H40.8881C40.3086 48.3527 39.0261 46.1438 37.2638 44.4242C39.0737 42.655 41.522 41.6493 44.0632 41.6478C44.0651 41.6478 44.067 41.648 44.0688 41.648H44.073C49.2522 41.6503 53.4979 45.7199 53.7823 50.8297L53.7822 50.8295ZM40.1265 53.2767H30.9258L29.7132 48.7174L30.3446 48.0861L31.5464 49.0618C31.6444 49.1413 31.7662 49.1841 31.891 49.1841C31.913 49.1841 31.9352 49.1827 31.9573 49.1801C32.1047 49.162 32.2384 49.0849 32.3277 48.9663L35.699 44.4909C38.2747 46.5937 39.9677 49.7386 40.1265 53.2767ZM18.9191 44.4296C17.1597 46.1484 15.8793 48.3554 15.3004 50.8295H2.40625C2.69095 45.7225 6.93459 41.6545 12.111 41.6523H12.1154C12.1172 41.6523 12.119 41.6522 12.1208 41.6522C14.6619 41.6538 17.11 42.6598 18.919 44.4295L18.9191 44.4296ZM26.4752 48.7175L25.2627 53.2768H16.0619C16.2207 49.7387 17.9138 46.5938 20.4893 44.491L23.8606 48.9665C23.9498 49.085 24.0836 49.1621 24.231 49.1802C24.2531 49.1828 24.2753 49.1842 24.2973 49.1842C24.4222 49.1842 24.5441 49.1413 24.642 49.0619L25.8438 48.0862L26.4751 48.7175H26.4752ZM6.92322 35.3664C6.92322 32.5034 9.25247 30.1743 12.1155 30.1743C14.9785 30.1743 17.3076 32.5034 17.3076 35.3664C17.3076 38.2294 14.9813 40.5554 12.1209 40.5584C12.119 40.5584 12.1171 40.5584 12.1152 40.5584C12.1134 40.5584 12.1116 40.5584 12.1098 40.5584C9.24941 40.5553 6.92333 38.2275 6.92333 35.3664H6.92322ZM21.367 43.838C21.8409 43.5176 22.3389 43.2302 22.8573 42.9788L27.1503 45.6165L24.3929 47.8552L21.3668 43.8381L21.367 43.838Z" fill="white"/>
</svg>
