<svg width="56" height="56" viewBox="0 0 56 56" fill="none" xmlns="http://www.w3.org/2000/svg">
<path d="M28.4694 45.5816L28.6908 46.0499H24.6883V23.2268L27.0771 25.6156C27.1803 25.7189 27.3177 25.7757 27.4637 25.7757C27.6097 25.7757 27.7471 25.7189 27.8505 25.6155L33.282 20.184V27.9625L33.1422 28.0605C29.3762 30.7003 27.1279 35.0103 27.1279 39.5898C27.1279 41.6825 27.5792 43.6983 28.4694 45.5816ZM15.0008 26.292V46.0499H23.5945V22.133L21.3771 19.9157L15.0008 26.292ZM5.3133 46.0499H13.907V27.3857L5.3133 35.9795V46.0499ZM21.3771 18.5953C21.5232 18.5953 21.6605 18.6522 21.7637 18.7554L27.4636 24.4554L41.7964 10.1228C41.8981 10.0209 42.0391 9.96253 42.1831 9.96253C42.2223 9.96253 42.2618 9.9668 42.3003 9.97522C42.4833 10.0155 42.6314 10.1443 42.6963 10.3202L43.4005 12.2302L46.3628 3.43164L37.535 6.4038L39.5599 7.17981C39.7336 7.24631 39.8604 7.39473 39.8991 7.57663C39.9378 7.75852 39.8824 7.94566 39.7509 8.07713L27.8505 19.9776C27.7471 20.0808 27.6097 20.1378 27.4637 20.1378C27.3177 20.1378 27.1804 20.0809 27.0771 19.9777L21.3772 14.2777L1.82336 33.8314L3.8689 35.877L20.9905 18.7555C21.0937 18.6522 21.2311 18.5953 21.3772 18.5953H21.3771ZM41.9656 11.5003L34.3757 19.0902V27.2755L34.8523 27.0336C36.8329 26.0283 38.9682 25.5185 41.199 25.5185C41.6668 25.5185 42.1411 25.5421 42.6088 25.5889L42.9695 25.6249V14.184L42.9285 14.1008C42.9224 14.0888 42.9158 14.0769 42.9111 14.0641L41.9656 11.5003ZM35.113 44.37H37.3686V42.1145H35.113V44.37ZM49.3197 33.7361H33.0786C32.5081 33.7361 32.0439 34.2002 32.0439 34.7707V36.7943L41.1992 39.0285L50.3546 36.7943V34.7707C50.3546 34.2002 49.8904 33.7361 49.3199 33.7361H49.3197ZM54.1766 39.5898C54.1766 46.7457 48.3549 52.5673 41.1991 52.5673C34.0434 52.5673 28.2217 46.7456 28.2217 39.5898C28.2217 32.4341 34.0434 26.6124 41.1991 26.6124C48.3549 26.6124 54.1766 32.434 54.1766 39.5898ZM51.4481 37.2238V34.7707C51.4481 33.5972 50.4933 32.6423 49.3197 32.6423H45.1344V31.3048C45.1344 30.1602 44.2032 29.2289 43.0586 29.2289H38.899C37.7544 29.2289 36.8231 30.1602 36.8231 31.3048V32.6423H33.0786C31.905 32.6423 30.9501 33.597 30.9501 34.7707V37.2238C30.9501 37.4649 31.1051 37.6747 31.3359 37.7456L31.5675 37.817V45.8596C31.5675 46.9208 32.4308 47.7842 33.4919 47.7842H48.9063C49.9675 47.7842 50.8308 46.9208 50.8308 45.8596V37.817L51.0623 37.7456C51.2931 37.6747 51.4482 37.4649 51.4482 37.2238H51.4481ZM41.3287 40.1227L49.7371 38.0707V45.8597C49.7371 46.3178 49.3644 46.6905 48.9063 46.6905H33.4919C33.0338 46.6905 32.6612 46.3179 32.6612 45.8597V38.0707L41.0696 40.1227C41.112 40.1331 41.1556 40.1383 41.1991 40.1383C41.2427 40.1383 41.2863 40.1331 41.3287 40.1227ZM38.4623 41.5676C38.4623 41.2661 38.217 41.0208 37.9155 41.0208H34.5661C34.2645 41.0208 34.0192 41.2661 34.0192 41.5676V44.9169C34.0192 45.2185 34.2645 45.4638 34.5661 45.4638H37.9155C38.217 45.4638 38.4623 45.2185 38.4623 44.9169V41.5676ZM43.9797 44.9169C43.9797 45.2185 44.225 45.4638 44.5265 45.4638H47.8759C48.1775 45.4638 48.4228 45.2185 48.4228 44.9169V41.5676C48.4228 41.2661 48.1775 41.0208 47.8759 41.0208H44.5265C44.225 41.0208 43.9797 41.2661 43.9797 41.5676V44.9169ZM44.0407 31.3047C44.0407 30.7631 43.6001 30.3226 43.0586 30.3226H38.899C38.3575 30.3226 37.9169 30.763 37.9169 31.3047V32.6422H44.0407V31.3047ZM47.3291 42.1145H45.0734V44.37H47.3291V42.1145Z" fill="#2B4294"/>
</svg>
