<svg width="56" height="56" viewBox="0 0 56 56" fill="none" xmlns="http://www.w3.org/2000/svg">
<path d="M24.976 7.83881C24.976 7.05481 24.304 6.38281 23.52 6.38281H18.256C17.472 6.38281 16.8 7.05481 16.8 7.83881V11.3108H24.976V7.83881Z" fill="#2B4294"/>
<path d="M16.8 12.9902H24.976V16.5742H16.8V12.9902Z" fill="#2B4294"/>
<path d="M16.8 18.2559H24.976V22.3999H16.8V18.2559Z" fill="#2B4294"/>
<path d="M4.592 12.9902H12.768V16.5742H4.592V12.9902Z" fill="#2B4294"/>
<path d="M4.592 18.2559H12.768V22.3999H4.592V18.2559Z" fill="#2B4294"/>
<path d="M12.656 7.83881C12.656 7.05481 11.984 6.38281 11.2 6.38281H5.936C5.152 6.38281 4.592 7.05481 4.592 7.83881V11.3108H12.768V7.83881H12.656Z" fill="#2B4294"/>
<path d="M28.896 8.28711C29.008 8.28711 29.12 8.28711 29.232 8.17511L39.424 3.02311H39.648L50.064 8.17511C50.512 8.39911 50.96 8.17511 51.184 7.83911C51.408 7.39111 51.184 6.94311 50.848 6.71911L40.32 1.45511C39.76 1.23111 39.2 1.23111 38.64 1.45511L28.448 6.60711C28 6.83111 27.888 7.27911 28.112 7.72711C28.224 8.06311 28.56 8.28711 28.896 8.28711Z" fill="#2B4294"/>
<path d="M26.096 29.3438H29.904V33.1517H26.096V29.3438Z" fill="#2B4294"/>
<path d="M26.096 37.5195H29.904V41.3275H26.096V37.5195Z" fill="#2B4294"/>
<path d="M6.496 37.5195H10.304V41.3275H6.496V37.5195Z" fill="#2B4294"/>
<path d="M35.952 37.5195H39.76V41.3275H35.952V37.5195Z" fill="#2B4294"/>
<path d="M35.952 45.6953H39.76V49.5033H35.952V45.6953Z" fill="#2B4294"/>
<path d="M26.096 45.6953H29.904V49.5033H26.096V45.6953Z" fill="#2B4294"/>
<path d="M16.352 37.5195H20.16V41.3275H16.352V37.5195Z" fill="#2B4294"/>
<path d="M16.352 45.6953H20.16V49.5033H16.352V45.6953Z" fill="#2B4294"/>
<path d="M16.352 29.3438H20.16V33.1517H16.352V29.3438Z" fill="#2B4294"/>
<path d="M6.496 29.3438H10.304V33.1517H6.496V29.3438Z" fill="#2B4294"/>
<path d="M6.496 45.6953H10.304V49.5033H6.496V45.6953Z" fill="#2B4294"/>
<path d="M45.808 37.5195H49.616V41.3275H45.808V37.5195Z" fill="#2B4294"/>
<path d="M45.808 29.3438H49.616V33.1517H45.808V29.3438Z" fill="#2B4294"/>
<path d="M54.656 24.6401C54.208 24.3041 53.648 24.0801 52.976 24.0801H3.024C1.568 24.0801 0.335999 25.3121 0.335999 26.7681V53.8721C0.335999 54.3201 0.671999 54.7681 1.232 54.7681H54.992C55.44 54.7681 55.888 54.4321 55.888 53.8721V26.7681C55.776 25.9841 55.328 25.0881 54.656 24.6401ZM11.872 50.2881C11.872 50.7361 11.536 51.1841 10.976 51.1841H5.6C5.152 51.1841 4.704 50.8481 4.704 50.2881V44.8001C4.704 44.3521 5.04 43.9041 5.6 43.9041H11.088C11.536 43.9041 11.984 44.2401 11.984 44.8001V50.2881H11.872ZM11.872 42.1121C11.872 42.5601 11.536 43.0081 10.976 43.0081H5.6C5.152 43.0081 4.704 42.6721 4.704 42.1121V36.6241C4.816 36.1761 5.152 35.8401 5.6 35.8401H11.088C11.536 35.8401 11.984 36.1761 11.984 36.7361V42.1121H11.872ZM11.872 33.9361C11.872 34.3841 11.536 34.8321 10.976 34.8321H5.6C5.152 34.8321 4.704 34.4961 4.704 33.9361V28.4481C4.704 28.0001 5.04 27.5521 5.6 27.5521H11.088C11.536 27.5521 11.984 27.8881 11.984 28.4481V33.9361H11.872ZM21.728 50.2881C21.728 50.7361 21.392 51.1841 20.832 51.1841H15.344C14.896 51.1841 14.448 50.8481 14.448 50.2881V44.8001C14.448 44.3521 14.784 43.9041 15.344 43.9041H20.832C21.28 43.9041 21.728 44.2401 21.728 44.8001V50.2881ZM21.728 42.1121C21.728 42.5601 21.392 43.0081 20.832 43.0081H15.344C14.896 43.0081 14.448 42.6721 14.448 42.1121V36.6241C14.448 36.1761 14.784 35.7281 15.344 35.7281H20.832C21.28 35.7281 21.728 36.0641 21.728 36.6241V42.1121ZM21.728 33.9361C21.728 34.3841 21.392 34.8321 20.832 34.8321H15.344C14.896 34.8321 14.448 34.4961 14.448 33.9361V28.4481C14.448 28.0001 14.784 27.5521 15.344 27.5521H20.832C21.28 27.5521 21.728 27.8881 21.728 28.4481V33.9361ZM31.584 50.2881C31.584 50.7361 31.248 51.1841 30.688 51.1841H25.2C24.752 51.1841 24.304 50.8481 24.304 50.2881V44.8001C24.304 44.3521 24.64 43.9041 25.2 43.9041H30.688C31.136 43.9041 31.584 44.2401 31.584 44.8001V50.2881ZM31.584 42.1121C31.584 42.5601 31.248 43.0081 30.688 43.0081H25.2C24.752 43.0081 24.304 42.6721 24.304 42.1121V36.6241C24.304 36.1761 24.64 35.7281 25.2 35.7281H30.688C31.136 35.7281 31.584 36.0641 31.584 36.6241V42.1121ZM31.584 33.9361C31.584 34.3841 31.248 34.8321 30.688 34.8321H25.2C24.752 34.8321 24.304 34.4961 24.304 33.9361V28.4481C24.304 28.0001 24.64 27.5521 25.2 27.5521H30.688C31.136 27.5521 31.584 27.8881 31.584 28.4481V33.9361ZM41.328 50.2881C41.328 50.7361 40.992 51.1841 40.432 51.1841H34.944C34.496 51.1841 34.048 50.8481 34.048 50.2881V44.8001C34.048 44.3521 34.384 43.9041 34.944 43.9041H40.432C40.88 43.9041 41.328 44.2401 41.328 44.8001V50.2881ZM41.328 42.1121C41.328 42.5601 40.992 43.0081 40.432 43.0081H34.944C34.496 43.0081 34.048 42.6721 34.048 42.1121V36.6241C34.048 36.1761 34.384 35.7281 34.944 35.7281H40.432C40.88 35.7281 41.328 36.0641 41.328 36.6241V42.1121ZM41.328 33.9361C41.328 34.3841 40.992 34.8321 40.432 34.8321H34.944C34.496 34.8321 34.048 34.4961 34.048 33.9361V28.4481C34.048 28.0001 34.384 27.5521 34.944 27.5521H40.432C40.88 27.5521 41.328 27.8881 41.328 28.4481V33.9361ZM51.184 50.2881C51.184 50.7361 50.848 51.1841 50.288 51.1841H44.8C44.352 51.1841 43.904 50.8481 43.904 50.2881V44.8001C43.904 44.3521 44.24 43.9041 44.8 43.9041H50.4C50.848 43.9041 51.296 44.2401 51.296 44.8001V50.2881H51.184ZM51.184 42.1121C51.184 42.5601 50.848 43.0081 50.288 43.0081H44.8C44.352 43.0081 43.904 42.6721 43.904 42.1121V36.6241C43.904 36.1761 44.24 35.7281 44.8 35.7281H50.4C50.848 35.7281 51.296 36.0641 51.296 36.6241V42.1121H51.184ZM51.184 33.9361C51.184 34.3841 50.848 34.8321 50.288 34.8321H44.8C44.352 34.8321 43.904 34.4961 43.904 33.9361V28.4481C43.904 28.0001 44.24 27.5521 44.8 27.5521H50.4C50.848 27.5521 51.296 27.8881 51.296 28.4481V33.9361H51.184Z" fill="#2B4294"/>
<path d="M35.952 29.3438H39.76V33.1517H35.952V29.3438Z" fill="#2B4294"/>
<path d="M45.808 45.6953H49.616V49.5033H45.808V45.6953Z" fill="#2B4294"/>
<path d="M30.016 9.63045C29.68 9.74245 29.344 9.85445 29.008 9.85445V22.3985H49.952V9.85445C49.728 9.85445 49.504 9.74245 49.168 9.63045L39.424 4.81445L30.016 9.63045ZM35.168 20.0465H32.592C32.144 20.0465 31.696 19.7105 31.696 19.1505C31.696 18.7025 32.032 18.2545 32.592 18.2545H35.168C35.616 18.2545 36.064 18.5905 36.064 19.1505C36.064 19.7105 35.728 20.0465 35.168 20.0465ZM35.168 16.2385H32.592C32.144 16.2385 31.696 15.9025 31.696 15.3425C31.696 14.8945 32.032 14.4465 32.592 14.4465H35.168C35.616 14.4465 36.064 14.7825 36.064 15.3425C36.064 15.9025 35.728 16.2385 35.168 16.2385ZM35.168 12.5425H32.592C32.144 12.5425 31.696 12.2065 31.696 11.6465C31.696 11.1985 32.032 10.7505 32.592 10.7505H35.168C35.616 10.7505 36.064 11.0865 36.064 11.6465C36.064 12.2065 35.728 12.5425 35.168 12.5425ZM40.768 20.0465H38.192C37.744 20.0465 37.296 19.7105 37.296 19.1505C37.296 18.7025 37.632 18.2545 38.192 18.2545H40.768C41.216 18.2545 41.664 18.5905 41.664 19.1505C41.552 19.7105 41.216 20.0465 40.768 20.0465ZM40.768 16.2385H38.192C37.744 16.2385 37.296 15.9025 37.296 15.3425C37.296 14.8945 37.632 14.4465 38.192 14.4465H40.768C41.216 14.4465 41.664 14.7825 41.664 15.3425C41.552 15.9025 41.216 16.2385 40.768 16.2385ZM43.68 10.8625H46.256C46.704 10.8625 47.152 11.1985 47.152 11.7585C47.152 12.2065 46.816 12.6545 46.256 12.6545H43.68C43.232 12.6545 42.784 12.3185 42.784 11.7585C42.896 11.1985 43.232 10.8625 43.68 10.8625ZM43.68 14.5585H46.256C46.704 14.5585 47.152 14.8945 47.152 15.4545C47.152 15.9025 46.816 16.3505 46.256 16.3505H43.68C43.232 16.3505 42.784 16.0145 42.784 15.4545C42.896 15.0065 43.232 14.5585 43.68 14.5585ZM43.68 18.3665H46.256C46.704 18.3665 47.152 18.7025 47.152 19.2625C47.152 19.7105 46.816 20.1585 46.256 20.1585H43.68C43.232 20.1585 42.784 19.8225 42.784 19.2625C42.896 18.7025 43.232 18.3665 43.68 18.3665ZM41.552 11.6465C41.552 12.0945 41.216 12.5425 40.656 12.5425H38.08C37.632 12.5425 37.184 12.2065 37.184 11.6465C37.184 11.1985 37.52 10.7505 38.08 10.7505H40.656C41.216 10.8625 41.552 11.1985 41.552 11.6465Z" fill="#2B4294"/>
</svg>
