<svg width="56" height="56" viewBox="0 0 56 56" fill="none" xmlns="http://www.w3.org/2000/svg">
<path d="M21.8759 49.875C19.7645 49.875 18.6524 50.9871 17.759 51.8814C16.9251 52.7161 16.2654 53.375 14.8785 53.375C13.4907 53.375 12.831 52.7161 11.9963 51.8814C11.102 50.9871 9.98987 49.875 7.87675 49.875C5.76363 49.875 4.65063 50.9871 3.75725 51.8814C2.9225 52.7161 2.26275 53.375 0.875 53.375V55.125C2.98812 55.125 4.10113 54.0129 4.9945 53.1186C5.82925 52.2839 6.489 51.625 7.87675 51.625C9.2645 51.625 9.92425 52.2839 10.759 53.1186C11.6524 54.0129 12.7654 55.125 14.8785 55.125C16.9907 55.125 18.1029 54.0129 18.9963 53.1186C19.8301 52.2839 20.489 51.625 21.8759 51.625C23.2627 51.625 23.9216 52.2839 24.7564 53.1186C25.6497 54.0129 26.7628 55.125 28.875 55.125V53.375C27.4872 53.375 26.8284 52.7161 25.9936 51.8814C25.1003 50.9871 23.9881 49.875 21.8759 49.875Z" fill="#2B4294"/>
<path d="M38.5003 23.625V14.875H32.916L37.291 23.625H38.5003Z" fill="#2B4294"/>
<path d="M40.25 16.625V18.375H42.5959C42.1951 17.7678 41.7594 17.1824 41.2816 16.625H40.25Z" fill="#2B4294"/>
<path d="M40.2499 25.375H36.2092L34.6963 22.3492C34.8599 23.8962 34.9562 25.4992 34.9815 27.125H45.4597C45.3372 24.6715 44.7133 22.2906 43.6213 20.125H40.2499V25.375Z" fill="#2B4294"/>
<path d="M45.4597 28.875H34.9929C34.9544 31.2489 34.7575 33.6394 34.4102 35.875H43.6213C44.7142 33.7094 45.3372 31.3294 45.4597 28.875Z" fill="#2B4294"/>
<path d="M51.6253 20.125V13.125H46.916L50.416 20.125H51.6253Z" fill="#2B4294"/>
<path d="M44.625 41.125H48.125V42.875H44.625V41.125Z" fill="#2B4294"/>
<path d="M22.7627 27.125H33.2312C33.1918 24.6899 32.9897 22.3055 32.6371 20.125H23.3516C23.0007 22.2959 22.8021 24.675 22.7627 27.125Z" fill="#2B4294"/>
<path d="M51.6249 2.625H50.3841L47.4004 7.875H51.6249V2.625Z" fill="#2B4294"/>
<path d="M32.6316 35.875C32.9763 33.775 33.1933 31.4151 33.2353 28.875H22.7686C22.8079 31.311 23.0101 33.6945 23.3627 35.875H32.6316Z" fill="#2B4294"/>
<path d="M19.25 14.875H30.9592L30.0842 13.125H40.25V14.875H43.6949C44.3809 14.875 45.0642 14.8068 45.7371 14.6825L44.0842 11.375H51.8438C52.3582 10.836 52.8299 10.2567 53.2289 9.625H28.875V10.5C28.875 11.9473 27.6973 13.125 26.25 13.125H18.4634C18.4056 13.4076 18.375 13.7007 18.375 14C18.375 14.483 18.767 14.875 19.25 14.875Z" fill="#2B4294"/>
<path d="M31.8347 16.625H24.1032C23.9501 17.1859 23.8083 17.7678 23.6797 18.375H32.7088L31.8347 16.625Z" fill="#2B4294"/>
<path d="M14.7176 16.6249C14.2398 17.1823 13.8041 17.7676 13.4033 18.3749H21.8908C22.0116 17.7711 22.1454 17.1884 22.2898 16.6249H19.2501C18.5754 16.6249 17.9656 16.3615 17.5001 15.9424C17.0346 16.3624 16.4247 16.6249 15.7501 16.6249H14.7176Z" fill="#2B4294"/>
<path d="M27.1247 10.5V9.625H22.7497C21.3261 9.625 20.0713 10.3189 19.2725 11.375H26.2497C26.7327 11.375 27.1247 10.983 27.1247 10.5Z" fill="#2B4294"/>
<path d="M3.5 14.875H15.75C16.233 14.875 16.625 14.483 16.625 14V3.5C16.625 3.017 16.233 2.625 15.75 2.625H13.125V6.125H6.125V2.625H3.5C3.017 2.625 2.625 3.017 2.625 3.5V14C2.625 14.483 3.017 14.875 3.5 14.875ZM13.125 11.375H14.875V13.125H13.125V11.375ZM9.625 11.375H11.375V13.125H9.625V11.375Z" fill="#2B4294"/>
<path d="M27.125 45.5V44.625H2.75098L3.7231 46.375H27.0576C27.0987 46.0871 27.125 45.7958 27.125 45.5Z" fill="#2B4294"/>
<path d="M26.5196 48.125H21.876C23.5892 48.125 24.8151 48.6806 25.7426 49.3395C26.0445 48.9624 26.3122 48.5599 26.5196 48.125Z" fill="#2B4294"/>
<path d="M5.03656 48.7401C5.80569 48.3787 6.72881 48.125 7.87681 48.125H4.69531L5.03656 48.7401Z" fill="#2B4294"/>
<path d="M13.2337 50.6442C13.2363 50.6469 13.2372 50.6477 13.2398 50.6504L16.4896 50.6766C16.501 50.6652 16.5097 50.6574 16.5211 50.646C17.5247 49.6415 19.0411 48.126 21.8761 48.126H7.87695C10.7146 48.1251 12.231 49.6406 13.2337 50.6442Z" fill="#2B4294"/>
<path d="M21.541 37.625L24.166 42.875H28.8753V45.1929C30.1825 44.3161 31.4688 41.5599 32.3053 37.625H21.541Z" fill="#2B4294"/>
<path d="M52.5 41.125H49.875V44.625H42.875V41.125H40.25C39.767 41.125 39.375 41.517 39.375 42V52.5C39.375 52.983 39.767 53.375 40.25 53.375H52.5C52.983 53.375 53.375 52.983 53.375 52.5V42C53.375 41.517 52.983 41.125 52.5 41.125ZM48.125 51.625H46.375V49.875H48.125V51.625ZM51.625 51.625H49.875V49.875H51.625V51.625Z" fill="#2B4294"/>
<path d="M19.3077 37.625H8.75V42.875H10.5V39.375H19.25V42.875H22.2092L19.5842 37.625H19.3077Z" fill="#2B4294"/>
<path d="M41.2813 39.375C41.759 38.8176 42.1948 38.2322 42.5955 37.625H34.0993C33.4763 40.7461 32.5357 43.4402 31.2949 45.178C33.548 44.7492 35.6909 43.8821 37.6247 42.6037V42C37.6247 40.5527 38.8024 39.375 40.2497 39.375H41.2813Z" fill="#2B4294"/>
<path d="M12.3784 20.125C11.2864 22.2906 10.6625 24.6715 10.54 27.125H21.0138C21.0523 24.6864 21.2457 22.3142 21.5852 20.125H12.3784Z" fill="#2B4294"/>
<path d="M21.0186 28.875H10.5273C10.6498 31.3136 11.2833 33.7067 12.3771 35.875H19.308H20.666H21.5917C21.2522 33.6796 21.0562 31.3005 21.0186 28.875Z" fill="#2B4294"/>
<path d="M12.25 41.125H17.5V42.875H12.25V41.125Z" fill="#2B4294"/>
<path d="M7.875 2.625H11.375V4.375H7.875V2.625Z" fill="#2B4294"/>
</svg>
