<svg width="56" height="56" viewBox="0 0 56 56" fill="none" xmlns="http://www.w3.org/2000/svg">
<g clip-path="url(#clip0_2201_8229)">
<path d="M21.6159 46.5852C21.6159 45.3422 20.6082 44.3345 19.3652 44.3345C18.1221 44.3345 17.1145 45.3422 17.1145 46.5852C17.1145 47.8283 18.1221 48.8359 19.3652 48.8359C20.6081 48.8359 21.6159 47.8283 21.6159 46.5852ZM18.7551 46.5852C18.7551 46.2477 19.0277 45.9751 19.3652 45.9751C19.7026 45.9751 19.9753 46.2478 19.9753 46.5852C19.9753 46.9226 19.7026 47.1953 19.3652 47.1953C19.0277 47.1953 18.7551 46.9227 18.7551 46.5852ZM10.2817 28.2143C10.1294 28.6407 9.66033 28.8631 9.23388 28.7109C8.80742 28.5588 8.58495 28.0896 8.7372 27.6631C9.95433 24.2657 12.058 21.2507 14.8154 18.924C15.1605 18.6319 15.6769 18.675 15.969 19.0201C16.2609 19.3652 16.2179 19.8816 15.8728 20.1737C13.3383 22.3124 11.4004 25.0917 10.2817 28.2143ZM19.3652 42.6939C17.2166 42.6939 15.4738 44.4367 15.4738 46.5852H11.204V31.2199L25.4326 31.22V46.5852H23.2564C23.2564 44.4367 21.5137 42.6939 19.3652 42.6939ZM41.1846 18.924C43.7927 21.1246 45.8116 23.9338 47.0552 27.1121C47.2197 27.5333 47.0118 28.0082 46.5906 28.1727C46.1694 28.3373 45.6945 28.1293 45.53 27.7081C44.3895 24.7935 42.5188 22.1915 40.1273 20.1736C39.7822 19.8815 39.7391 19.3651 40.0311 19.02C40.3231 18.675 40.8395 18.6319 41.1846 18.924ZM36.0462 24.0366L38.2028 21.8799C38.5101 21.5727 38.5101 21.0699 38.2028 20.7627L37.1854 19.7452C36.5701 19.1299 36.3957 18.2533 36.7288 17.4492C37.0618 16.6452 37.8049 16.1487 38.6751 16.1487H40.1139C40.5485 16.1487 40.904 15.7932 40.904 15.3587V12.3087C40.904 11.8742 40.5485 11.5186 40.1139 11.5186H38.6751C37.8048 11.5186 37.0617 11.022 36.7287 10.218C36.3956 9.41402 36.57 8.53748 37.1854 7.92203L38.2028 6.90462C38.5101 6.59739 38.5101 6.09459 38.2028 5.78736L36.0462 3.6307C35.7388 3.32347 35.2361 3.32347 34.9289 3.6307L33.9115 4.64811C33.2962 5.26345 32.4196 5.4378 31.6155 5.10475C30.8115 4.7717 30.315 4.02861 30.315 3.15831V1.7197C30.315 1.28516 29.9596 0.929688 29.5249 0.929688H26.475C26.0404 0.929688 25.6849 1.28516 25.6849 1.7197V3.15853C25.6849 4.02883 25.1883 4.77192 24.3843 5.10497C23.5803 5.43802 22.7037 5.26367 22.0883 4.64822L21.0709 3.63081C20.7636 3.32358 20.2608 3.32358 19.9536 3.63081L17.797 5.78747C17.4897 6.0947 17.4897 6.5975 17.797 6.90473L18.8144 7.92214C19.4297 8.53748 19.6042 9.41402 19.2711 10.2181C18.9381 11.0222 18.195 11.5187 17.3247 11.5187H15.8858C15.4513 11.5187 15.0957 11.8742 15.0957 12.3088V15.3588C15.0957 15.7933 15.4512 16.1488 15.8857 16.1488H17.3246C18.1949 16.1488 18.9378 16.6452 19.2709 17.4494C19.6039 18.2535 19.4296 19.1299 18.8143 19.7454L17.7968 20.7628C17.4896 21.07 17.4896 21.5728 17.7968 21.88L19.9535 24.0367C20.2608 24.3439 20.7635 24.3439 21.0708 24.0367L22.0882 23.0193C22.7035 22.4039 23.5802 22.2296 24.3842 22.5625C25.1882 22.8956 25.6848 23.6387 25.6848 24.509V25.9478C25.6848 26.3823 26.0402 26.7379 26.4749 26.7379H29.5248C29.9593 26.7379 30.3149 26.3825 30.3149 25.9478V24.509C30.3149 23.6387 30.8115 22.8956 31.6154 22.5625C32.4195 22.2295 33.296 22.4038 33.9114 23.0193L34.9288 24.0367C35.2361 24.3439 35.7389 24.3439 36.0462 24.0366ZM31.4384 19.0894C30.4508 19.7372 29.2694 20.114 28 20.114C26.7307 20.114 25.5495 19.737 24.5617 19.0894V19.0143C24.5617 17.7452 25.4166 16.6334 26.6408 16.3056C27.057 16.4873 27.5168 16.5881 28 16.5881C28.4832 16.5881 28.943 16.4872 29.3592 16.3055C30.5834 16.6334 31.4383 17.7452 31.4383 19.0143V19.0894H31.4384ZM26.2557 13.2347C26.2557 12.2715 27.0459 11.5218 28 11.5218C28.9542 11.5218 29.7444 12.2714 29.7444 13.2347C29.7444 14.198 28.9542 14.9475 28 14.9475C27.0459 14.9475 26.2557 14.1979 26.2557 13.2347ZM32.8977 17.7645C32.5667 16.6495 31.8022 15.7006 30.788 15.1333C31.1645 14.5926 31.385 13.9385 31.385 13.2347C31.385 11.3739 29.8522 9.88116 28 9.88116C26.148 9.88116 24.615 11.3739 24.615 13.2347C24.615 13.9385 24.8355 14.5926 25.212 15.1333C24.1977 15.7007 23.4333 16.6494 23.1022 17.7646C22.2374 16.6885 21.7196 15.3217 21.7196 13.8338C21.7196 10.3653 24.5313 7.55355 27.9998 7.55355C31.4683 7.55355 34.28 10.3653 34.28 13.8338C34.2802 15.3217 33.7625 16.6883 32.8977 17.7645ZM43.9306 29.871H48.479C50.737 29.871 52.5815 31.7155 52.5815 33.9734V34.4244C52.5815 34.8774 52.2142 35.2447 51.7612 35.2447C51.3081 35.2447 50.9409 34.8774 50.9409 34.4244V33.9734C50.9409 32.6211 49.8314 31.5117 48.479 31.5117H43.9306C43.4775 31.5117 43.1103 31.1444 43.1103 30.6914C43.1103 30.2384 43.4775 29.871 43.9306 29.871ZM0.929688 39.3185H9.56342V46.5853H9.13795C9.13795 44.4368 7.39517 42.694 5.24661 42.694C3.09805 42.694 1.35516 44.4367 1.35516 46.5852H0.929688V39.3185ZM5.2465 44.3345C4.00345 44.3345 2.99578 45.3422 2.99578 46.5852C2.99578 47.8283 4.00345 48.8359 5.2465 48.8359C6.48955 48.8359 7.49722 47.8283 7.49722 46.5852C7.49722 45.3422 6.48955 44.3345 5.2465 44.3345ZM5.2465 47.1954C4.90908 47.1954 4.63641 46.9228 4.63641 46.5853C4.63641 46.2478 4.90908 45.9752 5.2465 45.9752C5.58392 45.9752 5.85659 46.2479 5.85659 46.5853C5.85659 46.9228 5.58403 47.1954 5.2465 47.1954ZM31.4812 53.9094C31.5413 54.3572 31.2272 54.7689 30.7794 54.829C29.8594 54.954 28.9286 55.0187 28 55.0187C24.8066 55.0187 21.6718 54.2804 18.8185 52.8449C18.4151 52.6413 18.2529 52.1492 18.4564 51.7458C18.6599 51.3423 19.152 51.1802 19.5555 51.3836C22.1803 52.7041 25.0628 53.378 28 53.378C28.8574 53.378 29.7118 53.3229 30.5616 53.2075C31.0092 53.1475 31.421 53.4616 31.4812 53.9094ZM5.29112 33.4225H9.56342V37.6778H1.63461L5.29112 33.4225ZM47.1874 43.5529L40.6533 39.7043V43.6256L33.9517 39.7043V55.0703H55.0703V43.5529H47.1874ZM37.9123 52.4707H36.6926C36.2395 52.4707 35.8723 52.1034 35.8723 51.6504C35.8723 51.1973 36.2395 50.8301 36.6926 50.8301H37.9123C38.3654 50.8301 38.7326 51.1973 38.7326 51.6504C38.7326 52.1034 38.3655 52.4707 37.9123 52.4707ZM37.9123 49.7007H36.6926C36.2395 49.7007 35.8723 49.3334 35.8723 48.8803C35.8723 48.4273 36.2395 48.06 36.6926 48.06H37.9123C38.3654 48.06 38.7326 48.4273 38.7326 48.8803C38.7326 49.3334 38.3655 49.7007 37.9123 49.7007ZM37.9123 46.9306H36.6926C36.2395 46.9306 35.8723 46.5633 35.8723 46.1103C35.8723 45.6573 36.2395 45.29 36.6926 45.29H37.9123C38.3654 45.29 38.7326 45.6573 38.7326 46.1103C38.7326 46.5633 38.3655 46.9306 37.9123 46.9306ZM44.614 52.4707H43.3942C42.9412 52.4707 42.5739 52.1034 42.5739 51.6504C42.5739 51.1973 42.9412 50.8301 43.3942 50.8301H44.614C45.067 50.8301 45.4343 51.1973 45.4343 51.6504C45.4343 52.1034 45.067 52.4707 44.614 52.4707ZM44.614 49.7007H43.3942C42.9412 49.7007 42.5739 49.3334 42.5739 48.8803C42.5739 48.4273 42.9412 48.06 43.3942 48.06H44.614C45.067 48.06 45.4343 48.4273 45.4343 48.8803C45.4343 49.3334 45.067 49.7007 44.614 49.7007ZM44.614 46.9306H43.3942C42.9412 46.9306 42.5739 46.5633 42.5739 46.1103C42.5739 45.6573 42.9412 45.29 43.3942 45.29H44.614C45.067 45.29 45.4343 45.6573 45.4343 46.1103C45.4343 46.5633 45.067 46.9306 44.614 46.9306ZM51.3156 52.4707H50.0958C49.6428 52.4707 49.2755 52.1034 49.2755 51.6504C49.2755 51.1973 49.6428 50.8301 50.0958 50.8301H51.3156C51.7686 50.8301 52.1359 51.1973 52.1359 51.6504C52.1359 52.1034 51.7686 52.4707 51.3156 52.4707ZM51.3156 49.7007H50.0958C49.6428 49.7007 49.2755 49.3334 49.2755 48.8803C49.2755 48.4273 49.6428 48.06 50.0958 48.06H51.3156C51.7686 48.06 52.1359 48.4273 52.1359 48.8803C52.1359 49.3334 51.7686 49.7007 51.3156 49.7007ZM51.3156 46.9306H50.0958C49.6428 46.9306 49.2755 46.5633 49.2755 46.1103C49.2755 45.6573 49.6428 45.29 50.0958 45.29H51.3156C51.7686 45.29 52.1359 45.6573 52.1359 46.1103C52.1359 46.5633 51.7686 46.9306 51.3156 46.9306ZM52.6764 41.9123H48.735C48.9642 39.9721 49.1318 38.1268 49.1318 36.4538H52.2796C52.2796 38.1269 52.4472 39.9722 52.6764 41.9123ZM48.7528 34.4244V33.9734C48.7528 33.8245 48.628 33.6996 48.4792 33.6996H43.9545C43.5015 33.6996 43.1342 33.3324 43.1342 32.8793C43.1342 32.4263 43.5015 32.059 43.9545 32.059H48.4792C49.5336 32.059 50.3935 32.9189 50.3935 33.9734V34.4244C50.3935 34.8774 50.0263 35.2447 49.5732 35.2447C49.1202 35.2447 48.7528 34.8774 48.7528 34.4244Z" fill="#2B4294"/>
</g>
<defs>
<clipPath id="clip0_2201_8229">
<rect width="56" height="56" fill="white"/>
</clipPath>
</defs>
</svg>
