<svg width="56" height="56" viewBox="0 0 56 56" fill="none" xmlns="http://www.w3.org/2000/svg">
<path d="M32.1728 19.8428V20.4783H23.8231V19.8428C23.8231 19.2817 24.0528 18.7731 24.4214 18.4045C24.7932 18.0327 25.3018 17.803 25.8629 17.803H30.1318C30.6962 17.803 31.2048 18.0327 31.5734 18.4045C31.942 18.7731 32.1717 19.2817 32.1717 19.8428H32.1728ZM22.9459 22.2272H16.122V25.5697C16.122 26.5869 16.5617 27.3219 17.2661 27.8545C17.8392 28.292 18.5895 28.6136 19.4361 28.8619V27.067C19.4361 26.5869 19.8298 26.1931 20.3132 26.1931H23.0203C23.5037 26.1931 23.8942 26.5869 23.8942 27.067V29.3114H32.1039V27.067C32.1039 26.5869 32.4943 26.1931 32.9778 26.1931H35.6848C36.1682 26.1931 36.5587 26.5869 36.5587 27.067V28.8619C37.4053 28.6136 38.1556 28.2909 38.7287 27.8545C39.4353 27.3208 39.8761 26.5869 39.8761 25.5697V22.2272H22.9448H22.9459ZM47.3551 22.7106C46.9056 21.0645 46.2548 19.5048 45.4268 18.0567L48.6797 11.5555L44.4447 7.32047L37.9434 10.5733C36.4953 9.74531 34.9356 9.09453 33.2895 8.645L30.9948 1.75H25.0043L22.7096 8.645C21.0636 9.09453 19.5039 9.74531 18.0557 10.5733L11.5545 7.32047L7.31949 11.5555L10.5723 18.0567C9.74434 19.5048 9.09027 21.0645 8.64402 22.7106L1.74902 25.0053V30.9958L8.64402 33.2905C9.09027 34.9366 9.74434 36.4963 10.5723 37.9444L7.31949 44.4456L11.5545 48.6806L18.0557 45.4278C19.5039 46.2558 21.0636 46.9066 22.7096 47.3561L25.0043 54.2511H30.9948L32.3532 50.1648C31.0298 48.1436 30.2609 45.7286 30.2609 43.1298C30.2609 42.0328 30.4009 40.9631 30.6579 39.9459H15.7884C15.305 39.9459 14.9112 39.5555 14.9112 39.072V27.7769C14.5667 27.1502 14.372 26.4217 14.372 25.5697V21.3533C14.372 20.8698 14.7657 20.4794 15.2459 20.4794H22.0764V19.8439C22.0764 18.7994 22.5007 17.8533 23.1865 17.1653C23.8745 16.4806 24.8206 16.0552 25.8651 16.0552H30.134C31.1786 16.0552 32.1279 16.4795 32.8126 17.1653C33.5006 17.8533 33.9261 18.7994 33.9261 19.8439V20.4794H40.7532C41.2367 20.4794 41.6271 20.8698 41.6271 21.3533V25.5697C41.6271 26.4217 41.4346 27.1534 41.0879 27.7769V30.4216C41.754 30.3166 42.4365 30.2608 43.1311 30.2608C45.6576 30.2608 48.0945 30.9958 50.1693 32.3531L54.2523 30.9925V25.0086L47.3573 22.7117L47.3551 22.7106ZM36.5598 32.0611C37.425 31.5459 38.3546 31.1314 39.3379 30.8273V29.5498C38.5406 30.0486 37.5857 30.4084 36.5598 30.6687V32.0611ZM34.0048 34.055H32.9789C32.4954 34.055 32.105 33.6612 32.105 33.1811V31.0603H23.8953V33.1811C23.8953 33.6612 23.5048 34.055 23.0214 34.055H20.3143C19.8309 34.055 19.4371 33.6612 19.4371 33.1811V30.6698C18.4112 30.4095 17.4596 30.0497 16.6623 29.5509V38.1981H31.2409C31.8884 36.6384 32.8345 35.2341 34.007 34.0561L34.0048 34.055ZM22.1464 32.3028V27.9442H21.1882V32.3028H22.1464ZM33.8539 32.3028H34.812V27.9442H33.8539V32.3028ZM51.0367 35.3106C53.024 37.3198 54.2523 40.0816 54.2523 43.1298C54.2523 49.2712 49.2736 54.2511 43.1311 54.2511C36.9886 54.2511 32.0098 49.2723 32.0098 43.1298C32.0098 36.9873 36.9886 32.0086 43.1311 32.0086C46.2253 32.0086 49.022 33.2741 51.0367 35.3106ZM51.1734 39.8278C50.7359 38.768 50.1004 37.812 49.3129 37.0158C48.5134 36.2064 47.5487 35.5523 46.4757 35.1061C45.4432 34.6752 44.3145 34.4367 43.13 34.4367C40.7303 34.4367 38.557 35.4102 36.982 36.9819C35.4103 38.5569 34.4368 40.7302 34.4368 43.1298C34.4368 45.5295 35.4103 47.7028 36.982 49.2778C38.557 50.8495 40.7303 51.823 43.13 51.823C45.5296 51.823 47.7029 50.8495 49.2779 49.2778C50.8497 47.7028 51.8231 45.5295 51.8231 43.1298C51.8231 41.9672 51.5901 40.8516 51.1723 39.8278H51.1734ZM48.0704 38.2462C48.7059 38.8916 49.2145 39.6506 49.559 40.4906C49.7887 41.043 49.9462 41.6347 50.0206 42.2548H49.4289C48.9454 42.2548 48.555 42.6453 48.555 43.1288C48.555 43.6122 48.9454 44.0027 49.4289 44.0027H50.0206C49.8226 45.5711 49.1029 46.9755 48.0431 48.0397C46.98 49.0995 45.5756 49.8192 44.0061 50.0172V49.4255C44.0061 48.942 43.6156 48.5516 43.1322 48.5516C42.6487 48.5516 42.2582 48.942 42.2582 49.4255V50.0172C40.6898 49.8214 39.2854 49.0995 38.2212 48.0397C37.1603 46.9766 36.4417 45.5722 36.2426 44.0027H36.8354C37.3189 44.0027 37.7093 43.6122 37.7093 43.1288C37.7093 42.6453 37.3189 42.2548 36.8354 42.2548H36.2426C36.4406 40.6864 37.1603 39.282 38.2212 38.2178C39.2843 37.158 40.6887 36.4383 42.2582 36.2403V36.832C42.2582 37.3155 42.6487 37.7059 43.1322 37.7059C43.6156 37.7059 44.0061 37.3155 44.0061 36.832V36.2403C44.6382 36.318 45.2431 36.482 45.8075 36.7183C46.6573 37.0748 47.4262 37.5955 48.0704 38.2473V38.2462ZM45.3547 45.2375L44.0061 42.9034V40.1942C44.0061 39.7141 43.6156 39.3203 43.1322 39.3203C42.6487 39.3203 42.2582 39.7141 42.2582 40.1942V43.1298C42.2582 43.3191 42.3173 43.493 42.419 43.6352L43.8453 46.1059C44.0837 46.5216 44.6175 46.667 45.0331 46.4253C45.452 46.1869 45.5942 45.6531 45.3557 45.2375H45.3547Z" fill="#2B4294"/>
</svg>
