<svg width="24" height="24" viewBox="0 0 24 24" fill="none" xmlns="http://www.w3.org/2000/svg">
<path d="M1.5 1.125H12.0004V3.375H1.5V1.125Z" fill="#191A51"/>
<path d="M21.7496 17.625V18.75H20.25V20.25H21.7496V21.375H23.25L23.2489 17.625H21.7496Z" fill="#191A51"/>
<path d="M18.75 16.875H19.5004V22.125H18.75V16.875Z" fill="#191A51"/>
<path d="M16.5 19.125H15.75V17.625H15V19.875H14.25V17.625H13.5V19.125H12.75V17.625H12V19.875H11.25V17.625H10.5V21.375H18V17.625H16.5V19.125Z" fill="#191A51"/>
<path d="M7.875 19.1251V19.8751V20.1582C8.25713 20.8591 8.95913 21.3042 9.75 21.3631V17.6367C8.95913 17.696 8.25713 18.1411 7.875 18.8416V19.1251Z" fill="#191A51"/>
<path d="M6 19.125H7.125V19.875H6V19.125Z" fill="#191A51"/>
<path d="M0.75 14.625H12.75V15.375H0.75V14.625Z" fill="#191A51"/>
<path d="M3 4.125H10.5V4.875H3V4.125Z" fill="#191A51"/>
<path d="M7.28662 20.625H6C5.58637 20.625 5.25 20.2886 5.25 19.875H2.25V19.125H5.25C5.25 18.7114 5.58637 18.375 6 18.375H7.28662C7.8435 17.4469 8.83088 16.875 9.927 16.875H12.75V16.125H0.75V21.75C0.75 22.3703 1.25475 22.875 1.875 22.875H11.625C12.1132 22.875 12.5258 22.5604 12.681 22.125H9.927C8.83088 22.125 7.8435 21.5531 7.28662 20.625Z" fill="#191A51"/>
<path d="M22.125 8.62425C21.6367 8.62425 21.2242 8.93888 21.069 9.37425H20.2279C20.1581 8.73863 19.911 8.14275 19.5109 7.64363L20.1052 7.04925C20.2545 7.1205 20.4172 7.16175 20.5875 7.16175C20.8879 7.16175 21.1706 7.04475 21.3829 6.8325C21.5951 6.62025 21.7121 6.3375 21.7121 6.03713C21.7121 5.73675 21.5951 5.454 21.3829 5.24175C20.9576 4.8165 20.2166 4.81687 19.7917 5.24175C19.5791 5.45437 19.4621 5.73675 19.4621 6.0375C19.4621 6.20775 19.5034 6.3705 19.5746 6.51975L18.9802 7.11412C18.4811 6.714 17.8853 6.46725 17.2496 6.39713V5.556C17.685 5.40075 17.9996 4.98825 17.9996 4.5C17.9996 3.87975 17.4949 3.375 16.8746 3.375C16.2544 3.375 15.7496 3.87975 15.7496 4.5C15.7496 4.98825 16.0642 5.40075 16.4996 5.556V6.3975C15.864 6.46725 15.2681 6.71438 14.769 7.1145L14.175 6.519C14.2463 6.36975 14.2875 6.207 14.2875 6.03675C14.2875 5.73638 14.1705 5.45363 13.9583 5.24138C13.5334 4.8165 12.7924 4.8165 12.3675 5.24138C12.1549 5.454 12.0379 5.73638 12.0379 6.03713C12.0379 6.25763 12.102 6.468 12.2197 6.64875C11.9809 6.33225 11.6708 6.06638 11.2991 5.88075L10.7861 5.62425H2.71388L2.20125 5.88075C1.41337 6.2745 0.889125 7.01925 0.774375 7.87425H12.7252C12.6686 7.45237 12.5115 7.0575 12.273 6.71812C12.303 6.75712 12.3315 6.79688 12.3668 6.83213C12.5794 7.04475 12.8617 7.16175 13.1625 7.16175C13.3327 7.16175 13.4955 7.1205 13.6448 7.04925L14.2391 7.64363C13.839 8.14275 13.5922 8.73863 13.5221 9.37425H12.75V8.62425H0.75V13.8743H12.1174C12.1721 14.0138 12.2546 14.1446 12.3671 14.2571C12.5798 14.4694 12.8621 14.5868 13.1629 14.5868C13.4636 14.5868 13.746 14.4698 13.9583 14.2571C14.3036 13.9118 14.3726 13.398 14.1746 12.9803L14.7694 12.3855C15.2681 12.7856 15.8644 13.0324 16.5 13.1025V13.944C16.0646 14.0993 15.75 14.5118 15.75 15C15.75 15.6202 16.2548 16.125 16.875 16.125C17.4953 16.125 18 15.6202 18 15C18 14.5118 17.6854 14.0993 17.25 13.944V13.1025C17.8856 13.0324 18.4815 12.7856 18.9806 12.3855L19.5758 12.9806C19.3778 13.3984 19.4468 13.9121 19.7917 14.2575C20.004 14.4698 20.2867 14.5871 20.5871 14.5871C20.8875 14.5871 21.1702 14.4701 21.3825 14.2575C21.8213 13.8188 21.8213 13.1055 21.3825 12.6667C21.0499 12.3345 20.5252 12.2659 20.1086 12.4538L19.5105 11.8556C19.9106 11.3565 20.1574 10.7606 20.2275 10.125H21.069C21.2242 10.5604 21.6367 10.875 22.125 10.875C22.7453 10.875 23.25 10.3703 23.25 9.75C23.25 9.12975 22.7453 8.62425 22.125 8.62425ZM20.3224 5.772C20.3929 5.70113 20.487 5.66213 20.5875 5.66213C20.688 5.66213 20.7817 5.70113 20.8526 5.772C20.9235 5.8425 20.9625 5.93663 20.9625 6.03713C20.9625 6.13762 20.9235 6.23138 20.8526 6.30225C20.7113 6.444 20.4641 6.444 20.3224 6.30225C20.2515 6.23175 20.2125 6.13762 20.2125 6.03713C20.2125 5.93663 20.2511 5.84288 20.3224 5.772ZM13.4276 6.30225C13.2863 6.444 13.0391 6.444 12.8974 6.30225C12.8265 6.23175 12.7875 6.13762 12.7875 6.03713C12.7875 5.93663 12.8265 5.84288 12.8974 5.772C12.9679 5.70113 13.062 5.66213 13.1625 5.66213C13.263 5.66213 13.3567 5.70113 13.4276 5.772C13.4985 5.8425 13.5375 5.93663 13.5375 6.03713C13.5375 6.13762 13.4989 6.23138 13.4276 6.30225ZM2.25 9.37425H6V10.1243H2.25V9.37425ZM4.5 11.6243H2.25V10.8743H4.5V11.6243ZM8.25 11.6243H5.25V10.8743H8.25V11.6243ZM9.75 11.6243H9V10.8743H9.75V11.6243ZM9.75 10.1243H6.75V9.37425H9.75V10.1243ZM11.625 10.1243C11.4184 10.1243 11.25 9.95588 11.25 9.74925C11.25 9.54263 11.4184 9.37425 11.625 9.37425C11.8316 9.37425 12 9.54263 12 9.74925C12 9.95588 11.8316 10.1243 11.625 10.1243ZM13.4276 13.7265C13.2863 13.8686 13.0391 13.8686 12.8974 13.7265C12.7511 13.5802 12.7511 13.3425 12.8974 13.1963C12.9679 13.1254 13.062 13.0864 13.1625 13.0864C13.263 13.0864 13.3567 13.1254 13.4276 13.1963C13.5739 13.3425 13.5739 13.5806 13.4276 13.7265ZM13.641 12.453C13.362 12.3274 13.0361 12.3154 12.75 12.423V10.1243H13.5221C13.5919 10.7599 13.839 11.3557 14.2391 11.8549L13.641 12.453ZM14.5714 8.49038C14.6902 8.274 14.8391 8.07262 15.0187 7.893C15.1984 7.71337 15.4001 7.56375 15.6169 7.44525C15.714 7.57425 15.7687 7.72875 15.7687 7.893C15.7687 8.09325 15.6908 8.2815 15.549 8.42325C15.2914 8.68125 14.8609 8.70187 14.5714 8.49038ZM15.3075 11.8515C15.6015 11.5808 16.0594 11.5856 16.3447 11.8706C16.4764 12.0022 16.5454 12.1744 16.557 12.3533C16.1014 12.2981 15.6739 12.126 15.3075 11.8515ZM16.6099 8.42325C16.6804 8.35238 16.7745 8.31337 16.875 8.31337C16.9755 8.31337 17.0693 8.35238 17.1401 8.42325C17.2864 8.5695 17.2864 8.80725 17.1401 8.95388C16.9984 9.09525 16.7516 9.09525 16.6099 8.95388C16.4636 8.80762 16.4636 8.5695 16.6099 8.42325ZM16.875 15.3743C16.6684 15.3743 16.5 15.2063 16.5 14.9993C16.5 14.7923 16.6684 14.6243 16.875 14.6243C17.0816 14.6243 17.25 14.7923 17.25 14.9993C17.25 15.2063 17.0816 15.3743 16.875 15.3743ZM16.875 4.87425C16.6684 4.87425 16.5 4.70588 16.5 4.49925C16.5 4.29263 16.6684 4.12425 16.875 4.12425C17.0816 4.12425 17.25 4.29263 17.25 4.49925C17.25 4.70588 17.0816 4.87425 16.875 4.87425ZM20.3224 13.1963C20.3929 13.1254 20.487 13.0864 20.5875 13.0864C20.688 13.0864 20.7817 13.1254 20.8526 13.1963C20.9989 13.3425 20.9989 13.5802 20.8526 13.7265C20.7113 13.8686 20.4641 13.8686 20.3228 13.7265C20.1761 13.5806 20.1761 13.3425 20.3224 13.1963ZM18.9772 11.3168C18.7061 11.0228 18.7114 10.5645 18.9964 10.2795C19.128 10.1479 19.3005 10.0792 19.479 10.0676C19.4239 10.5229 19.2514 10.9504 18.9772 11.3168ZM22.125 10.1243C21.9184 10.1243 21.75 9.95588 21.75 9.74925C21.75 9.54263 21.9184 9.37425 22.125 9.37425C22.3316 9.37425 22.5 9.54263 22.5 9.74925C22.5 9.95588 22.3316 10.1243 22.125 10.1243Z" fill="#191A51"/>
</svg>
