<svg width="24" height="24" viewBox="0 0 24 24" fill="none" xmlns="http://www.w3.org/2000/svg">
<path d="M6 13.125C6.20711 13.125 6.375 12.9571 6.375 12.75C6.375 12.5429 6.20711 12.375 6 12.375C5.79289 12.375 5.625 12.5429 5.625 12.75C5.625 12.9571 5.79289 13.125 6 13.125Z" fill="#191A51"/>
<path d="M14.625 18.75V11.25C14.625 10.9516 14.5065 10.6655 14.2955 10.4545C14.0845 10.2435 13.7984 10.125 13.5 10.125H5.625V11.694C5.7451 11.6496 5.87196 11.6262 6 11.625C6.29837 11.625 6.58452 11.7435 6.7955 11.9545C7.00647 12.1655 7.125 12.4516 7.125 12.75C7.12435 12.9171 7.08589 13.0818 7.0125 13.2319L7.593 13.8124C7.95903 13.5684 8.39965 13.462 8.83667 13.5121C9.27369 13.5621 9.67885 13.7654 9.98025 14.0858L10.5285 13.7434C10.5102 13.6635 10.5007 13.5819 10.5 13.5C10.5006 13.3329 10.5391 13.1682 10.6125 13.0181L9.94125 12.3469C9.87902 12.3646 9.81471 12.3741 9.75 12.375C9.60166 12.375 9.45666 12.331 9.33332 12.2486C9.20999 12.1662 9.11386 12.0491 9.05709 11.912C9.00032 11.775 8.98547 11.6242 9.01441 11.4787C9.04335 11.3332 9.11478 11.1996 9.21967 11.0947C9.32456 10.9898 9.4582 10.9183 9.60368 10.8894C9.74917 10.8605 9.89997 10.8753 10.037 10.9321C10.1741 10.9889 10.2912 11.085 10.3736 11.2083C10.456 11.3317 10.5 11.4767 10.5 11.625C10.4991 11.6898 10.4897 11.7543 10.4719 11.8166L11.1431 12.4879C11.2739 12.4225 11.4166 12.3846 11.5626 12.3766C11.7086 12.3686 11.8546 12.3907 11.9918 12.4414L12.4279 11.8965C12.3934 11.8101 12.3755 11.718 12.375 11.625C12.375 11.4767 12.419 11.3317 12.5014 11.2083C12.5838 11.085 12.7009 10.9889 12.838 10.9321C12.975 10.8753 13.1258 10.8605 13.2713 10.8894C13.4168 10.9183 13.5504 10.9898 13.6553 11.0947C13.7602 11.1996 13.8316 11.3332 13.8606 11.4787C13.8895 11.6242 13.8747 11.775 13.8179 11.912C13.7611 12.0491 13.665 12.1662 13.5417 12.2486C13.4183 12.331 13.2733 12.375 13.125 12.375C13.0873 12.3742 13.0496 12.3704 13.0125 12.3638L12.5764 12.909C12.6887 13.0858 12.7489 13.2906 12.75 13.5C12.75 13.7984 12.6315 14.0845 12.4205 14.2955C12.2095 14.5065 11.9234 14.625 11.625 14.625C11.3717 14.6239 11.1263 14.5365 10.9294 14.3771L10.3763 14.7225C10.4831 14.9977 10.5218 15.2946 10.4892 15.5879C10.4565 15.8813 10.3535 16.1624 10.1888 16.4074L10.7681 16.9875C10.9369 16.9042 11.1244 16.8659 11.3123 16.8763C11.5003 16.8867 11.6824 16.9454 11.841 17.0468L12.3862 16.6125C12.3796 16.5754 12.3758 16.5377 12.375 16.5C12.375 16.3517 12.419 16.2067 12.5014 16.0833C12.5838 15.96 12.7009 15.8639 12.838 15.8071C12.975 15.7503 13.1258 15.7355 13.2713 15.7644C13.4168 15.7933 13.5504 15.8648 13.6553 15.9697C13.7602 16.0746 13.8316 16.2082 13.8606 16.3537C13.8895 16.4992 13.8747 16.65 13.8179 16.787C13.7611 16.9241 13.665 17.0412 13.5417 17.1236C13.4183 17.206 13.2733 17.25 13.125 17.25C13.032 17.2495 12.9399 17.2316 12.8535 17.1971L12.3086 17.6332C12.3512 17.7509 12.3736 17.8749 12.375 18C12.375 18.2984 12.2565 18.5845 12.0455 18.7955C11.8345 19.0065 11.5484 19.125 11.25 19.125C10.9516 19.125 10.6655 19.0065 10.4545 18.7955C10.2435 18.5845 10.125 18.2984 10.125 18C10.1256 17.8329 10.1641 17.6682 10.2375 17.5181L9.657 16.9376C9.35122 17.1413 8.99203 17.25 8.62463 17.25C8.25722 17.25 7.89803 17.1413 7.59225 16.9376L7.0125 17.5181C7.08589 17.6682 7.12435 17.8329 7.125 18C7.125 18.2984 7.00647 18.5845 6.7955 18.7955C6.58452 19.0065 6.29837 19.125 6 19.125C5.87196 19.1238 5.7451 19.1004 5.625 19.056V19.875H13.5C13.7984 19.875 14.0845 19.7565 14.2955 19.5455C14.5065 19.3345 14.625 19.0484 14.625 18.75Z" fill="#191A51"/>
<path d="M16.1254 1.125H7.87463C7.66773 1.125 7.5 1.29273 7.5 1.49963V3.75038C7.5 3.95727 7.66773 4.125 7.87463 4.125H16.1254C16.3323 4.125 16.5 3.95727 16.5 3.75038V1.49963C16.5 1.29273 16.3323 1.125 16.1254 1.125Z" fill="#191A51"/>
<path d="M6.48187 16.9867L7.06238 16.4062C6.8587 16.1004 6.75002 15.7412 6.75002 15.3738C6.75002 15.0064 6.8587 14.6472 7.06238 14.3415L6.48187 13.7617C6.34976 13.8276 6.20544 13.8655 6.05798 13.873C5.91052 13.8805 5.76311 13.8574 5.625 13.8052V16.9432C5.76314 16.8911 5.91056 16.868 6.05802 16.8756C6.20548 16.8831 6.34979 16.9207 6.48187 16.9867Z" fill="#191A51"/>
<path d="M6 18.375C6.20711 18.375 6.375 18.2071 6.375 18C6.375 17.7929 6.20711 17.625 6 17.625C5.79289 17.625 5.625 17.7929 5.625 18C5.625 18.2071 5.79289 18.375 6 18.375Z" fill="#191A51"/>
<path d="M15.7853 5.78212L15.2565 5.60588C15.1818 5.58099 15.1168 5.53323 15.0708 5.46936C15.0247 5.40548 15 5.32874 15 5.25V4.875H9V5.25C9.00002 5.32874 8.97526 5.40548 8.92922 5.46936C8.88318 5.53323 8.8182 5.58099 8.7435 5.60588L8.21475 5.78212C7.46023 6.0328 6.8039 6.51488 6.33899 7.15986C5.87409 7.80484 5.62426 8.57993 5.625 9.375H13.5C13.9971 9.3756 14.4737 9.57333 14.8252 9.92483C15.1767 10.2763 15.3744 10.7529 15.375 11.25V18.75C15.3744 19.2471 15.1767 19.7237 14.8252 20.0752C14.4737 20.4267 13.9971 20.6244 13.5 20.625H5.625C5.625 20.8239 5.70402 21.0147 5.84467 21.1553C5.98532 21.296 6.17609 21.375 6.375 21.375H17.625C17.8239 21.375 18.0147 21.296 18.1553 21.1553C18.296 21.0147 18.375 20.8239 18.375 20.625V9.375C18.3757 8.57993 18.1259 7.80484 17.661 7.15986C17.1961 6.51488 16.5398 6.0328 15.7853 5.78212Z" fill="#191A51"/>
<path d="M6.5955 22.4411C6.62036 22.5633 6.6866 22.6732 6.78306 22.7523C6.87952 22.8313 7.00029 22.8747 7.125 22.875H16.875C16.9997 22.8747 17.1205 22.8313 17.2169 22.7523C17.3134 22.6732 17.3796 22.5633 17.4045 22.4411L17.4675 22.125H6.5325L6.5955 22.4411Z" fill="#191A51"/>
<path d="M11.625 13.875C11.8321 13.875 12 13.7071 12 13.5C12 13.2929 11.8321 13.125 11.625 13.125C11.4179 13.125 11.25 13.2929 11.25 13.5C11.25 13.7071 11.4179 13.875 11.625 13.875Z" fill="#191A51"/>
<path d="M11.25 18.375C11.4571 18.375 11.625 18.2071 11.625 18C11.625 17.7929 11.4571 17.625 11.25 17.625C11.0429 17.625 10.875 17.7929 10.875 18C10.875 18.2071 11.0429 18.375 11.25 18.375Z" fill="#191A51"/>
<path d="M8.625 16.5C9.24632 16.5 9.75 15.9963 9.75 15.375C9.75 14.7537 9.24632 14.25 8.625 14.25C8.00368 14.25 7.5 14.7537 7.5 15.375C7.5 15.9963 8.00368 16.5 8.625 16.5Z" fill="#191A51"/>
</svg>
