<svg width="24" height="24" viewBox="0 0 24 24" fill="none" xmlns="http://www.w3.org/2000/svg">
<path d="M19.8984 4.17188H9.39844C9.01031 4.17188 8.69531 4.48687 8.69531 4.875V6.375C8.69531 6.76312 9.01031 7.07812 9.39844 7.07812H9.82031V12.4655C10.2136 12.8958 10.8352 13.6012 11.4708 14.43C13.0631 16.5066 13.8047 18.1177 13.8047 19.5C13.8047 20.9953 13.2464 22.3622 12.3272 23.4042C13.0163 23.7839 13.8075 24 14.6484 24C17.2158 24 19.3223 21.9848 19.4681 19.4531H16.4766C16.0884 19.4531 15.7734 19.1381 15.7734 18.75V12.75C15.7734 12.3619 16.0884 12.0469 16.4766 12.0469H19.4766V7.07812H19.8984C20.2866 7.07812 20.6016 6.76312 20.6016 6.375V4.875C20.6016 4.48687 20.2866 4.17188 19.8984 4.17188ZM18.0703 9.42188H15.8189C15.4936 9.42188 15.188 9.29531 14.9583 9.06516C14.4628 8.56969 13.8038 8.29688 13.103 8.29688H11.2266V7.07812H18.0703V9.42188Z" fill="#191A51"/>
<path d="M19.4766 0.703125C19.4766 0.315 19.1616 0 18.7734 0H10.5234C10.1353 0 9.82031 0.315 9.82031 0.703125V2.76562H19.4766V0.703125Z" fill="#191A51"/>
<path d="M17.1797 18.0469H19.4766V16.4531H19.1016C18.7134 16.4531 18.3984 16.1381 18.3984 15.75C18.3984 15.3619 18.7134 15.0469 19.1016 15.0469H19.4766V13.4531H17.1797V18.0469Z" fill="#191A51"/>
<path d="M10.3547 15.2858C9.39141 14.0296 8.44219 13.0508 8.40234 13.0096C8.12653 12.7259 7.67034 12.726 7.39453 13.0096C7.35469 13.0508 6.40547 14.0296 5.44219 15.2858C4.06687 17.0788 3.39844 18.4574 3.39844 19.4999C3.39844 21.981 5.41734 23.9999 7.89844 23.9999C10.3795 23.9999 12.3984 21.981 12.3984 19.4999C12.3984 18.4574 11.73 17.0788 10.3547 15.2858ZM9.52078 19.9972L8.39578 21.1222C8.12339 21.3947 7.67742 21.3986 7.40109 21.1222L6.65109 20.3722C6.37687 20.0976 6.37687 19.6522 6.65109 19.3776C6.92578 19.1033 7.37109 19.1033 7.64578 19.3776L7.89844 19.6307L8.52609 19.0026C8.80078 18.7283 9.24609 18.7283 9.52078 19.0026C9.795 19.2772 9.795 19.7226 9.52078 19.9972Z" fill="#191A51"/>
</svg>
