<svg width="24" height="24" viewBox="0 0 24 24" fill="none" xmlns="http://www.w3.org/2000/svg">
<g clip-path="url(#clip0_2219_682)">
<path d="M9.42874 17.1417C9.42921 15.0354 10.2936 13.0215 11.8201 11.5703H0.000335693V20.1416H10.0374C9.63339 19.1932 9.42635 18.1725 9.42874 17.1417ZM8.15591 17.9988H2.57172C2.33505 17.9988 2.14315 17.8069 2.14315 17.5702C2.14315 17.3335 2.33501 17.1416 2.57172 17.1416H8.15591C8.39258 17.1416 8.58448 17.3335 8.58448 17.5702C8.58448 17.8069 8.39263 17.9988 8.15591 17.9988ZM8.23733 16.2845H3.85739C3.62072 16.2845 3.42882 16.0927 3.42882 15.8559C3.42882 15.6193 3.62068 15.4274 3.85739 15.4274H8.23733C8.474 15.4274 8.6659 15.6192 8.6659 15.8559C8.6659 16.0926 8.47405 16.2845 8.23733 16.2845ZM8.66164 14.5702H2.57172C2.33505 14.5702 2.14315 14.3784 2.14315 14.1417C2.14315 13.905 2.33501 13.7131 2.57172 13.7131H8.66164C8.89831 13.7131 9.09021 13.9049 9.09021 14.1417C9.09021 14.3784 8.89831 14.5702 8.66164 14.5702Z" fill="#191A51"/>
<path fill-rule="evenodd" clip-rule="evenodd" d="M2.57172 5.57227H10.7144V6.85798H2.57172V5.57227Z" fill="#191A51"/>
<path d="M11.5716 4.28563V2.14281C11.5716 0.959377 10.6122 0 9.42878 0H3.85738C2.67395 0 1.71457 0.959377 1.71457 2.14281V4.28563C1.71457 4.5223 1.90643 4.7142 2.14314 4.7142H11.143C11.3797 4.7142 11.5716 4.5223 11.5716 4.28563ZM3.85738 3.47564C3.85738 3.71231 3.66553 3.90421 3.42881 3.90421C3.19214 3.90421 3.00024 3.71236 3.00024 3.47564V1.76135C3.00024 1.52468 3.1921 1.33278 3.42881 1.33278C3.66548 1.33278 3.85738 1.52464 3.85738 1.76135V3.47564ZM6.00025 3.47564C6.00025 3.71231 5.80839 3.90421 5.57167 3.90421C5.33496 3.90421 5.1431 3.71236 5.1431 3.47564V1.76135C5.1431 1.52468 5.33496 1.33278 5.57167 1.33278C5.80839 1.33278 6.00025 1.52464 6.00025 1.76135V3.47564ZM8.14306 3.47564C8.14306 3.71231 7.9512 3.90421 7.71449 3.90421C7.47782 3.90421 7.28591 3.71236 7.28591 3.47564V1.76135C7.28591 1.52468 7.47777 1.33278 7.71449 1.33278C7.95116 1.33278 8.14306 1.52464 8.14306 1.76135V3.47564ZM10.2859 3.47564C10.2859 3.71231 10.094 3.90421 9.8573 3.90421C9.62059 3.90421 9.42873 3.71236 9.42873 3.47564V1.76135C9.42873 1.52468 9.62059 1.33278 9.8573 1.33278C10.094 1.33278 10.2859 1.52464 10.2859 1.76135V3.47564Z" fill="#191A51"/>
<path fill-rule="evenodd" clip-rule="evenodd" d="M13.2858 10.4731V9.85766C13.3054 8.69616 12.3816 7.73781 11.2201 7.71484H2.06598C0.904576 7.73781 -0.019318 8.69621 0.000275452 9.85766V10.7148H12.8881C13.0171 10.6291 13.1513 10.5511 13.2858 10.4731Z" fill="#191A51"/>
<path d="M17.1429 10.2852C13.358 10.2866 10.2905 13.3555 10.291 17.1405C10.2915 20.9254 13.3597 23.9936 17.1447 23.9941C20.9296 23.9946 23.9986 20.9272 24 17.1422C24.0013 15.3232 23.2792 13.5784 21.993 12.2922C20.7067 11.0059 18.9619 10.2839 17.1429 10.2852ZM22.7143 17.5707H20.8843C20.7924 17.684 20.689 17.7874 20.5757 17.8793C20.8481 18.2169 20.9976 18.637 21 19.0707C20.9978 19.349 20.9365 19.6237 20.82 19.8764L21.15 20.1422H21.8571C22.0938 20.1422 22.2857 20.334 22.2857 20.5708C22.2852 20.5995 22.2823 20.6282 22.2771 20.6565C22.2364 20.8561 22.0608 20.9994 21.8571 20.9993H21.4286V21.4279C21.4286 21.6646 21.2367 21.8565 21 21.8565C20.7633 21.8565 20.5714 21.6646 20.5714 21.4279V20.7765L20.2928 20.5493C19.738 21.0222 18.9601 21.1324 18.2957 20.8322C18.1968 21.0383 18.0568 21.2221 17.8843 21.3722C17.7892 21.4574 17.6842 21.5308 17.5714 21.5907V22.7136C17.5714 22.9502 17.3796 23.1421 17.1429 23.1421C16.9062 23.1421 16.7143 22.9503 16.7143 22.7136V21.805C15.7885 21.7939 15.0361 21.0548 15.0086 20.1293C14.9346 20.1378 14.8602 20.1421 14.7858 20.1421C14.7024 20.1402 14.6192 20.1315 14.5372 20.1164L13.7143 20.7764V21.4278C13.7143 21.6645 13.5225 21.8564 13.2858 21.8564C13.0491 21.8564 12.8572 21.6645 12.8572 21.4278V20.9992H12.4286C12.192 20.9992 12.0001 20.8074 12.0001 20.5707C12.0001 20.3339 12.1919 20.1421 12.4286 20.1421H13.1358L13.6286 19.7478C13.1443 19.3863 12.8585 18.8179 12.8572 18.2136C12.8569 17.9945 12.8946 17.7769 12.9686 17.5707H11.5715C11.3348 17.5707 11.1429 17.3789 11.1429 17.1422C11.1429 16.9055 11.3348 16.7136 11.5715 16.7136H13.5857C13.6624 16.6491 13.7457 16.5931 13.8343 16.5464C13.7561 16.3248 13.7155 16.0915 13.7143 15.8565C13.7171 15.4959 13.8115 15.142 13.9886 14.8279L13.1357 14.1422H12.4286C12.1919 14.1422 12 13.9503 12 13.7136C12 13.4769 12.1919 13.285 12.4286 13.285H12.8572V12.8564C12.8572 12.6198 13.049 12.4279 13.2857 12.4279C13.5224 12.4279 13.7143 12.6197 13.7143 12.8564V13.5079L14.5457 14.1721C14.9192 13.8768 15.381 13.7153 15.8571 13.7135H15.8785C15.9518 13.2199 16.2647 12.7946 16.7143 12.5778V11.5708C16.7143 11.3342 16.9061 11.1423 17.1428 11.1423C17.3795 11.1423 17.5714 11.3341 17.5714 11.5708V12.4494C18.2336 12.5457 18.7505 13.0714 18.8356 13.7351C18.9138 13.7239 18.9925 13.7168 19.0714 13.7137C19.4087 13.7139 19.742 13.787 20.0485 13.928L20.5714 13.508V12.8565C20.5714 12.6199 20.7632 12.428 20.9999 12.428C21.2366 12.428 21.4285 12.6198 21.4285 12.8565V13.2851H21.8571C22.0937 13.2851 22.2856 13.477 22.2856 13.7137C22.2856 13.9504 22.0938 14.1423 21.8571 14.1423H21.1499L20.7728 14.4465C21.1946 14.8819 21.4298 15.4646 21.4285 16.0708C21.4271 16.2881 21.3969 16.5043 21.3385 16.7136H22.7142C22.9509 16.7136 23.1428 16.9055 23.1428 17.1422C23.1428 17.3789 22.9509 17.5707 22.7143 17.5707Z" fill="#191A51"/>
<path fill-rule="evenodd" clip-rule="evenodd" d="M17.2192 17.1499C17.1996 17.1487 17.1801 17.1463 17.1609 17.1426C16.8439 17.1407 16.5503 17.3093 16.3921 17.584C16.2222 17.8933 16.2584 18.2748 16.4833 18.5466C16.4967 18.5637 16.5109 18.5801 16.5262 18.5954C16.6933 18.7678 16.9257 18.8613 17.1656 18.8526C17.2233 18.3444 17.4817 17.8804 17.8834 17.5639C17.7413 17.3273 17.4942 17.1733 17.2192 17.1499Z" fill="#191A51"/>
<path fill-rule="evenodd" clip-rule="evenodd" d="M14.7858 16.2866C15.2308 16.2867 15.6619 16.4421 16.0046 16.7259C16.2137 16.5395 16.4651 16.4072 16.7371 16.3401C16.7245 16.2513 16.7169 16.1619 16.7143 16.0723C16.7138 15.7492 16.781 15.4297 16.9115 15.1341C16.743 14.886 16.4934 14.7042 16.2056 14.6199C16.0923 14.5877 15.975 14.5718 15.8572 14.5723C15.1471 14.5723 14.5715 15.1479 14.5715 15.858C14.572 16.0074 14.5988 16.1555 14.6507 16.2956C14.6958 16.2922 14.7399 16.2866 14.7858 16.2866Z" fill="#191A51"/>
<path fill-rule="evenodd" clip-rule="evenodd" d="M17.9906 13.9835C17.9906 13.9647 18 13.9475 18 13.9291C17.9862 13.5894 17.7101 13.3192 17.3702 13.3126C17.0302 13.306 16.7439 13.5653 16.7169 13.9042C16.9813 14.0214 17.2197 14.1901 17.4181 14.4005C17.5867 14.2334 17.7798 14.0929 17.9906 13.9835Z" fill="#191A51"/>
<path fill-rule="evenodd" clip-rule="evenodd" d="M15.5234 17.4452C15.3267 17.2515 15.0618 17.1429 14.7858 17.1426C14.6969 17.1418 14.6083 17.1536 14.5226 17.1778C14.1159 17.2758 13.8036 17.6016 13.7226 18.0121C13.6417 18.4225 13.807 18.8425 14.146 19.0876C14.485 19.3327 14.9357 19.3581 15.3 19.1527C15.4378 19.0741 15.5559 18.9652 15.6454 18.8342C15.5021 18.5796 15.4273 18.292 15.4286 17.9998C15.4297 17.811 15.4616 17.6236 15.5234 17.4452Z" fill="#191A51"/>
<path fill-rule="evenodd" clip-rule="evenodd" d="M17.1429 19.7142C16.8289 19.7113 16.5216 19.6224 16.2545 19.457C16.1556 19.5757 16.0425 19.6818 15.9177 19.7729C15.8793 19.8683 15.8593 19.97 15.8585 20.0729C15.8592 20.5578 16.2522 20.9508 16.7371 20.9515C16.8255 20.9525 16.9134 20.938 16.9968 20.9086C17.1151 20.8739 17.2242 20.8133 17.3161 20.7312C17.4499 20.6139 17.5444 20.4583 17.5869 20.2855C17.4451 20.1134 17.3344 19.9179 17.2599 19.7077C17.2218 19.7142 17.1828 19.7142 17.1429 19.7142Z" fill="#191A51"/>
<path d="M19.0715 20.1428C19.6632 20.1428 20.1429 19.6632 20.1429 19.0714C20.1429 18.4797 19.6632 18 19.0715 18C18.4798 18 18.0001 18.4797 18.0001 19.0714C18.0001 19.6632 18.4798 20.1428 19.0715 20.1428Z" fill="#191A51"/>
<path fill-rule="evenodd" clip-rule="evenodd" d="M19.0715 14.5723C18.8846 14.5721 18.6994 14.6071 18.5255 14.6755C18.2398 14.7873 17.9949 14.9832 17.8231 15.2374C17.8075 15.261 17.7932 15.2855 17.7802 15.3106C17.6422 15.5406 17.57 15.804 17.5715 16.0722C17.572 16.1663 17.5811 16.2601 17.5985 16.3525C18.049 16.4782 18.4293 16.7813 18.6523 17.1925C18.7899 17.1609 18.9304 17.1445 19.0715 17.1436C19.3534 17.1451 19.6315 17.2089 19.8858 17.3305C20.3166 17.058 20.576 16.582 20.5715 16.0722C20.5715 15.2438 19.8999 14.5723 19.0715 14.5723Z" fill="#191A51"/>
<path fill-rule="evenodd" clip-rule="evenodd" d="M2.06597 24H11.2201C11.757 23.9979 12.2709 23.782 12.6481 23.4C11.7623 22.7619 11.021 21.9441 10.4727 21H0.000307422V21.8571C-0.0193329 23.0186 0.904561 23.977 2.06597 24Z" fill="#191A51"/>
</g>
<defs>
<clipPath id="clip0_2219_682">
<rect width="24" height="24" fill="white"/>
</clipPath>
</defs>
</svg>
