<svg width="24" height="24" viewBox="0 0 24 24" fill="none" xmlns="http://www.w3.org/2000/svg">
<path fill-rule="evenodd" clip-rule="evenodd" d="M14.25 19.5V20.25C14.25 20.7041 13.9508 21.1215 13.3721 21.4395C12.3308 22.011 10.2919 22.3125 8.25 22.3125C6.20812 22.3125 4.16925 22.011 3.12787 21.4395C2.54925 21.1215 2.25 20.7041 2.25 20.25V19.5H14.25ZM19.1257 17.9021L20.6842 19.0084C21.4766 19.5709 21.4455 20.4649 21.0098 21.0788C20.5736 21.6926 19.74 22.017 18.9476 21.4545L17.3891 20.3483L19.1257 17.9021ZM16.7775 19.914L15.3967 18.9338C14.4686 18.2749 14.4682 17.337 14.8939 16.7374C15.3195 16.1377 16.2049 15.8287 17.1334 16.4876L18.5141 17.4679L16.7775 19.914ZM14.25 18.75H2.25V10.5H14.25V18.75ZM7.875 12.0266V10.875H8.625V12.0266C9.06938 12.0904 9.47775 12.2655 9.82125 12.5228L10.6357 11.7075L11.1664 12.2377L10.3519 13.0526C10.6091 13.3965 10.7846 13.8053 10.8484 14.25H12V15H10.8484C10.7846 15.4444 10.6095 15.8527 10.3523 16.1962L11.1675 17.0107L10.6372 17.5414L9.82238 16.7269C9.4785 16.9841 9.06975 17.1596 8.625 17.2234V18.375H7.875V17.2234C7.43062 17.1596 7.02225 16.9845 6.67875 16.7272L5.86425 17.5425L5.33362 17.0123L6.14813 16.1974C5.89088 15.8535 5.71537 15.4447 5.65163 15H4.5V14.25H5.65163C5.71537 13.8056 5.8905 13.3973 6.14775 13.0538L5.3325 12.2393L5.86275 11.7086L6.67762 12.5231C7.0215 12.2659 7.43025 12.0904 7.875 12.0266ZM19.5007 14.1521L21.0592 15.2584C21.8516 15.8209 21.8205 16.7149 21.3848 17.3287C20.9486 17.9426 20.115 18.267 19.3226 17.7045L17.7641 16.5983L19.5007 14.1521ZM10.125 14.625C10.125 13.59 9.285 12.75 8.25 12.75C7.215 12.75 6.375 13.59 6.375 14.625C6.375 15.66 7.215 16.5 8.25 16.5C9.285 16.5 10.125 15.66 10.125 14.625ZM17.1525 16.164L15.7717 15.1838C14.8436 14.5249 14.8432 13.587 15.2689 12.9874C15.6945 12.3877 16.5799 12.0787 17.5084 12.7376L18.8891 13.7179L17.1525 16.164ZM19.8757 10.4021L21.4342 11.5084C22.2266 12.0709 22.1955 12.9649 21.7598 13.5787C21.3236 14.1926 20.49 14.517 19.6976 13.9545L18.1391 12.8483L19.8757 10.4021ZM17.5275 12.414L16.1467 11.4338C15.2186 10.7749 15.2182 9.837 15.6439 9.23737C16.0695 8.63775 16.9549 8.32875 17.8834 8.98762L19.2641 9.96787L17.5275 12.414ZM2.25 9.75V8.346L6 7.221V5.625H4.5V1.875H12V5.625H10.5V7.221L14.25 8.346V9.75H2.25ZM7.875 3V4.5H8.625V3H7.875ZM6.375 3V4.5H7.125V3H6.375ZM9.375 3V4.5H10.125V3H9.375Z" fill="#191A51"/>
</svg>
