<svg width="24" height="24" viewBox="0 0 24 24" fill="none" xmlns="http://www.w3.org/2000/svg">
<g clip-path="url(#clip0_2219_3100)">
<path d="M5.625 5.80469C5.15512 6.07431 4.875 6.28806 4.875 6.62331C4.875 6.95894 5.15512 7.17306 5.625 7.44306C6.09487 7.17306 6.375 6.95894 6.375 6.62331C6.375 6.28806 6.09487 6.07469 5.625 5.80469Z" fill="#191A51"/>
<path d="M9.9105 4.25588L10.6189 3.96263L10.3316 3.26962L9.62063 3.564C9.46425 3.26212 9.276 2.97975 9.05775 2.72213L9.60225 2.17763L9.072 1.64738L8.5275 2.19187C8.27025 1.974 7.98788 1.78537 7.68563 1.629L7.98 0.918L7.287 0.63075L6.99375 1.33913C6.6765 1.23788 6.3435 1.17263 6 1.14413V0.375H5.25V1.14413C4.9065 1.17263 4.5735 1.23787 4.25588 1.33987L3.96263 0.6315L3.26962 0.918375L3.564 1.62937C3.26212 1.78575 2.97975 1.974 2.72213 2.19187L2.178 1.64775L1.64775 2.178L2.19225 2.7225C1.974 2.97975 1.78575 3.26212 1.62937 3.564L0.918375 3.26962L0.631125 3.96263L1.3395 4.25588C1.23787 4.5735 1.17263 4.9065 1.14413 5.25H0.375V6H1.125V7.5H0.375V8.25H1.125V9.75H0.375V10.5H1.14413C1.17263 10.8435 1.23787 11.1765 1.3395 11.4941L0.631125 11.7874L0.918375 12.4804L1.62937 12.186C1.78575 12.4879 1.974 12.7703 2.19225 13.0279L1.64775 13.5724L2.178 14.1026L2.7225 13.5581C3.10688 13.8836 3.5475 14.1435 4.026 14.3261C3.97537 14.4259 3.90863 14.5162 3.828 14.6209C3.62587 14.883 3.375 15.2096 3.375 15.8243C3.375 16.4389 3.62587 16.7651 3.828 17.0272C4.00013 17.2515 4.125 17.4135 4.125 17.7728C4.125 18.1327 4.00013 18.2948 3.828 18.519C3.62587 18.7811 3.375 19.1074 3.375 19.7224C3.375 20.3381 3.62587 20.6648 3.828 20.9269C4.00013 21.1511 4.125 21.3135 4.125 21.6739C4.125 22.0343 4.00012 22.1966 3.82762 22.4209C3.62587 22.683 3.375 23.0096 3.375 23.625H4.125C4.125 23.2646 4.24988 23.1022 4.42238 22.878C4.62413 22.6159 4.875 22.2892 4.875 21.6739C4.875 21.0585 4.62413 20.7319 4.42238 20.4697C4.24988 20.2451 4.125 20.0831 4.125 19.7224C4.125 19.3624 4.24987 19.2004 4.422 18.9761C4.62413 18.7136 4.875 18.3874 4.875 17.7728C4.875 17.1581 4.62413 16.8319 4.422 16.5697C4.24987 16.3459 4.125 16.1835 4.125 15.8243C4.125 15.4646 4.24987 15.3022 4.422 15.0784C4.53225 14.9347 4.65675 14.7626 4.74862 14.538C4.93988 14.5759 5.13675 14.5976 5.33588 14.6104C5.33288 14.6141 5.33063 14.6171 5.328 14.6209C5.12587 14.883 4.875 15.2096 4.875 15.8243C4.875 16.4389 5.12587 16.7651 5.328 17.0272C5.50012 17.2511 5.625 17.4135 5.625 17.7728C5.625 18.1327 5.50012 18.2948 5.328 18.519C5.12587 18.7811 4.875 19.1074 4.875 19.7224C4.875 20.3381 5.12587 20.6648 5.328 20.9269C5.50012 21.1511 5.625 21.3135 5.625 21.6739C5.625 22.0343 5.50012 22.1966 5.32762 22.4209C5.12587 22.683 4.875 23.0096 4.875 23.625H5.625C5.625 23.2646 5.74988 23.1022 5.92238 22.878C6.12413 22.6159 6.375 22.2892 6.375 21.6739C6.375 21.0585 6.12413 20.7319 5.92238 20.4697C5.74988 20.2451 5.625 20.0831 5.625 19.7224C5.625 19.3624 5.74988 19.2004 5.922 18.9761C6.12413 18.7136 6.375 18.3874 6.375 17.7728C6.375 17.1581 6.12413 16.8319 5.922 16.5697C5.74988 16.3459 5.625 16.1835 5.625 15.8243C5.625 15.4643 5.74988 15.3022 5.922 15.0784C6.03 14.9381 6.14738 14.7829 6.23663 14.5785C6.49013 14.5436 6.7365 14.4885 6.97463 14.4127C6.9315 14.481 6.8835 14.5481 6.828 14.6205C6.62587 14.883 6.375 15.2093 6.375 15.8243C6.375 16.4393 6.62587 16.7651 6.828 17.0272C7.00012 17.2515 7.125 17.4135 7.125 17.7728C7.125 18.1327 7.00012 18.2948 6.828 18.519C6.62587 18.7811 6.375 19.1074 6.375 19.7224C6.375 20.3381 6.62587 20.6648 6.828 20.9269C7.00012 21.1511 7.125 21.3135 7.125 21.6739C7.125 22.0343 7.00013 22.1966 6.82763 22.4209C6.62588 22.683 6.375 23.0096 6.375 23.625H7.125C7.125 23.2646 7.24987 23.1022 7.42237 22.878C7.62412 22.6159 7.875 22.2892 7.875 21.6739C7.875 21.0585 7.62412 20.7319 7.42237 20.4697C7.24987 20.2451 7.125 20.0831 7.125 19.7224C7.125 19.3624 7.24988 19.2004 7.422 18.9761C7.62413 18.7136 7.875 18.3874 7.875 17.7728C7.875 17.1581 7.62413 16.8319 7.422 16.5697C7.24988 16.3459 7.125 16.1835 7.125 15.8243C7.125 15.4643 7.24988 15.3022 7.422 15.078C7.60725 14.8376 7.8315 14.5399 7.8675 14.0175C8.1 13.8821 8.319 13.7269 8.523 13.5532L9.072 14.1022L9.60225 13.572L9.0525 13.0223C9.27037 12.765 9.462 12.4856 9.61875 12.1852L10.332 12.4808L10.6193 11.7878L9.90637 11.4923C10.0091 11.1742 10.0785 10.8424 10.1074 10.5H10.875V9.75H10.125V8.25H10.875V7.5H10.125V6H10.875V5.25H10.1059C10.0774 4.9065 10.0121 4.5735 9.9105 4.25588ZM8.625 10.125C8.625 11.7791 7.27912 13.125 5.625 13.125C3.97088 13.125 2.625 11.7791 2.625 10.125V5.625C2.625 3.97088 3.97088 2.625 5.625 2.625C7.27912 2.625 8.625 3.97088 8.625 5.625V10.125Z" fill="#191A51"/>
<path d="M5.625 3.375C4.38412 3.375 3.375 4.38412 3.375 5.625V10.125C3.375 11.3659 4.38412 12.375 5.625 12.375C6.86588 12.375 7.875 11.3659 7.875 10.125V5.625C7.875 4.38412 6.86588 3.375 5.625 3.375ZM7.125 6.624C7.125 7.21575 6.76612 7.59 6.35025 7.87425C6.76612 8.1585 7.125 8.53275 7.125 9.1245C7.125 9.71588 6.76612 10.0901 6.35025 10.3748C6.76612 10.6594 7.125 11.0336 7.125 11.625H6.375C6.375 11.2894 6.09525 11.0752 5.625 10.8052C5.15475 11.0752 4.875 11.2894 4.875 11.625H4.125C4.125 11.0336 4.48388 10.6594 4.89975 10.3748C4.48388 10.0901 4.125 9.71588 4.125 9.1245C4.125 8.53275 4.48388 8.1585 4.89975 7.87425C4.48388 7.58962 4.125 7.21537 4.125 6.624C4.125 6.033 4.48387 5.65875 4.89937 5.3745C4.4835 5.09025 4.125 4.716 4.125 4.125H4.875C4.875 4.46025 5.15475 4.674 5.625 4.944C6.09525 4.674 6.375 4.46025 6.375 4.125H7.125C7.125 4.716 6.7665 5.09025 6.35062 5.3745C6.7665 5.65875 7.125 6.03262 7.125 6.624Z" fill="#191A51"/>
<path d="M5.625 8.30469C5.15475 8.57469 4.875 8.78881 4.875 9.12444C4.875 9.46006 5.15475 9.67419 5.625 9.94419C6.09525 9.67419 6.375 9.46006 6.375 9.12444C6.375 8.78881 6.09525 8.57469 5.625 8.30469Z" fill="#191A51"/>
<path d="M23.625 6V5.25H22.8559C22.8274 4.9065 22.7621 4.5735 22.6601 4.25588L23.3685 3.96263L23.0812 3.26962L22.3702 3.564C22.2139 3.26212 22.0256 2.97975 21.8074 2.72213L22.3519 2.17763L21.8216 1.64738L21.2771 2.19187C21.0199 1.974 20.7375 1.78537 20.4352 1.629L20.7296 0.918L20.0366 0.63075L19.7434 1.33913C19.4265 1.23788 19.0935 1.17263 18.75 1.14413V0.375H18V1.14413C17.6565 1.17263 17.3235 1.23787 17.0059 1.33987L16.7126 0.6315L16.0196 0.91875L16.314 1.62975C16.0121 1.78613 15.7297 1.97438 15.4721 2.19263L14.9276 1.64812L14.3974 2.17838L14.9419 2.72288C14.724 2.98012 14.5354 3.2625 14.379 3.56475L13.668 3.27037L13.3807 3.96338L14.0891 4.25662C13.9875 4.57425 13.9222 4.90725 13.8934 5.25075H13.125V6.00075H13.875V7.50075H13.125V8.25075H13.875V9.75075H13.125V10.5008H13.8941C13.9226 10.8443 13.9879 11.1772 14.0895 11.4949L13.3811 11.7881L13.6684 12.4811L14.3794 12.1868C14.5358 12.4886 14.724 12.771 14.9423 13.0286L14.3978 13.5731L14.928 14.1034L15.4725 13.5589C15.7819 13.821 16.1276 14.0396 16.5004 14.2114V16.125C16.5004 16.4614 16.3838 16.6069 16.2079 16.827C16.0035 17.0816 15.75 17.3981 15.75 17.9981C15.75 18.5981 16.0035 18.9154 16.2071 19.17C16.3834 19.3901 16.5 19.536 16.5 19.8727C16.5 20.2102 16.377 20.3644 16.2071 20.577C16.0035 20.8316 15.75 21.1485 15.75 21.7489C15.75 22.3496 16.0035 22.6665 16.2071 22.9215C16.3834 23.142 16.5 23.2879 16.5 23.625H17.25C17.25 23.0246 16.9965 22.7078 16.7929 22.4531C16.623 22.2405 16.5 22.0864 16.5 21.7489C16.5 21.4118 16.6166 21.2659 16.7929 21.0454C16.9965 20.7904 17.25 20.4735 17.25 19.8727C17.25 19.2724 16.9965 18.9559 16.7929 18.7013C16.6166 18.4807 16.5 18.3356 16.5 17.9981C16.5 17.6614 16.6166 17.5159 16.7929 17.2957C16.9965 17.0411 17.25 16.725 17.25 16.125V14.4769C17.493 14.5399 17.7431 14.5845 18 14.6059V16.125C18 16.4614 17.8834 16.6069 17.7075 16.827C17.5035 17.0816 17.25 17.3981 17.25 17.9981C17.25 18.5981 17.5035 18.9154 17.7071 19.17C17.8834 19.3901 18 19.536 18 19.8727C18 20.2102 17.877 20.3644 17.7071 20.577C17.5035 20.8316 17.25 21.1485 17.25 21.7489C17.25 22.3496 17.5035 22.6665 17.7071 22.9215C17.8834 23.142 18 23.2879 18 23.625H18.75C18.75 23.0246 18.4965 22.7078 18.2929 22.4531C18.123 22.2405 18 22.0864 18 21.7489C18 21.4118 18.1166 21.2659 18.2929 21.0454C18.4965 20.7904 18.75 20.4735 18.75 19.8727C18.75 19.2724 18.4965 18.9559 18.2929 18.7013C18.1166 18.4807 18 18.3356 18 17.9981C18 17.6614 18.1166 17.5159 18.2929 17.2957C18.4965 17.0411 18.75 16.725 18.75 16.125V14.6059C19.0069 14.5845 19.257 14.5399 19.5 14.4769V16.125C19.5 16.725 19.7535 17.0411 19.9571 17.2957C20.1334 17.5159 20.25 17.6614 20.25 17.9981C20.25 18.3352 20.1334 18.4807 19.9571 18.7013C19.7535 18.9559 19.5 19.2727 19.5 19.8727C19.5 20.4735 19.7535 20.7904 19.9571 21.0454C20.1334 21.2659 20.25 21.4118 20.25 21.7489C20.25 22.0864 20.127 22.2405 19.9571 22.4531C19.7535 22.7078 19.5 23.0246 19.5 23.625H20.25C20.25 23.2879 20.3666 23.142 20.5429 22.9215C20.7465 22.6665 21 22.3496 21 21.7489C21 21.1485 20.7465 20.8316 20.5429 20.577C20.373 20.3644 20.25 20.2106 20.25 19.8727C20.25 19.536 20.3666 19.3901 20.5429 19.17C20.7465 18.9154 21 18.5985 21 17.9981C21 17.3977 20.7465 17.0816 20.5425 16.827C20.3666 16.6069 20.25 16.4614 20.25 16.125V14.2106C20.6224 14.0389 20.9681 13.8202 21.2779 13.5581L21.8224 14.1026L22.3526 13.5724L21.8081 13.0279C22.026 12.7706 22.2142 12.4882 22.371 12.186L23.082 12.4804L23.3693 11.7874L22.6609 11.4941C22.7625 11.1765 22.8278 10.8435 22.8563 10.5H23.625V9.75H22.875V8.25H23.625V7.5H22.875V6H23.625ZM17.625 2.625H18.375V4.125H17.625V2.625ZM16.125 3.375H16.875V4.125H16.125V3.375ZM15.375 4.875H16.125V6.375H15.375V4.875ZM16.125 10.125H15.375V9.375H16.125V10.125ZM16.125 8.625V7.125H16.875V8.625H16.125ZM17.625 12.375H16.875V10.875H17.625V12.375ZM17.625 9.375V7.875H18.375V9.375H17.625ZM19.125 13.125H18.375V12.375H19.125V13.125ZM19.125 6.375H18.375V5.625H19.125V6.375ZM19.875 3.375H20.625V4.875H19.875V3.375ZM20.25 11.625H19.5V10.125H20.25V11.625ZM21.375 7.875H20.625V6.375H21.375V7.875Z" fill="#191A51"/>
</g>
<defs>
<clipPath id="clip0_2219_3100">
<rect width="24" height="24" fill="white"/>
</clipPath>
</defs>
</svg>
