<svg width="24" height="24" viewBox="0 0 24 24" fill="none" xmlns="http://www.w3.org/2000/svg">
<path d="M5.52653 11.5156C5.24846 11.7937 5.24841 12.2463 5.52653 12.5243L7.74263 14.7404C8.02131 15.0192 8.47257 15.0192 8.75135 14.7404L15.8509 7.64083L12.626 4.41602L5.52653 11.5156ZM13.6013 7.8599C13.7002 7.95881 13.7002 8.11913 13.6013 8.21799L12.4071 9.4122C12.4071 9.4122 12.4071 9.41225 12.407 9.4123C12.407 9.41235 12.407 9.41235 12.4069 9.41235C12.2382 9.58114 9.39884 12.4205 9.22221 12.5971C9.17273 12.6465 9.10796 12.6713 9.04314 12.6713C8.81961 12.6713 8.7041 12.399 8.86408 12.239L9.48124 11.6219L8.86408 11.0047C8.76517 10.9058 8.76517 10.7455 8.86408 10.6466C8.96298 10.5478 9.12326 10.5478 9.22216 10.6466L9.83932 11.2638L10.6756 10.4276L10.0583 9.81039C9.95944 9.71149 9.95944 9.55121 10.0583 9.45231C10.1572 9.35346 10.3175 9.35346 10.4164 9.45231L11.0336 10.0695L11.8698 9.23323L11.2527 8.61607C11.1538 8.51717 11.1538 8.35684 11.2527 8.25799C11.3516 8.15914 11.5119 8.15919 11.6107 8.25799L12.2279 8.87515L13.2432 7.8599C13.3421 7.76105 13.5025 7.76105 13.6013 7.8599Z" fill="#191A51"/>
<path d="M5.04236 14.3911C4.87889 14.5544 4.82713 14.7926 4.9037 15.0078L1.07444 18.837C0.914461 18.997 1.02997 19.2692 1.2535 19.2692C1.31827 19.2692 1.38309 19.2445 1.43257 19.1951L5.26209 15.3656C5.47043 15.4395 5.71198 15.3938 5.87844 15.2274L6.69219 14.4087L5.85768 13.5742L5.04236 14.3911Z" fill="#191A51"/>
<path d="M11.6294 18.627H13.1486V21.4122H11.6294V18.627Z" fill="#191A51"/>
<path d="M15.1742 15.3351V14.3223H11.8826V15.3351H15.1742Z" fill="#191A51"/>
<path d="M14.1614 15.8398H12.8954C12.8954 16.5913 12.347 17.2171 11.6294 17.338V18.1187H13.4018C13.5417 18.1187 13.655 18.232 13.655 18.3719V21.6636C13.655 21.8034 13.5417 21.9168 13.4018 21.9168H11.6294V22.6764H15.4275V17.338C14.7099 17.2171 14.1614 16.5913 14.1614 15.8398Z" fill="#191A51"/>
<path d="M17.4232 6.82548L15.6118 5.01406L17.6411 2.98477L18.2582 3.60193C18.37 3.71365 18.5184 3.77512 18.6764 3.77512C19.0031 3.77512 19.2677 3.51068 19.2677 3.18384C19.2677 3.02589 19.2062 2.87741 19.0945 2.76575L17.5021 1.17334C17.271 0.94232 16.8971 0.942117 16.6659 1.17334C16.4349 1.40442 16.4348 1.77845 16.6659 2.00963L17.283 2.62679L15.2538 4.65607L13.4423 2.8446C13.2113 2.61357 12.8373 2.61337 12.6062 2.8446C12.3756 3.07517 12.3756 3.45026 12.6062 3.68083C17.0901 8.16483 14.8476 5.92225 16.5871 7.66182C16.8176 7.89234 17.1927 7.89239 17.4233 7.66182C17.535 7.55015 17.5965 7.40167 17.5965 7.24373C17.5965 7.08568 17.5349 6.9372 17.4232 6.82548Z" fill="#191A51"/>
<path d="M17.4531 18.627H18.9723V21.4122H17.4531V18.627Z" fill="#191A51"/>
<path d="M3.52683 6.21955C4.22491 6.21955 4.79285 5.65161 4.79285 4.95352C4.79285 4.25544 4.22491 3.6875 3.52683 3.6875C2.82874 3.6875 2.2608 4.25544 2.2608 4.95352C2.2608 5.65161 2.82874 6.21955 3.52683 6.21955Z" fill="#191A51"/>
<path d="M19.9851 15.8398H18.7191C18.7191 16.5913 18.1707 17.2171 17.4531 17.338V18.1187H19.2255C19.3654 18.1187 19.4787 18.232 19.4787 18.3719V21.6636C19.4787 21.8034 19.3654 21.9168 19.2255 21.9168H17.4531V22.6764H21.2512V17.338C20.5336 17.2171 19.9851 16.5913 19.9851 15.8398Z" fill="#191A51"/>
<path d="M21.2512 8.24609C20.6927 8.24609 20.2383 8.70044 20.2383 9.25891C20.2383 9.81738 20.6927 10.2717 21.2512 10.2717C21.8096 10.2717 22.264 9.81738 22.264 9.25891C22.264 8.70044 21.8096 8.24609 21.2512 8.24609Z" fill="#191A51"/>
<path d="M17.7063 15.3351H20.998V14.3223H17.7063V15.3351Z" fill="#191A51"/>
<path d="M8.97069 2.42172C9.18045 2.42172 9.3505 2.25168 9.3505 2.04192C9.3505 1.83215 9.18045 1.66211 8.97069 1.66211C8.76093 1.66211 8.59088 1.83215 8.59088 2.04192C8.59088 2.25168 8.76093 2.42172 8.97069 2.42172Z" fill="#191A51"/>
<path d="M7.45149 6.97836C7.66125 6.97836 7.8313 6.80832 7.8313 6.59856C7.8313 6.3888 7.66125 6.21875 7.45149 6.21875C7.24173 6.21875 7.07169 6.3888 7.07169 6.59856C7.07169 6.80832 7.24173 6.97836 7.45149 6.97836Z" fill="#191A51"/>
<path d="M21.8842 5.20493C22.094 5.20493 22.264 5.03488 22.264 4.82512C22.264 4.61536 22.094 4.44531 21.8842 4.44531C21.6744 4.44531 21.5044 4.61536 21.5044 4.82512C21.5044 5.03488 21.6744 5.20493 21.8842 5.20493Z" fill="#191A51"/>
<path d="M16.8201 11.2831C17.0299 11.2831 17.1999 11.113 17.1999 10.9032C17.1999 10.6935 17.0299 10.5234 16.8201 10.5234C16.6104 10.5234 16.4403 10.6935 16.4403 10.9032C16.4403 11.113 16.6104 11.2831 16.8201 11.2831Z" fill="#191A51"/>
<path d="M23.1502 15.0819C23.36 15.0819 23.53 14.9118 23.53 14.7021C23.53 14.4923 23.36 14.3223 23.1502 14.3223C22.9404 14.3223 22.7704 14.4923 22.7704 14.7021C22.7704 14.9118 22.9404 15.0819 23.1502 15.0819Z" fill="#191A51"/>
<path d="M8.71755 18.119C8.92731 18.119 9.09735 17.9489 9.09735 17.7392C9.09735 17.5294 8.92731 17.3594 8.71755 17.3594C8.50778 17.3594 8.33774 17.5294 8.33774 17.7392C8.33774 17.9489 8.50778 18.119 8.71755 18.119Z" fill="#191A51"/>
<path d="M2.38738 12.0428C2.59714 12.0428 2.76718 11.8728 2.76718 11.663C2.76718 11.4532 2.59714 11.2832 2.38738 11.2832C2.17761 11.2832 2.00757 11.4532 2.00757 11.663C2.00757 11.8728 2.17761 12.0428 2.38738 12.0428Z" fill="#191A51"/>
<path d="M4.41304 20.1444C4.6228 20.1444 4.79285 19.9743 4.79285 19.7646C4.79285 19.5548 4.6228 19.3848 4.41304 19.3848C4.20328 19.3848 4.03323 19.5548 4.03323 19.7646C4.03323 19.9743 4.20328 20.1444 4.41304 20.1444Z" fill="#191A51"/>
</svg>
