<svg width="24" height="24" viewBox="0 0 24 24" fill="none" xmlns="http://www.w3.org/2000/svg">
<path d="M15 6.07859V8.22359C15 8.26859 14.97 8.30609 14.9475 8.30609H9.0713C9.0488 8.30609 9.0188 8.26859 9.0188 8.22359V6.07859C9.0188 6.02984 9.0488 5.99609 9.0713 5.99609H14.9288C14.9513 5.99984 15 6.02984 15 6.07859Z" fill="#191A51"/>
<path d="M13.9275 3.14529V5.24904H10.0725V3.14529C10.056 2.88206 10.0937 2.61825 10.1831 2.37013C10.2726 2.122 10.4119 1.89483 10.5925 1.70261C10.7731 1.5104 10.9911 1.35721 11.2332 1.25249C11.4753 1.14777 11.7362 1.09375 12 1.09375C12.2637 1.09375 12.5247 1.14777 12.7667 1.25249C13.0088 1.35721 13.2269 1.5104 13.4075 1.70261C13.5881 1.89483 13.7274 2.122 13.8168 2.37013C13.9062 2.61825 13.9439 2.88206 13.9275 3.14529Z" fill="#191A51"/>
<path d="M16.2487 12.1897H7.75123C7.65373 12.1897 9.35248 10.3147 9.35248 10.3147C9.44599 10.2118 9.49925 10.0787 9.50248 9.93969V9.05469H14.4975V9.93219C14.5007 10.0712 14.554 10.2043 14.6475 10.3072C14.6475 10.3072 16.3462 12.1897 16.2487 12.1897Z" fill="#191A51"/>
<path d="M16.2488 12.9407H7.75125C7.545 12.9407 7.125 12.8882 7.125 13.2107V20.1182C7.125 20.2176 7.16451 20.313 7.23483 20.3833C7.30516 20.4537 7.40054 20.4932 7.5 20.4932H16.5C16.5995 20.4932 16.6948 20.4537 16.7652 20.3833C16.8355 20.313 16.875 20.2176 16.875 20.1182V13.2107C16.875 12.8882 16.455 12.9407 16.2488 12.9407ZM13.2488 19.0494C13.1046 19.2034 12.9304 19.3261 12.7368 19.41C12.5433 19.4939 12.3347 19.5372 12.1238 19.5372C11.9128 19.5372 11.7042 19.4939 11.5107 19.41C11.3171 19.3261 11.1429 19.2034 10.9987 19.0494C10.8055 18.828 10.6729 18.5604 10.6138 18.2726C10.5546 17.9848 10.571 17.6865 10.6613 17.4069L11.7863 14.1407C11.8118 14.067 11.8596 14.0031 11.9231 13.9579C11.9866 13.9126 12.0627 13.8883 12.1406 13.8883C12.2186 13.8883 12.2946 13.9126 12.3581 13.9579C12.4217 14.0031 12.4695 14.067 12.495 14.1407L13.62 17.3919C13.7094 17.6764 13.7222 17.9795 13.657 18.2705C13.5918 18.5615 13.451 18.8302 13.2488 19.0494Z" fill="#191A51"/>
<path d="M12.705 18.5359C12.6293 18.616 12.538 18.6798 12.4368 18.7234C12.3355 18.7671 12.2265 18.7896 12.1162 18.7896C12.006 18.7896 11.8969 18.7671 11.7957 18.7234C11.6944 18.6798 11.6032 18.616 11.5275 18.5359C11.4241 18.4109 11.354 18.2618 11.3239 18.1024C11.2937 17.9431 11.3044 17.7787 11.355 17.6246L12.105 15.4121L12.855 17.6171C12.9089 17.7706 12.9234 17.9351 12.8972 18.0956C12.871 18.2562 12.8049 18.4075 12.705 18.5359Z" fill="#191A51"/>
<path d="M16.875 21.243C16.875 21.5805 16.7513 21.528 16.5225 21.768L15.8438 22.4993C15.7301 22.6184 15.5933 22.7131 15.4418 22.7776C15.2902 22.8421 15.1272 22.875 14.9625 22.8743H9.0375C8.87283 22.875 8.70976 22.8421 8.55824 22.7776C8.40672 22.7131 8.26994 22.6184 8.15625 22.4993L7.4775 21.7793C7.24875 21.5393 7.125 21.5543 7.125 21.2168L16.875 21.243Z" fill="#191A51"/>
</svg>
