<svg width="54" height="54" viewBox="0 0 54 54" fill="none" xmlns="http://www.w3.org/2000/svg">
<path d="M7.24316 49.8164C8.01804 52.2412 10.2658 53.9999 12.9122 53.9999H41.0875C43.7338 53.9999 45.9815 52.2412 46.7564 49.8164H7.24316Z" fill="#2B4294"/>
<path d="M45.301 8.67621L38.3704 1.74565C38.0846 1.45973 37.7755 1.20766 37.4463 0.988281V9.56236C37.4463 9.75748 37.6055 9.91579 37.8008 9.91579H46.2536C45.9962 9.46734 45.6765 9.05179 45.301 8.67621Z" fill="#2B4294"/>
<path d="M47.0458 13.0806H37.8009C35.8599 13.0806 34.2818 11.5024 34.2818 9.56254V0.00210937C34.2407 0 34.1985 0 34.1573 0H12.912C9.6271 0 6.9541 2.67311 6.9541 5.95898V22.2115H47.0459L47.0458 13.0806Z" fill="#2B4294"/>
<path d="M27.0565 32.3672H25.6094V39.8304H27.0565C28.0321 39.8304 28.5199 39.2885 28.5199 38.2044V33.9932C28.5198 32.9094 28.032 32.3672 27.0565 32.3672Z" fill="#2B4294"/>
<path d="M17.9681 32.3672H16.3584V35.7979H17.9681C18.9436 35.7979 19.4315 35.256 19.4315 34.1719V33.9931C19.4313 32.9094 18.9435 32.3672 17.9681 32.3672Z" fill="#2B4294"/>
<path d="M47.2515 25.377H6.74779C4.54339 25.377 2.75 27.1703 2.75 29.3747V42.6545C2.75 44.8589 4.54339 46.6523 6.74779 46.6523H47.2514C49.4558 46.6523 51.2493 44.8589 51.2493 42.6545V29.3747C51.2493 27.1703 49.4559 25.377 47.2515 25.377ZM21.9676 33.9782C21.9676 35.2683 21.6016 36.2196 20.87 36.8318C20.1383 37.4443 19.1709 37.7504 17.9677 37.7504H16.358V41.2624C16.358 41.5119 16.2332 41.7043 15.984 41.8397C15.7346 41.9753 15.4365 42.0429 15.0897 42.0429C14.7426 42.0429 14.4447 41.9753 14.1954 41.8397C13.9459 41.7043 13.8214 41.5119 13.8214 41.2624V30.9213C13.8214 30.7156 13.908 30.5367 14.0815 30.3848C14.2547 30.2332 14.4823 30.1572 14.7644 30.1572H18.1301C19.2898 30.1572 20.2195 30.458 20.9186 31.0597C21.6177 31.6613 21.9674 32.6072 21.9674 33.8969V33.9782H21.9676ZM31.0563 38.2059C31.0563 39.5284 30.693 40.4984 29.9669 41.1163C29.2406 41.7341 28.2704 42.0431 27.0565 42.0431H24.1786C23.8533 42.0431 23.5877 41.9674 23.3819 41.8155C23.1759 41.6639 23.0729 41.485 23.0729 41.2789V30.9216C23.0729 30.7158 23.1758 30.5369 23.3819 30.385C23.5877 30.2334 23.8535 30.1574 24.1786 30.1574H27.0565C28.2704 30.1574 29.2407 30.4665 29.9669 31.0843C30.693 31.7021 31.0563 32.6724 31.0563 33.9947V38.2059ZM39.9746 32.0435C39.8389 32.2605 39.6518 32.3688 39.4137 32.3688H35.2025V35.1167H37.6576C37.8959 35.1167 38.083 35.2142 38.2186 35.4092C38.354 35.6044 38.4219 35.8377 38.4219 36.1084C38.4219 36.3578 38.3568 36.5799 38.2267 36.7751C38.0967 36.9702 37.9068 37.0676 37.6576 37.0676H35.2025V41.2626C35.2025 41.512 35.0778 41.7044 34.8285 41.8398C34.5791 41.9754 34.281 42.043 33.9343 42.043C33.5872 42.043 33.2892 41.9754 33.0399 41.8398C32.7905 41.7044 32.6659 41.512 32.6659 41.2626V30.9378C32.6659 30.6886 32.7741 30.4962 32.9912 30.3606C33.2078 30.2251 33.4681 30.1573 33.7715 30.1573H39.4136C39.6627 30.1573 39.8526 30.2657 39.9827 30.4826C40.1127 30.6995 40.1778 30.9541 40.1778 31.2468C40.1777 31.5612 40.1099 31.8267 39.9746 32.0435Z" fill="#2B4294"/>
</svg>
