<svg width="228" height="42" viewBox="0 0 228 42" fill="none" xmlns="http://www.w3.org/2000/svg">
<g clip-path="url(#clip0_188_1042)">
<path d="M61.6893 34.6856H54.917V21.2661H44.1429V34.6856H37.3296V2.27393H44.1429V16.2056H54.917V2.27393H61.6893V34.6856Z" fill="#32567E"/>
<path fill-rule="evenodd" clip-rule="evenodd" d="M77.286 34.686C77.0945 34.2899 76.9235 33.8528 76.773 33.3748C76.6225 32.8967 76.5062 32.4119 76.4241 31.9202C75.7811 32.9036 75.0013 33.6889 74.0846 34.2763C73.1816 34.8636 72.1213 35.1572 70.9037 35.1572C68.7694 35.1572 67.0661 34.5016 65.7937 33.1904C64.5076 31.8928 63.8646 30.1514 63.8646 27.966C63.8646 25.6031 64.6855 23.7728 66.3273 22.4753C67.9554 21.1641 70.3701 20.5085 73.5716 20.5085H76.1368V18.5621C76.1368 17.3875 75.9111 16.486 75.4596 15.8577C75.0081 15.2158 74.324 14.8948 73.4074 14.8948C72.6549 14.8948 72.0871 15.1475 71.704 15.6528C71.321 16.1582 71.1294 16.8958 71.1294 17.8655L64.5624 17.845L64.5008 17.7016C64.4187 15.6119 65.2464 13.8363 66.984 12.3748C68.7215 10.8997 71.0131 10.1621 73.8589 10.1621C76.5541 10.1621 78.7363 10.8928 80.4054 12.3543C82.0882 13.8158 82.9296 15.8987 82.9296 18.6031V28.3553C82.9296 29.5299 83.0185 30.6294 83.1964 31.6538C83.3743 32.6782 83.641 33.6889 83.9968 34.686H77.286ZM72.8738 30.3836C73.5579 30.3836 74.1941 30.2128 74.7824 29.8714C75.357 29.5436 75.8153 29.1065 76.1573 28.5602V24.1348H73.5921C72.566 24.1348 71.8203 24.4694 71.3552 25.1387C70.89 25.808 70.6574 26.6548 70.6574 27.6792C70.6574 28.485 70.8558 29.1406 71.2526 29.646C71.6493 30.1377 72.1897 30.3836 72.8738 30.3836Z" fill="#32567E"/>
<path d="M85.9463 10.6128H92.7186V29.646H98.7726V10.6128H105.565V29.6869H109.157L108.705 41.8362H102.384V34.686H85.9463V10.6128Z" fill="#32567E"/>
<path d="M123.584 10.6128H130.356V34.686H123.584V21.5123L123.44 21.4918L117.53 34.686H110.737V10.6128H117.53V23.7455L117.673 23.766L123.584 10.6128Z" fill="#32567E"/>
<path d="M146.363 27.1055H146.507L151.35 10.6128H159.867V34.686H153.053V22.086L152.91 22.0655L148.723 34.686H144.188L140.145 22.5777L140.022 22.5982V34.686H133.229V10.6128H141.582L146.363 27.1055Z" fill="#32567E"/>
<path fill-rule="evenodd" clip-rule="evenodd" d="M173.206 11.9854C176.366 11.9854 178.815 13.0303 180.553 15.12C182.304 17.1961 183.18 19.9005 183.18 23.2332V23.7454C183.18 27.1327 182.263 29.8849 180.43 32.002C178.597 34.1054 176.031 35.1571 172.734 35.1571C169.41 35.1571 166.831 34.1054 164.997 32.002C163.164 29.8849 162.247 27.1327 162.247 23.7454V20.4264C162.247 15.0995 163.191 10.9951 165.079 8.11319C166.967 5.21758 169.403 3.46246 172.385 2.84782C173.493 2.60197 174.342 2.281 174.93 1.8849C175.505 1.4888 175.792 0.867337 175.792 0.0205078H181.025L181.066 0.143435C181.121 2.97075 180.498 4.86246 179.199 5.81856C177.899 6.77465 175.682 7.51222 172.549 8.03124C171.195 8.29075 170.128 8.91222 169.348 9.89563C168.568 10.879 168.069 12.2312 167.85 13.9522L167.911 14.0547C168.637 13.4264 169.451 12.9278 170.354 12.559C171.256 12.1766 172.207 11.9854 173.206 11.9854ZM172.693 17.0459C171.352 17.0459 170.408 17.6127 169.861 18.7464C169.3 19.88 169.02 21.3756 169.02 23.2332V23.7454C169.02 25.6986 169.3 27.2488 169.861 28.3961C170.408 29.5298 171.366 30.0966 172.734 30.0966C174.061 30.0966 175.005 29.5298 175.566 28.3961C176.127 27.2488 176.408 25.6986 176.408 23.7454V23.2332C176.408 21.362 176.127 19.8595 175.566 18.7259C175.005 17.6059 174.047 17.0459 172.693 17.0459Z" fill="#32567E"/>
<path d="M197.894 10.6128H204.666V34.686H197.894V21.5123L197.751 21.4918L191.84 34.686H185.047V10.6128H191.84V23.7455L191.984 23.766L197.894 10.6128Z" fill="#32567E"/>
<path fill-rule="evenodd" clip-rule="evenodd" d="M206.903 21.1845C206.903 17.9475 207.827 15.2977 209.674 13.2353C211.507 11.1865 214.079 10.1621 217.39 10.1621C220.687 10.1621 223.259 11.1865 225.106 13.2353C226.953 15.2977 227.877 17.9475 227.877 21.1845V24.1553C227.877 27.4197 226.953 30.0694 225.106 32.1045C223.259 34.1397 220.694 35.1572 217.411 35.1572C214.086 35.1572 211.507 34.1397 209.674 32.1045C207.827 30.0694 206.903 27.4197 206.903 24.1553V21.1845ZM213.655 24.1553C213.655 26.0128 213.936 27.4743 214.496 28.5397C215.057 29.5914 216.029 30.1172 217.411 30.1172C218.738 30.1172 219.689 29.5845 220.263 28.5192C220.824 27.4538 221.105 25.9992 221.105 24.1553V21.1845C221.105 19.368 220.824 17.9202 220.263 16.8411C219.689 15.7621 218.731 15.2226 217.39 15.2226C216.036 15.2226 215.078 15.7689 214.517 16.8616C213.942 17.9406 213.655 19.3816 213.655 21.1845V24.1553Z" fill="#32567E"/>
<path d="M28.2179 2.2334V31.7973C26.5556 29.6051 22.1638 29.5436 21.9586 29.5436C17.8747 29.5027 15.9662 27.7202 15.9662 23.889V2.2334H28.2179Z" fill="#7A9FBC"/>
<path d="M0.102553 22.9466L0.0820312 2.2334H12.4774V25.1593C12.4774 29.1749 15.2478 32.5963 19.9063 32.5963C19.9474 32.5963 25.7551 32.33 26.4529 34.7066H9.37852C7.08005 34.6246 4.97996 33.7914 3.07825 32.2071C0.97132 30.4588 -0.020579 27.3719 0.102553 22.9466Z" fill="#0D416C"/>
</g>
<defs>
<clipPath id="clip0_188_1042">
<rect width="228" height="42" fill="white"/>
</clipPath>
</defs>
</svg>
