<svg width="173" height="32" viewBox="0 0 173 32" fill="none" xmlns="http://www.w3.org/2000/svg">
<g clip-path="url(#clip0_2008_8226)">
<path d="M46.8081 26.4273H41.6695V16.2029H33.4944V26.4273H28.3246V1.73268H33.4944V12.3473H41.6695V1.73268H46.8081V26.4273Z" fill="#999999"/>
<path fill-rule="evenodd" clip-rule="evenodd" d="M58.6425 26.4273C58.4971 26.1255 58.3674 25.7925 58.2532 25.4283C58.139 25.0641 58.0508 24.6946 57.9885 24.32C57.5006 25.0693 56.9088 25.6676 56.2133 26.1151C55.5282 26.5626 54.7236 26.7863 53.7997 26.7863C52.1803 26.7863 50.8878 26.2868 49.9224 25.2878C48.9466 24.2992 48.4587 22.9724 48.4587 21.3073C48.4587 19.507 49.0815 18.1125 50.3273 17.1239C51.5626 16.1249 53.3949 15.6254 55.824 15.6254H57.7705V14.1424C57.7705 13.2475 57.5992 12.5607 57.2566 12.082C56.914 11.5928 56.395 11.3483 55.6995 11.3483C55.1285 11.3483 54.6977 11.5408 54.407 11.9259C54.1163 12.3109 53.971 12.8728 53.971 13.6117L48.9881 13.5961L48.9414 13.4868C48.8791 11.8946 49.5072 10.5418 50.8256 9.42829C52.1439 8.30439 53.8828 7.74244 56.042 7.74244C58.0871 7.74244 59.7429 8.29919 61.0094 9.41268C62.2862 10.5262 62.9247 12.1132 62.9247 14.1737V21.6039C62.9247 22.4989 62.9921 23.3366 63.1271 24.1171C63.262 24.8976 63.4645 25.6676 63.7344 26.4273H58.6425ZM55.2946 23.1493C55.8136 23.1493 56.2964 23.0192 56.7427 22.759C57.1787 22.5093 57.5265 22.1763 57.786 21.76V18.3883H55.8396C55.061 18.3883 54.4953 18.6433 54.1423 19.1532C53.7893 19.6631 53.6129 20.3083 53.6129 21.0888C53.6129 21.7028 53.7634 22.2023 54.0644 22.5873C54.3655 22.962 54.7755 23.1493 55.2946 23.1493Z" fill="#999999"/>
<path d="M65.2137 8.08585H70.3523V22.5873H74.9459V8.08585H80.1001V22.6185H82.8251L82.4825 31.8751H77.6865V26.4273H65.2137V8.08585Z" fill="#999999"/>
<path d="M93.7719 8.08585H98.9105V26.4273H93.7719V16.3902L93.6629 16.3746L89.1783 26.4273H84.0241V8.08585H89.1783V18.0917L89.2873 18.1073L93.7719 8.08585Z" fill="#999999"/>
<path d="M111.056 20.6517H111.165L114.84 8.08585H121.302V26.4273H116.133V16.8273L116.024 16.8117L112.847 26.4273H109.406L106.338 17.2019L106.245 17.2176V26.4273H101.091V8.08585H107.428L111.056 20.6517Z" fill="#999999"/>
<path fill-rule="evenodd" clip-rule="evenodd" d="M131.424 9.1317C133.822 9.1317 135.68 9.9278 136.999 11.52C138.327 13.1018 138.992 15.1623 138.992 17.7015V18.0917C138.992 20.6725 138.296 22.7694 136.905 24.3824C135.514 25.985 133.568 26.7863 131.066 26.7863C128.543 26.7863 126.586 25.985 125.195 24.3824C123.804 22.7694 123.109 20.6725 123.109 18.0917V15.5629C123.109 11.5044 123.825 8.37723 125.258 6.18146C126.69 3.97528 128.538 2.63805 130.801 2.16976C131.642 1.98244 132.286 1.73789 132.732 1.4361C133.168 1.13431 133.386 0.660813 133.386 0.0156097H137.357L137.388 0.109268C137.429 2.26341 136.957 3.70471 135.971 4.43317C134.985 5.16162 133.303 5.72358 130.926 6.11902C129.898 6.31675 129.088 6.79024 128.496 7.53951C127.905 8.28878 127.526 9.31902 127.36 10.6302L127.406 10.7083C127.957 10.2296 128.574 9.84975 129.259 9.56878C129.945 9.2774 130.666 9.1317 131.424 9.1317ZM131.035 12.9873C130.017 12.9873 129.301 13.4192 128.886 14.2829C128.46 15.1467 128.247 16.2862 128.247 17.7015V18.0917C128.247 19.5798 128.46 20.761 128.886 21.6351C129.301 22.4989 130.028 22.9307 131.066 22.9307C132.073 22.9307 132.789 22.4989 133.215 21.6351C133.64 20.761 133.853 19.5798 133.853 18.0917V17.7015C133.853 16.2758 133.64 15.1311 133.215 14.2673C132.789 13.414 132.062 12.9873 131.035 12.9873Z" fill="#999999"/>
<path d="M150.157 8.08585H155.295V26.4273H150.157V16.3902L150.048 16.3746L145.563 26.4273H140.409V8.08585H145.563V18.0917L145.672 18.1073L150.157 8.08585Z" fill="#999999"/>
<path fill-rule="evenodd" clip-rule="evenodd" d="M156.992 16.1405C156.992 13.6741 157.693 11.6553 159.095 10.0839C160.486 8.52293 162.437 7.74244 164.95 7.74244C167.451 7.74244 169.403 8.52293 170.804 10.0839C172.206 11.6553 172.907 13.6741 172.907 16.1405V18.4039C172.907 20.8911 172.206 22.9099 170.804 24.4605C169.403 26.0111 167.457 26.7863 164.965 26.7863C162.442 26.7863 160.486 26.0111 159.095 24.4605C157.693 22.9099 156.992 20.8911 156.992 18.4039V16.1405ZM162.115 18.4039C162.115 19.8192 162.328 20.9327 162.754 21.7444C163.18 22.5457 163.917 22.9463 164.965 22.9463C165.972 22.9463 166.694 22.5405 167.13 21.7288C167.555 20.9171 167.768 19.8088 167.768 18.4039V16.1405C167.768 14.7564 167.555 13.6533 167.13 12.8312C166.694 12.0091 165.967 11.5981 164.95 11.5981C163.922 11.5981 163.195 12.0143 162.769 12.8468C162.333 13.6689 162.115 14.7668 162.115 16.1405V18.4039Z" fill="#999999"/>
<path d="M21.4109 1.70146V24.2263C20.1496 22.5561 16.8173 22.5093 16.6616 22.5093C13.5628 22.478 12.1147 21.12 12.1147 18.201V1.70146H21.4109Z" fill="#D3D6D8"/>
<path d="M0.0778579 17.4829L0.0622864 1.70146H9.4675V19.1688C9.4675 22.2283 11.5697 24.8351 15.1044 24.8351C15.1356 24.8351 19.5423 24.6322 20.0717 26.4429H7.1162C5.37219 26.3805 3.7787 25.7457 2.33573 24.5385C0.737054 23.2065 -0.0155714 20.8546 0.0778579 17.4829Z" fill="#494B4C"/>
</g>
<defs>
<clipPath id="clip0_2008_8226">
<rect width="173" height="32" fill="white"/>
</clipPath>
</defs>
</svg>
