<svg width="56" height="56" viewBox="0 0 56 56" fill="none" xmlns="http://www.w3.org/2000/svg">
<path d="M35.6053 51.4408V54.1024H19.8894V51.4408C19.8894 48.7199 21.2669 46.2308 23.574 44.7824L23.777 44.6549L23.9602 44.8096C25.0194 45.7048 26.3643 46.1976 27.7472 46.1976C29.1302 46.1976 30.4748 45.7047 31.5341 44.8096L31.7173 44.6549L31.9203 44.7824C34.2277 46.2309 35.605 48.72 35.605 51.4408H35.6053ZM11.48 42.4561C11.48 44.4801 13.1266 46.1269 15.1507 46.1269C17.1748 46.1269 18.8216 44.4802 18.8216 42.4561C18.8216 40.432 17.1748 38.7854 15.1507 38.7854C13.1266 38.7854 11.48 40.432 11.48 42.4561ZM27.7473 45.104C30.3848 45.104 32.5306 42.9581 32.5306 40.3207C32.5306 37.6832 30.3848 35.5374 27.7473 35.5374C25.1099 35.5374 22.964 37.6832 22.964 40.3207C22.964 42.9581 25.1099 45.104 27.7473 45.104ZM12.6822 20.8069V38.3514L13.1488 38.1344C13.7801 37.8406 14.4538 37.6917 15.1507 37.6917C15.3953 37.6917 15.6421 37.7108 15.8843 37.7483L16.2627 37.807V33.1634L16.0519 33.0827C15.2323 32.769 14.6816 31.9701 14.6816 31.0947C14.6816 29.9213 15.6362 28.9667 16.8096 28.9667H18.6676V17.1104H3.95312V20.2601H12.1355C12.437 20.2601 12.6823 20.5054 12.6823 20.807L12.6822 20.8069ZM18.5074 46.1591L18.3082 46.0273L18.1216 46.1766C17.268 46.8596 16.2409 47.2205 15.1507 47.2205C14.1029 47.2205 13.1076 46.8847 12.2725 46.2494L12.1845 46.1824H11.7544L11.67 46.241C10.0277 47.3819 9.04727 49.2563 9.04727 51.2551V53.2468H18.7957V51.4408C18.7957 50.0859 19.1116 48.7249 19.7092 47.505L19.8076 47.3041L19.6565 47.139C19.3172 46.7684 18.9307 46.4388 18.5074 46.159V46.1591ZM23.5538 16.6173H32.4463V12.6471H23.5538V16.6173ZM44.3298 46.2413L44.2455 46.1824H43.8156L43.7276 46.2494C42.8924 46.8847 41.8972 47.2205 40.8494 47.2205C39.7597 47.2205 38.7326 46.8598 37.8794 46.1772L37.6929 46.028L37.4937 46.1596C36.9193 46.5387 36.4167 47.0072 36 47.5519L35.8829 47.7049L35.9596 47.8818C36.4503 49.0131 36.6992 50.2106 36.6992 51.4407V53.2467H46.9529V51.255C46.9529 49.2583 45.9724 47.3838 44.33 46.2411L44.3298 46.2413ZM11.5885 21.3537H3.95312V24.9746H11.5886L11.5885 21.3537ZM46.4325 46.7173C47.1064 47.5479 47.595 48.5343 47.8453 49.5702L47.906 49.8212H52.0468V46.1823H45.9986L46.4325 46.7171V46.7173ZM45.5252 41.5447C45.5839 41.8462 45.6137 42.1529 45.6137 42.4561C45.6137 43.2124 45.4395 43.9376 45.0961 44.6116L44.8528 45.0887H52.0468V41.1539H45.4491L45.5252 41.5447ZM36.9451 45.2007L36.7847 44.9388C36.3267 44.192 36.0848 43.3335 36.0848 42.456C36.0848 40.7594 37.0023 39.1767 38.4793 38.3258L38.6436 38.2311V33.2226H17.3565V38.2311L17.5208 38.3258C18.9978 39.1767 19.9153 40.7594 19.9153 42.456C19.9153 43.3344 19.6727 44.1936 19.214 44.941L19.0533 45.2027L19.3038 45.3804C19.602 45.5919 19.881 45.8217 20.1332 46.0636L20.3989 46.3185L20.6215 46.0252C21.2187 45.2392 21.9365 44.5614 22.7551 44.0109L23.0256 43.829L22.8456 43.5573C22.2076 42.5945 21.8704 41.4752 21.8704 40.3206C21.8704 37.0799 24.5068 34.4435 27.7474 34.4435C30.9881 34.4435 33.6245 37.0799 33.6245 40.3206C33.6245 41.4752 33.2873 42.5946 32.6493 43.5574L32.4693 43.829L32.7396 44.0109C33.6578 44.6285 34.4451 45.4017 35.0798 46.3091L35.312 46.641L35.5884 46.3449C35.9238 45.9858 36.2961 45.6605 36.6946 45.3781L36.9451 45.2006V45.2007ZM36.2387 28.9666H19.7613V8.50404H36.2387V28.9666ZM33.5399 20.8069C33.5399 20.5053 33.2946 20.26 32.9931 20.26H23.0068C22.7052 20.26 22.4599 20.5053 22.4599 20.8069V25.8708C22.4599 26.1724 22.7052 26.4177 23.0068 26.4177H32.9931C33.2946 26.4177 33.5399 26.1724 33.5399 25.8708V20.8069ZM33.5399 12.1002C33.5399 11.7986 33.2946 11.5533 32.9931 11.5533H23.0068C22.7052 11.5533 22.4599 11.7986 22.4599 12.1002V17.1641C22.4599 17.4657 22.7052 17.711 23.0068 17.711H32.9931C33.2946 17.711 33.5399 17.4657 33.5399 17.1641V12.1002ZM15.7752 31.0946C15.7752 31.6649 16.2392 32.1288 16.8095 32.1288H39.1904C39.7606 32.1288 40.2246 31.6649 40.2246 31.0946C40.2246 30.5243 39.7606 30.0603 39.1904 30.0603H16.8095C16.2392 30.0603 15.7752 30.5243 15.7752 31.0946ZM37.1785 42.4561C37.1785 44.4801 38.8253 46.1269 40.8494 46.1269C42.8735 46.1269 44.5201 44.4802 44.5201 42.4561C44.5201 40.432 42.8735 38.7854 40.8494 38.7854C38.8253 38.7854 37.1785 40.432 37.1785 42.4561ZM37.3324 13.2507V28.9666H39.1904C40.3638 28.9666 41.3184 29.9212 41.3184 31.0946C41.3184 31.97 40.7677 32.769 39.9481 33.0826L39.7372 33.1633V37.8069L40.1157 37.7482C40.3578 37.7107 40.6047 37.6916 40.8493 37.6916C41.5462 37.6916 42.2197 37.8406 42.8511 38.1343L43.3177 38.3513V20.8068C43.3177 20.5052 43.5631 20.2599 43.8646 20.2599H52.047V16.9887L37.3324 13.2507ZM44.4115 24.9746H52.047V21.3537H44.4115V24.9746ZM33.4728 1.89746H22.5272V7.41029H33.4728V1.89746ZM44.4115 39.2949L44.4889 39.3865C44.6265 39.5494 44.7554 39.7249 44.872 39.9082L44.9688 40.0602H52.047V36.1254H44.4115V39.2949ZM44.4115 30.0031H52.047V26.0684H44.4115V30.0031ZM11.5885 26.0684H3.95312V30.0031H11.5886L11.5885 26.0684ZM44.4115 35.0316H52.047V31.0969H44.4115V35.0316ZM10.9039 44.6116C10.5604 43.9376 10.3862 43.2124 10.3862 42.4561C10.3862 42.1529 10.416 41.8464 10.4747 41.5447L10.5508 41.1539H3.95312V45.0887H11.1472L10.9039 44.6116ZM11.128 39.9082C11.2446 39.7249 11.3735 39.5495 11.511 39.3865L11.5885 39.2949V36.1254H3.95312V40.0602H11.0313L11.128 39.9082ZM23.5538 25.3239H32.4463V21.3537H23.5538V25.3239ZM11.5885 31.0969H3.95312V35.0316H11.5886L11.5885 31.0969ZM9.99883 46.1824H3.95312V49.8213H8.09275L8.15323 49.57C8.4025 48.5338 8.89053 47.5474 9.5645 46.7175L9.99894 46.1825L9.99883 46.1824Z" fill="white"/>
</svg>
