<svg width="56" height="56" viewBox="0 0 56 56" fill="none" xmlns="http://www.w3.org/2000/svg">
<path fill-rule="evenodd" clip-rule="evenodd" d="M7.2078 55.9999L3.05658 45.4006L9.43489 42.9055L13.5864 53.5047L7.2078 55.9999ZM23.6917 40.3955C18.7767 39.439 15.0813 40.1797 12.706 42.5974C12.3247 42.9899 11.8661 43.299 11.3592 43.5052L11.1525 43.5895L14.2276 51.4461L16.0091 50.6221C16.6154 50.3348 17.2857 50.2089 17.955 50.2568C19.8637 50.3751 23.1033 51.1496 26.2367 51.8967C28.2833 52.3845 30.218 52.8453 31.6713 53.1019C32.148 53.193 32.6408 53.1466 33.0923 52.9683C41.639 49.733 44.2 47.1455 49.3324 40.5769C49.8464 39.9207 49.5869 39.1125 49.1255 38.6379C48.5636 38.0648 47.5349 37.7706 46.3208 38.6671C43.1661 40.9984 40.5363 42.8999 38.7124 44.2051C39.1684 44.6775 39.3592 45.1664 39.2745 45.6684C39.0146 47.266 36.2629 47.6052 33.9936 47.6074H33.9777C32.0425 47.6074 27.8803 47.2049 25.3937 46.9638C24.7098 46.8975 24.1743 46.8455 23.9039 46.8243C23.8149 46.8183 23.7279 46.7948 23.6481 46.755C23.5683 46.7152 23.4972 46.6599 23.4388 46.5924C23.3805 46.5249 23.3362 46.4465 23.3084 46.3618C23.2806 46.277 23.2698 46.1876 23.2769 46.0986C23.2839 46.0097 23.3085 45.923 23.3492 45.8437C23.3899 45.7643 23.446 45.6939 23.5142 45.6363C23.5824 45.5788 23.6613 45.5354 23.7464 45.5086C23.8315 45.4818 23.921 45.4721 24.0099 45.4802C24.2909 45.5021 24.837 45.5539 25.521 45.6213C27.8273 45.844 32.106 46.2586 33.9777 46.2586H33.9936C37.0688 46.2553 37.9065 45.6101 37.9436 45.4515C37.9545 45.2875 37.3922 44.4749 34.5132 43.5073C31.8515 42.6113 28.0928 41.5932 25.6058 40.9199C24.7787 40.6941 24.116 40.5152 23.6917 40.3949V40.3955ZM33.4634 34.2573C32.8653 34.2557 32.2842 34.058 31.8092 33.6945C31.3342 33.331 30.9915 32.8217 30.8336 32.2448H36.0937C35.9345 32.821 35.5914 33.3293 35.1167 33.6926C34.642 34.0559 34.0617 34.2542 33.4639 34.2573H33.4634ZM36.862 30.8964H30.0598C29.6835 30.8955 29.3228 30.7458 29.0565 30.4798C28.7903 30.2139 28.6401 29.8533 28.6388 29.477V28.643H38.2832V29.477C38.2829 29.8536 38.133 30.2146 37.8666 30.4808C37.6001 30.7469 37.2389 30.8964 36.8623 30.8964H36.862ZM31.9047 19.9911H30.8125C30.5965 19.9911 30.3854 19.927 30.2058 19.807C30.0263 19.687 29.8864 19.5164 29.8037 19.3169C29.7211 19.1173 29.6995 18.8978 29.7417 18.686C29.7838 18.4742 29.8878 18.2796 30.0405 18.1269C30.1933 17.9742 30.3878 17.8702 30.5996 17.8281C30.8115 17.786 31.031 17.8076 31.2305 17.8902C31.4301 17.9729 31.6006 18.1128 31.7206 18.2924C31.8406 18.4719 31.9047 18.683 31.9047 18.899V19.9911ZM33.4637 10.6782C31.6485 10.6781 29.8772 11.2363 28.39 12.277C26.9028 13.3178 25.7717 14.7908 25.15 16.4962C24.5284 18.2016 24.4462 20.0569 24.9148 21.8106C25.3833 23.5643 26.3799 25.1314 27.7693 26.2995C28.0908 26.5627 28.3377 26.9057 28.4851 27.2942H31.9047V21.3406H30.8125C30.3296 21.341 29.8574 21.1982 29.4557 20.9302C29.054 20.6623 28.7408 20.2812 28.5557 19.8352C28.3706 19.3892 28.3219 18.8983 28.4159 18.4246C28.5098 17.951 28.7421 17.5158 29.0833 17.1742C29.4246 16.8326 29.8595 16.5998 30.3331 16.5054C30.8067 16.411 31.2976 16.4592 31.7438 16.6438C32.19 16.8284 32.5714 17.1413 32.8397 17.5427C33.1081 17.9441 33.2514 18.4161 33.2515 18.899V27.2942H33.6704V18.899C33.6704 18.4162 33.8136 17.9443 34.0817 17.5428C34.3499 17.1414 34.7311 16.8284 35.177 16.6435C35.623 16.4587 36.1138 16.4102 36.5874 16.5042C37.0609 16.5982 37.496 16.8304 37.8375 17.1716C38.1791 17.5128 38.4118 17.9476 38.5063 18.4211C38.6008 18.8945 38.5529 19.3854 38.3685 19.8315C38.1841 20.2777 37.8715 20.6592 37.4704 20.9278C37.0692 21.1964 36.5974 21.3401 36.1146 21.3406H35.0224V27.2942H38.4369C38.5843 26.9057 38.8312 26.5627 39.1527 26.2995C40.5418 25.1317 41.5382 23.5651 42.0069 21.8119C42.4756 20.0588 42.3939 18.2039 41.7729 16.4987C41.1519 14.7935 40.0217 13.3205 38.5353 12.2793C37.049 11.2382 35.2784 10.6792 33.4637 10.6782ZM35.0225 19.9911V18.899C35.023 18.6837 35.0873 18.4734 35.2072 18.2946C35.3271 18.1158 35.4973 17.9766 35.6963 17.8944C35.8953 17.8122 36.1141 17.7909 36.3252 17.833C36.5364 17.8751 36.7303 17.9788 36.8825 18.131C37.0348 18.2832 37.1385 18.4772 37.1806 18.6883C37.2228 18.8994 37.2014 19.1183 37.1193 19.3173C37.0371 19.5163 36.8979 19.6865 36.7191 19.8064C36.5403 19.9263 36.33 19.9906 36.1147 19.9911H35.0225ZM33.4637 7.70962C33.3752 7.70955 33.2876 7.69204 33.2058 7.6581C33.1241 7.62417 33.0499 7.57446 32.9873 7.51182C32.9248 7.44919 32.8752 7.37485 32.8414 7.29305C32.8077 7.21125 32.7903 7.1236 32.7904 7.0351V0.674289C32.7904 0.495715 32.8613 0.324456 32.9876 0.198185C33.1139 0.0719146 33.2851 0.000976563 33.4637 0.000976562C33.6423 0.000976563 33.8135 0.0719146 33.9398 0.198185C34.0661 0.324456 34.137 0.495715 34.137 0.674289V7.0351C34.1371 7.1236 34.1198 7.21125 34.086 7.29305C34.0522 7.37485 34.0026 7.44919 33.9401 7.51182C33.8776 7.57446 33.8033 7.62417 33.7216 7.6581C33.6398 7.69204 33.5522 7.70955 33.4637 7.70962ZM47.8852 6.36649C48.0101 6.49364 48.0801 6.66472 48.0801 6.84293C48.0801 7.02113 48.0101 7.19222 47.8852 7.31937L43.379 11.8245C43.3164 11.8873 43.2421 11.9372 43.1602 11.9711C43.0783 12.005 42.9904 12.0224 42.9018 12.0223C42.7683 12.0222 42.6378 11.9827 42.5269 11.9085C42.4159 11.8343 42.3294 11.7289 42.2783 11.6056C42.2272 11.4823 42.2139 11.3466 42.2399 11.2157C42.2659 11.0848 42.3302 10.9645 42.4246 10.8701L46.9308 6.36649C46.9934 6.30363 47.0677 6.25374 47.1496 6.2197C47.2315 6.18566 47.3193 6.16814 47.408 6.16814C47.4967 6.16814 47.5845 6.18566 47.6664 6.2197C47.7483 6.25374 47.8227 6.30363 47.8852 6.36649ZM52.2703 21.4614H45.8863C45.7074 21.4614 45.5359 21.3904 45.4094 21.2639C45.2829 21.1374 45.2119 20.9659 45.2119 20.787C45.2119 20.6082 45.2829 20.4366 45.4094 20.3102C45.5359 20.1837 45.7074 20.1126 45.8863 20.1126H52.2703C52.4492 20.1126 52.6207 20.1837 52.7472 20.3102C52.8736 20.4366 52.9447 20.6082 52.9447 20.787C52.9447 20.9659 52.8736 21.1374 52.7472 21.2639C52.6207 21.3904 52.4492 21.4614 52.2703 21.4614ZM42.4033 28.7745L47.6204 33.9896C47.7147 34.0839 47.7789 34.2041 47.8048 34.3349C47.8308 34.4657 47.8174 34.6013 47.7663 34.7245C47.7152 34.8477 47.6288 34.953 47.5179 35.0271C47.407 35.1011 47.2766 35.1407 47.1432 35.1406C47.0546 35.1408 46.9668 35.1234 46.8849 35.0895C46.803 35.0555 46.7286 35.0057 46.666 34.9429L41.4488 29.7289C41.3223 29.6023 41.2512 29.4307 41.2512 29.2517C41.2512 29.0727 41.3223 28.901 41.4488 28.7745C41.5754 28.6479 41.7471 28.5768 41.926 28.5768C42.105 28.5768 42.2767 28.6479 42.4033 28.7745ZM25.4739 28.7756C25.5369 28.8379 25.5869 28.9122 25.621 28.994C25.6551 29.0758 25.6727 29.1636 25.6727 29.2522C25.6727 29.3409 25.6551 29.4286 25.621 29.5105C25.5869 29.5923 25.5369 29.6665 25.4739 29.7289L20.2617 34.9429C20.1348 35.0689 19.9634 35.14 19.7845 35.1406C19.6511 35.1407 19.5208 35.1011 19.4098 35.0271C19.2989 34.953 19.2125 34.8477 19.1614 34.7245C19.1103 34.6013 19.0969 34.4657 19.1229 34.3349C19.1489 34.2041 19.213 34.0839 19.3073 33.9896L24.5192 28.7756C24.5818 28.7128 24.6562 28.663 24.7381 28.629C24.82 28.595 24.9077 28.5775 24.9964 28.5775C25.085 28.5775 25.1728 28.595 25.2547 28.629C25.3366 28.663 25.4109 28.7128 25.4735 28.7756H25.4739ZM14.6525 20.1131H21.0361C21.2149 20.1131 21.3865 20.1841 21.513 20.3106C21.6394 20.4371 21.7105 20.6086 21.7105 20.7875C21.7105 20.9663 21.6394 21.1379 21.513 21.2644C21.3865 21.3908 21.2149 21.4619 21.0361 21.4619H14.6522C14.4733 21.4619 14.3018 21.3908 14.1753 21.2644C14.0488 21.1379 13.9778 20.9663 13.9778 20.7875C13.9778 20.6086 14.0488 20.4371 14.1753 20.3106C14.3018 20.1841 14.4733 20.1131 14.6522 20.1131H14.6525ZM24.4983 10.8709C24.5927 10.9653 24.657 11.0855 24.683 11.2164C24.709 11.3474 24.6957 11.483 24.6446 11.6064C24.5935 11.7297 24.507 11.8351 24.3961 11.9093C24.2851 11.9834 24.1546 12.023 24.0211 12.023C23.8423 12.0224 23.6708 11.9513 23.5439 11.8253L19.0422 7.31937C18.9169 7.19259 18.847 7.02138 18.8476 6.84317C18.8482 6.66496 18.9193 6.49424 19.0454 6.36832C19.1715 6.2424 19.3424 6.17152 19.5206 6.17118C19.6988 6.17084 19.8699 6.24106 19.9965 6.36649L24.4983 10.8709Z" fill="white"/>
</svg>
