<svg width="56" height="56" viewBox="0 0 56 56" fill="none" xmlns="http://www.w3.org/2000/svg">
<path d="M46.9673 32.0624C48.3649 33.4856 49.1152 35.3527 49.0795 37.3199C49.0395 39.5371 47.766 41.1621 46.4171 42.8836C45.2233 44.4073 43.9888 45.9829 43.7173 47.9783L43.6786 48.2623H39.3849L39.3424 47.9836C39.0631 46.1533 37.8771 44.6401 36.7298 43.1763C35.3193 41.3768 33.987 39.677 33.987 37.3299C33.987 33.1691 37.3721 29.7839 41.5331 29.7839C43.5942 29.7839 45.5239 30.5931 46.967 32.0624H46.9673ZM8.23232 23.5973H1.99969V26.4605H8.23232V23.5973ZM35.9567 30.7078L36.4773 30.3307C37.9588 29.2575 39.7072 28.6902 41.5334 28.6902C41.6334 28.6902 41.7331 28.6939 41.8329 28.6976L42.1894 28.7108V27.5542H35.9568L35.9567 30.7078ZM13.2491 47.3145H17.6133V40.506H13.2491V47.3145ZM18.4507 26.7537H25.7384V23.5973H18.4507V26.7537ZM22.0945 3.05298L20.2472 8.00417H23.9416L22.0944 3.05298H22.0945ZM25.7207 9.09781H18.4684V11.7186H25.7207V9.09781ZM42.1893 23.5973H35.9567V26.4605H42.1893V23.5973ZM18.4507 19.4461H25.7384V16.2898H18.4507V19.4461ZM28.9214 29.811H15.2675V12.8124H28.9214V29.811ZM26.8322 23.0504C26.8322 22.7489 26.5869 22.5036 26.2853 22.5036H17.9038C17.6023 22.5036 17.3569 22.7489 17.3569 23.0504V27.3005C17.3569 27.6021 17.6023 27.8474 17.9038 27.8474H26.2853C26.5869 27.8474 26.8322 27.6021 26.8322 27.3005V23.0504ZM26.8322 15.7429C26.8322 15.4413 26.5869 15.196 26.2853 15.196H17.9038C17.6023 15.196 17.3569 15.4413 17.3569 15.7429V19.993C17.3569 20.2945 17.6023 20.5399 17.9038 20.5399H26.2853C26.5869 20.5399 26.8322 20.2945 26.8322 19.993V15.7429ZM32.2669 31.6849C32.2669 31.2548 31.9169 30.9048 31.4866 30.9048H12.7023C12.2721 30.9048 11.9221 31.2548 11.9221 31.6849C11.9221 32.1151 12.2721 32.4651 12.7023 32.4651H31.4866C31.9169 32.4651 32.2669 32.1151 32.2669 31.6849ZM35.8692 43.8512C34.4742 42.0714 32.8934 40.0544 32.8934 37.3299C32.8934 35.3502 33.5496 33.4855 34.7909 31.9368L34.8629 31.8469V23.0503C34.8629 22.7488 35.1083 22.5035 35.4098 22.5035H42.1893V19.9141L30.0151 16.8213V29.811H31.4866C32.5199 29.811 33.3607 30.6517 33.3607 31.6849C33.3607 32.4304 32.9172 33.1052 32.2308 33.4038L32.0335 33.4895V47.3145H38.0721L37.8679 46.8535C37.4073 45.8136 36.6602 44.8604 35.8692 43.8512ZM8.23232 27.5542H1.99969V30.6809H8.23232V27.5542ZM18.7072 47.3145H25.4819V40.506H18.7072V47.3145ZM39.4052 51.9953C39.4052 52.5201 39.8321 52.947 40.3568 52.947H42.7097C43.2345 52.947 43.6614 52.5201 43.6614 51.9953V49.356H39.4052V51.9953ZM13.2491 39.4123H30.9398V37.4111H13.2491V39.4123ZM26.5756 47.3145H30.9398V40.506H26.5756V47.3145ZM8.23232 31.7746H1.99969V34.9014H8.23232V31.7746ZM10.8284 31.6849C10.8284 30.6517 11.6691 29.811 12.7024 29.811H14.1739V20.0357H1.99969V22.5035H8.77919C9.08074 22.5035 9.32607 22.7488 9.32607 23.0503V43.8891C9.32607 44.1907 9.08074 44.436 8.77919 44.436H1.99969V47.3144H12.1555V33.4894L11.9582 33.4037C11.272 33.1052 10.8284 32.4306 10.8284 31.6848V31.6849ZM8.23232 40.2157H1.99969V43.3424H8.23232V40.2157ZM13.2491 36.3173H30.9398V33.5588H13.2491V36.3173ZM8.23232 35.9952H1.99969V39.1219H8.23232V35.9952ZM47.3376 45.3002C47.2587 45.1467 47.1026 45.0512 46.9296 45.0512C46.8568 45.0512 46.7866 45.0683 46.7211 45.102C46.4964 45.2173 46.4075 45.4939 46.5228 45.7185L47.5856 47.7894C47.6643 47.9429 47.8207 48.0384 47.9935 48.0384C48.0663 48.0384 48.1365 48.0213 48.202 47.9876C48.4267 47.8723 48.5156 47.5957 48.4003 47.3711L47.3375 45.3002H47.3376ZM45.4087 29.6104C45.4538 29.6245 45.5002 29.6318 45.5466 29.6318C45.7473 29.6318 45.9227 29.5029 45.9831 29.3113L46.6826 27.0912C46.7193 26.9745 46.7085 26.8506 46.652 26.7421C46.5955 26.6336 46.5001 26.5536 46.3836 26.5169C46.3385 26.5028 46.2921 26.4954 46.2454 26.4954C46.0448 26.4954 45.8695 26.6243 45.8091 26.8159L45.1096 29.036C45.0729 29.1527 45.0837 29.2767 45.1403 29.3852C45.1968 29.4937 45.2922 29.5737 45.4087 29.6104ZM53.0285 32.8833C53.2527 32.7671 53.3405 32.4901 53.2244 32.2658C53.1452 32.1133 52.9893 32.0185 52.8172 32.0185C52.7438 32.0185 52.673 32.0359 52.607 32.0701L50.5403 33.1412C50.4316 33.1975 50.3514 33.2927 50.3146 33.4094C50.2775 33.5259 50.2882 33.65 50.3445 33.7586C50.4235 33.9111 50.5796 34.0059 50.7516 34.0059C50.8251 34.0059 50.8958 33.9885 50.9617 33.9544L53.0284 32.8833H53.0285ZM53.6816 40.5942L51.4644 39.886C51.4189 39.8714 51.372 39.8641 51.3249 39.8641C51.1248 39.8641 50.9496 39.9922 50.8887 40.1828C50.8119 40.4235 50.9451 40.6817 51.1856 40.7586L53.4028 41.4668C53.4485 41.4813 53.4955 41.4887 53.5426 41.4887C53.7425 41.4887 53.9177 41.3606 53.9786 41.1699C54.0554 40.9293 53.9221 40.6711 53.6816 40.5942Z" fill="white"/>
</svg>
