<svg width="56" height="56" viewBox="0 0 56 56" fill="none" xmlns="http://www.w3.org/2000/svg">
<path d="M28.4694 45.5821L28.6908 46.0504H24.6883V23.2273L27.0771 25.6161C27.1803 25.7194 27.3177 25.7762 27.4637 25.7762C27.6098 25.7762 27.7471 25.7194 27.8505 25.616L33.2821 20.1844V27.963L33.1423 28.061C29.3763 30.7007 27.128 35.0108 27.128 39.5903C27.128 41.683 27.5792 43.6988 28.4694 45.5821ZM15.0008 26.2925V46.0504H23.5945V22.1335L21.3771 19.9161L15.0008 26.2925ZM5.31333 46.0504H13.907V27.3862L5.31333 35.9799V46.0504ZM21.3771 18.5958C21.5233 18.5958 21.6605 18.6526 21.7638 18.7559L27.4636 24.4559L41.7965 10.1233C41.8982 10.0214 42.0392 9.96302 42.1831 9.96302C42.2224 9.96302 42.2618 9.96729 42.3004 9.97571C42.4833 10.016 42.6314 10.1448 42.6963 10.3207L43.4006 12.2307L46.3629 3.43213L37.535 6.40429L39.56 7.1803C39.7336 7.2468 39.8604 7.39522 39.8991 7.57711C39.9378 7.759 39.8824 7.94614 39.7509 8.07761L27.8505 19.9781C27.7471 20.0813 27.6098 20.1383 27.4637 20.1383C27.3177 20.1383 27.1805 20.0814 27.0771 19.9782L21.3772 14.2782L1.82339 33.8319L3.86893 35.8775L20.9905 18.756C21.0937 18.6526 21.2311 18.5958 21.3772 18.5958H21.3771ZM41.9657 11.5008L34.3757 19.0907V27.276L34.8523 27.034C36.8329 26.0288 38.9682 25.519 41.1991 25.519C41.6669 25.519 42.1411 25.5426 42.6088 25.5894L42.9695 25.6254V14.1845L42.9285 14.1013C42.9225 14.0893 42.9158 14.0774 42.9111 14.0646L41.9657 11.5008ZM35.113 44.3705H37.3686V42.115H35.113V44.3705ZM49.3197 33.7366H33.0786C32.5081 33.7366 32.0439 34.2007 32.0439 34.7712V36.7948L41.1993 39.029L50.3546 36.7948V34.7712C50.3546 34.2007 49.8904 33.7366 49.3199 33.7366H49.3197ZM54.1766 39.5903C54.1766 46.7462 48.3549 52.5678 41.1992 52.5678C34.0434 52.5678 28.2217 46.7461 28.2217 39.5903C28.2217 32.4345 34.0434 26.6128 41.1992 26.6128C48.3549 26.6128 54.1766 32.4344 54.1766 39.5903ZM51.4481 37.2243V34.7712C51.4481 33.5976 50.4933 32.6428 49.3197 32.6428H45.1345V31.3053C45.1345 30.1606 44.2033 29.2294 43.0586 29.2294H38.899C37.7544 29.2294 36.8232 30.1606 36.8232 31.3053V32.6428H33.0786C31.905 32.6428 30.9502 33.5975 30.9502 34.7712V37.2243C30.9502 37.4654 31.1052 37.6751 31.3359 37.7461L31.5675 37.8174V45.8601C31.5675 46.9213 32.4308 47.7847 33.4919 47.7847H48.9064C49.9675 47.7847 50.8308 46.9213 50.8308 45.8601V37.8174L51.0624 37.7461C51.2932 37.6751 51.4483 37.4654 51.4483 37.2243H51.4481ZM41.3288 40.1232L49.7371 38.0712V45.8602C49.7371 46.3183 49.3644 46.691 48.9064 46.691H33.4919C33.0339 46.691 32.6612 46.3184 32.6612 45.8602V38.0712L41.0697 40.1232C41.112 40.1336 41.1556 40.1388 41.1992 40.1388C41.2427 40.1388 41.2863 40.1336 41.3288 40.1232ZM38.4624 41.5681C38.4624 41.2666 38.2171 41.0213 37.9155 41.0213H34.5661C34.2646 41.0213 34.0192 41.2666 34.0192 41.5681V44.9174C34.0192 45.219 34.2646 45.4643 34.5661 45.4643H37.9155C38.2171 45.4643 38.4624 45.219 38.4624 44.9174V41.5681ZM43.9797 44.9174C43.9797 45.219 44.225 45.4643 44.5266 45.4643H47.876C48.1775 45.4643 48.4228 45.219 48.4228 44.9174V41.5681C48.4228 41.2666 48.1775 41.0213 47.876 41.0213H44.5266C44.225 41.0213 43.9797 41.2666 43.9797 41.5681V44.9174ZM44.0407 31.3051C44.0407 30.7636 43.6002 30.3231 43.0586 30.3231H38.899C38.3575 30.3231 37.9169 30.7635 37.9169 31.3051V32.6427H44.0407V31.3051ZM47.3291 42.115H45.0734V44.3705H47.3291V42.115Z" fill="white"/>
</svg>
