<svg width="56" height="56" viewBox="0 0 56 56" fill="none" xmlns="http://www.w3.org/2000/svg">
<path d="M29.3755 23.0981C28.9117 23.1121 28.4515 23.1218 28 23.1218C27.5922 23.1218 27.1889 23.1121 26.7872 23.1016C27.2247 23.6616 27.6684 24.2015 28.1164 24.7125C28.5399 24.1989 28.9599 23.6625 29.3755 23.0981Z" fill="white"/>
<path d="M35.9362 29.6074C36.2547 29.4105 36.4463 29.0482 36.5636 28.6484C35.0428 28.4497 33.8607 27.16 33.8607 25.5859C33.8607 24.2576 34.7033 23.1315 35.8785 22.6896C35.8513 22.6039 35.8251 22.5181 35.7971 22.4324C34.4907 22.6782 33.0863 22.862 31.6032 22.9792C30.8603 24.0634 30.093 25.0792 29.3142 26.0102C32.5316 29.2959 34.9816 30.1936 35.9362 29.6074Z" fill="white"/>
<path d="M23.1761 12.3838C22.3493 12.4757 21.5521 12.5894 20.7909 12.7259C21.0709 13.4355 21.3868 14.1592 21.7324 14.8924C21.9721 14.4418 22.2198 13.9955 22.4744 13.5554C22.7019 13.1625 22.9364 12.7714 23.1761 12.3838Z" fill="white"/>
<path d="M38.3162 25.5858C38.3162 24.8403 37.7098 24.2339 36.9635 24.2339C36.2171 24.2339 35.6107 24.8403 35.6107 25.5858C35.6107 26.3313 36.2171 26.9385 36.9635 26.9385C37.7098 26.9385 38.3162 26.3321 38.3162 25.5858Z" fill="white"/>
<path d="M19.2552 20.4374C19.6778 19.2597 20.1862 18.0574 20.7506 16.8622C20.0952 15.5759 19.5291 14.3116 19.0566 13.0857C14.8041 14.1016 12.887 15.6302 12.887 16.7449C12.887 17.2201 13.2098 17.6628 13.615 18.0329C14.1846 17.3531 15.029 16.9112 15.9836 16.9112C17.6942 16.9112 19.0863 18.3024 19.0863 20.0131C19.0863 20.1417 19.0636 20.2633 19.0487 20.3876C19.1178 20.4042 19.187 20.4208 19.257 20.4366L19.2552 20.4374Z" fill="white"/>
<path d="M14.63 20.013C14.63 20.7594 15.2364 21.3658 15.9828 21.3658C16.7291 21.3658 17.3355 20.7594 17.3355 20.013C17.3355 19.2666 16.7291 18.6611 15.9828 18.6611C15.2364 18.6611 14.63 19.2675 14.63 20.013Z" fill="white"/>
<path d="M26.6228 10.3915C27.5022 10.3661 28.3649 10.3661 29.2128 10.388C28.7736 9.8262 28.3291 9.28546 27.8802 8.77271C27.4646 9.27496 27.0446 9.81746 26.6228 10.3915Z" fill="white"/>
<path d="M37.4045 13.2176C37.1849 13.1608 36.9653 13.1074 36.743 13.0566C36.3204 14.2326 35.8129 15.434 35.2494 16.6275C35.9039 17.9129 36.4709 19.1773 36.9434 20.404C41.1959 19.3881 43.113 17.8595 43.113 16.7448C43.113 16.2653 42.7753 15.8173 42.3719 15.4506C41.8478 15.8566 41.1985 16.1078 40.4854 16.1078C38.8474 16.1078 37.5156 14.8276 37.4045 13.2176Z" fill="white"/>
<path d="M33.4312 13.3972C33.6972 13.8277 33.9588 14.2695 34.2152 14.7167C34.5214 14.0158 34.783 13.3455 35.021 12.6928C34.3 12.5668 33.5502 12.4635 32.7802 12.3787C33.0007 12.7173 33.2212 13.0568 33.4312 13.3972Z" fill="white"/>
<path d="M41.8372 13.0051C41.8372 12.2587 41.2308 11.6523 40.4853 11.6523C39.7398 11.6523 39.1326 12.2587 39.1326 13.0051C39.1326 13.7515 39.7389 14.357 40.4853 14.357C41.2317 14.357 41.8372 13.7506 41.8372 13.0051Z" fill="white"/>
<path d="M20.4436 29.8332C21.3264 30.3442 23.1289 29.5742 25.1441 27.8216C25.7461 27.2983 26.3542 26.7016 26.9614 26.0453C26.1258 25.1056 25.3051 24.0818 24.5097 22.9872C23.0756 22.8804 21.7044 22.7072 20.4147 22.4709C19.2159 26.4636 19.3848 29.2224 20.4436 29.8332Z" fill="white"/>
<path d="M35.5565 3.65664C35.3806 3.55514 35.1653 3.50439 34.916 3.50439C33.6437 3.50439 31.4755 4.83264 29.043 7.44889C29.8768 8.38777 30.6976 9.41065 31.4903 10.5026C32.9253 10.6094 34.2965 10.7826 35.5853 11.0189C36.7841 7.02627 36.6152 4.26739 35.5565 3.65664Z" fill="white"/>
<path d="M22.5689 20.0927C22.302 19.6613 22.0413 19.2203 21.7849 18.7732C21.4786 19.4741 21.217 20.1443 20.979 20.7962C21.7 20.9222 22.449 21.0254 23.2199 21.1103C22.9994 20.7717 22.7789 20.4331 22.5689 20.0927Z" fill="white"/>
<path d="M20.0638 3.88235C19.6919 4.11248 19.4443 4.61998 19.3314 5.3331C20.8329 5.54835 21.9949 6.8311 21.9949 8.39123C21.9949 9.47448 21.4349 10.4274 20.5914 10.9821C21.7858 10.7721 23.0633 10.6155 24.3994 10.5105C25.1327 9.4456 25.9027 8.42798 26.6902 7.4856C23.4702 4.1956 21.0202 3.29435 20.0638 3.88235Z" fill="white"/>
<path d="M30.5454 12.1939C28.8881 12.0994 27.1556 12.0977 25.3689 12.1992C24.9069 12.9036 24.4466 13.6412 23.9916 14.4304C23.5183 15.2503 23.0991 16.0457 22.708 16.8244C23.1385 17.6233 23.5891 18.4143 24.059 19.1738C24.4991 19.8887 24.9708 20.5983 25.4555 21.2957C27.1005 21.3902 28.8383 21.3919 30.6294 21.2904C31.1019 20.5712 31.5648 19.8301 32.0093 19.0601C32.4826 18.2402 32.9018 17.4457 33.2929 16.6661C32.8606 15.8654 32.41 15.0744 31.9419 14.3167C31.5 13.6001 31.0293 12.8904 30.5454 12.1948V12.1939ZM28 19.8476C26.2894 19.8476 24.8973 18.4554 24.8973 16.7448C24.8973 15.0342 26.2894 13.6429 28 13.6429C29.7106 13.6429 31.1028 15.0342 31.1028 16.7448C31.1028 18.4554 29.7106 19.8476 28 19.8476Z" fill="white"/>
<path d="M32.8221 21.1059C33.649 21.0141 34.447 20.9003 35.2083 20.7638C34.9283 20.0542 34.6124 19.3306 34.2668 18.5964C34.027 19.0471 33.7794 19.4933 33.5248 19.9343C33.2955 20.3316 33.0593 20.7201 32.8221 21.1059Z" fill="white"/>
<path d="M28 15.3921C27.2536 15.3921 26.6472 15.9985 26.6472 16.744C26.6472 17.4895 27.2536 18.0967 28 18.0967C28.7463 18.0967 29.3527 17.4903 29.3527 16.744C29.3527 15.9976 28.7463 15.3921 28 15.3921Z" fill="white"/>
<path d="M17.5403 8.39132C17.5403 9.1377 18.1467 9.74407 18.893 9.74407C19.6394 9.74407 20.2449 9.1377 20.2449 8.39132C20.2449 7.64495 19.6385 7.03857 18.893 7.03857C18.1475 7.03857 17.5403 7.64495 17.5403 8.39132Z" fill="white"/>
<path d="M13.3796 47.502H21.8146V40.4189C21.6256 37.107 19.4005 35.7919 17.5682 35.28C16.0466 34.8635 14.6921 33.8721 13.7585 32.4896L12.313 30.3686C12.0942 30.0414 11.7328 29.8498 11.3417 29.8498C11.2463 29.8498 11.1413 29.8646 11.0215 29.8953C11.0145 29.897 11.0083 29.8988 11.0031 29.9005C10.9208 29.9276 10.8115 29.9775 10.7021 30.0449C10.1666 30.3818 10.0056 31.0844 10.346 31.64L11.5307 33.579C13.3402 36.5388 14.245 38.124 14.245 38.3346C14.245 38.8185 13.8538 39.2096 13.37 39.2096C13.0112 39.2096 12.7023 38.9935 12.5676 38.6846C12.4285 38.4291 11.5342 36.9408 10.038 34.4925L8.8532 32.5535C8.02195 31.1946 8.4367 29.4018 9.7807 28.5574C9.82358 28.5311 9.86733 28.5058 9.90933 28.4821V20.6535C9.90933 20.0909 9.69145 19.5633 9.29508 19.1669C8.8987 18.7705 8.3737 18.5518 7.81808 18.5518C6.66483 18.5518 5.72595 19.4941 5.72595 20.6526V32.186C5.72595 35.1663 6.63508 38.017 8.35445 40.4303L13.3796 47.502Z" fill="white"/>
<path d="M23.1971 49.252H22.6983C22.6983 49.252 22.6931 49.2537 22.6896 49.2537H12.929C12.9246 49.2537 12.9193 49.252 12.915 49.252H11.991V52.5H23.198L23.1971 49.252Z" fill="white"/>
<path d="M44.0098 49.252H43.0858C43.0815 49.252 43.0762 49.2537 43.0718 49.2537H33.3112C33.3112 49.2537 33.306 49.252 33.3025 49.252H32.8037V52.5H44.0107L44.0098 49.252Z" fill="white"/>
<path d="M50.2739 32.186V20.6526C50.2739 19.4941 49.3359 18.5518 48.1818 18.5518C47.6262 18.5518 47.1021 18.7705 46.7048 19.1669C46.3076 19.5633 46.0906 20.0909 46.0906 20.6535V28.4821C46.1308 28.5049 46.1711 28.5276 46.2104 28.5521C47.5632 29.4026 47.9788 31.1955 47.1458 32.5553L45.9611 34.4943C44.4657 36.9416 43.5723 38.43 43.4323 38.6855C43.2976 38.9944 42.9887 39.2105 42.6299 39.2105C42.1461 39.2105 41.7549 38.8194 41.7549 38.3355C41.7549 38.1255 42.6594 36.5406 44.4683 33.5808L45.6531 31.6418C45.9943 31.0853 45.8333 30.3826 45.2882 30.0396C45.1911 29.981 45.0861 29.932 44.9662 29.8926C44.9601 29.8909 44.9531 29.8883 44.9478 29.8865C44.8647 29.8664 44.7562 29.8506 44.6582 29.8506C44.2671 29.8506 43.9057 30.0423 43.6922 30.3616L42.2388 32.494C41.3087 33.873 39.9542 34.8653 38.4282 35.2835C36.6003 35.7936 34.3752 37.1088 34.1844 40.4705L34.1862 47.5038H42.6212L47.6454 40.4329C49.3657 38.0188 50.2748 35.168 50.2748 32.1878L50.2739 32.186Z" fill="white"/>
</svg>
