<svg width="56" height="56" viewBox="0 0 56 56" fill="none" xmlns="http://www.w3.org/2000/svg">
<g clip-path="url(#clip0_188_1422)">
<path fill-rule="evenodd" clip-rule="evenodd" d="M15.9057 50.2276L18.947 54.8412C19.4882 55.6625 20.4952 55.9575 21.3928 55.5587L26.4454 53.3224C27.4628 52.8723 28.537 52.8723 29.5544 53.3224L34.6074 55.5587C35.5056 55.9575 36.5126 55.6625 37.0527 54.8412L40.094 50.2276C40.7063 49.2991 41.6105 48.718 42.7094 48.5465L48.1697 47.6974C49.1406 47.5456 49.8273 46.7535 49.8393 45.7701L49.9033 40.2456C49.9164 39.1326 50.3591 38.1551 51.1956 37.4178L55.3286 33.7503C56.0612 33.0983 56.2142 32.0611 55.6894 31.2272L52.7593 26.5446C52.1689 25.602 52.0157 24.5382 52.3165 23.4674L53.8089 18.1479C54.0768 17.2018 53.6395 16.2477 52.7483 15.829L47.7522 13.476C46.7457 13.0024 46.0422 12.1892 45.7168 11.1266L44.0986 5.84334C43.8105 4.90305 42.9277 4.33616 41.9535 4.46445L36.4757 5.18775C35.373 5.33234 34.3419 5.03014 33.493 4.31177L29.2738 0.741984C28.5243 0.106188 27.4763 0.106188 26.7252 0.741984L22.508 4.31177C21.659 5.03014 20.628 5.33234 19.5254 5.18775L14.0464 4.46445C13.085 4.3402 12.1949 4.88905 11.9024 5.84334L10.2841 11.1267C9.95887 12.1893 9.25416 13.0025 8.24879 13.4761L3.24882 15.8291C2.35993 16.2479 1.92374 17.2019 2.19105 18.148L3.68512 23.4675C3.98633 24.5383 3.83321 25.6022 3.2428 26.5448L0.309366 31.2273C-0.212244 32.0612 -0.0629468 33.0984 0.671834 33.7504L4.80643 37.4179C5.6379 38.1552 6.08513 39.1327 6.09771 40.2457L6.16169 45.7702C6.17372 46.7536 6.85929 47.5457 7.83119 47.6975L13.2915 48.5466C14.3903 48.718 15.2945 49.2991 15.9057 50.2276ZM23.1182 34.9578C23.1182 35.4325 22.7311 35.8199 22.2561 35.8199H18.9224C18.4479 35.8199 18.0614 35.4325 18.0614 34.9578V26.4432C18.0614 25.9683 18.4479 25.5823 18.9224 25.5823H23.1182V34.9578ZM26.7662 34.7827C25.8926 34.7197 25.1748 34.4363 24.9846 34.0922V26.7407C24.9988 26.7371 25.013 26.7347 25.0267 26.7324C25.3536 26.6717 25.7598 26.5972 26.1594 26.4221C26.3415 26.343 26.4934 26.2075 26.5935 26.035C28.7326 22.351 29.5216 19.5817 29.0021 17.5751C28.9803 17.2251 29.0289 17.0711 29.0492 17.0269C29.0749 17.0199 29.1345 17.0081 29.2439 17.0141C30.252 17.1004 30.9282 18.2237 31.2552 20.3539C31.3295 21.1577 30.9846 22.1563 30.1688 23.4965C29.7896 24.1184 30.2392 24.9151 30.966 24.9151H36.9549C38.0476 24.9151 38.0766 26.086 37.6361 26.5632C37.4399 26.7767 37.1507 26.8839 36.7751 26.8839C36.2607 26.8839 35.8419 27.3027 35.8419 27.8172C35.8419 28.3329 36.2607 28.7506 36.7751 28.7506C37.1775 28.7506 37.2617 29.0141 37.2617 29.2358C37.2617 29.4282 37.1895 29.7526 36.7052 29.7526C36.1897 29.7526 35.772 30.1701 35.772 30.6858C35.772 31.2014 36.1897 31.6191 36.7052 31.6191C36.7927 31.6191 37.0004 31.6191 37.0004 31.9317C37.0004 32.2454 36.7927 32.2454 36.7052 32.2454C35.7909 32.2454 35.426 33.4308 36.1755 33.9463C36.4849 34.1595 36.5538 34.4934 36.5325 34.6437C33.2953 34.8411 30.0103 34.8867 26.7662 34.7827ZM46.0817 28.0005C46.0817 37.9709 37.9695 46.0817 28.0001 46.0817C18.0301 46.0817 9.91894 37.9709 9.91894 28.0005C9.91894 18.0314 18.0301 9.92063 28.0001 9.92063C37.9695 9.92052 46.0817 18.0314 46.0817 28.0005ZM7.9864 28.0005C7.9864 16.9651 16.9641 7.98655 28.0001 7.98655C39.0354 7.98655 48.0143 16.9651 48.0143 28.0005C48.0143 39.037 39.0354 48.0146 28.0001 48.0146C16.9641 48.0146 7.9864 39.0369 7.9864 28.0005ZM11.7853 28.0005C11.7853 19.0602 19.0601 11.787 28.0001 11.787C36.9406 11.787 44.2153 19.0602 44.2153 28.0005C44.2153 36.942 36.9406 44.2154 28.0001 44.2154C19.0601 44.2154 11.7853 36.942 11.7853 28.0005ZM30.1492 36.7028C28.9928 36.7028 27.8383 36.6842 26.6881 36.6479C25.9135 36.5939 25.2658 36.4408 24.6965 36.1742C24.2487 37.069 23.3237 37.6861 22.2561 37.6861H18.9224C17.419 37.6861 16.195 36.4612 16.195 34.9577V26.4431C16.195 24.9393 17.419 23.7157 18.9224 23.7157H24.0514C24.5675 23.7157 24.9846 24.1334 24.9846 24.6488V24.8378C25.0409 24.8261 25.0978 24.8132 25.1508 24.7993C27.3321 20.9567 27.4639 18.9724 27.1802 17.9809L27.1468 17.772C27.073 16.8715 27.2633 16.1785 27.7132 15.7166C27.9909 15.4308 28.5043 15.1007 29.3642 15.152C29.3696 15.152 29.3757 15.152 29.3828 15.1532C31.3788 15.3106 32.6307 16.9742 33.104 20.0982C33.1062 20.1121 33.1073 20.1272 33.109 20.1425C33.2008 21.0291 33.0176 21.96 32.524 23.0483H36.9549C39.7833 23.0483 40.6261 26.3812 38.812 28.0225C39.3029 28.8742 39.2219 30.0085 38.5671 30.7919C39.0789 31.6686 38.9311 32.8633 38.1784 33.5542C38.4173 34.0932 38.4747 34.6952 38.3041 35.2409C38.0641 36.0121 37.4261 36.4951 36.635 36.5079C34.4849 36.6374 32.3151 36.7028 30.1492 36.7028ZM28.0001 49.8812C15.9347 49.8812 6.12002 40.066 6.12002 28.0005C6.12002 15.9353 15.9347 6.12006 28.0001 6.12006C40.066 6.12006 49.8812 15.9353 49.8812 28.0005C49.8812 40.066 40.066 49.8812 28.0001 49.8812Z" fill="white"/>
</g>
<defs>
<clipPath id="clip0_188_1422">
<rect width="56" height="56" fill="white"/>
</clipPath>
</defs>
</svg>
