<svg width="32" height="32" viewBox="0 0 32 32" fill="none" xmlns="http://www.w3.org/2000/svg">
<g clip-path="url(#clip0_772_4665)">
<path fill-rule="evenodd" clip-rule="evenodd" d="M20.3585 16.5343H2.5495C2.24956 16.5343 2.00586 16.2906 2.00586 15.9906V0.543644C2.00586 0.243702 2.24956 0 2.5495 0H20.3585C20.6585 0 20.9022 0.243702 20.9022 0.543644V15.9906C20.9022 16.2906 20.6585 16.5343 20.3585 16.5343ZM17.1342 7.34856C17.3029 7.34856 17.4341 7.21734 17.4341 7.04862C17.4341 6.89865 17.3029 6.76743 17.1342 6.76743H11.0416C10.8729 6.76743 10.7417 6.89865 10.7417 7.04862C10.7417 7.21734 10.8729 7.34856 11.0416 7.34856H17.1342ZM5.83011 13.9848C5.88635 13.9848 5.96134 13.966 5.99883 13.9285L8.36087 11.9977C8.47335 11.9039 8.49209 11.7165 8.39836 11.5852C8.28588 11.4728 8.11717 11.454 7.98594 11.5477L5.83011 13.3099L5.30521 12.86C5.17399 12.7663 4.98653 12.7663 4.8928 12.8975C4.78032 13.01 4.79906 13.1974 4.93029 13.3099L5.6239 13.9098C5.68014 13.966 5.75513 13.9848 5.83011 13.9848ZM17.7903 13.9848C17.959 13.9848 18.0902 13.8535 18.0902 13.6848C18.0902 13.5349 17.959 13.4036 17.7903 13.4036H9.78559C9.63562 13.4036 9.5044 13.5349 9.5044 13.6848C9.5044 13.8535 9.63562 13.9848 9.78559 13.9848H17.7903ZM17.1342 11.9977C17.3029 11.9977 17.4341 11.8664 17.4341 11.6977C17.4341 11.529 17.3029 11.3978 17.1342 11.3978H11.0416C10.8729 11.3978 10.7417 11.529 10.7417 11.6977C10.7417 11.8664 10.8729 11.9977 11.0416 11.9977H17.1342ZM5.83011 5.06151C5.88635 5.06151 5.96134 5.04277 5.99883 4.98653L8.36087 3.0744C8.47335 2.98067 8.49209 2.7932 8.39836 2.66198C8.28588 2.53076 8.11717 2.51201 7.98594 2.62449L5.83011 4.38664L5.30521 3.93673C5.17399 3.82425 4.98653 3.843 4.8928 3.97422C4.78032 4.0867 4.79906 4.27417 4.93029 4.38664L5.6239 4.98653C5.68014 5.04277 5.75513 5.06151 5.83011 5.06151ZM17.7903 5.06151C17.959 5.06151 18.0902 4.93029 18.0902 4.76157C18.0902 4.6116 17.959 4.48037 17.7903 4.48037H9.78559C9.63562 4.48037 9.5044 4.6116 9.5044 4.76157C9.5044 4.93029 9.63562 5.06151 9.78559 5.06151H17.7903ZM5.83011 9.18571C5.88635 9.18571 5.96134 9.14821 5.99883 9.11072L8.36087 7.19859C8.47335 7.08612 8.49209 6.89865 8.39836 6.78617C8.28588 6.65495 8.11717 6.6362 7.98594 6.74868L5.83011 8.51084L5.30521 8.06093C5.17399 7.94845 4.98653 7.96719 4.8928 8.07967C4.78032 8.2109 4.79906 8.39836 4.93029 8.49209L5.6239 9.11072C5.68014 9.14821 5.75513 9.18571 5.83011 9.18571ZM17.7903 9.52314C17.959 9.52314 18.0902 9.39192 18.0902 9.2232C18.0902 9.07323 17.959 8.942 17.7903 8.942H9.78559C9.63562 8.942 9.5044 9.07323 9.5044 9.2232C9.5044 9.39192 9.63562 9.52314 9.78559 9.52314H17.7903Z" fill="white"/>
<path fill-rule="evenodd" clip-rule="evenodd" d="M29.4318 31.999H20.5085V24.6692C20.5085 24.5193 20.3773 24.388 20.2086 24.388H11.7914C11.6227 24.388 11.4915 24.5193 11.4915 24.6692V31.999H2.5495C2.24956 31.999 2.00586 31.7553 2.00586 31.4554V17.0957H29.9754V31.4554C29.9754 31.7553 29.7317 31.999 29.4318 31.999ZM19.9086 31.999H16.2906V24.9692H19.9086V31.999ZM15.7094 31.999H12.0726V24.9692H15.7094V31.999ZM8.34212 22.5509C8.51084 22.5509 8.64206 22.4197 8.64206 22.2509V18.7829C8.64206 18.6329 8.51084 18.5017 8.34212 18.5017H4.87405C4.72408 18.5017 4.59285 18.6329 4.59285 18.7829V22.2509C4.59285 22.4197 4.72408 22.5509 4.87405 22.5509H8.34212ZM5.17399 21.9698V19.0828H8.06093V21.9698H5.17399ZM14.5097 22.5509C14.6596 22.5509 14.7909 22.4197 14.7909 22.2509V18.7829C14.7909 18.6329 14.6596 18.5017 14.5097 18.5017H11.0416C10.8729 18.5017 10.7417 18.6329 10.7417 18.7829V22.2509C10.7417 22.4197 10.8729 22.5509 11.0416 22.5509H14.5097ZM11.3228 21.9698V19.0828H14.2097V21.9698H11.3228ZM20.8084 22.5509C20.9772 22.5509 21.1084 22.4197 21.1084 22.2509V18.7829C21.1084 18.6329 20.9772 18.5017 20.8084 18.5017H17.3404C17.1716 18.5017 17.0404 18.6329 17.0404 18.7829V22.2509C17.0404 22.4197 17.1716 22.5509 17.3404 22.5509H20.8084ZM17.6403 21.9698V19.0828H20.5085V21.9698H17.6403ZM27.1072 28.4372C27.2759 28.4372 27.4071 28.306 27.4071 28.156V24.6692C27.4071 24.5193 27.2759 24.388 27.1072 24.388H23.6391C23.4892 24.388 23.3579 24.5193 23.3579 24.6692V28.156C23.3579 28.306 23.4892 28.4372 23.6391 28.4372H27.1072ZM23.9391 27.8561V24.9692H26.826V27.8561H23.9391ZM8.34212 28.4372C8.51084 28.4372 8.64206 28.306 8.64206 28.156V24.6692C8.64206 24.5193 8.51084 24.388 8.34212 24.388H4.87405C4.72408 24.388 4.59285 24.5193 4.59285 24.6692V28.156C4.59285 28.306 4.72408 28.4372 4.87405 28.4372H8.34212ZM5.17399 27.8561V24.9692H8.06093V27.8561H5.17399ZM27.1072 22.5509C27.2759 22.5509 27.4071 22.4197 27.4071 22.2509V18.7829C27.4071 18.6329 27.2759 18.5017 27.1072 18.5017H23.6391C23.4892 18.5017 23.3579 18.6329 23.3579 18.7829V22.2509C23.3579 22.4197 23.4892 22.5509 23.6391 22.5509H27.1072ZM23.9391 21.9698V19.0828H26.826V21.9698H23.9391Z" fill="white"/>
<path fill-rule="evenodd" clip-rule="evenodd" d="M31.4564 16.534H21.4646V12.541H31.4564C31.7563 12.541 32 12.7847 32 13.0847V15.9903C32 16.2903 31.7563 16.534 31.4564 16.534ZM1.44347 16.534H0.543644C0.243702 16.534 0 16.2903 0 15.9903V13.0847C0 12.7847 0.243702 12.541 0.543644 12.541H1.44347V16.534Z" fill="white"/>
<path fill-rule="evenodd" clip-rule="evenodd" d="M29.3568 13.6277H23.433C23.283 13.6277 23.133 13.5527 23.0206 13.4402C22.9268 13.3278 22.8706 13.1778 22.8893 13.0278L23.8454 4.442H29.0381L29.8817 12.9528C29.9005 12.9903 29.9005 13.0466 29.9005 13.0841C29.9005 13.384 29.6568 13.6277 29.3568 13.6277ZM23.9016 3.86086L24.1453 1.74252C24.1641 1.53631 24.2953 1.34885 24.5015 1.29261L27.9134 0.0366061C28.0821 -0.0196329 28.2508 -0.000886565 28.4008 0.0740988C28.532 0.16783 28.6257 0.317801 28.6445 0.486518L28.9819 3.86086H23.9016Z" fill="white"/>
</g>
<defs>
<clipPath id="clip0_772_4665">
<rect width="32" height="32" fill="white"/>
</clipPath>
</defs>
</svg>
