<svg width="32" height="32" viewBox="0 0 32 32" fill="none" xmlns="http://www.w3.org/2000/svg">
<path d="M7.36794 15.3528C6.99718 15.7236 6.99711 16.3271 7.36794 16.6978L10.3227 19.6526C10.6943 20.0243 11.296 20.0243 11.6677 19.6526L21.1337 10.1865L16.8339 5.88672L7.36794 15.3528ZM18.1343 10.4786C18.2661 10.6104 18.2661 10.8242 18.1343 10.956L16.5421 12.5483C16.542 12.5483 16.542 12.5484 16.5419 12.5484C16.5419 12.5485 16.5419 12.5485 16.5418 12.5485C16.3168 12.7735 12.531 16.5593 12.2955 16.7948C12.2295 16.8607 12.1432 16.8937 12.0568 16.8937C11.7587 16.8937 11.6047 16.5306 11.818 16.3174L12.6409 15.4945L11.818 14.6716C11.6861 14.5398 11.6861 14.326 11.818 14.1942C11.9499 14.0624 12.1636 14.0624 12.2954 14.1942L13.1183 15.0171L14.2333 13.9021L13.4103 13.0792C13.2785 12.9473 13.2785 12.7336 13.4103 12.6018C13.5422 12.47 13.7559 12.47 13.8878 12.6018L14.7107 13.4247L15.8257 12.3097L15.0028 11.4868C14.8709 11.3549 14.8709 11.1412 15.0028 11.0094C15.1347 10.8776 15.3484 10.8776 15.4802 11.0094L16.3031 11.8322L17.6568 10.4786C17.7886 10.3468 18.0025 10.3468 18.1343 10.4786Z" fill="white"/>
<path d="M6.72282 19.1887C6.50486 19.4066 6.43585 19.7242 6.53794 20.0111L1.43226 25.1167C1.21896 25.3299 1.37297 25.693 1.67101 25.693C1.75737 25.693 1.8438 25.66 1.90977 25.5941L7.01579 20.4881C7.29358 20.5866 7.61565 20.5258 7.83759 20.3038L8.92259 19.2123L7.80991 18.0996L6.72282 19.1887Z" fill="white"/>
<path d="M15.5059 24.8359H17.5315V28.5496H15.5059V24.8359Z" fill="white"/>
<path d="M20.2317 20.4461V19.0957H15.8428V20.4461H20.2317Z" fill="white"/>
<path d="M18.8819 21.1211H17.1939C17.1939 22.123 16.4626 22.9574 15.5059 23.1186V24.1596H17.8691C18.0556 24.1596 18.2067 24.3107 18.2067 24.4972V28.886C18.2067 29.0725 18.0556 29.2236 17.8691 29.2236H15.5059V30.2365H20.57V23.1186C19.6132 22.9574 18.8819 22.123 18.8819 21.1211Z" fill="white"/>
<path d="M23.2305 9.10129L20.8152 6.68606L23.521 3.98035L24.3438 4.80323C24.4928 4.95218 24.6908 5.03415 24.9014 5.03415C25.3369 5.03415 25.6898 4.68155 25.6898 4.24577C25.6898 4.03517 25.6078 3.8372 25.4589 3.68832L23.3357 1.56511C23.0276 1.25708 22.529 1.25681 22.2208 1.56511C21.9127 1.87321 21.9125 2.37192 22.2207 2.68016L23.0436 3.50304L20.3379 6.20875L17.9226 3.79345C17.6145 3.48541 17.116 3.48514 16.8077 3.79345C16.5003 4.10087 16.5003 4.601 16.8077 4.90843C22.7863 10.8871 19.7963 7.89698 22.1156 10.2164C22.423 10.5238 22.9231 10.5238 23.2306 10.2164C23.3795 10.0675 23.4615 9.86955 23.4615 9.65895C23.4615 9.44822 23.3794 9.25025 23.2305 9.10129Z" fill="white"/>
<path d="M23.2705 24.8359H25.2961V28.5496H23.2705V24.8359Z" fill="white"/>
<path d="M4.7017 8.29403C5.63248 8.29403 6.38974 7.53678 6.38974 6.606C6.38974 5.67522 5.63248 4.91797 4.7017 4.91797C3.77092 4.91797 3.01367 5.67522 3.01367 6.606C3.01367 7.53678 3.77092 8.29403 4.7017 8.29403Z" fill="white"/>
<path d="M26.6466 21.1211H24.9585C24.9585 22.123 24.2273 22.9574 23.2705 23.1186V24.1596H25.6338C25.8202 24.1596 25.9714 24.3107 25.9714 24.4972V28.886C25.9714 29.0725 25.8202 29.2236 25.6338 29.2236H23.2705V30.2365H28.3346V23.1186C27.3778 22.9574 26.6466 22.123 26.6466 21.1211Z" fill="white"/>
<path d="M28.3348 10.9941C27.5902 10.9941 26.9844 11.5999 26.9844 12.3446C26.9844 13.0892 27.5902 13.695 28.3348 13.695C29.0794 13.695 29.6852 13.0892 29.6852 12.3446C29.6852 11.5999 29.0794 10.9941 28.3348 10.9941Z" fill="white"/>
<path d="M23.6084 20.4461H27.9973V19.0957H23.6084V20.4461Z" fill="white"/>
<path d="M11.9605 3.22962C12.2402 3.22962 12.4669 3.00289 12.4669 2.72321C12.4669 2.44352 12.2402 2.2168 11.9605 2.2168C11.6808 2.2168 11.4541 2.44352 11.4541 2.72321C11.4541 3.00289 11.6808 3.22962 11.9605 3.22962Z" fill="white"/>
<path d="M9.93512 9.30383C10.2148 9.30383 10.4415 9.07711 10.4415 8.79743C10.4415 8.51774 10.2148 8.29102 9.93512 8.29102C9.65544 8.29102 9.42871 8.51774 9.42871 8.79743C9.42871 9.07711 9.65544 9.30383 9.93512 9.30383Z" fill="white"/>
<path d="M29.1783 6.94055C29.458 6.94055 29.6847 6.71383 29.6847 6.43414C29.6847 6.15446 29.458 5.92773 29.1783 5.92773C28.8986 5.92773 28.6719 6.15446 28.6719 6.43414C28.6719 6.71383 28.8986 6.94055 29.1783 6.94055Z" fill="white"/>
<path d="M22.4263 15.046C22.706 15.046 22.9327 14.8193 22.9327 14.5396C22.9327 14.2599 22.706 14.0332 22.4263 14.0332C22.1466 14.0332 21.9199 14.2599 21.9199 14.5396C21.9199 14.8193 22.1466 15.046 22.4263 15.046Z" fill="white"/>
<path d="M30.8668 20.1085C31.1464 20.1085 31.3732 19.8818 31.3732 19.6021C31.3732 19.3224 31.1464 19.0957 30.8668 19.0957C30.5871 19.0957 30.3604 19.3224 30.3604 19.6021C30.3604 19.8818 30.5871 20.1085 30.8668 20.1085Z" fill="white"/>
<path d="M11.6226 24.1593C11.9023 24.1593 12.129 23.9326 12.129 23.6529C12.129 23.3732 11.9023 23.1465 11.6226 23.1465C11.3429 23.1465 11.1162 23.3732 11.1162 23.6529C11.1162 23.9326 11.3429 24.1593 11.6226 24.1593Z" fill="white"/>
<path d="M3.18317 16.0577C3.46285 16.0577 3.68958 15.831 3.68958 15.5513C3.68958 15.2716 3.46285 15.0449 3.18317 15.0449C2.90349 15.0449 2.67676 15.2716 2.67676 15.5513C2.67676 15.831 2.90349 16.0577 3.18317 16.0577Z" fill="white"/>
<path d="M5.88336 26.8585C6.16305 26.8585 6.38977 26.6318 6.38977 26.3521C6.38977 26.0724 6.16305 25.8457 5.88336 25.8457C5.60368 25.8457 5.37695 26.0724 5.37695 26.3521C5.37695 26.6318 5.60368 26.8585 5.88336 26.8585Z" fill="white"/>
</svg>
