<svg width="32" height="32" viewBox="0 0 32 32" fill="none" xmlns="http://www.w3.org/2000/svg">
<path d="M18.8496 22.5H30.1496C29.3231 20.1735 27.1061 18.5 24.4996 18.5C21.8931 18.5 19.6761 20.1735 18.8496 22.5Z" fill="white"/>
<path d="M20.5 2C20.5 1.7245 20.2755 1.5 20 1.5H2C1.7245 1.5 1.5 1.7245 1.5 2V2.5H20.5V2Z" fill="white"/>
<path d="M2 5.5H20C20.2755 5.5 20.5 5.2755 20.5 5V3.5H19.5V4.5H18.5V3.5H17.5V4.5H16.5V3.5H15.5V4.5H14.5V3.5H13.5V4.5H12.5V3.5H11.5V4.5H10.5V3.5H9.5V4.5H8.5V3.5H7.5V4.5H6.5V3.5H5.5V4.5H4.5V3.5H3.5V4.5H2.5V3.5H1.5V5C1.5 5.2755 1.7245 5.5 2 5.5Z" fill="white"/>
<path d="M30.4095 23.5H18.5905C18.5355 23.826 18.5 24.1585 18.5 24.5C18.5 24.8415 18.5355 25.174 18.5905 25.5H30.41C30.4645 25.174 30.5 24.8415 30.5 24.5C30.5 24.1585 30.4645 23.826 30.4095 23.5Z" fill="white"/>
<path d="M24.4996 30.5C27.1061 30.5 29.3231 28.8265 30.1496 26.5H18.8496C19.6761 28.8265 21.8931 30.5 24.4996 30.5Z" fill="white"/>
<path d="M17.8235 26.566C17.643 26.828 17.342 27 17 27H5C4.4475 27 4 26.5525 4 26V14C4 13.4475 4.4475 13 5 13H17C17.5525 13 18 13.4475 18 14V21.915C18.5115 20.637 19.3865 19.5425 20.5 18.7635V11.5C20.5 10.7175 20.126 9.9695 19.5 9.5L18.5 8.75V6.5H3.5V8.75L2.5 9.5C1.874 9.9695 1.5 10.7175 1.5 11.5V29C1.5 29.827 2.173 30.5 3 30.5H19C19.4445 30.5 19.861 30.299 20.1425 29.969C19.0585 29.1035 18.245 27.9205 17.8235 26.566ZM6.5 8H15.5C16.3285 8 17 8.6715 17 9.5C17 10.3285 16.3285 11 15.5 11H6.5C5.6715 11 5 10.3285 5 9.5C5 8.6715 5.6715 8 6.5 8Z" fill="white"/>
<path d="M6 15H9V19H6V15Z" fill="white"/>
<path d="M10.5 14.5H16.5V15.5H10.5V14.5Z" fill="white"/>
<path d="M10.5 16.5H16.5V17.5H10.5V16.5Z" fill="white"/>
<path d="M10.5 18.5H16.5V19.5H10.5V18.5Z" fill="white"/>
<path d="M5.5 24.5H6.5V25.5H5.5V24.5Z" fill="white"/>
<path d="M7.5 24.5H16.5V25.5H7.5V24.5Z" fill="white"/>
<path d="M5.5 22.5H16.5V23.5H5.5V22.5Z" fill="white"/>
</svg>
