<svg width="32" height="32" viewBox="0 0 32 32" fill="none" xmlns="http://www.w3.org/2000/svg">
<g clip-path="url(#clip0_772_4657)">
<path d="M27.3137 4.68625C24.2917 1.66431 20.2738 0 16 0C11.7262 0 7.70825 1.66431 4.68625 4.68625C1.66431 7.70831 0 11.7262 0 16C0 20.2738 1.66431 24.2917 4.68625 27.3137C7.70825 30.3357 11.7262 32 16 32C20.2738 32 24.2917 30.3357 27.3137 27.3137C30.3357 24.2917 32 20.2738 32 16C32 11.7262 30.3357 7.70831 27.3137 4.68625ZM25.7923 9.40888C26.3101 9.40888 26.7298 9.82863 26.7298 10.3464C26.7298 10.8641 26.3101 11.2839 25.7923 11.2839C25.2746 11.2839 24.8548 10.8641 24.8548 10.3464C24.8548 9.82863 25.2746 9.40888 25.7923 9.40888ZM21.6536 5.27019C22.1713 5.27019 22.5911 5.68994 22.5911 6.20769C22.5911 6.72544 22.1713 7.14519 21.6536 7.14519C21.1358 7.14519 20.7161 6.72544 20.7161 6.20769C20.7161 5.68994 21.1358 5.27019 21.6536 5.27019ZM16 3.75531C16.5177 3.75531 16.9375 4.17506 16.9375 4.69281C16.9375 5.21056 16.5177 5.63031 16 5.63031C15.4823 5.63031 15.0625 5.21056 15.0625 4.69281C15.0625 4.17506 15.4823 3.75531 16 3.75531ZM15.0625 9.23438C15.0625 8.71663 15.4823 8.29688 16 8.29688C16.5177 8.29688 16.9375 8.71663 16.9375 9.23438V15.4587L22.1224 18.4522C22.5708 18.7111 22.7244 19.2844 22.4655 19.7329C22.2919 20.0336 21.9767 20.2017 21.6528 20.2018C21.4937 20.2018 21.3325 20.1613 21.1849 20.076L15.5312 16.8119C15.2412 16.6444 15.0625 16.3349 15.0625 16V9.23438ZM10.3464 5.27019C10.8641 5.27019 11.2839 5.68994 11.2839 6.20769C11.2839 6.72544 10.8641 7.14519 10.3464 7.14519C9.82863 7.14519 9.40888 6.72544 9.40888 6.20769C9.40888 5.68994 9.82863 5.27019 10.3464 5.27019ZM22.9956 26.0575C20.9471 27.4836 18.4945 28.2445 15.9957 28.2445C15.6551 28.2445 15.3138 28.2304 14.9724 28.2019C12.0914 27.9613 9.38006 26.7041 7.33794 24.662C5.36263 22.6868 4.11419 20.0679 3.82262 17.2879C3.53544 14.5496 4.18169 11.7684 5.64237 9.45669C5.919 9.019 6.498 8.88844 6.93569 9.16494C7.37337 9.44156 7.504 10.0206 7.22744 10.4583C4.66031 14.5209 5.26437 19.9369 8.66375 23.3363C10.6741 25.3466 13.3296 26.3797 16.0033 26.3798C18.0613 26.3799 20.1297 25.7681 21.9242 24.5187C22.3493 24.2228 22.9335 24.3276 23.2293 24.7524C23.5251 25.1774 23.4205 25.7616 22.9956 26.0575ZM25.7923 22.5911C25.2746 22.5911 24.8548 22.1713 24.8548 21.6536C24.8548 21.1358 25.2746 20.7161 25.7923 20.7161C26.3101 20.7161 26.7298 21.1358 26.7298 21.6536C26.7298 22.1714 26.3101 22.5911 25.7923 22.5911ZM27.3072 16.9375C26.7894 16.9375 26.3697 16.5177 26.3697 16C26.3697 15.4823 26.7894 15.0625 27.3072 15.0625C27.8249 15.0625 28.2447 15.4823 28.2447 16C28.2447 16.5177 27.8249 16.9375 27.3072 16.9375Z" fill="white"/>
</g>
<defs>
<clipPath id="clip0_772_4657">
<rect width="32" height="32" fill="white"/>
</clipPath>
</defs>
</svg>
