<svg width="32" height="32" viewBox="0 0 32 32" fill="none" xmlns="http://www.w3.org/2000/svg">
<path fill-rule="evenodd" clip-rule="evenodd" d="M15.9997 1.33398C7.8995 1.33398 1.33301 7.90048 1.33301 16.0007C1.33301 24.1008 7.8995 30.6673 15.9997 30.6673C24.0998 30.6673 30.6663 24.1008 30.6663 16.0007C30.6663 7.90048 24.0998 1.33398 15.9997 1.33398ZM11.9997 8.00065C11.2633 8.00065 10.6663 8.59761 10.6663 9.33398V22.6673C10.6663 23.4037 11.2633 24.0007 11.9997 24.0007C12.7361 24.0007 13.333 23.4037 13.333 22.6673V18.6673H15.9997C16.1673 18.6673 16.3334 18.6596 16.4974 18.6443L18.8071 23.2636C19.1365 23.9223 19.9373 24.1892 20.5959 23.8599C21.2546 23.5305 21.5215 22.7297 21.1922 22.0711L19.0213 17.7291C20.417 16.7679 21.333 15.1589 21.333 13.334C21.333 10.3885 18.9451 8.00065 15.9997 8.00065H11.9997ZM15.9997 16.0007H13.333V10.6673H15.9997C17.4725 10.6673 18.6663 11.8612 18.6663 13.334C18.6663 14.5172 17.8949 15.5236 16.8241 15.8712C16.5661 15.9549 16.2895 16.0007 15.9997 16.0007Z" fill="white"/>
</svg>
