<svg width="20" height="20" viewBox="0 0 20 20" fill="none" xmlns="http://www.w3.org/2000/svg">
<path d="M17.2806 17.0175V1.25H4.51219V2.3575H15.8019C15.9744 2.3575 16.1144 2.4975 16.1144 2.67V17.0175H17.2806Z" fill="white"/>
<path d="M10.4266 5.54291H10.8459V4.88135H7.36313V5.54291H7.7825H10.4266Z" fill="white"/>
<path d="M12.05 16.519V15.7324C11.1634 15.8802 10.1588 15.9621 9.10469 15.9621C8.05063 15.9621 7.04594 15.8802 6.15938 15.7324V16.519C6.39532 16.6252 7.12907 16.8509 9.10469 16.8509C11.0803 16.8509 11.8141 16.6252 12.05 16.519Z" fill="white"/>
<path d="M12.0144 9.56078C11.9216 9.03609 11.6359 8.55484 11.2059 8.22953C10.5575 7.73922 10.1572 6.97641 10.1172 6.16797H8.09187C8.05219 6.97609 7.65156 7.73922 7.00312 8.22953C6.57312 8.55484 6.2875 9.03609 6.19469 9.56078C7.06062 9.71047 8.055 9.79328 9.10437 9.79328C10.1537 9.79328 11.1487 9.71047 12.0144 9.56078Z" fill="white"/>
<path d="M12.05 15.0989V10.188C11.1656 10.3361 10.1609 10.418 9.10469 10.418C8.04844 10.418 7.04375 10.3361 6.15938 10.188V15.0989C7.03563 15.2524 8.04344 15.3367 9.10469 15.3367C10.1659 15.3367 11.1738 15.2524 12.05 15.0989ZM8.79219 14.1267V13.213H7.87844C7.70594 13.213 7.56594 13.073 7.56594 12.9005C7.56594 12.728 7.70594 12.588 7.87844 12.588H8.79219V11.6742C8.79219 11.5017 8.93219 11.3617 9.10469 11.3617C9.27719 11.3617 9.41719 11.5017 9.41719 11.6742V12.588H10.3309C10.5034 12.588 10.6434 12.728 10.6434 12.9005C10.6434 13.073 10.5034 13.213 10.3309 13.213H9.41719V14.1267C9.41719 14.2992 9.27719 14.4392 9.10469 14.4392C8.93219 14.4392 8.79219 14.2992 8.79219 14.1267Z" fill="white"/>
<path d="M2.71938 18.7499H15.4897V2.98242H2.71938V18.7499ZM5.53406 9.92555C5.53406 9.06836 5.94219 8.24773 6.62625 7.73086C7.11906 7.35836 7.42281 6.78117 7.46219 6.16805H7.32813C7.00281 6.16805 6.73813 5.90336 6.73813 5.57805V4.84617C6.73813 4.52086 7.00281 4.25617 7.32813 4.25617H10.8809C11.2063 4.25617 11.4709 4.52086 11.4709 4.84617V5.57805C11.4709 5.90336 11.2063 6.16805 10.8809 6.16805H10.7469C10.7863 6.78117 11.09 7.35836 11.5828 7.73086C12.2666 8.24805 12.675 9.06836 12.675 9.92555V16.6915C12.675 16.7655 12.6488 16.8374 12.6006 16.894C12.4844 17.0305 11.8894 17.4762 9.10469 17.4762C6.32 17.4762 5.725 17.0305 5.60875 16.894C5.56063 16.8374 5.53438 16.7655 5.53438 16.6915L5.53406 9.92555Z" fill="white"/>
</svg>
