<svg width="20" height="20" viewBox="0 0 20 20" fill="none" xmlns="http://www.w3.org/2000/svg">
<path d="M17.2806 17.0175V1.25H4.51221V2.3575H15.8019C15.9744 2.3575 16.1144 2.4975 16.1144 2.67V17.0175H17.2806Z" fill="#2B4294"/>
<path d="M10.4266 5.54291H10.846V4.88135H7.36316V5.54291H7.78253H10.4266Z" fill="#2B4294"/>
<path d="M12.05 16.519V15.7324C11.1635 15.8802 10.1588 15.9621 9.10474 15.9621C8.05067 15.9621 7.04599 15.8802 6.15942 15.7324V16.519C6.39536 16.6252 7.12911 16.8509 9.10474 16.8509C11.0804 16.8509 11.8141 16.6252 12.05 16.519Z" fill="#2B4294"/>
<path d="M12.0144 9.56078C11.9216 9.03609 11.636 8.55484 11.206 8.22953C10.5575 7.73922 10.1572 6.97641 10.1172 6.16797H8.09189C8.0522 6.97609 7.65158 7.73922 7.00314 8.22953C6.57314 8.55484 6.28751 9.03609 6.1947 9.56078C7.06064 9.71047 8.05502 9.79328 9.10439 9.79328C10.1538 9.79328 11.1488 9.71047 12.0144 9.56078Z" fill="#2B4294"/>
<path d="M12.05 15.0989V10.188C11.1657 10.3361 10.161 10.418 9.10474 10.418C8.04849 10.418 7.0438 10.3361 6.15942 10.188V15.0989C7.03567 15.2524 8.04349 15.3367 9.10474 15.3367C10.166 15.3367 11.1738 15.2524 12.05 15.0989ZM8.79224 14.1267V13.213H7.87849C7.70599 13.213 7.56599 13.073 7.56599 12.9005C7.56599 12.728 7.70599 12.588 7.87849 12.588H8.79224V11.6742C8.79224 11.5017 8.93224 11.3617 9.10474 11.3617C9.27724 11.3617 9.41724 11.5017 9.41724 11.6742V12.588H10.331C10.5035 12.588 10.6435 12.728 10.6435 12.9005C10.6435 13.073 10.5035 13.213 10.331 13.213H9.41724V14.1267C9.41724 14.2992 9.27724 14.4392 9.10474 14.4392C8.93224 14.4392 8.79224 14.2992 8.79224 14.1267Z" fill="#2B4294"/>
<path d="M2.71936 18.7499H15.4897V2.98242H2.71936V18.7499ZM5.53405 9.92555C5.53405 9.06836 5.94217 8.24773 6.62624 7.73086C7.11905 7.35836 7.4228 6.78117 7.46217 6.16805H7.32811C7.0028 6.16805 6.73811 5.90336 6.73811 5.57805V4.84617C6.73811 4.52086 7.0028 4.25617 7.32811 4.25617H10.8809C11.2062 4.25617 11.4709 4.52086 11.4709 4.84617V5.57805C11.4709 5.90336 11.2062 6.16805 10.8809 6.16805H10.7469C10.7862 6.78117 11.09 7.35836 11.5828 7.73086C12.2665 8.24805 12.675 9.06836 12.675 9.92555V16.6915C12.675 16.7655 12.6487 16.8374 12.6006 16.894C12.4844 17.0305 11.8894 17.4762 9.10467 17.4762C6.31999 17.4762 5.72499 17.0305 5.60874 16.894C5.56061 16.8374 5.53436 16.7655 5.53436 16.6915L5.53405 9.92555Z" fill="#2B4294"/>
</svg>
