<svg width="13" height="16" viewBox="0 0 13 16" fill="none" xmlns="http://www.w3.org/2000/svg">
<path d="M0 15.7675H12.7703V0H0V15.7675ZM2.81469 6.94312C2.81469 6.08594 3.22281 5.26531 3.90688 4.74844C4.39969 4.37594 4.70344 3.79875 4.74281 3.18563H4.60875C4.28344 3.18563 4.01875 2.92094 4.01875 2.59562V1.86375C4.01875 1.53844 4.28344 1.27375 4.60875 1.27375H8.16156C8.48688 1.27375 8.75156 1.53844 8.75156 1.86375V2.59562C8.75156 2.92094 8.48688 3.18563 8.16156 3.18563H8.0275C8.06688 3.79875 8.37063 4.37594 8.86344 4.74844C9.54719 5.26562 9.95563 6.08594 9.95563 6.94312V13.7091C9.95563 13.7831 9.92938 13.855 9.88125 13.9116C9.765 14.0481 9.17 14.4937 6.38531 14.4937C3.60063 14.4937 3.00563 14.0481 2.88938 13.9116C2.84125 13.855 2.815 13.7831 2.815 13.7091L2.81469 6.94312Z" fill="white"/>
</svg>
