<svg width="20" height="20" viewBox="0 0 20 20" fill="none" xmlns="http://www.w3.org/2000/svg">
<path d="M1.365 1.365C2.58287e-07 2.743 0 4.9465 0 9.36V10.14C0 14.547 2.58287e-07 16.7505 1.365 18.135C2.743 19.5 4.9465 19.5 9.36 19.5H10.14C14.547 19.5 16.7505 19.5 18.135 18.135C19.5 16.757 19.5 14.5535 19.5 10.14V9.36C19.5 4.953 19.5 2.7495 18.135 1.365C16.757 2.58287e-07 14.5535 0 10.14 0H9.36C4.953 0 2.7495 2.58287e-07 1.365 1.365ZM3.28914 5.93468H5.52514C5.59664 9.65272 7.23464 11.2257 8.53461 11.5507V5.93468H10.6341V9.13922C11.9146 9.00272 13.2666 7.54018 13.7216 5.92818H15.8146C15.644 6.76263 15.3031 7.55292 14.8132 8.24969C14.3234 8.94638 13.6951 9.53463 12.9676 9.97772C13.7795 10.3817 14.4964 10.9533 15.0711 11.6547C15.6459 12.3561 16.0655 13.1713 16.3021 14.0467H13.9946C13.5006 12.5062 12.2656 11.3102 10.6341 11.1477V14.0467H10.3806H10.3741C5.92814 14.0467 3.39314 11.0047 3.28914 5.93468Z" fill="#2B4294"/>
</svg>
